<svg version="1" xmlns="http://www.w3.org/2000/svg" width="696" height="696" viewBox="0 0 522 522"><path d="M247.5.9c-.3.6-2.1 1.1-4 1.1s-3.7.4-4 1c-.3.5-1.7 1-3 1s-2.7.4-3 1c-.3.5-1.5 1-2.6 1-1 0-1.9.4-1.9.9s-.8 1.1-1.7 1.4c-2.7.8-7.6 4-9.4 5.9-.9 1-2.1 1.8-2.7 1.8-1.2 0-18.9 17.3-21.5 21-2.1 3-2.2 5-.2 5 .8 0 1.5.4 1.5 1 0 .5 1.7 1 3.8 1 3.2 0 4.1-.5 5.3-2.8 1.6-3.1 9.2-10.9 14.7-14.9 2-1.6 4.6-3.6 5.6-4.6 1.1-.9 2.6-1.7 3.3-1.7.7 0 1.3-.3 1.3-.8 0-.4 1.5-1.3 3.3-2 1.7-.7 4-1.8 4.9-2.3 1-.5 2.7-.9 3.7-.9 1.1 0 2.2-.4 2.5-.9 1.9-3 33.6-3 33.6 0 0 1.2 11.7 1.1 12.5-.1.3-.6 1.5-1 2.6-1 1.8 0 5.8-2.8 4.8-3.3-.2-.1-1.4-.8-2.6-1.5-1.3-.6-3.2-1.2-4.2-1.2-1.1 0-2.3-.5-2.6-1-.3-.6-1.9-1-3.6-1-1.6 0-2.9-.4-2.9-.9 0-2-32.3-4.1-33.5-2.2z"/><path d="M197 9c-1.4.4-4.3.8-6.4.9-9.5.2-26.7 8.1-34.3 15.7-5.6 5.6-9.3 11.3-9.3 14.4 0 1.1-.4 2-1 2-.5 0-1 1.3-1 2.9 0 1.7-.4 3.3-1 3.6-.5.3-1 3.3-1 6.6 0 3.2.5 6.8 1 7.9 4.7 9.4 5.2 10.1 9.3 14.1 3 3 3.7 4.5 3.7 7.6 0 3.8 1.5 8.9 3.8 13 1.6 2.9 9.5 8.3 12.1 8.3 1.2 0 2.1.4 2.1 1 0 .5 1.3 1 2.9 1h2.9l-.3-8.2c-.5-9.3-1.1-13.2-2.8-16.8-1.4-3-5.7-7-7.5-7-.7 0-2-.4-3-.9-.9-.5-3.8-1.9-6.4-3.1-2.6-1.3-5-3.1-5.3-4.1-.4-1.1-1.1-1.9-1.6-1.9-1.2 0-1.2-13.5 0-15.8.5-.9 1.7-3.7 2.7-6.2 2-4.9 14.3-18 16.9-18 .8 0 1.5-.5 1.5-1 0-.6.7-1 1.5-1s2.3-.4 3.3-.9c4.3-2.2 9.5-3.1 17.5-3.1 8.7 0 9.5-.3 14.2-4.8.8-.6 1.6-1.2 2-1.2.7 0 3.5-2.6 3.5-3.3 0-.2-2.1-.7-4.7-1-2.7-.3-6.6-.8-8.8-1.1-2.2-.3-5.1-.1-6.5.4zm-28.8 74c.7 1.6 1.6 3 2 3 .5 0 .8 1.1.8 2.5s-.4 2.5-1 2.5c-.5 0-1-.7-1-1.5s-.4-1.5-.9-1.5c-.8 0-4.1-6-4.1-7.4 0-1.9 3-.1 4.2 2.4zm134.3-72c-.3.5-1.5 1-2.6 1-1 0-2.7.4-3.7.9-1.7.9-5.8 2.6-10.2 4.4-1.4.5-3.6 1.6-5 2.4-1.4.8-3.3 1.7-4.2 2-1 .3-1.8.9-1.8 1.4 0 .5-.6.9-1.2.9-.7 0-2.6 1.1-4.2 2.5s-3.3 2.5-3.8 2.5c-.4 0-.8.9-.8 2s.4 2 .9 2 1.6.6 2.3 1.2c3.4 3.2 8.8 5 8.8 3 0-.5 1.2-1.5 2.8-2.3 1.5-.8 2.9-1.6 3.2-1.9.3-.3 3.7-2 7.5-3.9 3.9-1.8 7.8-3.7 8.7-4.2 1-.5 2.7-.9 3.8-.9 1.1 0 2-.5 2-1 0-.6 1.5-1 3.3-1 1.8 0 3.8-.5 4.4-1.1 1.9-1.9 26.5.1 27.9 2.2.3.5 1.4.9 2.5.9 1 0 1.9.4 1.9 1 0 .5.9 1 2 1s2 .4 2 1c0 .5.6 1 1.3 1 .7 0 3.3 1.8 5.7 4 3.5 3.2 5 3.9 6.9 3.5 1.3-.3 3.6-.9 5.2-1.2 4-.8 3.6-2.4-1.4-6.9-6.8-6.1-7.8-6.8-15.2-10.3-3.9-1.8-7.8-3.7-8.7-4.2-1-.5-2.9-.9-4.2-.9-1.4 0-2.8-.5-3.1-1-.4-.6-7-1-16.5-1s-16.1.4-16.5 1z"/><path d="M235 19c0 .5-.9 1-2 1s-2 .3-2 .8c0 .4-1.3 1.3-3 2-3.4 1.6-4 4.1-1 4.9 1.1.3 2 .9 2 1.4 0 .5.9.9 2 .9s2 .4 2 1c0 .5.9 1 2 1s2 .4 2 1c0 .5.9 1 2 1s2 .4 2 1c0 .5.9 1 2 1s2 .4 2 .9.8 1.1 1.8 1.4c1.8.6 7.3 3.8 8.2 4.7.3.3 2.1 1.7 4 3s3.7 2.7 4 3c.3.3 2.1 1.7 4 3 5.6 3.9 18 16.4 18 18.2 0 .9.5 1.8 1.1 2 1.5.5 1.6 16 .2 19-.6 1.3-2.2 4.7-3.5 7.5-1.2 2.9-2.6 5.3-3 5.3-1.2 0-1-4.8.2-5.5.6-.3 1-3.3 1-6.6s-.4-5.9-1-5.9c-.5 0-1-.7-1-1.5 0-1.5-2-4.3-5.1-7.4-3.3-3.2-7.9-7.1-8.4-7.1-.3 0-.5 2.2-.5 4.9 0 2.8-.4 5.3-1 5.6-.5.3-1 2.1-1 4s-.4 3.7-1 4c-.5.3-1 1.7-1 3.1 0 1.3.5 2.4 1 2.4.6 0 1 .9 1 2s.5 2 1 2c.6 0 1 .6 1 1.4 0 .7 1.2 2.2 2.8 3.2 5.3 3.5 6.4 6 4.3 10.2-.5.9-1.4 2.9-2.1 4.4-2 4.1-6.9 8.8-9.4 8.8s-13.5-12-13.6-14.8c0-.6-.3-1.2-.8-1.2-.9 0-2.6-3.9-4.3-9.8-.9-3.2-.9-4.8-.1-6.8.7-1.3 1.2-3.3 1.2-4.3 0-2 3.9-5.1 6.4-5.1.8 0 3.2-1 5.4-2.1 3.8-2 6.2-5.3 6.2-8.4 0-.7.4-1.5.9-1.7.4-.2 1.1-3.1 1.4-6.6.6-6.9-.7-8.7-4.4-6.4-1 .7-2.8 1.2-3.9 1.2-2.5 0-8.9 3.5-11.5 6.3-2.7 3-4.5 8.4-4.5 13.8-.1 4.4-2.3 8.9-3.7 7.5-1.2-1.2-.6-15 .6-15.4.6-.2 1.1-1.2 1.1-2.3 0-1 .5-1.9 1-1.9.6 0 1-.6 1-1.3 0-1.8 11.1-12.1 14.8-13.8 1.8-.7 3.4-1.9 3.6-2.5.5-1.4-4.8-6.4-6.8-6.4-.8 0-1.7-.6-2-1.3-.5-1-.7-1-1.2 0-.3.7-1.1 1.3-1.7 1.3-.7 0-2.5 1.1-4.1 2.5-1.6 1.3-3.7 2.7-4.7 3-1.1.4-1.9 1.1-1.9 1.6s-.9.9-1.9.9c-1.1 0-2.3.4-2.6 1-.3.5-3.5 1-7 1s-6.7-.5-7-1c-.3-.6-1.7-1-3.1-1-1.3 0-2.4-.3-2.4-.8 0-.9-7.2-3.2-10-3.2-1.1 0-2-.5-2-1 0-.6-1.3-1-3-1-1.6 0-3-.5-3-1 0-.6-1.1-1-2.4-1-1.4 0-2.7-.4-3-.9-.3-.5-2-1.1-3.8-1.4-1.8-.3-5.3-1.1-7.8-1.7-8.3-2.1-11.8-2.3-13.5-.7-.8.9-1.5 2.3-1.5 3.1 0 .9-.4 1.6-.9 1.6s-1.1.8-1.5 1.7c-.3 1-.8 2.3-1.2 3-.3.7 1.3 1.3 4.8 1.7 9.7 1 14.3 1.8 15.2 2.7.6.5 2.5.9 4.3.9 1.8 0 3.3.4 3.3 1 0 .5.9 1 2 1 1.7 0 3.9 1 11 5.2 10.3 5.9 18.4 16.2 24.1 30.3 2.4 6 6.9 20.5 6.9 22.3 0 1.1.5 2.4 1 2.7.6.3 1 2.6 1 5s.5 4.7 1 5c.6.3 1 4.4 1 9.1 0 9.1-.8 10.1-4.8 6.4-1.2-1.1-2.4-2-2.6-2-.6 0-3.4-2.2-7.8-6.2-1.6-1.5-3.8-3-4.9-3.3-1-.4-1.9-1-1.9-1.4 0-.5-1.3-1.4-3-2.1-1.6-.7-3-1.6-3-2.1s-.9-.9-1.9-.9c-1.1 0-2.1-.3-2.3-.8-.4-.8-11.6-6.4-16.8-8.3-1.9-.7-3.9-1.6-4.4-2.1-.6-.4-2-.8-3.2-.8-1.3 0-2.6-.5-2.9-1-.3-.6-1.9-1-3.6-1-1.6 0-2.9-.5-2.9-1 0-.6-1.7-1-3.8-1-2.1 0-4.2-.4-4.8-.9-1.6-1.6-11.2-2.3-29.4-2.3s-27.8.7-29.4 2.3c-.6.5-2.5.9-4.2.9-1.8 0-3.6.4-3.9 1-.3.5-1.5 1-2.6 1-1 0-2.7.4-3.7.9-.9.5-3 1.4-4.7 2.1-1.6.7-3.8 1.6-4.7 2.1-1 .5-2.5.9-3.3.9-.8 0-1.5.4-1.5 1 0 .5-.5 1-1 1-2.1 0-16.3 10.3-16.7 12.1-.3 1.1-.9 1.9-1.4 1.9-.5 0-.9 3.6-.9 8s.4 8 .8 8c.5 0 2.4-1.8 4.3-4s4-4 4.7-4c.6 0 1.2-.5 1.2-1 0-.6.6-1 1.3-1 .7 0 1.9-.9 2.7-2 .8-1.1 2.2-2 3.2-2s1.8-.3 1.8-.8c0-.8 4.9-3.2 6.7-3.2.7 0 1.3-.5 1.3-1 0-.6.9-1 2-1s2-.5 2-1c0-.6 1.1-1 2.4-1 1.4 0 2.8-.5 3.1-1 .3-.6 1.7-1 3-1s2.6-.4 2.9-.9c.3-.5 2-1.1 3.8-1.4 1.8-.4 5.8-1.2 8.8-1.8 3-.7 12.9-1.2 22-1.2s19 .5 22 1.2c3 .6 7 1.4 8.8 1.8 1.8.3 3.5.9 3.8 1.4.3.5 1.6.9 3 .9 1.3 0 2.4.4 2.4.8 0 .5 2.3 1.5 5 2.2 2.8.7 5 1.7 5 2.2 0 .4.6.8 1.4.8 1.3 0 9.4 3.8 10.6 5 .3.3 1.7 1.1 3.3 1.9 1.5.8 2.7 1.8 2.7 2.3 0 .4.6.8 1.3.8 1.2 0 3 1.4 11.3 9.2 4.9 4.4 11.4 11.8 11.4 12.8 0 .6.5 1 1 1 .6 0 1 .7 1 1.5s.4 1.5.8 1.5c.5 0 1.6 1.6 2.5 3.5.9 2 2.4 3.8 3.2 4.1.8.4 1.5 1.7 1.5 3s.5 3.3 1 4.4c.6 1.1 1.5 2.9 2 4 .6 1.1 1 2.6 1 3.4 0 .8.5 1.6 1.1 1.8.8.3.8 1-.2 2.6-1.1 1.7-1.1 2.4-.1 3.4 1.5 1.5 1.6 9 0 10.6-2.8 2.8-10.2.1-15.2-5.6-.6-.7-1.7-1.9-2.3-2.7-1.9-2-1.6-7 .7-11 2.9-5.1 2.6-10.4-1-16.8-1.6-3-3-6.4-3-7.5 0-3.2-2.6-3.4-4.6-.4-1 1.5-2.4 3.3-3.1 4.1-.8.7-1.7 2.6-2 4.2-.3 1.6-1 3.2-1.4 3.5-1.2.7-1.1 9.4.1 9.4.6 0 1 .9 1 2s.5 2 1 2c.6 0 1 .6 1 1.3 0 .8.9 2.2 2 3.2 2.4 2.2 2.6 3.5.5 3.5s-13.5-11.7-15.9-16.2l-2-3.7 2.7-5.5c2.7-5.5 3.4-11.2 1.8-14.4-.5-.9-1.9-4-3.1-6.7-1.2-2.8-2.6-5.8-3.1-6.7-.5-1-.9-2.5-.9-3.3 0-.8-.2-1.5-.5-1.5-.9 0-6.9 6.5-8.4 9.1-4.3 7.5-6.6 16.9-4.1 16.9.6 0 1 .7 1 1.6 0 1.9 3.4 6.9 7 10.4 3.9 3.7 4.5 6 1.5 6-1.3 0-2.7-.5-3-1-.3-.6-1.6-1-2.8-1-1.2 0-2.8-.9-3.5-2-.7-1.1-2.3-2-3.6-2-1.4 0-2.8-.5-3.1-1-.3-.6-1.9-1-3.5-1-1.5 0-3-.6-3.3-1.3-.3-.9-1.1-.9-3.4-.1-2.5.9-3.4.8-5.4-.7-1.6-1.2-4.1-1.9-7.4-1.9-2.8 0-5.5-.4-6-.9-.6-.5-6.8-1.2-14-1.5-19-.9-27.9-1.7-28.9-2.7-.6-.5-2.1-.9-3.4-.9-3.2 0-5.2-2.2-5.2-5.9 0-1.6-.4-3.3-1-3.6-.5-.3-1-1.3-1-2.2 0-1.8-6.8-8.3-8.7-8.3-.7 0-1.3-.5-1.3-1 0-.6-.6-1-1.3-1-.7 0-2.3-.9-3.6-2.1-3.8-3.5-5.1-1.9-5.1 6.5 0 5.6.5 8.4 2.1 11.4 2.6 4.7 8.4 8.2 14 8.2 3.2 0 3.9.4 3.9 1.9 0 1.6-1 2-5.7 2.5-10.7 1.2-20.3.4-20.3-1.5 0-.5-.7-.9-1.5-.9-2 0-8.5-6.5-8.5-8.5 0-.8-.4-1.5-.9-1.5-1 0-2.2-7.1-2.3-14-.2-7 1.2-13.1 4.3-19.2.5-1 .9-2.5.9-3.3 0-.8.5-1.5 1-1.5.6 0 1-.8 1-1.8s.9-2.4 2-3.2c1.1-.8 2-1.9 2-2.5 0-1.2 7.2-8.5 8.3-8.5 1.6 0 5.7-5 5.7-6.9 0-1.1.5-2.3 1-2.6.6-.3 1-1.5 1-2.6 0-1 .5-2.8 1.2-3.9.7-1 .9-2.2.6-2.6-.7-.6-7.1 2.6-7.6 3.8-.2.5-1 .8-1.8.8s-1.4.4-1.4 1c0 .5-.5 1-1 1-.6 0-2.1 1-3.4 2.2-1.3 1.3-3.2 3-4.2 3.9C54 100.8 47 109.4 47 110.7c0 .7-.4 1.3-1 1.3-.5 0-1 .7-1 1.5s-.3 1.5-.8 1.5c-.4 0-1.3 1.5-2 3.2-.7 1.8-1.8 4.1-2.3 5-.5 1-.9 2.6-.9 3.6s-.4 2.2-.9 2.7c-2.9 3.1-2.9 32.5 0 32.5.5 0 .9.9.9 2s.5 2.9 1 4c.6 1.1 1.4 2.9 2 4 1.3 2.6 1.3 18 0 18-.5 0-1 .6-1 1.4 0 .7-1.3 2.7-3 4.4-1.6 1.8-3 3.7-3 4.3 0 .6-1.3 2.4-3 3.9-1.6 1.5-3 3.2-3 3.7s-1.8 2.9-4 5.3-4 4.8-4 5.3c0 .4-.9 1.7-2 2.9s-2 3.6-2 5.2c-.1 2.9-.1 3-1.3 1.1-1.7-2.8-1.6-22.1.2-26.3.7-1.7 2-3.2 2.9-3.2 1.7 0 4.1 2.8 4.2 5 0 .8.7 2.4 1.5 3.4 1.5 1.9 1.5 1.9 4-.4 3-2.8 3.2-6.1.6-11.5-3.4-7-4.2-12.6-2.7-18.2 1.4-5.1 4-10.6 6.3-13 1.1-1.2 1-17.9-.1-19.1-.7-.6-2.8 1.8-4.5 5-.8 1.6-1.8 2.8-2.3 2.8-.4 0-.8.9-.8 2s-.4 2-.8 2c-.5 0-1.4 1.6-2.2 3.5-.8 1.9-1.7 3.5-2.1 3.5-.4 0-1.3 2-2 4.5s-1.7 4.5-2.1 4.5c-.4 0-.8.7-.8 1.5s-.4 2.4-1 3.5c-.5 1.1-1.4 2.9-2 4-.5 1.1-1 3.1-1 4.5s-.4 2.5-1 2.5c-.5 0-1 1.5-1 3.4s-.4 3.7-.9 4C5 197.3 5 234 8.1 234c1.8 0 .8 3.8-1.1 4.3-1.2.3-2 1.4-2 2.5 0 1.2-.4 2.4-1 2.7-.5.3-1 2.4-1 4.6 0 2.1-.4 3.9-1 3.9s-1 4-1 10 .4 10 1 10 1 1.1 1 2.5.4 3.3.9 4.3c.5.9 1.7 3.4 2.6 5.5.9 2 2.7 4.8 4 6.2 1.4 1.3 2.5 2.8 2.5 3.3s1.9 3 4.2 5.5c2.4 2.5 5.4 5.8 6.6 7.3l2.4 2.8 1.9-2.5c2.6-3.3 1.6-7.4-3-11.8-4.5-4.3-9.7-11.9-8.7-12.8.3-.3.6-.1.6.5 0 .7.9 1.2 2 1.2 1.3 0 2-.7 2-2 0-1.1.3-2 .8-2 .4 0 1.5-1.7 2.4-3.8 2.8-6.2 3.4-6.8 5-5.1.7.8 2.5 3 3.8 4.9 1.3 1.9 3.7 4.7 5.2 6.2 3.2 2.9 3.7 5.8 1.1 5.8-1.7 0-4.3 4-4.3 6.7 0 .7-.4 1.3-1 1.3-.5 0-1 1.1-1 2.4 0 1.4-.4 2.8-1 3.1-.5.3-1 1.5-1 2.6 0 1-.4 1.9-1 1.9-.5 0-1 .7-1 1.5 0 1.5-.4 2.5-2.8 7.2-.7 1.3-1.2 3.2-1.2 4.2 0 1.1-.5 2.3-1 2.6-1.9 1.2-1.2 7.9 1 9.5 2.4 1.7 2.6 3 .5 3-.8 0-1.5-.4-1.5-1 0-.5-1-1.9-2.2-3.2-2.6-2.6-6.2-9.7-7.4-14.3-.4-1.7-.8-6.7-.8-11.2 0-6.2-.3-8.3-1.3-8.3-.7 0-1.3-.6-1.3-1.4 0-.8-.7-1.7-1.6-2-2.3-.9-2.4-.8-2.4 1.2 0 1-.5 2.3-1.1 2.9-1.6 1.6.4 23.3 2.2 23.3.5 0 .9 1.1.9 2.4 0 1.4.5 2.8 1 3.1.6.3 1 1.5 1 2.6 0 1 .5 1.9 1 1.9.6 0 1 .6 1 1.4 0 .8 2.2 3.7 5 6.5 5.5 5.6 6 6.6 3 5.6-1.9-.6-2-.2-2 5.4 0 3.4.4 6.9.9 7.9.5.9 1.5 3.8 2.3 6.4.7 2.7 1.6 4.8 2 4.8.4 0 .8.9.8 2s.4 2 .8 2 1.6 1.4 2.5 3c1 1.7 4.5 5.7 7.8 9.1 3.2 3.3 5.7 6.5 5.4 7-.9 1.4 3.5 14 7.8 22.4 3.2 6.3 4.2 8 4.7 8.5.3.3 1.7 2.1 3 4 2.8 4 8 9.8 12.9 14.3 1.8 1.8 5.7 5.5 8.5 8.2 2.8 2.8 6.7 6.1 8.6 7.5 1.9 1.3 3.7 2.7 4 3 .9.9 6.4 4.1 8.2 4.7 1 .3 1.8.9 1.8 1.2 0 .4 3.3 2.2 7.3 4 3.9 1.8 8 3.7 8.9 4.2 1 .5 2.7.9 3.7.9 1.1 0 2.2.4 2.5.9 1.3 2.1 28.1 4 29.9 2.2.6-.6 2.1-1.1 3.3-1.1 1.2 0 2.4-.7 2.8-1.5.8-2.3-1.1-6.5-3.1-6.6-4.3-.2-8.8.3-9.1 1.2-.5 1.2-8.9 1.2-9.7-.1-.3-.6-1.7-1-3-1-6.8 0-21.5-12.6-21.5-18.5 0-.8-.4-1.5-1-1.5-.5 0-1-1.1-1-2.4 0-1.4-.4-2.8-1-3.1-.5-.3-1-1.9-1-3.6 0-1.6-.4-2.9-1-2.9-.5 0-1-1.3-1-2.9 0-1.7-.4-3.3-1-3.6-.5-.3-1-1.7-1-3.1 0-1.3-.4-2.4-1-2.4-.5 0-1-.9-1-1.9 0-1.1-.4-2.3-1-2.6-.5-.3-1-1.5-1-2.6 0-1-.3-1.9-.8-1.9-.4 0-1.4-1.5-2.1-3.3-1.9-4-10.1-12.1-14.6-14.3-3.2-1.5-3.6-1.5-5.1.1-1.4 1.4-1.5 2.1-.6 3.6.7 1 1.2 2.6 1.2 3.4 0 .8.6 1.5 1.4 1.5 2 0 10.6 8.4 10.6 10.4 0 .9.5 1.6 1 1.6.6 0 1 .9 1 1.9 0 1.1.3 2.1.8 2.3 1.2.5 5.2 13.3 5.2 16.7 0 1.7.5 3.1 1 3.1.6 0 1 2.2 1 5 0 7.3-1.6 6.9-11.7-2.5-2.3-2.2-4.3-4.6-4.3-5.3 0-.6-.3-1.2-.8-1.2-.4 0-1.3-1.5-2-3.2-.8-1.8-1.7-4.2-2.2-5.3-2.5-6-3.9-22.9-3.2-38.2.3-7.8.2-11.3-.6-11.3-.6 0-1.3-.9-1.7-1.9-.3-1.1-1.4-2.2-2.3-2.4-1.3-.4-1.1-.5.5-.6 1.2 0 2.8.6 3.7 1.4.8.8 1.9 1.5 2.3 1.5.5 0 1.8.8 2.9 1.8 1 1 3.5 2.9 5.4 4.2 4.7 3.3 20 18.9 20 20.4 0 .6.9 1.8 2 2.6s2 2.2 2 3.1c0 1 .3 1.9.8 2.1 1 .4 5.2 8.7 5.2 10.4 0 .8.5 1.4 1 1.4.6 0 1 .9 1 1.9 0 1.1.5 2.3 1 2.6.6.3 1 1.7 1 3.1 0 1.3.5 2.4 1 2.4.6 0 1 1.1 1 2.4 0 1.4.5 2.8 1 3.1.6.3 1 1.5 1 2.6 0 1 .5 1.9 1 1.9.6 0 1 .6 1 1.3 0 .7.9 3.2 2 5.5 1.1 2.2 2 4.6 2 5.2 0 .5.5 1 1 1 .6 0 1 .7 1 1.5s.5 1.5 1 1.5c.6 0 1 .7 1 1.6 0 4.5 9.2 8.3 12 4.9.9-1.1.8-2.1-.7-4.7-1-1.8-2.1-3.5-2.5-3.6-.5-.2-.8-1.2-.8-2.3 0-1-.4-1.9-1-1.9-.5 0-1-.7-1-1.5s-.4-2.4-1-3.5c-.5-1.1-1.4-2.9-2-4-.5-1.1-1-2.9-1-3.9 0-1.1-.4-2.3-1-2.6-.5-.3-1-1.9-1-3.5s-.4-3.2-1-3.5c-.5-.3-1-2.1-1-4s-.4-3.7-1-4c-1.6-1-1.2-8.5.6-10.2 1.5-1.5 2.1-1.1 7.2 4.3 3.2 3.3 7.3 7.1 9.2 8.4 1.9 1.3 4.2 3.2 5.1 4.2.9 1 2.1 1.8 2.8 1.8.6 0 1.1.4 1.1 1 0 .5.7 1 1.5 1s1.5.4 1.5.9.8 1.1 1.8 1.4c1.7.6 7.2 3.7 8.2 4.7.3.3 1.9 1.1 3.5 1.9 1.7.7 3.8 1.7 4.7 2.2 1 .5 2.7.9 3.7.9 1.1 0 2.2.4 2.5.9.7 1 6 1.9 15.4 2.7l6.2.6v-3.7c0-5.1-1.6-6.2-9.6-6.8-9.2-.7-14.4-1.7-14.4-2.8 0-.5 2-.9 4.5-.9 5.3 0 7.1-.9 13.8-7 8.5-7.8 10.1-9.4 12.2-12.2 2.5-3.6 5.5-3.7 5.5-.4 0 1.4.5 2.8 1 3.1.6.3 1 1.5 1 2.6 0 1 .4 2.7.9 3.7.5.9 1.5 3.2 2.1 4.9 1.5 4 3.2 4.1 6.8.8 2.3-2.2 2.5-2.8 1.4-4.5-.6-1.1-1.2-2.7-1.2-3.5 0-.8-.4-2.3-.9-3.3-.5-.9-1.4-5-2-9-1.5-10 .8-19.2 4.9-19.2 1.7 0 6 3.1 6 4.4 0 .6.9 1.8 2 2.6s2 1.9 2 2.5c0 2.3 27.6 30.5 29.8 30.5.5 0 2.3 1.4 4 3 1.8 1.7 3.7 3 4.3 3 1.6 0 3.8-3.1 3.9-5.3 0-1.8-4.2-6.7-5.8-6.7-1.2 0-17.5-16.1-19.1-19-.8-1.4-1.9-3.4-2.5-4.5-.6-1.1-1.3-2.2-1.6-2.5-3.4-3.1-4.6-23.5-1.6-26.5.9-.9 1.6-2.1 1.6-2.6s.7-.9 1.5-.9 1.5-.5 1.5-1c0-.6.9-1 1.9-1 2.5 0 8.1 5.6 8.1 8 0 1 .5 2.2 1 2.5.6.3 1 2.8 1 5.5s-.4 5.2-1 5.5c-.5.3-1 1.7-1 3 0 2.3-3.9 10.7-5.2 11.3-2.5 1.1 2.1 8.2 5.2 8.2.9 0 2.3-1.2 3.1-2.8.8-1.5 1.6-2.9 1.9-3.2.3-.3 1.4-2.2 2.5-4.3 1.1-2 2.5-3.7 3.2-3.7.7 0 1.3-.4 1.3-.8 0-.5 1.2-1.5 2.8-2.3 1.5-.8 3-1.8 3.3-2.3 1.3-1.7 4.9 1.6 5.9 5.5 1.2 4.2.6 15.2-1 19.9-.4 1.4-1.9 6-3.1 10.2-1.3 4.3-2.7 7.8-3.1 7.8-.5 0-.8.9-.8 2s-.4 2-.9 2c-.7 0-4.1 5.9-4.1 7.2 0 1 3.6 4.5 5.2 5.1 1.9.7 5.8-2.7 5.8-5 0-.7.3-1.3.8-1.3.8 0 3.2-4.9 3.2-6.7 0-.7.5-1.3 1-1.3.6 0 1-.9 1-2s.5-2 1-2c.6 0 1-1.1 1-2.4 0-1.4.4-2.7.9-3 .5-.3 1.2-2.2 1.5-4.1.3-1.9.9-5 1.2-6.9.9-4.9 3.9-5.4 6.7-1.1 2.8 4.3 5.2 4.9 7.7 2.2 2.8-3 2.5-4.6-2-9.6-2.1-2.4-4.4-6.3-5.1-8.7-.8-2.4-1.6-4.4-2-4.4-.4 0-.9-1.2-1.2-2.7-.3-1.6-.9-4-1.2-5.5-.9-3.6 1.3-5.8 5.9-5.8 4.5 0 9.8 3 15.3 8.6 4 4 4.3 4.7 4.3 9.9 0 3-.4 5.5-.8 5.5s-1.5 1.2-2.4 2.8c-.9 1.5-5.1 6.3-9.2 10.7-4.2 4.4-7.6 8.6-7.6 9.2 0 .7-.4 1.3-1 1.3-.5 0-1 .9-1 2s-.4 2-1 2c-.5 0-1 .8-1 1.9 0 1.8 2.5 3.1 6.1 3.1 2 0 5.9-3.3 5.9-4.9 0-.7.6-1.9 1.3-2.6.6-.8 2.6-3.2 4.2-5.4 1.7-2.2 3.7-4.3 4.5-4.6.8-.3 3.3-2.1 5.5-4s4.5-3.5 5.2-3.5c.7 0 1.3-.4 1.3-.8 0-1.9 10.4-5.7 15.5-5.7 6.4 0 8.5 1.8 8.5 7.3 0 3.5-.7 4.8-5.3 9.6-2.9 3.1-5.7 5.6-6.2 5.6-.6 0-1.9.7-2.9 1.5-1.6 1.2-1.7 1.7-.6 3 1.4 1.7 11 2.2 11 .5 0-.6.7-1 1.6-1 .8 0 2.1-.6 2.9-1.2.7-.7 3.2-2.8 5.5-4.7 2.3-1.9 7.1-6.3 10.7-9.8 5.6-5.4 6.7-6.1 7.9-4.8 1.6 1.6 1.8 5.5.5 9.9-.5 1.7-1.4 5-2 7.3-2.7 10.5-3.4 12.9-4.2 14.5-.5 1-.9 2.5-.9 3.3 0 .8-.4 2.3-.9 3.3-.5.9-1.3 2.8-1.9 4.2-1.7 4.2-6.1 13.3-8 16.4-2.1 3.7-11.8 13.6-13.2 13.6-1.3 0-15 13.7-15 15.1 0 .7.8.9 2.3.4 1.2-.4 3.4-.9 5-1.2 1.5-.3 3-.9 3.3-1.4.3-.5 1.4-.9 2.5-.9 1 0 1.9-.5 1.9-1 0-.6.8-1 1.8-1s2.4-.9 3.2-2c.8-1.1 1.9-2 2.5-2 1.5-.1 5.7-4 8.5-8 4-5.7 7.2-8.7 7.7-7.3.6 1.5 3.5 1.7 7.7.4 1.7-.5 5.1-1.5 7.6-2.1 10.7-2.9 23.2-8.7 28.4-13.3 1.1-.9 2.6-1.7 3.3-1.7.7 0 1.3-.4 1.3-.8s1.3-1.5 2.8-2.4c6.9-4.1 31.2-28.1 31.2-30.8 0-.6.5-1 1-1 .6 0 1-.5 1-1 0-.6.9-2 2-3.2 1.1-1.2 2-2.8 2-3.5 0-.7.5-1.3 1-1.3.6 0 1-.9 1-2s.5-2 1-2c.6 0 1-.9 1-2s.5-2 1-2c.6 0 1-.9 1-1.9 0-1.1.4-2.2.9-2.5 1-.7 1.9-4.6 2.9-12.6.5-4.2 1.1-5.4 2.3-5.2 1.5.2 9.9-8 9.9-9.8 0-.6.5-1 1-1 .6 0 1-.7 1-1.5s.5-1.5 1-1.5c.6 0 1-.9 1-2s.5-2 1-2c.6 0 1-.9 1-2s.5-2 1-2c.6 0 1-1.3 1-2.9 0-1.7.5-3.3 1-3.6.6-.3 1-4.8 1-9.8 0-9 .1-9.3 3-11.7 1.7-1.4 3-3.3 3-4.2 0-1 .3-1.8.8-1.8 1.3 0 4.5-8.9 6.2-17.6 1.5-7.5.6-16.8-2.2-23.4-.6-1.4-1.4-3.4-1.8-4.5-2.6-6.6-3.6-8.5-4.2-8.5-.5 0-.8-.9-.8-2s-.3-2-.8-2c-.4 0-1.5-1.8-2.5-4-1.8-4.3-3-4.8-5.3-2.5-1.7 1.6-2.2 9.4-.7 10.4.5.3 2.3 3.5 4.1 7.1 2.9 5.7 3 6.5 1.5 6.9-1.9.4-10.3 8.8-10.3 10.3 0 1.2-2.6 3.8-3.8 3.8-.4 0-.7-1.4-.4-3 .5-3.2-1.4-9-2.9-9-.5 0-.9-.9-.9-2s-.4-2-1-2c-.5 0-1-.7-1-1.5 0-.9-.9-2.5-2-3.7-2.1-2.3-2.7-4.8-1-4.8.6 0 1 .6 1 1.4 0 .8.7 1.7 1.6 2 1.7.7 8.4-5.7 8.4-8.1 0-.7.4-1.3.8-1.3.5 0 1.5-1.2 2.3-2.7.8-1.6 2.1-3.5 2.9-4.3.8-.8 2.1-2.7 2.9-4.3.8-1.5 1.8-2.7 2.3-2.7.4 0 .8-.5.8-1.1 0-.6.8-2.3 1.9-3.7 2.8-4 3.5-8.6 1.7-10.5-.9-.9-1.6-2.3-1.6-3.1 0-.9-.3-1.6-.6-1.6-1.1 0-3.4 2.9-3.4 4.3 0 .9-.3 1.7-.7 1.9-1 .4-4.2 5.7-5 8-.7 2.3-2.3 2.3-2.3.2 0-.9-.8-2.4-1.8-3.3-1-.9-2.9-3.2-4.2-5.1-1.4-1.9-3.5-4.5-4.7-5.8-1.3-1.3-2.3-2.8-2.2-3.5 0-.9.2-.9.6 0 .8 2.1 4.3 1.5 4.3-.7 0-1.1.3-2 .8-2 .9 0 3.2-4.9 3.2-6.9.1-1.7 2.3-5.1 3.4-5.1.3 0 .6.7.6 1.6 0 .8 1.8 3.3 4 5.5s4 4.4 4 4.8c0 .5 1.4 2.4 3.1 4.2 3.9 4.2 6.9 9.3 6.9 11.9 0 1 .5 2.2 1 2.5.6.3 1 5.2 1 11s-.4 10.7-1 11c-1.4.9-1.3 5.6.3 8.8 1.3 2.9 4.7 3.7 4.7 1.2 0-.8.4-2.3.9-3.3 3.2-6.3 4.3-21.9 2-29.1-2.4-7.3-5.3-14.1-6-14.1-.4 0-.9-1.1-1.1-2.5-.3-1.3-.1-2.3.5-2.2 2.9.6 4.1-20.6 1.9-32.3-.7-3.6-1.6-8-1.9-9.8-.3-1.7-.9-3.2-1.4-3.2-.5 0-.9-1.1-.9-2.4 0-1.4-.4-2.8-1-3.1-.5-.3-1-1.5-1-2.6 0-1-.4-1.9-1-1.9-.5 0-1-.6-1-1.4 0-1.9-6-13.6-8.2-16-1-1.1-1.8-2.3-1.8-2.8 0-2.3-17.9-20.1-26-25.8-1.9-1.3-4.1-3-4.8-3.7-.6-.6-2.1-1.5-3.2-1.8-1.1-.3-2-1-2-1.4 0-.5-1.3-1.4-3-2.1-1.6-.7-3-1.6-3-2.1s-1.3-.9-3-.9c-2.8 0-3 .2-3 4 0 2.2-.4 4-1 4-.5 0-1 1.2-1 2.7 0 2.1.7 3.1 2.7 4 1.5.7 3.3 1.3 4 1.3.7 0 1.3.4 1.3 1 0 .5.9 1 2 1s2 .4 2 .9.8 1.1 1.8 1.4c1.8.6 7.3 3.8 8.2 4.7.3.3 2.1 1.7 4 3 7.9 5.5 18 18.1 18 22.6 0 .8.4 1.4.9 1.4 2.8 0 2.8 24.8 0 26.6-.5.3-.9 1.6-.9 3 0 1.3-.4 2.4-1 2.4-.5 0-1 1.1-1 2.3 0 1.3-2.3 6.8-5.1 12.3-3.5 6.9-5.1 11.1-5 13.8v3.8l-2.8-3.8c-3.9-5.6-5.1-10-5.1-18.6 0-5.9-.4-8-1.9-9.6-1-1.2-2.3-2.2-2.9-2.2-.6 0-1.2-.6-1.5-1.3-.2-.6-.8-.8-1.3-.4-1.2 1.2-.7 23.1.6 23.5.5.2 1 1.7 1 3.3 0 1.6.5 2.9 1 2.9.6 0 1 .9 1 2s.5 2 1 2c.6 0 1 .9 1 1.9 0 1.1.4 2.1.8 2.3 1.5.6 5.4 6.9 4.7 7.6-.4.4-1 .1-1.2-.6-1.3-3.5-4.3 1.8-4.3 7.6 0 2-.4 5.3-1 7.2-1.5 5.1 1.4 19.9 5.2 26.8 2 3.7 2.3 5.2.8 5.2-.5 0-1-.7-1-1.5 0-2.2-3.1-1.8-3.7.5-.3 1.1-.9 2-1.4 2-.5 0-.9.9-.9 1.9 0 1.1-.4 2.3-1 2.6-.5.3-1 1.7-1 3s-.4 2.6-.9 2.9c-1.3.9-2.1 15.6-1.1 21.6 1.3 8 2 11.2 3 13.5.5 1.1 1.1 3.6 1.4 5.5.8 5.9 1.8 9.5 3 10.2 1.2.8-2 3.7-4.1 3.8-.7 0-1.3.4-1.3 1 0 .5-.9 1-2 1s-2 .4-2 1c0 .5-.7 1-1.6 1-2.8 0-4.5 2.8-4.2 6.7.2 3.2.6 3.7 2.3 3.5 2.9-.5 7.5-2.6 7.5-3.4 0-.5.6-.8 1.3-.8.7 0 2.3-.9 3.5-2 3.1-2.9 4.8-2.5 2.7.6-1.5 2.3-1.5 3.6-.5 11 1.1 8.2.8 11-1 9.9-.5-.3-4 1-7.8 3-3.8 1.9-7.7 3.5-8.6 3.5-.9 0-1.6.4-1.6 1 0 .5-1.3 1-3 1-1.6 0-3 .4-3 1 0 .5-1.1 1-2.4 1-1.3 0-4.4 1-6.8 2.2-4.7 2.5-14.8 12.3-14.8 14.4 0 .8-.4 1.4-1 1.4-.5 0-1 .7-1 1.5s-.4 2.3-.9 3.3c-1.7 3.3-3 6.7-3.6 9.7-.9 4.3-2.5 12.5-3.2 16.3-.3 1.8-.9 3.5-1.4 3.8-.5.3-.9 1.6-.9 3 0 1.3-.4 2.4-1 2.4-.5 0-1 .6-1 1.2 0 2.3-4.4 6.3-9.5 8.7-2.7 1.3-5.8 2.8-6.7 3.3-1 .4-2.6.8-3.7.8s-2.1.6-2.4 1.2c-.2.7-.8 1-1.2.6-.6-.6 2.1-7.2 6.6-16 .5-1 .9-2.7.9-3.8 0-1.1.5-2 1-2 .6 0 1-.9 1-2s.4-2.9 1-4c.5-1.1 1.4-2.9 2-4 .5-1.1 1-2.9 1-4s.5-2 1-2c.6 0 1-.9 1-2s.5-2 1-2c.6 0 1-.6 1-1.4 0-1.6 6.2-14 7.2-14.4.5-.2.8-.9.8-1.6 0-.7 1.4-2.7 3-4.4 1.7-1.8 3-3.5 3-4 0-1.2 12.1-13.5 16-16.2 5.8-4 9.2-7.4 10.1-9.9 1.5-3.8 2.4-1.5 2.1 5.5-.2 3.5 0 7.3.3 8.4.8 2.6 5.6 2.7 8 0 1.6-1.8 1.7-3 .7-15.7-1-13.3-.3-21.6 2.1-23.9.4-.4.7-1.6.7-2.6s.5-1.8 1-1.8c.6 0 1-.6 1-1.3 0-.7.9-2.3 2-3.5 2.6-2.8 2.9-11.2.4-11.2-1.6 0-5.4 3.6-5.4 5.1 0 .4-.6 1.4-1.3 2.1-1.2 1.3-5.2 9.2-6.8 13.3-1.3 3.5-2.1 7.9-2.6 14.3-.4 5.6-.7 6.2-2.4 5.7-1.1-.4-3.1.2-4.8 1.4-1.6 1.2-3.4 2.1-4 2.1-.6 0-1.1.4-1.1.9s-.8 1.1-1.7 1.4c-1.8.6-7.3 3.7-8.3 4.7-1.7 1.7-15.3 8.6-18.6 9.4-16.9 4.1-21.7 4.2-30.9.6-1.1-.5-2.9-1.1-4-1.6-2.1-.7-9.4-2.1-16-3.1-2.2-.3-4.4-.9-4.9-1.4-.6-.5-2-.9-3.3-.9-1.3 0-2.3-.5-2.3-1 0-.6-.9-1-2-1s-2-.5-2-1c0-.6-.8-1-1.8-1s-2.4-.9-3.2-2c-.8-1.1-2-2-2.6-2-1.8 0-18.4-16.8-18.4-18.6 0-.2-.9-1.4-2-2.6-1.1-1.2-2-2.8-2-3.5 0-.7-.4-1.3-.8-1.3-.5 0-1.4-1.6-2.2-3.5-.8-1.9-1.7-3.5-2.2-3.5-.4 0-.8-.9-.8-1.9 0-1.1-.4-2.3-1-2.6-.5-.3-1-1.5-1-2.6 0-1-.4-1.9-1-1.9-.5 0-1-1.1-1-2.4 0-1.4-.4-2.8-1-3.1-.5-.3-1-1.9-1-3.5s-.4-3.1-.9-3.4c-2.5-1.6-3.4-35.1-1.3-49.1.7-4.4 1.5-9.8 1.8-12 .4-2.2 1-4.4 1.5-4.9.5-.6.9-2.9.9-5.3s.4-4.3.8-4.3c.5 0 2-2.1 3.3-4.8 1.3-2.6 2.7-4.9 3.2-5 .4-.2.7-1.2.7-2.3 0-1 .5-1.9 1-1.9.6 0 1-1.1 1-2.5s.4-2.5 1-2.5c.5 0 3.3-2.4 6.2-5.3 8.2-8 11-9 18.7-6.6 7.9 2.5 8.1 2.8 8.1 8.6 0 3 .5 6.4 1.1 7.5 1.8 3.4 14.2 14.9 15.5 14.4 2.2-.8 4.4-17 2.5-18.9-.6-.6-1.1-1.8-1.1-2.6 0-2.2-6.9-8.1-9.6-8.1-1.3 0-2.4-.5-2.4-1 0-.6-.9-1-2-1s-2-.3-2-.8c0-.4-1-1.2-2.1-1.7-3.3-1.5-2.5-2.9 2.3-3.8 5.9-1 8.4-.2 12.7 4.1 4.1 4.1 7.3 6.2 9.6 6.2.8 0 1.5.4 1.5 1s3.5 1 8.6 1c4.7 0 9.4.5 10.5 1 1.5.9 2.1.7 2.6-.6.3-.9.2-2.4-.4-3.3-.5-.9-1.6-2.7-2.4-4.1-.8-1.3-1.8-3-2.4-3.6-.5-.7-2.1-2.6-3.5-4.3-1.4-1.7-3-3.1-3.7-3.1-.7 0-1.3-.3-1.3-.8 0-1-7.3-3.2-10.5-3.2-1.4 0-3.3.4-4.3.9-3.8 1.9-9.1 3.1-14 3.1-2.9 0-5.2-.3-5.2-.6 0-1.1 2.9-3.4 4.3-3.4.8 0 2.2-.9 3.2-2s3.1-2 4.6-2c1.5 0 3.1-.5 3.4-1 .3-.6 1.5-1 2.6-1 1 0 1.9-.5 1.9-1 0-.6 1.1-1 2.4-1 1.4 0 2.8-.5 3.1-1 1.5-2.4 22.5-.3 22.5 2.2 0 .5.6.8 1.3.8 1.9 0 8.7 6.5 8.7 8.4 0 .9.5 1.6 1 1.6 2.4 0 .7 5-3 8.9-3.1 3.2-4 5-4 7.6 0 1.9.5 3.5 1 3.5.6 0 1 1.3 1 3 0 1.6.5 3 1 3 .6 0 1 1.1 1 2.4 0 1.4.5 2.8 1 3.1.6.3 1 1.5 1 2.6 0 1 .2 1.9.5 1.9 1 0 9.5-8.9 9.5-10 0-.5.5-1 1-1 .6 0 1-.9 1-1.9 0-1.1.5-2.3 1-2.6.6-.3 1-2.1 1-4s-.4-3.7-1-4c-.5-.3-1-1.4-1-2.3 0-1-.9-2.4-2-3.2-1.9-1.4-2.8-5-1.2-5 .4 0 2.1 1.2 3.7 2.6 7.2 6.1 8.3 7 10.4 8.2 2.7 1.6 16.4 1.8 16.9.2.2-.5 1-1 1.8-1 1.7 0 3.1-1 8.5-6.1 4.8-4.5 4.9-5.9.5-5.9-1.9 0-3.8-.5-4.1-1-.3-.6-1.5-1-2.6-1-1 0-1.9-.5-1.9-1 0-.6-1.1-1-2.4-1-1.4 0-2.8-.5-3.1-1-.8-1.2-7.9-1.3-10.3-.1-9.1 4.6-13.8 4.8-17.9.4-1.6-1.6-4.4-4-6.3-5.3-1.9-1.3-4.2-3.2-5.1-4.2-.9-1-2.3-1.8-3.2-1.8-1.2 0-2.7-1.9-2.7-3.5 0-.1 5.7-.5 12.8-.9 14.7-.7 35.4 1.3 36.8 3.5.3.5 1.6.9 3 .9 1.3 0 2.4.4 2.4 1 0 .5.7 1 1.6 1 1.7 0 13.7 6.1 14.2 7.2.2.5 1 .8 1.8.8s5 3.6 9.4 8c8.2 8.3 10.9 9.3 11.2 4.1.2-4.6-.3-7.3-1.7-8.8-4-3.9-4.2-15.2-.4-25.5 3.2-8.8 2.5-12.2-3.7-18.4-4.2-4.2-6.4-4.4-6.4-.5 0 2.8-4.1 9.9-6.6 11.4-.7.4-1.9 1.3-2.6 2.1-1.5 1.5-6.7 2.8-11.3 2.8-4.5 0-15.8-1.7-17.2-2.5-2.5-1.5-1.3-2.7 2.7-2.7 9.7 0 15-7.1 15-20 0-4.4-.4-8-.8-8-.5 0-1.7.9-2.7 2-1 1.1-2.4 2-3.2 2-.7 0-1.3.4-1.3 1 0 .5-.7 1-1.6 1-3.1 0-10.4 6-10.4 8.4 0 .9-.4 1.6-1 1.6-.5 0-1 1.5-1 3.4 0 3.9-2.8 6.6-6.7 6.6-1.2 0-2.4.4-2.7.9-.5.8-7.4 1.3-33.4 2.8-6.2.3-11.5 1-11.8 1.4-.3.5-2.7.9-5.4.9s-5.2.4-5.5 1c-.3.5-1.9 1-3.6 1-1.6 0-2.9.4-2.9 1 0 .5-1.3 1-3 1-1.6 0-3 .4-3 1 0 .5-1.1 1-2.5 1s-2.9.8-3.5 2c-.8 1.4-2.1 2-4.5 2-1.9 0-3.5.4-3.5 1 0 .5-.9 1-2 1s-2 .4-2 1c0 .5-.9 1-2 1s-2-.2-2-.4c0-.3 2.2-2.7 4.9-5.4 4.3-4.4 5-5.6 5.6-10.5.4-3 .4-7 0-8.8-.7-3.7-4.6-12.2-5.7-12.7-.5-.2-.8-1-.8-1.9 0-1.8-2.5-4.5-3.4-3.6-.3.4-.6 2.1-.6 4 0 1.8-.4 3.3-.9 3.3s-1.1.8-1.4 1.7c-.6 1.8-3.7 7.3-4.7 8.3-1.7 1.7-3 5.5-3 8.5 0 4 2.1 11.5 3.2 11.5 1.2 0 1 4.9-.3 7.2-1.8 3.3-9.7 10.8-11.4 10.8-2.2 0-1.9-.6 2.5-5.1 3.7-3.8 4-4.5 4-9.8 0-5.4-1.7-11.1-3.2-11.1-.5 0-.8-.7-.8-1.5 0-.9-1.1-2.7-2.5-4.1-2.1-2.1-2.9-2.3-4-1.4-.8.7-1.5 2.1-1.5 3.1 0 1.1-.4 1.9-1 1.9-.5 0-1 .9-1 2s-.4 2-1 2c-.5 0-1 .9-1 2s-.4 2-1 2c-1.2 0-1.4 9.7-.2 10.2.4.1 1.8 1.7 3 3.5 2.3 3.3 2.9 6.3 1.2 6.3-.5 0-1 .7-1 1.5 0 .9-1.6 3.1-3.5 5s-4.1 3.5-5 3.5c-.8 0-1.5.4-1.5.9 0 .6-1.7 1.1-3.7 1.3-3.6.3-3.8.5-4.1 4.3-.2 2.2-.8 4.4-1.3 4.9-.5.6-.9 2-.9 3.2 0 1.3-.4 2.6-1 2.9-.5.3-1 1.5-1 2.6 0 1-.4 1.9-1 1.9-.5 0-1 .9-1 2s-.4 2-1 2c-.5 0-1 .9-1 2s-.4 2-1 2c-.5 0-1 1.3-1 3 0 1.6-.4 3-1 3-.5 0-1 1.8-1 4s-.4 4-1 4-1 3.3-1 8 .4 8 1 8 1 1.8 1 3.9c0 2.2.5 4.3 1 4.6.6.3 1 1.7 1 3.1 0 1.3.5 2.4 1 2.4.6 0 1 .9 1 2s.4 2 .8 2c.5 0 1.5 1.2 2.3 2.7.8 1.6 2.2 3.6 3.3 4.6 1.1.9 1.6 2 1.2 2.4-.8.9-7.6-6.2-7.6-8 0-.7-.4-1.7-.8-2.3-1.7-1.8-4.3-9.7-5.8-17.3-1.1-6.1-1.2-9.1-.3-15.1.6-4.1 1.5-8.5 2-9.8.5-1.2 1.4-3.4 2-5 .6-1.5 1.5-3.5 2-4.4.5-1 .9-2.5.9-3.3 0-.8.5-1.5 1-1.5.6 0 1-1.1 1-2.5s.5-2.5 1-2.5c.6 0 1-1 1-2.3 0-1.3.5-2.8 1.1-3.4.6-.6 1.2-5.1 1.4-9.9.1-4.9.8-11.2 1.4-13.9.7-2.8 1.5-6.7 1.8-8.7.3-2 1.4-4.4 2.4-5.4 1-.9 1.9-2.5 1.9-3.5s.5-2.1 1-2.4c.6-.3 1-1.5 1-2.6 0-1 .4-1.9.8-1.9.5 0 1.5-1.2 2.3-2.8.7-1.5 4.4-5.8 8.1-9.6 3.7-3.8 6.8-7.5 7-8.4.3-1.6 1.4-2.3 6.6-4.4 1.7-.7 3.2-1.6 3.2-2 0-.5.7-.8 1.5-.8s1.5-.5 1.5-1c0-.6.6-1 1.4-1 .8 0 1.6-.3 1.8-.8.4-1 16.7-9.2 18.3-9.2.7 0 1.5-.3 1.7-.8.4-1 13-5.2 15.6-5.2 1.2 0 2.3-.4 2.6-.9 1.5-2.4 33.3-3.3 44.6-1.2 3.6.6 8 1.4 9.8 1.7 1.7.4 3.2 1 3.2 1.5 0 1.4 5 1 6.6-.5 1.9-1.9 1.9-11.3 0-13.2-.8-.8-3-1.4-4.8-1.4-1.9 0-3.8-.4-4.4-.9-3.1-3-52.7-3-55.8 0-.6.5-2.7.9-4.7.9-2.1 0-4.1.4-4.4 1-.3.5-1.6 1-2.7 1-2.9 0-15.4 4.2-21 7.1-1 .5-2.5.9-3.3.9-.8 0-1.5.3-1.5.8 0 .4-1.7 1.5-3.7 2.4-4 1.8-9.5 4.9-10.3 5.8-.9 1.1-6.8 5-7.4 5-1.6 0-.2-2.6 3.4-6.7l4-4.6v-10.3c0-9.7-.1-10.4-2-10.4-1.1 0-2 .4-2 .8 0 .5-1.2 1.5-2.7 2.3-3.7 1.9-7.3 5.5-7.3 7.3 0 .8-.5 1.6-1.2 1.8-1.6.6-1.4 14.3.2 16.2.7 1 .8 1.6 0 2.1-.5.3-1 1.4-1 2.4 0 .9-.8 2.6-1.7 3.7-1 1-2.4 3.1-3.2 4.6-.8 1.6-2.3 2.8-3.4 2.8-1.7 0-1.8-.6-1.5-6.3.2-3.4.8-7 1.2-8 .6-1.2.4-1.7-.7-1.7-1.5 0-1.2-4.6.4-5.6.5-.3.9-1.6.9-2.9 0-1.3.5-2.7 1-3 .6-.3 1-1.7 1-3s.5-2.7 1-3c.6-.3 1-1.3 1-2.1 0-1.8 8.5-10.4 10.3-10.4.7 0 1.7-.4 2.2-.9.6-.5 5.4-1.4 10.8-2 8.1-.8 10.5-1.5 13.3-3.6 1.9-1.4 3.4-3.3 3.4-4.1 0-.7.5-1.4 1-1.4.6 0 1-.9 1-1.9 0-1.1.5-2.3 1-2.6.6-.3 1-1.7 1-3.1 0-1.3.5-2.4 1-2.4.6 0 1-.9 1-2s.5-2 1-2c.6 0 1-.5 1-1 0-.6-1.3-1-3-1-1.6 0-3 .4-3 1 0 .5-1.5 1-3.4 1-7.3 0-17.1 7-18.3 13.1-.3 1.7-1.5 3.6-2.7 4.4-3 2-12.5 3.5-13.3 2.2-.4-.6-.1-1.3.5-1.5.7-.2 1.2-1.2 1.2-2.3 0-1 .5-1.9 1-1.9.6 0 1-.9 1-2s.4-2 .8-2c.5 0 1.4-1.1 2-2.5 1.8-3.9 8.7-11.7 13.7-15.5 3.4-2.5 14.2-8 15.9-8 .9 0 1.6-.5 1.6-1 0-.6 1.3-1 2.9-1 1.7 0 3.2-.4 3.5-.9.3-.5 2.3-1.1 4.3-1.5 24.4-3.7 29.1-4 36.9-2.7 3.8.7 8 1.7 9.4 2.3 6.5 2.8 7.8 3.4 12 6.2 4.2 2.8 14.1 12.2 17.2 16.3.7 1 2.3 2.4 3.5 3 2.7 1.5 12.3 1.7 12.3.3 0-.6-.4-1-.9-1s-1.4-1.4-2.1-3c-.7-1.7-1.5-3-1.9-3-.4 0-1.5-1.4-2.4-3-3.8-6.4-20.2-21-23.6-21-.6 0-1.1-.3-1.1-.8 0-.8-4.9-3.2-6.7-3.2-.7 0-1.3-.5-1.3-1 0-.6-1.3-1-3-1-1.6 0-3-.4-3-.9 0-1.2-7.8-2.3-16-2.3-7 0-17.4 1.3-25.5 3.2-7.6 1.8-16.5 2.4-16.5 1.1 0-.6-.7-1.1-1.5-1.1-1.7 0-4.6-2.7-8.6-8-5.6-7.4-6.4-8-10.8-8-3.6 0-7.2 1.1-9 2.6-.3.2 2.3 3.1 5.7 6.3 3.4 3.3 6.2 6.6 6.2 7.5 0 .9.5 1.6 1 1.6.6 0 1 .7 1 1.5 0 2-6.5 8.5-8.5 8.5-.8 0-1.5.4-1.5 1s-3.1 1-7.4 1c-6.2 0-8.2-.5-13.3-3.1-3.3-1.7-7.5-4.4-9.4-6-1.9-1.6-4-2.9-4.6-2.9-.7 0-1.3-.4-1.3-.8 0-.5-1.2-1.5-2.7-2.3-1.6-.8-3.5-2.1-4.3-2.9-.8-.8-2.7-2.1-4.2-2.9-1.6-.8-2.8-1.8-2.8-2.3 0-.4-.6-.8-1.3-.8-.7 0-2.2-.8-3.3-1.8-2.5-2.2-7.4-5.2-9.6-5.9-1-.3-1.8-.9-1.8-1.4 0-.5-.9-.9-1.9-.9-1.1 0-2.3-.5-2.6-1-.3-.6-1.3-1-2.1-1s-1.4.4-1.4 1zm17 51.8c0 .9-7.5 9.2-8.4 9.2-1.5 0-.3-2.9 2.7-6.3 2.9-3.3 5.7-4.8 5.7-2.9zm79 13.8c0 .4-1.2 1.7-2.7 3-2.8 2.4-7.3 3.3-7.3 1.4 0-.6.6-1 1.3-1 .8 0 2.2-.9 3.3-1.9 1.8-1.9 5.4-2.8 5.4-1.5zm-54.7 11.2c1.2 2.4.2 5.2-2.1 6-.8.2-1.2-1.3-1.2-5.1 0-5.3 1.2-8.7 1.8-5 .2 1 .8 2.8 1.5 4.1zm-39.6 12.9c-.3 1-.5.4-.5-1.2 0-1.7.2-2.4.5-1.8.2.7.2 2.1 0 3zm3.4 7.3c.5 0 .9.9.9 2s-.3 2-.8 2c-1.2 0-3.3-8-2.5-9.3.5-.7.9.1 1.1 2 .2 1.8.7 3.3 1.3 3.3zm66.9 1c0 1.6-.4 3-1 3-.5 0-1 .9-1 2s-.4 2-1 2c-1.4 0-1.2-6.8.3-8.5 1.9-2.2 2.7-1.8 2.7 1.5zm-64 5.9c0 1.1.5 2.3 1 2.6.6.3 1 1.5 1 2.6 0 1 .5 1.9 1 1.9.6 0 1 .9 1 1.9 0 1.1.5 2.3 1 2.6.6.3 1 1.7 1 3s.5 2.7 1 3c.6.3 1 2.2 1 4.1 0 1.9-.4 3.4-1 3.4-.5 0-1-1.6-1-3.5s-.5-4.7-1.1-6.2c-2.5-5.9-4.2-9.9-5.5-12.7-1.7-3.4-1.8-4.6-.4-4.6.6 0 1 .9 1 1.9zm12 7.6c0 .8-.2 1.5-.4 1.5s-.6-.7-1-1.5c-.3-.8-.1-1.5.4-1.5.6 0 1 .7 1 1.5zm17.7 5.7c-.2 1.3-.4.5-.4-1.7-.1-2.2.1-3.2.4-2.3.2 1 .2 2.8 0 4zm-1.1 11.2c.8.8 1.4 3.1 1.4 5 0 2 .5 3.6 1 3.6.6 0 .9 3 .8 7.2l-.1 7.3-.6-6.6c-.3-3.6-1.1-7.2-1.7-8-.6-.8-1.4-2.5-1.6-3.9-.3-1.4-.9-3.3-1.3-4.3-.9-2.1.1-2.2 2.1-.3zM83.3 160.3c.9.3 1.7 1.4 1.7 2.4 0 1.3-.3 1.4-1.2.5-.7-.7-1.8-1.2-2.5-1.2-2.2 0-6.5-4.9-5.9-6.6.5-1.3 1.1-1 3.4 1.3 1.5 1.6 3.5 3.2 4.5 3.6zm361.7-5.4c0 1.2-5.9 7.1-7.1 7.1-1.6 0-1-1.3 2.3-4.7 3.2-3.3 4.8-4.1 4.8-2.4zm-216.3 6.3c-.3.7-.5.2-.5-1.2s.2-1.9.5-1.3c.2.7.2 1.9 0 2.5zM293 159c0 .5-.4 1-1 1-.5 0-1 .9-1 2s-.4 2-1 2c-1.4 0-1.3-3.3.2-4.8s2.8-1.6 2.8-.2zm-108 4.9c0 1.1.5 2.1 1.1 2.3.6.2.9 1.7.6 3.3-.4 2.8-.5 2.9-1.2.7-.4-1.2-1.1-2.2-1.6-2.2s-.9-1.4-.9-3c0-1.7.5-3 1-3 .6 0 1 .9 1 1.9zm97.1 19.6c-.5 1.1-1.2 3.7-1.5 5.7-1.3 8.6-1.9 10.8-2.7 10.8-.5 0-.9 1.1-.9 2.4 0 1.4-.4 2.8-1 3.1-.5.3-1 1.5-1 2.6 0 1-.4 1.9-1 1.9-.5 0-1 .9-1 2s-.5 3-1.2 4.3c-2.5 4.9-2.8 5.8-2.8 8.6 0 1.7-.4 3.3-1 3.6-.5.3-1 3-1 6s-.4 5.7-1 6c-.6.4-1 8.2-1 20s.4 19.6 1 20c.6.3 1 1.7 1 3.1 0 1.3.5 2.4 1 2.4.6 0 1 .7 1 1.5s.5 1.5 1 1.5c.6 0 1 .6 1 1.3 0 .8 1.2 2 2.8 2.8 3.3 1.7 9.2 7.8 9.2 9.5 0 .7.3 1.4.8 1.6.6.3 4.3 7.4 6.3 12.3 1 2.6 1.9 7.6 2.6 14.2.3 2.9.9 5.3 1.4 5.3.5 0 .9 1.1.9 2.5s.5 3.4 1 4.5c.6 1.1 1.5 2.9 2 4 2.4 4.8 3.7 6.6 6.5 9.2 1.6 1.5 2.7 3 2.3 3.3-.7.7-7.8-5.8-7.8-7.2 0-.4-.9-1.9-2-3.3s-2-3.2-2-4.1c0-.9-.6-3.9-1.4-6.5-.8-2.7-2.2-7.8-3.1-11.4-3.2-12.4-3.8-14.5-5.9-18.5-1.2-2.2-5.5-7.4-9.6-11.5s-8.1-8.9-8.9-10.5c-.7-1.7-1.8-3.9-2.3-5.1-.5-1.1-.7-10.2-.4-21 .5-21.1 1.3-30.4 2.7-31.8.5-.6.9-2.7.9-4.8 0-2.1.5-3.8 1-3.8.6 0 1-1.4 1-3 0-1.7.5-3 1-3 .6 0 1-1.1 1-2.4 0-1.4.5-2.8 1-3.1.6-.3 1-1.5 1-2.5s.3-2 .8-2.2c.4-.2 1.6-2.6 2.6-5.3 1.9-5.1 3.1-11.7 4.1-23.5 1.2-12.8 2-14.1 2.3-3.5.1 5.5-.2 10.9-.7 12zm52.4-16.3c-.4 1.3-.9 3.6-1.2 5.3-.6 2.7-2.4 5.5-3.7 5.5-1 0-.6-4.9.4-5.5.6-.3 1-1.9 1-3.4 0-3.1.7-4.1 2.8-4.1 1 0 1.2.6.7 2.2zm-91.8 6c-.3.7-.5.2-.5-1.2s.2-1.9.5-1.3c.2.7.2 1.9 0 2.5zm46 2.5c-.3 1-.5.4-.5-1.2 0-1.7.2-2.4.5-1.8.2.7.2 2.1 0 3zm-16 1.5c-.3.8-.6.5-.6-.6-.1-1.1.2-1.7.5-1.3.3.3.4 1.2.1 1.9zm-61.4 3.5c.3 1.6.8 3.8 1.2 5 .6 1.9.4 2.3-1.4 2.3-1.9 0-2.1-.6-2.1-5 0-5.4 1.4-6.8 2.3-2.3zm59.3 1c-1 1-1.9-.5-1-1.8.6-1.1.8-1.1 1.2 0 .2.7.1 1.5-.2 1.8zm83.7-2c-.7.2-1.9.2-2.5 0-.7-.3-.2-.5 1.2-.5s1.9.2 1.3.5zm-41.3 3.7c0 3.3-2 6.2-3.3 4.9-1-.9-.9-2.7.3-5.7 1.4-3.7 3-3.2 3 .8zM103 182c0 .6-1.5 2.6-3.4 4.5s-4.2 5.1-5.1 7.2c-.9 2.1-2.1 4.6-2.6 5.5-.5 1-.9 2.7-.9 3.7 0 5.2-4.6 11-8.8 11.1-4.4 0-13.2 5.8-13.2 8.7 0 .7-.4 1.3-1 1.3-.5 0-1 1.1-1 2.4 0 1.4-.4 2.8-1 3.1-.5.3-1 1.3-1 2.1s-.9 3.4-2 5.6c-1.1 2.3-2 4.4-2 4.6 0 .4 8.7-.4 14.3-1.3 2-.4 3.7-1.1 3.7-1.6s.8-.9 1.7-.9c2.2 0 10.3-8.7 10.3-11.1 0-1 .5-2.1 1-2.4.6-.3 1-3.7 1-7.4 0-6.2 1-9.1 3.2-9.1.4 0 .8 3 .8 6.6 0 9.7 1.3 11.5 11.3 16.4 3.7 1.8 6.7 3.6 6.7 4.1 0 .5.5.9 1 .9.6 0 1-2.8 1-6.3 0-6.4-2.7-15.6-5.2-17.9-1.9-1.8-5.6-3.8-6.8-3.8-2.5 0-6-5-6-8.5 0-1.9.5-3.5 1-3.5.6 0 1-.7 1-1.6 0-2 5.3-7 9.4-8.8 10.4-4.5 15.5-4.5 33.9 0 2.6.6 3.8 2.4 1.6 2.4-.6 0-2.9 1.3-5.2 2.8-2.3 1.5-6 3.4-8.2 4.1-7.3 2.5-12.1 10-11.1 17.3 2 15.7 2.5 16 11.8 6.6 8.3-8.3 10.2-12.2 8.5-16.8-1-2.7-.9-3.2 1.6-5.2 4.1-3.3 9.5-4.8 17.4-4.8 6.2 0 7.4.3 8.3 2 .6 1.1 1.7 2 2.5 2s1.5.4 1.5 1-3.2 1-7.5 1c-7 0-10.1.8-13.1 3.6-2 1.8-5.1 8.7-5.7 12.8l-.6 3.8 3.7-.6c2-.4 5.8-.9 8.3-1.2 4.1-.5 5.3-1.2 10-6.5 4.7-5.2 5.8-5.9 9-5.9 2.1 0 4.1.4 4.4 1 .3.5 1.5 1 2.6 1 2 0 5.4 1.6 7.7 3.7.7.7 1.7 1.3 2.1 1.3 1.2 0 12.5 11.2 15.1 15 1.3 1.9 3 4.1 3.7 4.8.7.7 1.3 1.7 1.3 2.2 0 .5.6 1.5 1.3 2.2 1.1 1.2 7 12.8 8.7 17.3.9 2.4 2.5 8.3 3.9 14.7 1.4 6.1 1.4 34.5 0 42.2-2.1 11.7-6.9 28.6-8.1 28.6-.5 0-.8.6-.8 1.4 0 1.7-4.2 10-5.2 10.4-.5.2-.8 1.2-.8 2.3 0 1-.4 1.9-.8 1.9-.5 0-1.5 1.2-2.3 2.8-1.8 3.5-17.7 19.2-19.4 19.2-.7 0-1.5.3-1.7.7-.4 1.1-8.7 5.3-10.4 5.3-.8 0-1.4.4-1.4 1 0 .5-1.1 1-2.4 1-1.4 0-2.7.4-3 .9-.3.4-2.5 1.1-4.8 1.4-7.5 1.1-12.2 2.3-16.3 4.3-3.3 1.5-6 1.9-14.9 1.8-10.5-.2-15.2-1-22.6-4.1-6-2.5-13.3-6.4-17.7-9.4-2.3-1.6-4.6-2.9-5.2-2.9-.6 0-1.1-.5-1.1-1 0-.6-.6-1-1.3-1-.7 0-2.2-.8-3.3-1.7-1-1-3.7-2.7-5.9-3.9-5.2-2.7-8.9-4.8-9.5-5.4-.3-.3-1.4-1-2.5-1.6-1.1-.6-3.9-2.1-6.3-3.4-3.4-1.9-4.7-2.2-6.1-1.3-1.7 1.1-1.8.8-1.3-3.5.2-2.6.9-5.5 1.3-6.4 1.8-3.3 1-9.9-1.3-11.9-3.5-3.1-1.3-3.4 2.6-.4 2 1.5 3.6 3 3.6 3.4 0 .4.9 1.6 1.9 2.8 2.8 2.9 6.1 10.2 6.1 13.4 0 3.1 5.7 9.9 8.3 9.9 1.3 0 1.7-.9 1.7-4 0-2.2-.4-4-1-4-.5 0-1-1.4-1-3 0-1.7-.4-3-1-3-.5 0-1-1-1-2.3 0-1.2-.9-3.3-2-4.7-1.1-1.4-2-3.1-2-3.8 0-.6-.4-1.2-1-1.2-.5 0-1-.6-1-1.3 0-.8-2-3.5-4.5-6.1l-4.5-4.8 1.6-3.1c1.5-2.7 1.5-4.2.5-11.7-.7-4.7-1.7-9.3-2.2-10.2-.5-1-.9-2.4-.9-3.3 0-.8-.9-3-1.9-4.8-1.1-1.9-2.5-4.5-3.3-5.8-.7-1.3-1.5-2.6-1.8-2.9-.3-.3-1.7-2.1-3.1-4-1.5-1.9-3.9-4.9-5.3-6.5-1.4-1.7-2.6-3.4-2.6-3.8 0-1.2-4.7-5.7-6-5.7-1.5 0-1.2-1.6.5-3.4.8-.8 1.5-1.9 1.5-2.5 0-.6.5-1.1 1-1.1.6 0 1-.5 1-1 0-.6 1.3-2.4 3-4.2 1.6-1.7 3-3.7 3-4.4 0-.8.5-1.4 1-1.4.6 0 1 1.1 1 2.4 0 1.4.5 2.8 1 3.1 1.3.8 1.3 17.1 0 19.5-1.1 2-.1 4.7 2.8 7.8 3 3.3 5.4-4.1 5.4-16.8 0-7.1-1.2-15.9-2.3-16.6-.5-.3-.9-1.6-.9-3 0-1.3-.4-2.4-.9-2.4s-1.1-1.3-1.4-2.9c-.3-1.6-1.3-3.6-2.2-4.4-.8-.9-1.5-2.3-1.5-3.1 0-.9-.4-1.6-1-1.6-.5 0-1-.7-1-1.5s-.4-2.3-.9-3.3c-.5-.9-1.2-2.5-1.5-3.5-.3-.9-1.5-1.7-2.6-1.7-4.9 0-6.6 5.9-3.2 10.8 1.1 1.5 2.5 4.2 3.3 5.9.8 1.8 1.7 3.3 2.1 3.3.5 0 .8 1 .8 2.1 0 1.8-.2 1.9-1.5.9-.9-.7-1.7-1.1-1.8-.9-.2.2-1.4 2-2.7 3.9-1.4 1.9-3.2 4.4-4.2 5.4-1 1.1-1.8 2.5-1.8 3.2 0 .6-.7 1.4-1.5 1.8-1 .4-1.5-.1-1.5-1.4 0-2.4-3.1-9-4.2-9-.4 0-.8-.9-.8-1.9 0-1.1-.4-2.1-.8-2.3-1.6-.6-2.4-5.8-1-5.8.7 0 2.9-2.1 4.8-4.7 1.9-2.5 7.1-8.3 11.6-12.9s9.9-10.5 12.1-13.1c4.8-6 10.4-11.2 12.1-11.3.6 0 1.2-.3 1.2-.8 0-.8 4.9-3.2 6.7-3.2.7 0 1.3-.4 1.3-.9s1.2-1.2 2.8-1.5c1.5-.4 4.5-1.2 6.7-1.8 2.2-.6 8.3-1.4 13.5-1.7 5.2-.4 9.8-.8 10.3-.9.4-.1.7.3.7.8zm164.7 4.5c-2.4 2.4-2.9 1.8-1-1.1.9-1.5 1.9-2.2 2.1-1.5.2.6-.3 1.8-1.1 2.6zm-18.7 3.8c0 1.8-.2 1.9-1 .7-1.3-2-1.3-4.3 0-3.5.6.3 1 1.6 1 2.8zm16 .7c0 .5-.5 1-1.1 1-.5 0-.7-.5-.4-1 .3-.6.8-1 1.1-1 .2 0 .4.4.4 1zm-14 4.7c0 2.2-.2 2.5-1 1.3-1.3-2-1.3-4 0-4 .6 0 1 1.2 1 2.7zm11.2.5c-.7.7-1.2.8-1.2.2 0-.6.3-1.4.7-1.7.3-.4.9-.5 1.2-.2.2.3-.1 1.1-.7 1.7zm-20.6 1.2c.8.8 1.4 2.2 1.4 3 0 .9.5 1.6 1 1.6.6 0 1 .9 1 2s.5 2 1 2c.6 0 1 .9 1 1.9 0 1.1.5 2.3 1 2.6.6.3 1 1.7 1 3.1 0 1.3.5 2.4 1 2.4.6 0 1 1.3 1 2.9 0 1.7.5 3.3 1 3.6.6.3 1 2.5 1 4.9 0 2.3.5 4.7 1.1 5.3 1.7 1.7-.4 31.3-2.2 31.3-.5 0-.9 2.2-.9 4.9 0 2.8-.4 5.3-1 5.6-.6.4-1 6.2-1 14.1 0 8.3.4 13.4 1 13.4s1 1.3 1 3c0 1.6.5 3 1 3 .6 0 1 .9 1 2s.5 2 1 2c.6 0 1 .7 1 1.5s.5 1.5 1 1.5c.6 0 1 .5 1 1 0 1.4 7.5 8.8 12 12 4.2 3 13.9 12.6 17.7 17.7 1.5 2.1 4 5.1 5.6 6.7 1.5 1.6 2.7 3.3 2.7 3.8 0 1.4 11.1 11.8 12.6 11.8.7 0 1.6.5 1.9 1 .3.6-.3 1-1.4 1-2.1 0-10.7-7.9-16.1-15-1.9-2.4-11.5-12.5-21.2-22.3-9.8-9.8-17.8-18.4-17.8-19.2 0-.8-.3-1.5-.7-1.5-.9 0-3.3-4.9-3.3-6.7 0-.7-.5-1.3-1.1-1.3-.7 0-.9-4.8-.6-14.8.4-13.8 1-18.7 3.7-30.7 2.6-11.7 2.1-29.8-1.1-35.7-.5-1-.9-2.9-.9-4.3s-.4-2.5-1-2.5c-.5 0-1-1.1-1-2.4 0-1.4-.4-2.8-1-3.1-.5-.3-1-1.5-1-2.6 0-1-.4-1.9-1-1.9-.5 0-1-.9-1-2s-.4-2-.9-2-1.1-.8-1.5-1.8c-.3-.9-.9-2.3-1.2-3-.8-1.6.4-1.5 2.2.2zm264.1 1.3c2 4.9 2.6 8.6 3 19.3l.4 10.5-2-2.2c-1.2-1.2-2.1-2.5-2.1-2.8 0-.3-2.1-2.6-4.6-5.2-3.5-3.5-4.8-4.2-5.5-3.2-.4.7-1.1 1-1.6.6-.4-.4-.3-1.6.3-2.5.6-.9 1.7-3.8 2.5-6.5.7-2.6 1.7-4.7 2.1-4.7.4 0 .8-.7.8-1.6 0-1.7 2.7-4.3 4.5-4.4.6 0 1.5 1.2 2.2 2.7zM135 200c0 1.1-.3 2-.8 2-.4 0-1.3 1.3-2 3-1.5 3.2-3.2 4-3.2 1.4s3.5-8.3 5.3-8.4c.4 0 .7.9.7 2zm190-1c0 .5-.4 1-1 1-.5 0-1-.5-1-1 0-.6.5-1 1-1 .6 0 1 .4 1 1zm-72.1 3.7c0 2.5-.1 2.6-.9.8-1.2-2.7-1.2-3.5 0-3.5.6 0 1 1.2.9 2.7zm-87.9.3c0 .5-.7 1-1.5 1s-2.4.5-3.5 1.2c-2.4 1.5-3.7.4-2-1.7 1.4-1.7 7-2.1 7-.5zm202 0c0 .5 1.2 1 2.8 1 1.6 0 3.2.8 4 2 1.1 1.8 1 2-.8 2-1.1 0-2-.5-2-1 0-.6-2.2-1-5-1-3.6 0-5-.4-5-1.4 0-.8.6-1.7 1.3-1.9 2.1-.9 4.7-.7 4.7.3zm-157.3 4.5c.8.9 1.3 1.9 1 2.2-.6.5-3.7-2.1-3.7-3.1s1.1-.6 2.7.9zm45.3-.1c0 .7 1.4 2.8 3.2 4.5 1.7 1.7 2.9 3.4 2.5 3.7-1.1 1.1-7.7-6.7-7.7-9 0-.3.5-.6 1-.6.6 0 1 .6 1 1.4zm172.7 2.4c-2.3.2-4.3-.2-5.2-1.1-2.2-2.3-.8-2.5 4.3-.8l4.7 1.6-3.8.3zM263 211.5c0 1.4-.4 2.5-1 2.5-.5 0-1-1.1-1-2.5s.5-2.5 1-2.5c.6 0 1 1.1 1 2.5zm45.7 1.7c-.3.7-.5.2-.5-1.2s.2-1.9.5-1.3c.2.7.2 1.9 0 2.5zM409 216c0 3.3-.4 6-1 6s-1-2.7-1-6 .4-6 1-6 1 2.7 1 6zm-306-2c0 .6.9 2 2 3.2 2.6 2.8 2.8 5.7.3 3.7-5-3.9-6.9-7.9-3.8-7.9.8 0 1.5.5 1.5 1zm203.7 7.7c-.2 1.6-.4.5-.4-2.2 0-2.8.2-4 .4-2.8.2 1.3.2 3.5 0 5zm-88.1-3c1.3 1.6 2.4 3.6 2.4 4.5 0 .9.5 2 1 2.3.6.3 1 1.4.9 2.3 0 1.4-.2 1.4-.6.2-.4-.8-1.7-2.9-3-4.6-1.2-1.7-2.3-3.6-2.3-4.2 0-.7-.4-1.2-1-1.2-.5 0-1-.5-1-1 0-1.7 1.2-1.1 3.6 1.7zm24.4 11.7c0 7.3-.4 12.7-1 13.1-.5.3-1 2.3-1 4.3 0 2.7-.3 3.3-1.1 2.5-.9-.9-.9-2.3 0-5.7.6-2.5 1.1-9.5 1.1-15.5 0-6.7.4-11.1 1-11.1s1 4.8 1 12.4zm-10-9.9c0 .8-.2 1.5-.4 1.5s-.6-.7-1-1.5c-.3-.8-.1-1.5.4-1.5.6 0 1 .7 1 1.5zm-146 .9c0 1.7-4.9 6.6-6.6 6.6-2 0-1.8-.7 1.9-4.5 3.5-3.7 4.7-4.2 4.7-2.1zm203.1 4.4c-.6.2-1.1 1.2-1.1 2.3 0 1-.4 1.9-1 1.9-.5 0-1 1.3-1 3 0 1.6-.4 3-1 3-1.5 0-1.2-2.6.9-7.3 1.1-2.3 2.3-5.3 2.7-6.7l.9-2.5.3 3c.2 1.6-.1 3.1-.7 3.3zm64.5-3.1c1.3 1.6 2.4 3.7 2.4 4.8 0 1.6-.8 1.2-4-2.3-2.2-2.3-4-4.4-4-4.7 0-1.5 3.6-.1 5.6 2.2zm-56.5 5.1c-.6.2-1.1 1.4-1.1 2.6 0 1.2-.4 2.6-.9 3.1-.5.6-1.2 1.9-1.5 3-.3 1.1-.2 0 .1-2.5.3-2.5.9-4.9 1.4-5.5.5-.5.9-1.9.9-3 0-3.4 1.5-4 1.8-.9.2 1.6-.1 3-.7 3.2zm-63.1-3.3c0 .8-.2 1.5-.4 1.5s-.6-.7-1-1.5c-.3-.8-.1-1.5.4-1.5.6 0 1 .7 1 1.5zm-2 11.5c0 1.1-.4 2-1 2-.5 0-1 .8-1 1.7 0 1.4-.2 1.5-1.2.4s-1-1.4 0-1.8c.6-.3 1.2-1.3 1.2-2.4 0-1 .5-1.9 1-1.9.6 0 1 .9 1 2zm51.6 5.8c-1.1 1-1.5-.4-.8-2.8l.7-2.5.3 2.3c.2 1.3.1 2.6-.2 3zm8.1 4.9c-.3 1-.5.2-.5-1.7s.2-2.7.5-1.8c.2 1 .2 2.6 0 3.5zm-278.5.3c.7 1.6 1.6 3 2 3 .5 0 .8.6.8 1.3 0 2.3 2.5 6.7 3.8 6.7 1.6 0 2.8 3 1.5 3.9-2.2 1.4-7.3 12.4-7.3 15.7v3.4l-2-2c-1.1-1.1-2-3-2-4.3 0-1.3-.5-2.8-1.1-3.4-1.8-1.8.1-27.3 2.1-27.3.5 0 1.4 1.3 2.2 3zm466.4 1.7c1.3 1.6 2.4 3.1 2.4 3.5 0 1.6 4.5 5.8 6.2 5.8 1 0 1.8.4 1.8 1 0 .5-.4 1-.9 1s-1.4 1.3-2.1 3c-.7 1.6-1.6 3-2 3-.3 0-1.3 1.2-2.1 2.7-1.4 2.8-5.3 7.3-6.4 7.3-.3 0-.5-.8-.5-1.8s-.5-2.3-1.1-2.9c-1.4-1.4.3-25.3 1.8-25.3.3 0 1.6 1.2 2.9 2.7zm-197.7 7.5c-.1 6.8-.3 8.3-.9 5.6-.6-3.5-.2-14.8.6-14.8.2 0 .3 4.2.3 9.2zm-44.9 4.2c-.7 1.5-.9 7.9-.6 20.1.4 19.3 1.3 27.5 2.7 27.5.5 0 .9 1.6.9 3.5s.5 3.5 1 3.5c.6 0 1 .8 1 1.7 0 2.2 1.9 7.6 4.3 12.2.9 1.9 1.7 4.2 1.7 5.3 0 1 .5 1.8 1 1.8.6 0 1 .9 1 2s.5 2 1 2c.6 0 1 1.1 1 2.4 0 1.4.5 2.8 1 3.1.6.3 1 2.4 1 4.5s.5 4.2 1 4.5c1.2.8 1.3 9.5.1 9.5-.5 0-1.2-2.4-1.4-5.3-.8-7.8-1.8-12.7-2.6-12.7-.4 0-1.4-2.3-2.1-5-.7-2.8-1.7-5-2.2-5-.4 0-.8-.9-.8-2s-.4-2-1-2c-.5 0-1-.9-1-1.9 0-1.1-.4-2.3-1-2.6-.5-.3-1-1.7-1-3.1 0-1.3-.4-2.4-1-2.4-.5 0-1-1.1-1-2.4 0-1.4-.4-2.8-1-3.1-.5-.3-1-1.9-1-3.5s-.4-3.2-1-3.5c-.5-.3-1-2.3-1-4.4 0-2-.5-4.2-1.1-4.8-1.5-1.5-1.7-37.7-.2-39.5.6-.7 1.4-3.1 1.9-5.3l.8-4 .4 3.4c.2 1.9-.2 4.4-.8 5.5zm47 9.2c0 .8-.4 1.2-1 .9-.5-.3-1-1-1-1.6 0-.5.5-.9 1-.9.6 0 1 .7 1 1.6zm-25 19.6c0 .5-.7.8-1.5.8-1.7 0-2 2.5-.5 3.5.6.3 1 2.4 1 4.6 0 2.1.5 3.9 1 3.9.6 0 1 .9 1 2s.5 2 1 2c.6 0 1 .6 1 1.4 0 .8 3.2 4.6 7 8.5 3.9 3.9 7 7.6 7 8.1 0 .6.5 1 1 1 .6 0 1 .6 1 1.4 0 .8.5 1.6 1.1 1.8.6.2.9 1.3.7 2.3-.5 2-.5 2-1.3 0-.5-1.1-1.1-2.2-1.5-2.5-.3-.3-1.3-1.5-2.2-2.8-.8-1.3-4.1-5-7.2-8.2-3.1-3.3-5.6-6.4-5.6-6.9s-.3-1.1-.7-1.3c-1.4-.5-5.3-9.7-5.9-13.6-.7-4.5 1.2-10.4 2.6-8.2.6.8 1 1.8 1 2.2zM48.6 297c2.7 5.6 4.4 12.8 4.4 18 0 2.3.7 5.2 1.6 6.5 2.9 4.4-.4 2.7-6.7-3.5-4-4-6.9-6-8.5-6-1.7 0-2.4-.6-2.4-2 0-1.1.5-2 1-2 .6 0 1-.9 1-2s.5-2 1-2c.6 0 1-.9 1-1.9 0-1.1.5-2.1 1.1-2.3 1.3-.4 1.6-7.6.4-10.3-.7-1.6-.5-1.5 1.5.5 1.4 1.4 3.5 4.5 4.6 7zm430.2-.9c1.2 2.8 2.2 5.5 2.2 6s.9 2 2.1 3.2l2 2.2-6 5.7c-5.8 5.5-6.6 7.2-6.3 12.5.4 5 3.4 2.9 22.4-15.9 4.9-4.9 9.3-10 9.8-11.4.9-2.2 1.3-2.4 2.5-1.4 1.8 1.5 2.1 14.5.4 18.7-.6 1.5-1.6 3.9-2.1 5.3-.6 1.4-1.4 3.3-1.9 4.2-.5 1-.9 3.9-1 6.5l-.1 4.8-1-3.5c-.5-1.9-1.4-3.9-1.9-4.5-.5-.5-.9-2.2-.9-3.7 0-1.6-.4-3.6-.9-4.6-.5-.9-1.2-2.5-1.5-3.5-.9-3-3.7-3.3-5.7-.6-2 2.5-2.6 9.9-.9 9.9.6 0 1 1.3 1 3 0 1.6.4 3 .9 3s1.1 1.8 1.3 4.1c.3 3.5.1 4-1.4 3.5-1.7-.4-4.4 1.4-10.2 6.6-1.1 1-2.4 1.8-2.8 1.8-.5 0-1.8.9-3 2s-2.4 1.8-2.6 1.5c-.3-.3.5-1.3 1.6-2.4 2.3-1.9 2.9-5.5 1.2-6.6-.5-.3-1-1.7-1-3.1 0-1.3-.4-3.2-.9-4.2-.5-.9-1.4-3.7-2.1-6.2-.6-2.5-1.6-5.9-2.1-7.6-1.2-3.9-1.2-7.7 0-12.3 3-11.3 3.6-13.1 4.3-13.1.4 0 .8-1.1.8-2.5 0-3.9 1.3-3 3.8 2.6zM263 293.9c0 1.1.6 2.1 1.3 2.4.6.2.9.8.5 1.2-.9 1-3.8-1.9-3.8-3.9 0-.9.5-1.6 1-1.6.6 0 1 .9 1 1.9zm15.7 17.8c.4 1 1 2 1.4 2.3 1.2.9 4.9 8 4.9 9.5 0 .8.5 1.5 1 1.5 1.5 0 1.2 9.9-.3 11.4-1.1 1.1-1.7 1.1-3 .1-2.4-1.7-2.2-3.8.3-3 1.7.5 2 .2 2-2.4 0-3.7-2.2-11.1-3.2-11.1-.5 0-.8-.6-.8-1.3 0-.7-.8-2.2-1.7-3.3-4.3-4.7-4.7-5.4-2.9-5.4.9 0 2 .8 2.3 1.7zm-238.4 11c1.8 1.5 4.8 3.9 6.7 5.2 1.9 1.4 3.7 2.6 3.9 2.7.2.2-.6 1.5-1.8 3-1.2 1.5-2.1 4.1-2.1 6 0 1.8-.4 3.6-1 3.9-.6.3-1 2.3-1 4.3v3.6l-3.2-3.5c-1.8-1.9-4.9-4.6-6.8-5.9-6.1-4.2-7-5.7-5.5-8.8.7-1.5 1.9-4.7 2.6-7.2.6-2.5 1.9-6.4 2.8-8.8l1.6-4.2.3 3.4c.2 2.3 1.3 4.3 3.5 6.3zm197.4 2.8c.8.9 1.3 1.9 1 2.2-.6.5-3.7-2.1-3.7-3.1s1.1-.6 2.7.9zM269 339c0 .5-.9 1-2.1 1-1.1 0-1.7-.5-1.4-1 .3-.6 1.3-1 2.1-1s1.4.4 1.4 1zm-32 2c0 .5-.5 1-1.1 1-.5 0-.7-.5-.4-1 .3-.6.8-1 1.1-1 .2 0 .4.4.4 1zm40 5.1c1.2 1.6 1.9 3.3 1.6 3.6-.8.8-4.6-3.6-4.6-5.4 0-2 .6-1.6 3 1.8zm-38 1.1c0 3.6-.4 3.5-1.4-.5-.4-1.6-.2-2.7.4-2.7.5 0 1 1.4 1 3.2zm7.5-2.2c.3.5.1 1-.4 1-.6 0-1.1-.5-1.1-1 0-.6.2-1 .4-1 .3 0 .8.4 1.1 1zm-216 3.8c4.6 4.2 9.1 7.2 11 7.2 1.4 0 1.6.8 1.1 5.7-1 10.4-1.8 15.3-2.5 15.3-1.1 0-5.1-3.6-5.1-4.5 0-.4-.8-1.9-1.9-3.3-2.5-3.7-6.1-14.2-6.1-18 0-1.8-.4-3.2-1-3.2-.5 0-1-.5-1-1 0-1.8 2.5-1 5.5 1.8zM495 352c0 3.3-.4 6-1 6-.5 0-1 1.3-1 3 0 1.6-.4 3-1 3-.5 0-1 .9-1 2s-.4 2-.9 2-1.3.9-1.6 2c-.4 1.1-1.7 3.2-3.1 4.5-1.3 1.3-2.4 2.9-2.4 3.5 0 .6-.4.9-.9.6-.4-.3-1.1-3.8-1.4-7.7-.4-4.5-1.2-7.8-2.2-9-1.8-1.9-1.3-3.9 1.1-3.9.8 0 1.4-.3 1.4-.8 0-.4 1.2-1.3 2.8-2 1.5-.6 4.3-3 6.2-5.1 1.9-2.1 3.8-3.9 4.3-4 .4-.1.7 2.6.7 5.9zm-254.3 6.2c-.2 1.3-.4.3-.4-2.2s.2-3.5.4-2.3c.2 1.3.2 3.3 0 4.5zM283 355c0 .5-.4 1-1 1-.5 0-1-.5-1-1 0-.6.5-1 1-1 .6 0 1 .4 1 1zm8.6 8.7c1.9 2 3.2 3.8 3 4.1-.6.5-7.6-5.9-7.6-7 0-1.6 1.2-.8 4.6 2.9zm-68.6-1.2c-.7.8-1.7 1.5-2.2 1.5-.6 0-.5-.7.2-1.5s1.7-1.5 2.2-1.5c.6 0 .5.7-.2 1.5zM54.8 365c1.6 1.6 3.7 3 4.6 3 .9 0 1.6.4 1.6 1 0 .5.9 1 2 1s2 .4 2 1c0 .5.9 1 1.9 1 2.8 0 3.6 1.8 1.6 4-1.1 1.3-1.4 2.6-1 4.1.4 1.3 1.1 11.3 1.5 22.4.4 11 1.1 21 1.5 22.2.5 1.5.3 2.3-.4 2.3-1.2 0-9.1-8-9.1-9.3 0-.4-.9-1.7-2-2.9s-2-2.8-2-3.5c0-.7-.4-1.3-1-1.3-.5 0-1-.9-1-1.9 0-1.1-.4-2.3-1-2.6-.5-.3-1-1.7-1-3.1 0-1.3-.4-2.4-1-2.4-.5 0-1-.7-1-1.6 0-.9-1.4-2.9-3.1-4.5-3.3-3.1-2.9-3.7 1.1-1.5 17 9.2 18 9.4 18 4 0-4.8-.4-5.2-12.8-10.5-4.9-2.1-5.3-2.5-4.7-4.9.9-3.4 1.3-7.5 1.4-13.8.1-2.8.3-5.2.6-5.2s1.8 1.3 3.3 3zm187.4 20.9c-.5.3-1.2 1.3-1.5 2.1-.4.8-.5-.3-.2-2.5s.6-7.6.6-12c.3-13 1.4-13 1.7-.1.1 6.6-.1 12.2-.6 12.5zm36.3-22.9c.3.5.1 1-.4 1-.6 0-1.1-.5-1.1-1 0-.6.2-1 .4-1 .3 0 .8.4 1.1 1zm-47.5 3.9c0 1.1.5 2.3 1 2.6.6.3.9 2.5.9 4.8l-.1 4.2-1.2-4.7c-.6-2.5-1.4-5-1.8-5.4-1.1-1.1-1-3.4.2-3.4.6 0 1 .9 1 1.9zm44 4.7c0 .2-.9.4-2.1.4-1.1 0-1.8-.4-1.4-1 .5-.8 3.5-.3 3.5.6zm12 4c0 .8-.4 1.2-1 .9-.5-.3-1-1-1-1.6 0-.5.5-.9 1-.9.6 0 1 .7 1 1.6zm-6.5 3.4c.3.5.1 1-.4 1-.6 0-1.1-.5-1.1-1 0-.6.2-1 .4-1 .3 0 .8.4 1.1 1zm-65.4 3.9c2.2 1.8 2.2 2.1 1 6.2-2.3 7.7-7 18.1-8.3 18.7-.5.2-.8 1-.8 1.7 0 1.5-13.5 15.5-14.9 15.5-.5 0-1.6.6-2.3 1.3-.7.7-3 2.1-5 3-4.5 2.1-5.4 3.3-3.8 5.2 1 1.2.9 1.5-.8 1.5-1.2 0-2.4-.5-2.7-1-.3-.6-1.5-1-2.6-1-1 0-1.9-.5-1.9-1 0-.6-.6-1-1.4-1-2 0-12.6-10.4-12.6-12.3 0-.9-.4-1.7-1-1.7-1.5 0-1.2-7 .4-8.6.9-.8 3.4-1.4 6-1.4 4.9 0 12.6 2 12.6 3.2 0 .5.9.8 2 .8s2 .4 2 1c0 .5.6 1 1.3 1 .6 0 2.8 1.4 4.7 3 4.2 3.6 6.6 3.8 9.7.8 3.2-3 2.8-4.9-1.5-7.9-3.9-2.6-4.5-4.3-4.4-11.3 0-3.4.7-4.6 5.6-9.2 3.1-3 6.3-5.4 7.1-5.4.8 0 1.5-.4 1.5-.9 0-.6 1.5-1.2 3.3-1.4 1.7-.2 3.5-.5 3.8-.5.4-.1 1.7.6 3 1.7zm65.5 10.8c-1 1-1.9-.5-1-1.8.6-1.1.8-1.1 1.2 0 .2.7.1 1.5-.2 1.8zm190.7 4.1c-.3 2.3-1 4.2-1.4 4.2-.5 0-.9.6-.9 1.4 0 1.4-3.9 9.6-5 10.6-.3.3-1.7 2.1-3 4-3.8 5.4-8.8 10.1-9.5 8.9-.4-.5-.3-1.8.1-2.7.4-.9 1.1-4.6 1.5-8.2.4-3.6.9-7.6 1.1-9 .4-3.5-3.4-3.9-6.6-.7-1.8 1.8-2.5 3.9-2.9 8.3-.8 8.4-1.8 13.3-2.8 14-.5.3-.9 1.3-.9 2.3 0 2.1-2.2 7.1-3.2 7.1-.5 0-.8.6-.8 1.3 0 1.9-8.5 10.7-10.3 10.7-.9 0-1.7.6-2 1.2-.3 1-.8 1-2.1-.1-1-.9-1.4-2-1-3 .7-1.6 2-8.2 3.1-15.4.3-2 .9-4 1.4-4.3.5-.3.9-1.6.9-2.9 0-1.3.5-2.7 1-3 .6-.3 1-1.5 1-2.6 0-1 .5-1.9 1-1.9.6 0 1-.6 1-1.4 0-.8 2-3.4 4.4-5.8 3.3-3.4 6.1-4.9 11.7-6.8 4.1-1.3 7.8-2.7 8.4-3.2.5-.4 1.9-.8 3.2-.8 1.3 0 2.3-.5 2.3-1 0-.6.9-1 2-1s2-.5 2-1c0-.6.7-1 1.6-1 .8 0 2.2-.7 3.1-1.5 2.1-2.1 2.3-1.7 1.6 3.3zm-248.6-.6c-.3.7-.5.2-.5-1.2s.2-1.9.5-1.3c.2.7.2 1.9 0 2.5zm78.3-.2c0 .5-.5 1-1.1 1-.5 0-.7-.5-.4-1 .3-.6.8-1 1.1-1 .2 0 .4.4.4 1z"/><path d="M54.3 199.5c-3.3 3.4-4.2 6.8-2.3 8 1.6 1 1.1 6.6-1.3 13.7-1.3 3.7-2.6 7-2.9 7.3-1 1 1.7 7.5 3.2 7.5 1.4 0 6-8.2 6-10.8 0-.7.5-1.2 1-1.2.6 0 1-1.3 1-2.9 0-1.7.5-3.3 1-3.6.6-.3 1-5.2 1-11.1 0-12-.9-12.9-6.7-6.9zM136 37c-.8.5-2.7 1-4.2 1s-3 .4-3.3 1c-.3.5-1.7 1-3.1 1-1.3 0-2.4.4-2.4 1 0 .5-.9 1-2 1s-2 .4-2 1c0 .5-.7 1-1.5 1-.9 0-2.5.9-3.7 2-1.2 1.1-2.8 2-3.5 2-.7 0-1.3.4-1.3.8s-1.4 1.6-3.1 2.6C101.8 53.9 91 64.9 91 66.8c0 .4-.9 1.4-2 2.2-1.1.8-2 2.2-2 3.2s-.4 1.8-.8 1.8C85 74 81 81.8 81 84.1c0 1-.4 1.9-1 1.9-.5 0-1 1.1-1 2.4 0 1.4-.4 2.8-1 3.1-.5.3-1 1.9-1 3.5 0 1.5-.4 3-.8 3.2-1.2.4-2.2 11.2-1.2 12.7.5.9 1.3 1 2.6.3 1.1-.6 3.4-1.7 5.2-2.4 3.6-1.4 6.2-5.9 6.2-10.6 0-2.6 1.6-8.3 3.1-11.4.5-1 .9-2.2.9-2.8 0-.6.9-2 2-3.2 1.1-1.2 2-2.8 2-3.5 0-.7.5-1.3 1-1.3.6 0 1-.6 1-1.4 0-1.6 11-13.1 15.5-16.3C119.8 54.6 125 52 127 52c1.1 0 2-.5 2-1 0-.6 2.1-1 4.8-1 2.6 0 5.2-.4 5.7-.8 1.6-1.1 3.5-5 3.5-7.1 0-1.1.5-2.3 1-2.6.6-.3 1-1.3 1-2.1 0-1.6-6.6-2-9-.4zm234.3 14.2c-.6.7-1.1 3.7-1.1 6.6-.1 4.9-.4 5.7-4.4 9.6-2.4 2.3-6.9 5.5-10.2 7-8.3 4.1-11.3 7.5-12.2 14.2-.3 2.9-.3 6.6 0 8.1 1.5 6.4 3.1 11.3 3.7 11.3.4 0 1.7-1.3 3-3 1.3-1.6 3-3 3.7-3 .7 0 2-.7 2.8-1.5.8-.8 2.3-2 3.3-2.7 3.5-2.4 6.1-8.6 6.1-14.1 0-4.6.4-5.5 2.8-7.2 4-2.9 8.5-7.8 9.8-10.6 4.9-10.3 3.9-15.9-2.6-15.9-2.1 0-4.2.6-4.7 1.2zm-13.2 30c-1.2 1.2-2.1 2.8-2.1 3.5 0 .7-.4 1.3-1 1.3-.5 0-1 .7-1 1.5s-.4 1.5-1 1.5c-.5 0-1-1.1-1-2.5s.5-2.5 1-2.5c.6 0 1-.6 1-1.4 0-1.8 5.3-6.1 5.8-4.7.2.6-.6 2-1.7 3.3zM182.5 62.5c-.9 6.1.4 15.2 2.6 19.2 1 1.8 3.6 5 5.7 7.3 3.9 4 4.3 5.1 5.8 15.4.4 2.7 1.4 5.8 2.3 6.9 3.9 4.8 10.5 10.6 15.4 13.5 1.5.9 2.7 2 2.7 2.4 0 .4.4.8.9.8 1.9 0 3.9-23.6 2.2-25.3-.6-.6-1.1-1.7-1.1-2.5 0-3.1-8.6-9.1-15.1-10.6-3.3-.7-6.2-3.3-8.8-7.9-1.7-3-2.1-5.5-2.1-12.3 0-7.7-.2-8.6-2-9.1-1.1-.3-2-.9-2-1.4 0-.5-1.3-.9-2.9-.9-2.6 0-2.9.4-3.6 4.5zM208.6 98c3.4 3.4 4.4 4.9 4.4 6.5 0 .8-.3 1.5-.6 1.5-.8 0-8.3-8.3-8.4-9.3 0-1.4 2.6-.7 4.6 1.3z"/><path d="M142 72c-2 1.6-4.2 2-10.7 2-8.7 0-13.6 1.8-17.5 6.2-1.4 1.6-2.6 1.9-6.5 1.6-2.6-.3-5.5-.8-6.4-1.2-2-.9-5.6 3.7-6.5 8.1l-.6 2.9h9.2c5 0 9.4.4 9.8.9 1 1.5 7.4 3.5 10.8 3.5 6.7 0 17.3-6.3 17.4-10.3 0-.9.5-1.7 1-1.7.6 0 1-1 1-2.3 0-1.3.5-2.8 1.1-3.4.6-.6.9-2.6.7-4.6l-.3-3.6L142 72zm-14.2 14.3c-1.7 1.8-6.5 2.9-8.9 2.2-3.4-1.1-2-2.4 2.9-2.8 2.6-.2 5.3-.4 6-.5 1.1-.2 1.1 0 0 1.1zM377 74c0 1.1.4 2.8.9 3.8.5.9 1.5 3 2.2 4.7 1.7 3.6 8.4 10.5 12.3 12.5 1.8.9 5.6 1.5 10 1.5 6.1 0 7.9-.5 12.9-3.3 5.2-2.9 6.7-3.2 13.8-3.2 4.6 0 7.9.4 7.9 1 0 .5.7 1 1.6 1 .8 0 4.3 1.5 7.7 3.2 6.2 3.3 18.7 14.9 18.7 17.3 0 .7.3 1.5.8 1.7.8.3 4.3 7.3 6.2 12.5.7 1.8 2.1 3.5 3.2 3.8 1 .4 3.4 2.2 5.3 4.1 3.7 3.7 7.2 4.7 6 1.6-.4-.9-1.3-3.7-2.1-6.2-1.8-5.6-7.5-17.4-8.6-17.8-.4-.2-.8-.9-.8-1.5 0-.7-1.1-2.5-2.5-4.1-1.4-1.6-2.5-3.3-2.5-3.8 0-.9-9.2-9.8-10.2-9.8-.4 0-1.7-1-3-2.3-2.8-2.8-14-8.3-18.8-9.3-1.9-.3-8.1-.7-13.8-.8-5.7-.1-10.6-.6-11-1.1-.4-.6-2.7-2-5-3.3-3.8-1.9-5.9-2.2-16.2-2.2-6.9 0-12.1-.4-12.5-1-1-1.7-2.5-1.1-2.5 1zm36 12.7c0 .5-1.2 1.4-2.7 2-2.1 1-3.4 1-6 .1-5-1.8-4-2.8 2.7-2.8 3.3 0 6 .3 6 .7z"/><path d="M433.5 97.7c1.3 6.9 1.7 26.5.6 27.6-.6.6-1.1 1.8-1.1 2.6 0 2.1-4.9 8.1-6.6 8.1-.7 0-1.4.4-1.4 1s-2.8 1-6.4 1c-6.1 0-6.5-.1-7.4-2.8-.5-1.5-2.3-4.1-3.9-5.9-2.7-2.9-3.7-3.2-13.1-4.4-5.6-.7-10.6-.9-11-.4-.4.4-.1 1 .6 1.2.6.3 1.2 1.3 1.2 2.4 0 2.7 3.5 8.4 7.7 12.6l3.6 3.7 9.4-.2c5.1-.1 9.3.2 9.3.6 0 1.3-7.8 3.2-13 3.2s-12.8-2.9-16.4-6.2c-1.1-1-2.6-1.8-3.3-1.8-.7 0-1.3-.5-1.3-1 0-.6-.9-1-1.9-1-1.1 0-2.3-.5-2.6-1-.3-.6-3.1-1-6.1-1-3 0-5.4.4-5.4 1 0 .5-.7 1-1.5 1s-2.5.6-3.7 1.2c-3.2 1.9-10.8 9.9-10.8 11.5 0 .7-.4 1.3-1 1.3-.5 0-1 .4-1 .9 0 1 6.4 1.9 18.9 2.7 8 .5 8.5.4 13.3-2.5 6-3.8 7.5-3.8 11.3-.5 3.4 2.9 7 4.6 13.8 6.2 12.7 3.2 30.2-7.5 36.8-22.6 1.1-2.6 2.5-5.5 3-6.4.5-1 .9-2.9.9-4.2 0-1.4.5-2.8 1-3.1.6-.4 1-5.3 1-11.6 0-6.6-.4-10.9-1-10.9-.5 0-1-.6-1-1.3 0-1.8-5.7-4.7-9.2-4.7-2.9 0-3 .1-2.3 3.7zM403 137c0 .5.9 1 2 1s2 .7 2 1.6c0 1.6-1.7 1.4-7.2-.9-3.7-1.5-3.5-2.7.2-2.7 1.7 0 3 .4 3 1zm-24.8 5l2.2 2h-5.7c-4.3 0-5.7-.4-5.7-1.4 0-3 6.2-3.4 9.2-.6zm-245.7-19c-.3.5-3.8 1-7.6 1-3.9 0-8 .5-9.1 1.1-2.6 1.4-6.8 5.5-6.8 6.7 0 .4-.9 1.8-2.1 3.1-1.6 1.7-2.8 2.1-5.2 1.6-4.3-.8-7.7-2.6-10.5-5.3-2.6-2.5-6-2.2-9.8 1l-2.2 2 2.1 3.6c1.2 2.1 2.6 4.2 3.2 4.8.5.7 1.7 2 2.6 3 8.1 9.6 21.7 15.4 31 13.3 2.4-.6 5.5-1.6 6.8-2.2 3-1.5 14-1.3 16.9.2 3.8 2 16.6.8 19.2-1.9 1.6-1.6 5.4-3 8.1-3 1.7 0 3.7-.6 4.5-1.4 1.2-1.3.7-2.2-4.2-7-3-3.1-6.2-5.6-7-5.6-.8 0-1.4-.5-1.4-1 0-.6-.9-1-1.9-1-1.1 0-2.3-.5-2.6-1-.3-.6-4-1-8.1-1-4.3 0-7.4.4-7.4 1 0 .5-.7 1-1.6 1-.9 0-4.3 2.7-7.6 6l-6 6h-7.4c-4 0-8.6-.5-10.1-1.1-5.4-2.2-7.3-3.2-7.3-4.1 0-1.2 7.8-1 8.5.2.9 1.4 10.1 1.2 12.7-.3 3.1-1.7 8.8-7.8 8.8-9.4 0-.7.5-1.3 1-1.3.6 0 1-.9 1-2s.5-2 1-2c.6 0 1-.9 1-2s.5-2 1.1-2c.5 0 .7-.5.4-1-.3-.6-1.2-1-2-1s-1.7.4-2 1zm-12.7 13.2c-2.2 2-5.9 4-6.5 3.4-1.2-1.2.8-3.5 3.4-3.9 1.5-.2 3.2-.5 3.6-.6.5 0 .2.5-.5 1.1zm25.7 6.4c2.2.9-4.6 3.4-9 3.4h-3l2.5-2c2.5-2 6.4-2.5 9.5-1.4zm102.9 278.7c-4.2 4.3-7.2 6.7-8.4 6.7-.6 0-1 .4-1 .8 0 .5-1.2 1.5-2.7 2.3-1.6.8-3 1.6-3.3 1.9-1.2 1.2-5.1 3-6.5 3-.8 0-1.5.4-1.5 1 0 .5-1.3 1-2.9 1-1.6 0-3.1.6-3.5 1.5-.7 2-3.6.8-3.6-1.6 0-2-3.3-8.5-5.5-10.7-1-1.2-1.7-1-3.9.9-3.1 2.7-3.3 5.7-.6 8.7 1.1 1.2 2 2.8 2 3.7 0 .8.5 1.5 1 1.5.6 0 1 1 1 2.3 0 1.3.4 2.7.9 3.2.5.6 1.1 5.3 1.4 10.5.5 10.5 1 12.4 4.5 15.9 2.2 2.2 2.4 2.2 3.7.5 2.5-3.3 1.3-21.4-1.8-28.2-.8-1.6-.7-2.6.1-3.4.9-.9 1.2-.8 1.2.6 0 3.3 2.8 4.4 7.1 2.9 3.8-1.3 13.9-6.3 14.9-7.3.3-.3 2-1.7 3.9-3s5.9-4.7 8.9-7.6l5.4-5.1-2.3-2.7c-2.9-3.3-4.7-3.2-8.5.7zm77.4 6.9c-1 1.2-1.8 2.5-1.8 2.9 0 1.1 4.7 4.6 8.1 6.1 1.6.7 2.9 1.6 2.9 2 0 .5.6.8 1.3.8.6 0 2.3.9 3.7 2 1.4 1 5.7 2.9 9.7 4.2 7.8 2.5 10.3 5.1 8.3 8.8-1.8 3.4-1.2 6.6 1.5 7.8 1.4.7 3.1 1.2 3.6 1.2 1.9 0 3.9-2.8 3.9-5.4 0-1.4.5-2.6 1-2.6.6 0 1-1.6 1-3.5s.5-4.5 1.1-5.9c.9-1.9.9-3.2-.1-5.6l-1.2-3h-8.9c-4.8 0-9.1-.5-9.4-1-.3-.6-1.4-1-2.5-1-2.5 0-9.9-4-13.4-7.3s-6.5-3.4-8.8-.5zm-172.1 10.5c-1 1-.8 12.1.2 14.1.5.9 1.5 3.8 2.3 6.4.7 2.7 1.6 4.8 2 4.8.4 0 .8.9.8 2s.5 2 1 2c.6 0 1 .9 1 2s.5 2 1 2c.6 0 1 .9 1 2s.5 2 1 2c.6 0 1 .9 1 2s.4 2 .8 2c.5 0 1.5 1.2 2.3 2.7 1.9 3.8 3.5 5.3 5.3 5.3.9 0 1.6.4 1.6 1 0 .5 2.3 1 5 1 2.8 0 5-.3 5-.6 0-.4-1.5-2.3-3.2-4.4-5.9-6.6-8.8-10.5-8.8-11.8 0-.6-.3-1.2-.7-1.2-.9 0-3.3-4.9-3.3-6.7 0-.7-.4-1.3-1-1.3-.5 0-1-1.5-1-3.4s-.4-3.8-1-4.1c-.5-.3-1-2.2-1-4.1 0-3 .4-3.5 3-4.1 1.7-.3 3-.9 3-1.4 0-.5.9-.9 2-.9s2-.5 2-1c0-.6-.9-1-2-1s-2-.5-2-1c0-.6-.7-1-1.5-1-.9 0-3.5-.9-5.7-2-4.1-2-8.9-2.6-10.1-1.3zm105.3.2c-.8.5-2.8 1.5-4.5 2.2-1.6.8-3.7 2.1-4.5 3-.8.8-2.3 1.8-3.2 2.2-2.2.8-2.3 4-.2 7.2 2.1 3.2 2.8 3.1 6.6-.5 1.7-1.7 3.7-3 4.4-3 .8 0 1.4-.5 1.4-1 0-1.9 5.6-.5 8 2 .3.3 2.1 1.7 4 3.1 5.3 4.1 7.4 6.1 8.9 9.1.8 1.6 1.8 2.8 2.3 2.8.4 0 .8.9.8 2s.5 2 1 2c1.6 0 1.2 9-.5 10.7-2.2 2.1-7.7 2-11.9-.2l-3.5-1.9-2.6 2.4c-4.3 4-3.2 5.4 7.8 9.9 3.5 1.4 9.7 1.4 9.7.1 0-.6.8-1 1.8-1 3.4 0 10.2-9 10.2-13.5 0-3.2-2.2-10.5-3.2-10.5-.5 0-.8-.7-.8-1.5 0-1.7-3.1-5.4-11-13.4-7.4-7.5-12.4-11.1-15.5-11.1-.8 0-1.5-.5-1.5-1 0-1.2-1.9-1.2-4-.1z"/><path d="M297.3 440.5c-4.1 4.4-2.5 6.2 7.2 8.1 8.5 1.7 29.7.5 31.1-1.7.3-.5 1.4-.9 2.5-.9 3.2 0 2.2-1.5-2.6-4-3.6-1.9-5.2-2.1-8.7-1.5-6 1.1-13.6 1-18.3-.3-8.3-2.3-8.9-2.3-11.2.3zm-64 4.9c-1.3.6-2.3 1.9-2.3 2.9 0 2.2 5.2 10 9.7 14.5 1.8 1.8 3.3 3.7 3.3 4.2 0 2.2 6.4 7 9.2 7 2.8 0 5.8-1.9 5.8-3.7 0-.5-3.6-4.6-8-9.2-4.4-4.5-8-8.9-8-9.7 0-.8-.4-1.4-1-1.4-.5 0-1-.7-1-1.6 0-1.9-2.4-4.4-4.2-4.3-.7.1-2.3.6-3.5 1.3zm69.6 7.3c-1.5 3.8-1.5 5.4-.6 16 .5 5.1 1.3 9.3 1.8 9.3s.9.9.9 2 .5 2 1 2c.6 0 1 .7 1 1.5 0 .9.9 2.5 2 3.7 1.1 1.2 2 2.7 2 3.3 0 .6 1.2 1.8 2.8 2.6 1.5.8 2.9 1.6 3.2 1.9.3.3 1.7 1.1 3.2 1.9 2.2 1.1 3.1 1.1 5.7 0 1.7-.8 3.1-1.7 3.1-2.1 0-.5.7-.8 1.5-.8s1.5.4 1.5 1c0 .5-.5 1-1.1 1-.7 0-1.9.8-2.8 1.8-3.8 4.1-15.1 8.2-22.8 8.2-4.4 0-5.8.5-7.8 2.4-1.4 1.4-3.3 2.9-4.2 3.4-1.4.9-1.5 1.3-.4 2.6 1.6 1.9 14.3 2.3 19.5.6 1.7-.5 5.2-1.5 7.9-2.2 2.6-.7 4.7-1.6 4.7-2 0-.4.9-.8 2-.8s2-.5 2-1c0-.6.5-1 1.1-1 1.4 0 9.2-5.4 12.3-8.5 1.3-1.3 3.4-3.8 4.7-5.7 1.3-1.8 3-4 3.9-4.8 3.7-3.5 8.1-11.1 7.5-13-.5-1.4-.2-2 .9-2 .9 0 1.6.4 1.6 1 0 .5 1.1 1 2.5 1 2.8 0 7.5-4 7.5-6.3 0-1.7-4.2-3.7-7.5-3.7-1.4 0-2.5-.4-2.5-.9s-1.5-1.1-3.2-1.5c-1.8-.3-6.2-1.1-9.8-1.7-7.3-1.4-17-1.6-21.5-.5-7.4 1.9-13.5 6-13.5 9.3 0 2.3 2.2 7.3 3.2 7.3.4 0 2.3-1.4 4.1-3 1.9-1.7 4.2-3 5.1-3 .9 0 1.6-.5 1.6-1 0-.6 4.1-1 10.3-1 7.7 0 11.4.5 15.2 2l5 1.9-4.1.1c-3.4 0-4.3.4-5.5 2.7-.8 1.6-1.6 3-1.9 3.3-.3.3-1.7 2.1-3 4-2.8 4.1-7.8 9-9.1 9-.5 0-.9-.7-.9-1.5 0-.9-.9-1.5-2.4-1.5-1.4 0-2.8-.5-3.1-1-.3-.6-1.3-1-2-1-3.1 0-12.5-9.4-12.5-12.4 0-.8-.5-1.6-1.2-1.8-.8-.3-1.1-3.8-1.1-11.1 0-9.8-.1-10.7-1.8-10.7-1.1 0-1.9-.5-1.9-1 0-2.2-3.1-.8-4.1 1.7z"/><path d="M269.5 460.3c-1.1 1.2-3.1 3.8-4.5 5.7-3.4 4.8-11.6 12.7-14 13.5-1.1.3-2 1.1-2 1.6 0 1.6-9 1-10.7-.7-1.8-1.8-2.2-9.6-.4-10.2 2.8-.9.3-10.2-2.8-10.2-1.7 0-4.1 2.5-4.1 4.2 0 .8-.5 1.9-1.2 2.6-.6.6-1.1 4.3-1.1 8.7 0 7.3 0 7.5 3.5 10.7 3.8 3.3 11.8 6 14 4.7.7-.5 2.5-.9 4.1-.9 1.5 0 2.7-.5 2.7-1 0-.6.6-1 1.4-1 1.8 0 16.7-14.6 19.2-18.8 1-1.8 2.2-3.2 2.6-3.2 1.2 0 1-2.5-.4-5.5s-3.6-3.1-6.3-.2z"/><path d="M173.3 461.6c-2.6.6-3 3.8-1 6.6 1.1 1.4 3 1.7 10.8 1.6 8-.1 10 .2 13.4 2.2 9 5 13.5 9.1 15.8 14.2.6 1.6 1.5 2.8 1.9 2.8.5 0 .8.7.8 1.5s.5 1.5 1 1.5c.6 0 1 .6 1 1.3 0 .7 2 3.5 4.5 6.3 2.4 2.7 4.4 5.2 4.5 5.6 0 1.3-14.7.9-19-.4-2.2-.7-4-1.6-4-2 0-1.3-9.7-.9-14 .4-4.3 1.4-5.3 2.8-2 2.8 1.1 0 2 .4 2 1 0 .5.8 1 1.8 1s2.2.4 2.7.9c.6.5 3.9 1.9 7.5 3.2 5.1 1.8 8.7 2.3 16.7 2.3 5.9 0 11.2-.5 12.7-1.2 1.4-.7 3.8-1.7 5.4-2.3 1.5-.6 3.5-1.5 4.4-2 1-.5 2.5-.9 3.3-.9.8 0 1.5-.4 1.5-.8s2.1-1.3 4.8-2.1c2.6-.7 5.7-1.7 7-2.2 3.8-1.5 9.7-.7 15.4 2.2 4.1 2.1 12.8-.1 12.8-3.1 0-1.5-4.2-4-6.7-4-.7 0-1.3-.5-1.3-1 0-.6-1.3-1-2.8-1-1.5 0-3.3-.5-3.9-1.1-1.8-1.8-25.3.2-25.3 2.2 0 .5-.9.9-2 .9s-2 .4-2 1c0 .5-.9 1-1.9 1-1.1 0-2.3.4-2.6 1-.9 1.4-3.5 1.2-3.5-.3 0-.6-1.6-3-3.5-5.1-2-2.1-4.3-5.2-5.2-6.7-1-1.6-2.1-2.9-2.5-2.9-.4 0-.8-.6-.8-1.3 0-.6-1.1-2.6-2.5-4.2-7.7-9.2-10.8-12.5-11.6-12.5-.6 0-1.9-.9-3.1-2-1.2-1.1-2.9-2-3.8-2-.9 0-2-.4-2.6-1-1.1-1.1-20.5-2.2-24.1-1.4zm58.4 42c-.3.3-1.2.4-1.9.1-.8-.3-.5-.6.6-.6 1.1-.1 1.7.2 1.3.5z"/><path d="M147 481.9c0 2.1 10.5 12.1 12.7 12.1.7 0 1.3.3 1.3.7 0 .9 4.9 3.3 6.7 3.3.7 0 1.3.4 1.3.9 0 2.8 23.5 2.8 26.4 0 .6-.5 2-.9 3.3-.9 1.3 0 2.3-.5 2.3-1 0-.6.9-1 2-1s2-.5 2-1c0-.6.6-1 1.3-1 1.8 0 4.7-3.2 4.7-5.1 0-.8-1-2.6-2.3-4.1l-2.3-2.7-3.5 3c-1.9 1.6-4 2.9-4.6 2.9-.7 0-1.3.4-1.3 1 0 .5-1.1 1-2.4 1-1.4 0-2.8.4-3.1 1-.3.5-4.6 1-9.6 1-5.3 0-8.9-.4-8.9-1s-.8-1-1.8-1c-2.1 0-11-5.4-13.3-8.1-1.2-1.4-3-1.9-6.3-1.9-3.8 0-4.6.3-4.6 1.9zm154 2.1c0 1.1-.4 2-1 2-.5 0-1 .9-1 2s-.4 2-.8 2c-.5 0-1.5 1.2-2.3 2.7-1.8 3.6-13.7 15.3-15.5 15.3-.8 0-1.4.4-1.4 1 0 .5-.9 1-2 1s-2 .4-2 .9c0 1.7-15.5 3.7-18.4 2.3-7-3.5-21.6-2.8-21.6.9 0 1 .7 1.9 1.5 1.9s2.3.4 3.3.9c7.4 3.8 14.9 5.3 22.8 4.8 10.1-.7 12.8-1.4 21.9-6 4.6-2.2 20.5-17.9 20.5-20.2 0-.8.5-1.5 1-1.5.6 0 1-1.5 1-3.4s-.4-3.8-1-4.1c-.5-.3-1-1.5-1-2.6 0-1.2-.7-1.9-2-1.9s-2 .7-2 2z"/></svg>