<svg id="Layer_1" data-name="Layer 1" xmlns="http://www.w3.org/2000/svg" viewBox="0 0 216.02 262.65"><defs><style>.cls-1{font-size:42.4px;fill:#49274a;}.cls-1,.cls-4{font-family:PrioriAcuteOT-Serif, Priori Acute OT;}.cls-2{letter-spacing:-0.02em;}.cls-3{letter-spacing:0em;}.cls-4{font-size:13.55px;fill:#94618e;}.cls-5{letter-spacing:-0.02em;}.cls-6{letter-spacing:0em;}.cls-7{letter-spacing:-0.04em;}.cls-8{letter-spacing:-0.02em;}.cls-9{fill:#a39591;}</style></defs><title>Artboard 1</title><text class="cls-1" transform="translate(7.98 237.57) scale(1.06 1)">CLAN<tspan class="cls-2" x="106.89" y="0">N</tspan><tspan class="cls-3" x="136.78" y="0">AD</tspan></text><text class="cls-4" transform="translate(32.15 250.99) scale(0.86 1)">COUNSELLI<tspan class="cls-5" x="70.97" y="0">N</tspan><tspan x="80.59" y="0">G &amp; C</tspan><tspan class="cls-5" x="112.35" y="0">O</tspan><tspan class="cls-6" x="121.96" y="0">NSU</tspan><tspan class="cls-7" x="147.54" y="0">L</tspan><tspan x="154.21" y="0">TI</tspan><tspan class="cls-8" x="166.8" y="0">N</tspan><tspan x="176.42" y="0">G</tspan></text><path class="cls-9" d="M126.89,92.87c0,1,1.52-.28.94,1s-1.48,2.38-2.11,3.57a19.72,19.72,0,0,1-1.77,3.16,3.7,3.7,0,0,1-1.14,1c-.78.41-1.22.53-1.35-.45-.7-5.2,4.68-10.48,1.68-15.47,1.44,4-.75,7.59-1.7,11.34-.31,1.22-1,3.53-.26,4.65a1.43,1.43,0,0,0,1.2.63c.66,0,1.23-.86,1.67-1.24-2.28,8.5-3.62,17.27-2.19,26.07a38.92,38.92,0,0,0,9.44,19.91,29.53,29.53,0,0,0,8.63,7,22,22,0,0,0,5.45,1.77,32.76,32.76,0,0,1,5.82,1.15c1.89.73,3.39,1.6,5.48,1.69A24,24,0,0,0,163,158c4.21-1,7.82-3.32,11.49-5.5,1.74-1,3.42-2.27,5.2-3.21.62-.33.68-.47,1,.12a4.16,4.16,0,0,1,0,2.51c-.52,1.3-2.42,2.19-3.47,3a46.32,46.32,0,0,0-4.34,3.91c-5.24,5.37-8.32,11.66-10.78,18.65-2.41,6.83-5.5,14.76-11.21,19.54a18,18,0,0,1-8.89,4.09c-.68.09-1,.13-.66-.56s1.51-1.54,2.06-2.22a7.38,7.38,0,0,1,2-2A23.08,23.08,0,0,0,147.6,195c6.89-5.21,9.59-15.12,11.42-23.13.21-.92,1.73-5.21,0-5.66-.8-.21-2,1.52-2.53,2q-1.32,1.28-2.69,2.49a34.89,34.89,0,0,1-5.27,4.19c-1.5.87-4.29.55-5.78-.29.47-.84,1.74-1.06,2.5-1.58a13.43,13.43,0,0,0,3.1-2.82c1.32-1.7,2.58-4.78,0-5.93s-5.66.47-7.79,1.77a32,32,0,0,0-6,4.68,25,25,0,0,0-2.34,2.71c-.65.87-1.21,2.45-2,3.1-.57.44-3.16.16-3.34-.74-.11-.53.59-1.54.8-2a18.46,18.46,0,0,1,2.49-3.68c1.82-2.15,4.06-4.06,5.66-6.38,3-4.38-2.93-8.71-6.73-9.8-5.78-1.67-1.1,8,.15,9.89q.54.81,1.15,1.58c.31.39,1,1,1.18,1.42.2.65-.9,2.32-1.57,2.61-1.61.69-2.56-3.79-4.06-3-.72.37-.94,2.69-1.13,3.42A40.7,40.7,0,0,1,123.5,174a30.15,30.15,0,0,1-4,7.44c-.87,1.16-1.06.77-2-.08s-1.79-1.37-.87-2.64a26.55,26.55,0,0,0,3.72-8.33c.83-2.9,1.77-6.51,1.19-9.53-.2-1.06-.61-2.48-1.91-2.54s-2.75,1.72-3.69,2.56c-.07-.55.41-1.22.57-1.73a10.54,10.54,0,0,0,.46-2.21,9.1,9.1,0,0,0-.75-4.59,7.33,7.33,0,0,0-.83-1.25,5,5,0,0,0-.88-1.22c-.93-.8-2.55-.5-2.17,1,.41-.62.78-1.31,1.57-1,.34.15.61.62.87.84.08.07.63.44.65.48a1,1,0,0,0,.09.77q.19.34.36.68a7.32,7.32,0,0,1,.48,1.56,8.64,8.64,0,0,1,0,3.16,17.29,17.29,0,0,1-2.45,6c-.41.66-1.23,2.36-2,2.72s-1.18-.43-1.66-1c-1.39-1.63-.37-2.19.57-3.88a12.83,12.83,0,0,0,1.61-5.85c.06-1.91-.09-3.94-1.38-5.45a3,3,0,0,0-2.44-1.26c-1.11.07-1.44,1.05-2.38,1.25.06-1.21.63-2.3.69-3.54a16.74,16.74,0,0,0-.35-3.91,32.28,32.28,0,0,0-2.67-7.6A52.69,52.69,0,0,1,99.14,119a44.2,44.2,0,0,1,1.19-16.55,29.66,29.66,0,0,0,1.34-8.8c-.08-2.23-.35-5.27-1.78-7.08a25.51,25.51,0,0,1,.83,11.53c-.62,4-2.08,7.74-2.41,11.81a48.92,48.92,0,0,0,4,23.16c1.53,3.52,3.32,6.77,3.83,10.63a43.62,43.62,0,0,1,.12,5.53l-.26.23a.82.82,0,0,0,.23.5,10.05,10.05,0,0,1-.38,1,12.68,12.68,0,0,0-.67,2.77c-.86,7.1,5.15,13.45,10.26,17.52.88.7,2.89,1.55,2.77,2.84-.06.68-.69,2.45-1.53,2.3-.37-.07-.92-.64-1.22-.86-.8-.58-1.6-1.16-2.38-1.77Q111,172,109,170.18a59.67,59.67,0,0,1-7.21-8c-.89-1.19-1.85-3.1-3.22-3.82s-2.43.35-2.75,1.65c-.9,3.69.33,8.23,1.45,11.75.48,1.5.23,1.93-1.17,2.6s-1.6.19-2.09-1.12c-.7-1.87-1.31-3.77-1.94-5.66-.17-.51-.32-1.45-1.08-1.08-.6.29-1.18,1.6-1.61,2.1a29.53,29.53,0,0,1-3.8,3.66,23.76,23.76,0,0,1-4.22,3.2c-.82.4-5.24-.25-4.74-1.31.26-.54,2.07-1.22,2.6-1.56q1.35-.87,2.63-1.83A22.75,22.75,0,0,0,89.12,162c.63-1.38,3.4-7.21,1.13-8.14-1.18-.48-3.09.33-4.13.84-1.85.91-3,2.57-4.72,3.62-.2,0-.7.1-.65.32-.35,0-1.16,0-1,.35-.5.07-1.28.08-1.41.34a1.09,1.09,0,0,0-.71.34.35.35,0,0,0-.35.34c-.58.81-.49,2.17.29,2.46a.44.44,0,0,0,.42.41s0,.28.34.35a1,1,0,0,0,.71.35c.49.73,1.84.74,2.81,1a3.05,3.05,0,0,1,1.27.86,7.94,7.94,0,0,1,1.27,1.37c.21.67-1.17,1.86-1.7,2.25-.86.62-1.34.2-2.11-.4a22.58,22.58,0,0,0-7.83-4.19c-1.17-.32-2.89-.67-4-.08s-1.1,2-.87,3.05c.55,2.56,2.94,4.73,5.05,6.08a23.25,23.25,0,0,0,8.09,3c1.65.32,3.26.15,4.9.34,1.45.16,1.32,1.31,1.72,2.54.52,1.6,0,1.56-1.61,1.5a30.25,30.25,0,0,1-5.18-.66c-6.07-1.31-11.29-4.69-16-8.59-1.16-1-2.29-2-3.36-3-.57-.57-1.83-2.56-2.76-2.58-2.29-.05-.16,6.9.12,8a46.58,46.58,0,0,0,3.32,9.05q.52,1.06,1.1,2.09a7.89,7.89,0,0,1,1,1.73c.19,1.16-2.19,1-3,.9-1.36-.22-1.78-1.36-2.39-2.47-.85-1.55-1.67-3.11-2.43-4.71-1.35-2.82-2.32-5.75-3.43-8.66A37.76,37.76,0,0,0,43,157.36,42.3,42.3,0,0,0,36,152c-2.77-1.63-6-2.63-8.65-4.51-1-.69-.81-1.57-.61-2.66.13-.69.18-1.1.92-1,.93.07,2.19,1,3,1.42,1.6.83,3.17,1.7,4.73,2.61,5.51,3.21,10.67,7.4,16.8,9.37a25.57,25.57,0,0,0,9.3,1.25,9,9,0,0,0,4.09-1.24,13.38,13.38,0,0,1,4.33-1.16A27.76,27.76,0,0,0,83,150.23c9-7.41,12.63-19.4,13.15-30.68.3-6.52-.37-13.45-3.18-19.42A38.34,38.34,0,0,0,81.44,86a10.55,10.55,0,0,0-3.74-1.71c-1.09-.26-3-.67-4-.15-.87.43-1.1,1.75-1.69,2.49a5.83,5.83,0,0,1-2.92,1.95c-1.21.36-2.47.18-3.67.51s-2.32,1.59-2-.41c.46-2.56,1.32-5.22,3.69-6.63s5,0,7.62-.52c-.68-1-2-1-2.81-1.85,2.18-.26,4.34-.66,6.53-.83a21.58,21.58,0,0,1,3.25,0,9.83,9.83,0,0,1,1.63.21c.64.17.62.32,1.16.6s.7.1,1.13.22c-.49-.14,1.08.61.71.34.3.22.4.53.74.74s.7.15,1,.32c0,0,.61.6.69.67q.36-.11.44.2a1.09,1.09,0,0,0,.3.41.54.54,0,0,0,.48.13q.32-.11.25.28a8.52,8.52,0,0,1,.69.69c.3.28.68.23,1,.42l.06.29a.74.74,0,0,1,.66.45,29.58,29.58,0,0,1,2.25,2.32,9.73,9.73,0,0,1,2.81,4.71,7.66,7.66,0,0,1-1,5.19,12,12,0,0,0-.59,2.56,4.07,4.07,0,0,1-.75,1.32c.46-.29.49-.51.73-1,.57-1.19,1.12-2.53,1.58-3.79.83-2.27,1-4.75-.55-6.78a20.12,20.12,0,0,0-4.68-4.78,4.64,4.64,0,0,1-.72-.8c-.41-.45-.77-.41-1.23-.7-.2-.12-.35-.62-.63-.79s-.46-.16-.59-.25-.33-.41-.57-.57-.53-.07-.66-.15-.31-.41-.47-.54a5,5,0,0,0-1.09-.48A14.32,14.32,0,0,0,84,79.24a12.25,12.25,0,0,0-3.34-.74,25.59,25.59,0,0,0-4.29.27c-1.34.18-2.67.42-4,.48s-2.78-.11-4.18-.11a11.45,11.45,0,0,0-3.49.53c-.87.28-2.43.72-2.9,1.59s.1,2.37,0,3.34a6.54,6.54,0,0,1-1.23,3c-1.56,2.11-4.18,3-5.33,5.44-1.53-3.44-2.72-7.89,0-11.1,1.11-1.31,2.48-1.57,4-2.12a8.86,8.86,0,0,0,2.14-1.31A27.87,27.87,0,0,1,64.31,77c-3.9-.94-8-2.17-12-1.4-3,.58-7,2.66-7.29,6.07-.15,1.48,0,3,1.5,3.53a7.48,7.48,0,0,1,3.71,2.27c2.18,2.68,1.21,6.35,2.16,9.45-2.24-2.09-6-2.65-7.78-5.16a5,5,0,0,1-.78-3.13,8.51,8.51,0,0,0-.41-3.69,11.55,11.55,0,0,0-1.06,2.84c-.17,1,0,2-.11,3.07A8.14,8.14,0,0,1,40,95.76c-2.74,2.7-7.3,3.05-10.9,3.49,2.17-2.06,2.36-4.78,3.54-7.35a7,7,0,0,1,5.33-4c1.25-.24,2.44-.24,3-1.57.59-1.52.84-3.23,1.39-4.79a13,13,0,0,1,2-3.7,11.5,11.5,0,0,1,1.52-1.6c.41-.35,1.29-.72,1.37-1.29-6.94,0-15.24,1-20.29,6.32q-4.28,4.53-8.51,9.11-2.06,2.25-4.06,4.55c-.31.36-.64,1-1.13.84s-.78-2-.85-2.41a3.16,3.16,0,0,1,.9-2.54c1.25-1.72,2.56-3.4,3.83-5.1s2.53-3.34,3.8-5a9.21,9.21,0,0,0,2.21-4.93c.28-3.68-2.26-7.17-2.9-10.74a24.12,24.12,0,0,1,1.12-12.05A27.78,27.78,0,0,1,36.56,36.67c-.47,1.15-.94,2.3-1.34,3.48-.29.88-.34,2.27-1,2.93s-1.7,1.05-2.43,1.65a16.06,16.06,0,0,0-2.11,2.08,22.53,22.53,0,0,0-4.91,11.63c-.42,3.76.11,8.54,3.49,10.87,3.6,2.48,8.63,1.63,12.58.67-.89-1.25-2.91-.9-4.23-1.36a6.42,6.42,0,0,1-3.06-2.21c-1.88-2.54-1.55-6.26-.58-9.1,1.74,2.51,5.24,2.8,6.9,5.45a6.09,6.09,0,0,1,.82,2.11,11,11,0,0,0,.22,2c.54,1.36,3.11,1.68,4.34,1.93,3.94.81,8.12.49,12.12.84,2,.18,4.07.52,6.1.83a9.43,9.43,0,0,1,2.61.49c.62.29,1,.9,1.74,1-.14.38.92.9,1.4,1-.12.19.39.37.71.34-.17.28.54.35.64.29a7.15,7.15,0,0,0,5.06,1.07,7.47,7.47,0,0,1,4.46,1.07,7.32,7.32,0,0,0-1.18-2.53c-.58-.69-1.33-1.24-1.93-1.92A6.48,6.48,0,0,1,75,66.43c.23-3.57,2.53-6.69,5.28-8.8.17,2.53,1.49,4.53,2.49,6.77a6.66,6.66,0,0,1-.68,6.74A2.49,2.49,0,0,0,81.79,74a15.43,15.43,0,0,0,2,2.89A17,17,0,0,0,89,81c.08-1.11-.77-1.68-1.39-2.46a7.43,7.43,0,0,1-1.45-2.94A8.21,8.21,0,0,1,87.2,69.7a12.12,12.12,0,0,1,2.18-2.86c1-.88.8.12,1,1,.5,2.15,2.24,3.72,2.53,6a5.77,5.77,0,0,1-.5,3.15c-.45,1-1.42,1.77-1.33,2.91.14,1.87,2,3.73,3.53,4.63,1,.58,3.21,1.84,4.15.67a4.18,4.18,0,0,0,.47-2.56c0-.46-.76-3.18-.51-3.46.43-.48.88,1.17.95,1.3.48.95,1.13,1.82,1.63,2.76a36.9,36.9,0,0,1,2.79,6.73,30.77,30.77,0,0,1,1,14.44c-1,5.19-2.4,10.32-2,15.66.39,4.76,2.67,8.23,6.13,11.39a114,114,0,0,1,11.53,11.78c1.56,1.9,2.91,4.19,5.05,5.49a10.06,10.06,0,0,0,6.43,1.16c-.55-.42-1.35-.24-2-.3a9.91,9.91,0,0,1-2.31-.46,9.29,9.29,0,0,1-3.78-2.45c-1.15-1.21-2-2.69-3.09-4-1.41-1.74-2.85-3.46-4.37-5.11-2.76-3-6.08-5.37-8.85-8.33a15.74,15.74,0,0,1-4.1-10c-.27-4.51.78-8.88,1.69-13.26a30.69,30.69,0,0,0,.19-12.22,34.81,34.81,0,0,0-4.3-11.55c-.53-.87-1.16-1.64-1.75-2.46a12.33,12.33,0,0,1-1.23-2.5c-.43-1-1-2-1.32-3.09a12.63,12.63,0,0,1-.2-3.38,15.46,15.46,0,0,0-1.56-6A12.55,12.55,0,0,0,94,62.42c-.2-.25-.49-.45-.67-.67s-.35-.6-.62-1-.48-.4-.78-.62-.51-.48-.87-.78a4.5,4.5,0,0,0-.7-.37Q90,59,90,58.66a.54.54,0,0,0-.56,0c-.29-.23-.35-.46-.71-.67a2.31,2.31,0,0,0-.68,0,3.58,3.58,0,0,0-.85-.48A5.7,5.7,0,0,0,84,57.36a12.39,12.39,0,0,1,3.57.51c.63.18,1.21.48,1.91.72.25.09.67.57.87.67s.78.3.89.37.4.57.54.72a11.81,11.81,0,0,0,1,.94.29.29,0,0,1,.24.38q.47,0,.28.44c.18.27.49.47.66.72a17.84,17.84,0,0,1,1.27,3,16.55,16.55,0,0,1,1.22,6.51c-.7-.25-1-1.43-1.38-2q-.87-1.45-1.87-2.82A38.54,38.54,0,0,0,89,62.69a40.55,40.55,0,0,0-10.37-7.32c-9.55-4.76-20-6.8-30.54-4.7a47.66,47.66,0,0,0-13.76,4.83,32.2,32.2,0,0,0-6.06,4.29c-.47.43-1.67,2.16-2.23,2.15s-.44-2.52-.4-3.1a12.63,12.63,0,0,1,.64-3.7c.43-1.1,1.63-1.77,2.54-2.45a40,40,0,0,1,5.84-3.56A46.16,46.16,0,0,1,48.9,44.92a57.13,57.13,0,0,1,30,4A62.35,62.35,0,0,1,91.46,56c1.77,1.3,3.13,3.09,5.14,4,.78.34,1.1.62,1.28-.38a14.55,14.55,0,0,0-.26-4.19,72.13,72.13,0,0,0-4-15,25.5,25.5,0,0,0-6.12-10.09,23.32,23.32,0,0,0-10-5.45A49.83,49.83,0,0,0,70,23.27c-.45-.05-1.87.09-2.11-.41s.85-2,1.07-2.36c.41-.76.72-1.74,1.61-2s2.45.25,3.42.47c2.67.6,5.29,1.3,7.89,2.13s5.05,1.69,7.53,2.67c2.21.87,4.33,1.51,6.69.83s4.29-2.36,6.22-3.72c1.15-.81,1.51-.85,2.66,0,.43.31,2.62,1.46,2.67,2s-1.71,1.32-2.11,1.59a26.7,26.7,0,0,0-2.92,2.23A14,14,0,0,0,98.66,32a9.54,9.54,0,0,0,0,6.87c.6-1.21,1.66-2.64,1.65-4a9.13,9.13,0,0,1,.37-3.69c.9-2.28,3-3.43,5.25-4a20.29,20.29,0,0,0,2.23-.57c.34-.14.86-.66,1.25-.52.87.32.24,2.9.17,3.57-.24,2.33-1,4.56-3.07,5.91a9.84,9.84,0,0,1-3.11,1.19,2.61,2.61,0,0,0-2.05,2.34,9.36,9.36,0,0,0,1.79,8.33c1.13,1.5,3.47,6.09,5.85,5.53s4.14-4.43,4.25-6.64c.07-1.55-1.11-1.72-2.14-2.58a5.55,5.55,0,0,1-2-3.14c-.68-3.35,1.85-6.32,1.09-9.74,3.11,2.33,6.65,5.05,6.45,9.36A8.83,8.83,0,0,1,116,43c-.09.23-1,2.25,0,1.78.34-.16.8-1.53,1-1.85A24.33,24.33,0,0,0,118.36,40c1.49-4,1.22-8-1.74-11.12a61.82,61.82,0,0,0-10.09-8.18,103.82,103.82,0,0,0-11.75-6.53c-1.1-.57-.57-.87.28-1.47a19.58,19.58,0,0,1,2.73-1.61c1.95-.94,4.07.9,5.76,1.89,4,2.36,7.81,5.22,11.66,7.89,3.24,2.25,6.29,4.83,10.47,4a9.08,9.08,0,0,0,4.47-2.17c1.71-1.58,1.35-2.75,0-4.42A26.9,26.9,0,0,0,128,16.08c-.38-.36-2.35-1.66-2.36-2.18,0-.69,4.59-1.43,5.21-1.08A11.44,11.44,0,0,1,133,15c.77.84,1.48,1.72,2.18,2.62a5.24,5.24,0,0,0,4.27,2.24,27.47,27.47,0,0,0,6.6-1.1,39.51,39.51,0,0,1,6.61-1c8.1-.42,15.93,3.52,21.27,9.5a31.51,31.51,0,0,1,3.25,4.36c.32.51,1.39,1.79,1.39,2.36,0,.93-1.35.28-1.85.2-1.78-.29-2.92-.1-4.23-1.59s-2.27-3-3.64-4.26a21.54,21.54,0,0,0-9.44-5.27c-4.26-1.11-8.89-.65-13.18.06-7.86,1.3-15.69,4.23-19.93,11.39a32.41,32.41,0,0,0-2.72,5.75,18,18,0,0,1,3.36-1c.66-.13,1.93,0,2.44-.55s.51-1.59.75-2.2a7.23,7.23,0,0,1,1.16-2c2.34-2.83,6.45-3,9.79-3.55C138.71,34,139,38.87,135,40.42c-1.72.67-3.54.35-5.33.56a10.16,10.16,0,0,0-4.94,1.85,9.32,9.32,0,0,0-3.41,4.88A27.84,27.84,0,0,1,118.94,54c-.47.86-.56,1.66-1.72,1.36s-1.31-1-1.62-1.94c-.76-2.3,0-4.83.14-7.15a9.68,9.68,0,0,0,.16,8.38c.62,1,1.15,1.53,2.24.76a5.22,5.22,0,0,0,1.1-.95c.36-.44.43-1,.94-1.38a11.08,11.08,0,0,1-.41,3,9.94,9.94,0,0,1-.18,1.46c-.17.38-.73.65-1,.95-.49.54-.71,1.33-1.17,1.8s-1.25.49-1.35,1.11c-.21-.11-1-.25-1.09-.36a6.79,6.79,0,0,0-.37-.89q-.47-.07-.29-.47l-.07-.26a7.26,7.26,0,0,1-.6-1.56A58.34,58.34,0,0,1,112.35,51c-.4,1.82.11,3.65.46,5.43a10.84,10.84,0,0,0,.8,2.56c.12.27.23.52.35.78a.3.3,0,0,0,.33.24.61.61,0,0,0,.06.53c.31.36.84,1,1.32,1.08a4.62,4.62,0,0,0,1-.32c.2-.1.42-.45.55-.59.35-.39.74-.71,1.14-1.14.56-.6.62-1.43,1.15-2,.36.68-.58,2.58.39,2.79.82.17,1.89-1.38,2.28-1.91A9.85,9.85,0,0,0,124,55.12c.27-1.21-.28-2.17-.55-3.3-1.11-4.7,3.21-8,7.07-9.53-1,1.94-.45,3.63-.35,5.66a7.09,7.09,0,0,1-1.36,4.68c-.52.69-1.23,1.12-1.8,1.74s-.73,1.31.18,1a17.53,17.53,0,0,0,2.63-1.73q1.44-.9,2.92-1.73a57.64,57.64,0,0,1,26.05-7.18,59.78,59.78,0,0,1,13.75,1c1.64.31,4,.26,4,2.32,0,1.05.16,4.45-1.27,4.49a12.59,12.59,0,0,1-2.9-.9c-1.12-.3-2.25-.55-3.38-.76a49.2,49.2,0,0,0-6.91-.76,43.63,43.63,0,0,0-12.94,1.42,54.72,54.72,0,0,0-13.73,6c-2.07,1.23-3.79,2.83-6.24,3.18-.68.1-5.9,1-5.39,1.76-.56-.08-.9.29-1.12.75a.35.35,0,0,0-.35.36c-.33-.19-1.06.93-1,1.4-.3,0-1,1.19-1.23,1.67a8.75,8.75,0,0,0-.71,2.63c-.22,1.65-.6,3.78.59,5.15.25.67-.24,1.79-.48,2.63-.33,1.17-.6,2.36-.83,3.56-.46,2.36-.06,4.67-.5,7-.89,4.69-3.94,8.59-4.8,13.28A21.73,21.73,0,0,0,114.82,114c.84,1.8,2.22,4.66,4.09,5.61,1.68.85,2-1.43,1.92-2.55-.44.25-.25,1.51-.67,1.94-.81.82-1.52-.08-2-.7a20.24,20.24,0,0,1-3.35-5.7,21.9,21.9,0,0,1-.48-13.38,49,49,0,0,1,2.83-6.69,21.17,21.17,0,0,0,1.25-3.33,13.45,13.45,0,0,0,.35-1.75c.06-.45-.1-1.34.2-1.68s1.76-.28,2.35-.43a6.25,6.25,0,0,0,2.42-1.21c1.09-.88,3-3,2.91-4.48-.06-1-1.36-2-1.77-2.93a5.19,5.19,0,0,1-.25-3.4c.63-2.53,3-4.18,2.8-7,1.87,2.44,4.18,4.77,4.35,8a5.79,5.79,0,0,1-1.08,3.72c-.68.95-2.51,1.8-2.35,3.13a10.78,10.78,0,0,0,4.31-3.65A8.69,8.69,0,0,0,134,75.24c.23-.87-.53-1.59-.91-2.35a7.47,7.47,0,0,1-.15-6.41c.93-2,2.63-3.59,3.22-5.72.11-.39,0-2.14.55-2.07S138,60.61,138.18,61a14.39,14.39,0,0,1,2.35,5.46,9.44,9.44,0,0,1-.74,5.35,7.33,7.33,0,0,1-1.38,1.92c-.61.62-1.74,1.1-2.19,1.85-.73,1.21.75.47,1.25.22a16.93,16.93,0,0,1,3-1.35,10.81,10.81,0,0,1,3.51-.06,9.24,9.24,0,0,0,3.92-.78c.15.12,1-.07,1-.29.3,0,.84-.16.7-.35.31,0,.8-.19.71-.34.33-.06.43-.25.34-.36a1,1,0,0,0,1.05-.69c.39,0,.38-.33.35-.35a.32.32,0,0,0,.38-.35c1.89-1.38,5.13-1.21,7.37-1.39,2.77-.22,5.56-.14,8.33-.37a24.69,24.69,0,0,0,4.19-.71c.87-.23,2.21-.41,2.84-1.1s.45-1.72.66-2.52a6.44,6.44,0,0,1,1.26-2.48c1.42-1.71,3.46-2,5.27-3.15.74-.45,1.32-1.72,1.89-.88a5.89,5.89,0,0,1,.23,2.09,12.79,12.79,0,0,1,0,2.07,7.89,7.89,0,0,1-2.84,5.52,5.57,5.57,0,0,1-2.32,1c-1,.19-2.32-.16-3,.81,3.2.51,7,1.75,10.18,1a7.48,7.48,0,0,0,5.62-5.57c.22-.93,0-2.3,1.16-1.63A9.66,9.66,0,0,1,196.05,66c1.28,1.72.76,3.79.18,5.68-.89,3-1.95,5.66-.86,8.75.45,1.28,1.71,2.44,1.92,3.75.13.78-.46,3.25-1.37,2.94-.54-.18-1.24-1.38-1.62-1.77s-1-1-1.47-1.43a35.68,35.68,0,0,0-4-3.16,34.13,34.13,0,0,0-8.26-4.09,36.31,36.31,0,0,0-9.87-1.79,42.06,42.06,0,0,0-5.59.12c-.87.08-4.91,0-5.16.94a29.63,29.63,0,0,1,6,4.35c1.7,1.46,3.27,3.44,5.56,2.06a8.85,8.85,0,0,1,6.85-1.13c2.41.66,4.34,2.19,7,2.18-2,3-5.18,5.63-8.93,5.59a8.55,8.55,0,0,1-4.82-1.58c-1.67-1.17-2.73-2.9-4.62-3.8-.47.81,1.43,2.75,1.76,3.54a6.07,6.07,0,0,1,.36,3.85c-.72,2.91-3.36,4.82-5.41,6.79.48-4-4-7.43-.83-11.2.47-.56,1.47-1.07,1.75-1.73s-.13-1.33-.43-2a8.9,8.9,0,0,0-3.58-3.79,13.78,13.78,0,0,0-5.38-1.69c-2.41-.23-4.6.67-6.77,1.59a8.34,8.34,0,0,1-3.37,1c-1.3,0-2.56-.51-3.85-.65a10.2,10.2,0,0,0-3.35.15,18.81,18.81,0,0,0-2.46,1.06,5.35,5.35,0,0,0-1,.53l-.15.34-.41.08a5.49,5.49,0,0,0-.66.37c-.39.32-.68.78-1,1.12s-.43.72-.7,1.22c-.45.84-1.27,1.13-1,2.24a2.65,2.65,0,0,0,.56,1.2s.62.39.52.22-.33-.26-.48-.43a.93.93,0,0,1-.32-.92,6.61,6.61,0,0,1,.75-2.33c.21-.27.63-.36.83-.69a1.56,1.56,0,0,0,.21-.72l.39-.11a6.41,6.41,0,0,0,.92-.65,3.61,3.61,0,0,0,.45-.64.85.85,0,0,0,.51-.08,7.34,7.34,0,0,1,3.84-1.54,18.79,18.79,0,0,1,6.38.69l-4.67,2.44a26.63,26.63,0,0,0,3.58.14,7.32,7.32,0,0,0,3.22-.54,9.25,9.25,0,0,1,5.46-.45,8.27,8.27,0,0,1,4.14,2.56,13.42,13.42,0,0,1,1.77,2.63c.34.63,1.57,2.34,1.55,3.06,0,.89-1.31.24-2,.22-1,0-2,.08-3.07,0a12.57,12.57,0,0,1-5.27-1.29,10.81,10.81,0,0,1-2.31-1.6,23.09,23.09,0,0,0-2-2.13c-1.48-1-4.52-.06-6,.49,1.25.68,2.36,1.6,3.64,2.21s2.43.64,3.47,1.42c2,1.49,2.59,4.42,2.29,6.76a12,12,0,0,1-.53,2.21c-.12.38-.48,1.92-.8,2.05-.55.22-.56-.34-.88-.81a6.32,6.32,0,0,0-1.56-1.51c-2.07-1.54-3.84-3-4.07-5.78-.09-1,.48-2.38-.4-3.14-1-.91-3.11-1.24-4.43-1.32a5.56,5.56,0,0,0-4.15,1.17c-1.16.92-1.89,2.25-3,3.17a2.43,2.43,0,0,1-1.26.57c-1.07.13-.91-.74-.95-1.63a11.15,11.15,0,0,1,1-5,11.5,11.5,0,0,1,1.29-2.55c.24-.34.47-.86.73-1.22.37-.52,1.07-.91,1.43-1.54.09-.16.22-.67.31-.76s.79-.28,1-.49.38-.56.61-.73a5.61,5.61,0,0,1,.88-.43l.12-.11q.07-.46.47-.29a5.11,5.11,0,0,1,.94-.41,15.68,15.68,0,0,1,2.48-.72,10.24,10.24,0,0,1,2.86,0c.42,0,.88,0,1.29.08s.72.26,1.18.36c.24.05.53-.09.76,0,.42.09.88.49,1.32.62a11.62,11.62,0,0,0,2.85.3c-.78-.16-1.53-.45-2.3-.65a7.51,7.51,0,0,0-1.17-.22,2.39,2.39,0,0,0-.48,0,.37.37,0,0,1-.48-.27c-.58-.15-1.1-.11-1.69-.27a10.65,10.65,0,0,0-2.46-.49,10.85,10.85,0,0,0-4.5,1.2c-.26.11-.51.12-.77.23l-.14.28a.81.81,0,0,0-.51.09c-.13.11-.45.57-.52.63-.25.17-.64.15-.92.34a13,13,0,0,0-1.18,1.27A7.91,7.91,0,0,0,129.81,82,20,20,0,0,0,128,84.59a16.51,16.51,0,0,0-1.55,3.92C126.2,89.77,125.83,91.89,126.89,92.87ZM109,54.42c-.07-.31-.3-.27-.46-.47a9.08,9.08,0,0,1,.89.73c.14.2.06,1.27.67,1.07-.13.52.49,1.42.71,1.85.07.14.26.16.31.27s-.07.33,0,.44.41.44.36.26c0,.17-.11.42,0,.6a6,6,0,0,1,.51,1.49,17.43,17.43,0,0,0,.43,1.75,30.47,30.47,0,0,1,1,4,13.47,13.47,0,0,1-.79,7.08c-.92,2.24-2.48,4.14-3.48,6.34-1.11,2.46-.34,4.49-.36,7,0,2.9-2.62-1.46-2.93-2.32-.91-2.56-1.4-5.24-2.42-7.78A47.7,47.7,0,0,1,101,69.31c-.23-1-.61-1.84-.87-2.79-.06-.22-.26-.55-.36-.82l-.26-.09v-.35a5.63,5.63,0,0,0-.26-.74,3.94,3.94,0,0,0-.42-.46c.07.09-.45-.75-.36-.56-.08-.16.07-.36-.07-.52s-.54-.35-.64-.51,0-.46-.13-.66-.38-.25-.54-.41-.45-.76-.78-.62c0-.15.16-.29-.12-.28.23.32.44.53.65.82.1.14.17,0,.28.22s.16.43.25.6.34.31.45.47.06.34.16.46c.33.45.54.52.72,1,.25.7.69,1.37,1,2.07l.22.39a3.87,3.87,0,0,1,0,.43c.07.25.27.34.36.61a9.25,9.25,0,0,1,.21,1.34,44.21,44.21,0,0,0,2.35,7.75c1,2.58,1.53,5.27,2.43,7.86.3.86,2.71,5.69,4,3.23.39-.74-.19-2-.3-2.78a10.07,10.07,0,0,1,.11-3.73c.55-2.4,2.11-4.1,3.23-6.22A14,14,0,0,0,114,68.52a20.36,20.36,0,0,0-1.51-7.68c-.12-.27-.31-.52-.42-.79s-.12-.59-.22-.83c-.2-.44-.27-.72-.44-1.17,0,.11-.36-.5-.27-.38,0,0-.09-.31-.12-.38.21.52-.43-.5-.26-.3-.18-.21.18-.46-.4-.44.14-.38-.31-1.26-.71-1C109.73,55.19,109.5,54.43,109,54.42Zm-9.72,1.63q-.13.15-.07,0c-.05.11.56.8.78.72-.22.64.36.86.66,1.26s.4.66.69,1.1c.13.21.3.32.45.58s.19.53.32.77a5.27,5.27,0,0,0,1.14,1.47c.54.53.85,1.11,1.38,0,.4-.84-.31-2.86-.55-3.68-.86-2.9-2.38-5.59-3.5-8.39a43.48,43.48,0,0,1-1.47-4.24c-.12-.42-.18-.88-.34-1.28-.06-.14-.29-.24-.33-.36a9.88,9.88,0,0,1,0-2.37c-.6,2.38.58,5.59,1.41,7.81,1,2.69,2.45,5.21,3.4,7.92a14.94,14.94,0,0,1,.85,4.05c0,.15.12,1,0,1.06-.31.28-.37-.21-.45-.28-.4-.33-.47-.72-.73-1.25a10,10,0,0,0-1-1.35,7.52,7.52,0,0,0-.88-1.24,4.23,4.23,0,0,1-.38-.39c-.1-.13-.08-.36-.22-.54C100.16,56.93,99.68,56.57,99.32,56.06Zm-6,85.79c-.33,0-.52.52-.7.7s-.69.22-1,.51c-.07.06-.27.41-.3.43s-.36.06-.48.15-.59.4-.58.49c.37-.38,1.23-.52,1.73-.83.21-.13,1-.93,1-1.14.35.09,1.44-1.26,1.74-1.7.64-.95.86-2.12,1.41-3.11.07-.12.21-.72.35-.78a1.8,1.8,0,0,1,1.49.31c1,.69,1.22,2.35,1.5,3.42a42.56,42.56,0,0,1,1.45,9,29.15,29.15,0,0,1-.16,4.75,16,16,0,0,0-.31,4.19c1.69-5.13,1.13-11.37-.15-16.54-.41-1.65-1-6.06-3.42-5.31-1,.3-1.21,1-1.55,1.84-.28.71-.71,1.4-1.05,2.08C94.07,140.71,93.31,141.59,93.31,141.85ZM113.57,145c0-.28-1.11-1.09-1.49-1.14a3.21,3.21,0,0,0-1.92.73c-.46.43-.42,1.4-.36,2,0,.36.65,2,.63,2,.15-.22-.21-1.51-.24-1.85a3.11,3.11,0,0,1,.38-2.06c.87-1.15,2.84,0,3.41.8a13.67,13.67,0,0,0,.93,1.39c.43.46.84.66,1.12,1.16a3.67,3.67,0,0,0,.43.76,9.86,9.86,0,0,1,.62.79,5.73,5.73,0,0,1,.37.51q.36.06.34.39a1.46,1.46,0,0,0,.2.59c.27.54.63,1,.9,1.5s.61,1.24.93,1.84c.6,1.11,1.27,2,1.83,3q.44,0,.32.34a.51.51,0,0,0,.13.48c.1.21.44.22.57.38a9.48,9.48,0,0,0,.95,1.37,7,7,0,0,0,3.33,1.88,12.72,12.72,0,0,1-2.73-1.86c-.36-.34-.88-.68-1.21-1s-.21-.6-.5-1a1.3,1.3,0,0,0-.55-.39,1.17,1.17,0,0,0-.15-.65l-.21-.24q-.43-.09-.29-.48c-.55-.85-.94-1.92-1.53-2.85a13.35,13.35,0,0,1-.66-1.27,9.85,9.85,0,0,0-.7-1.31c-.51-.69-1-1.3-1.42-2a6.61,6.61,0,0,0-.94-1c-.33-.34-.33-.61-.61-1.09s-.78-.61-1.16-1C114.09,145.52,113.95,144.95,113.57,145ZM99.63,61.71c-.26.11,0-.13,0-.09.27.36.85,1,1.05,1.3s.72,1.91,1.4,1.89a.74.74,0,0,0,0,.56.3.3,0,0,0,.35.18l.08.51c.28.78.35,1.68.61,2.48a29.89,29.89,0,0,0,1.74,4.53A7.56,7.56,0,0,0,106.1,75c.47.43.4.48.83,0s.31-1.27.4-2a22.69,22.69,0,0,1,.54-2.61,20.89,20.89,0,0,0,.41-9.81c-.2-.9-2.93-9.12-3.89-8.59.2-.59-.09-.56-.28-.89s-.33-.82-.55-1.22-.68-1.76-1-1.75a.46.46,0,0,1,.24.52.35.35,0,0,0,.36.39,2.21,2.21,0,0,0,0,.45.34.34,0,0,0,.37.26c.16.29.18.74.31,1s.45.75.64,1.18a56.39,56.39,0,0,1,2.82,6.72,19.38,19.38,0,0,1,1,7.74c-.32,3-1.52,5.56-1.29,8.62-1.19-.62-1.88-2.66-2.45-3.8-.71-1.43-.83-3.1-1.5-4.57A18.82,18.82,0,0,0,101.47,64C101,63.18,100.24,62.48,99.63,61.71ZM67.13,84.88q-.18-.09-.24.08a1.86,1.86,0,0,0,.45-.19,4.76,4.76,0,0,1,1.19-.49,17.13,17.13,0,0,0,3.08-1,3.15,3.15,0,0,0-2.51-.17C68.6,83.3,66.89,84.4,67.13,84.88Zm73.76,76.92c-.26,0-.39.12-.31.38-.52-.15-1.38.53-1.84.74a13,13,0,0,1-2.06.73c.3.33.31,0,.53-.06a6,6,0,0,0,.67-.11,11,11,0,0,0,1.24-.69c.74-.33,1.54-.44,2.07-1.22,2.05-3-3.49-2.87-4.91-3.34.39.32.73.25,1.18.33a10,10,0,0,0,1.92.38,2.21,2.21,0,0,1,1.39.36,3.64,3.64,0,0,1,.54,2.22C141,161.37,140.91,161.54,140.89,161.8Zm-49.33.33q-.38,0-.35.35a1.17,1.17,0,0,0-.59.12,7.82,7.82,0,0,0-.87.6A4.47,4.47,0,0,0,91.83,162a8.51,8.51,0,0,0,1.89-2.6,9.94,9.94,0,0,0,.76-4.62c-.08-1.21-.18-3-1-3.84-.62-.61-1-1.39-2.17-.81-.59.29-.84.86-1.28,1.16s-1,.61-1.4,1a8.85,8.85,0,0,1-3.34,1.27,20.34,20.34,0,0,1-5.38.68,11.84,11.84,0,0,0,7.67-1.19A17.83,17.83,0,0,0,89.61,152c.21-.16.29-.4.46-.55a4.9,4.9,0,0,1,.53-.35,4.11,4.11,0,0,1,1.33-.69c2.07-.39,2.22,4.19,2.14,5.68a9.19,9.19,0,0,1-1,3.78c-.23.45-.48,1-.74,1.43C92.13,161.49,91.55,161.84,91.56,162.13ZM122,105.8c-.17.23-.14.61-.27.78s-.44.24-.59.41c-.32.36-.32.81-.5,1.23a7.43,7.43,0,0,1-.43,1,13.18,13.18,0,0,1-1,1.47c-1.88.69-1.89-6.15-1.9-6.95a23.24,23.24,0,0,1,1.63-8.57c1-2.55,2.61-5.46,1.83-8.27-.13,3.18-1.49,5.78-2.53,8.71a25,25,0,0,0-1.45,9,20.93,20.93,0,0,0,.46,4.23,3.92,3.92,0,0,0,.74,1.73c.51.57.6.37,1.19.06.94-.5,1-1,1.45-1.9.3-.57.56-1.22.85-1.82,0-.06.55-1.25.53-1.25S122.08,105.83,122,105.8Zm-3.47-43.31c-.43.14-.16.34-.31.57s-.31.34-.45.55a4.19,4.19,0,0,0-.57,1.59,34.79,34.79,0,0,0-.64,5c-.19,3.36-.11,6.55-1.17,9.79-1,3-2.4,5.91-3.41,8.94a46.22,46.22,0,0,0-2,9.67,77.73,77.73,0,0,0-.62,10.23c.07,2.94.34,6,1.94,8.56,1.44,2.28,3.82,3.54,5.49,5.6,1.87,2.32,2.63,5.13,3.23,8,.71,3.39,1.23,6.82,2.86,9.93a12.44,12.44,0,0,0,2.75,3.7,8,8,0,0,0,3.61,1.53c-.46,0-.22-.23-.57-.38s-.46,0-.67-.1a6.53,6.53,0,0,1-1.48-1,12,12,0,0,1-2.71-3.12,24.51,24.51,0,0,1-2.82-8.83c-.85-5.25-2.62-10.13-7.06-13.38-5-3.67-4-11.59-3.69-17a59.24,59.24,0,0,1,1.44-10.07,76.17,76.17,0,0,1,3.26-9,29.72,29.72,0,0,0,2.19-10.53,43.86,43.86,0,0,1,.19-5.31,24.89,24.89,0,0,1,.45-2.62,18.15,18.15,0,0,0,.73-2.26Q118.58,62.33,118.49,62.49Zm9.11,89.81c0,.29,1.55.74,1.57.61.06-.33-.18-.08-.28-.15a2.89,2.89,0,0,0-.48,0q-.28.08-.24-.26a12.88,12.88,0,0,1-1.28-.51c-.22-.11-.49-.22-.71-.33l-.56-.36c-.15-.13-.44-.42-.67-.63a.67.67,0,0,0-.53-.06l-.06-.28c-.25-.18-.41-.41-.68-.61a.7.7,0,0,0-.47-.14q-.31.07-.24-.29a17.72,17.72,0,0,1-2.1-2c-.69-.7-1.4-1.38-2.12-2a8,8,0,0,1-1.33-1.78,4.66,4.66,0,0,0-.67-.66,3.38,3.38,0,0,1-.75-1,12,12,0,0,0-1.46-2.21c-.56-.66-1.24-1.29-1.82-1.89a3.1,3.1,0,0,0-1.74-1,1.16,1.16,0,0,0-.78,0,1,1,0,0,0-.41.59h-.33a2.73,2.73,0,0,0-.38.67.32.32,0,0,0-.35.27.44.44,0,0,0,0,.44,3.33,3.33,0,0,0-.7,2.18,13.82,13.82,0,0,0,.2,3.31c0-1.54-.29-3.57.33-5,.35-.84.91-2.07,2-2a4.43,4.43,0,0,1,1.94.66,5.76,5.76,0,0,1,1.37,1.8,18.25,18.25,0,0,0,1.5,1.87,14.71,14.71,0,0,1,1.38,1.93A10.8,10.8,0,0,0,118,144.6c.4.44.75,1.13,1.18,1.64a21.57,21.57,0,0,0,3,2.84.29.29,0,0,0,.31.09q.3-.09.23.29a6.2,6.2,0,0,0,.56.52,4.6,4.6,0,0,1,1.21.75,6.89,6.89,0,0,0,1.24.88.47.47,0,0,0,.44,0l.09.27a.72.72,0,0,0,.63.05C126.91,152.44,127.26,152.29,127.6,152.3ZM98.21,130.63c0,.22.64,1.15.81,1.46.34.62.91,1.13,1.22,1.74a39.67,39.67,0,0,1,1.56,3.76,28.07,28.07,0,0,1,1.89,9.16c.1,3.13-.48,6.24-.19,9.38a10,10,0,0,0,1.21,3.69,6.31,6.31,0,0,0,.28.85c.13.2.45.22.56.38.38.53.36.87,1.06,1.24-.22-.29-.38-.64-.61-.91a.83.83,0,0,0-.48-.3l-.05-.35a4.75,4.75,0,0,1-.9-1.89,16.13,16.13,0,0,1-.81-6.28c.24-4.28.45-8.16-.62-12.38a33.64,33.64,0,0,0-2-5.3,13.51,13.51,0,0,0-2.68-4.21c-.42-.39-.76-.74-1.36-.61-.95.2-.85,1.28-1.08,2a18.12,18.12,0,0,1-.9,2.5c-.29.59-1.11,1.09-1.54,1.78a2.22,2.22,0,0,0,1.07-.9v-.34q.21.1.29-.06c.15-.2.24-.25.42-.48.93-1.2,1.06-2.91,1.4-4.35Zm16.16-5.32c-.37-.85-1.3-1.27-1.89-2a20.26,20.26,0,0,1-2.42-2.87c-.62-1.05-1.07-2.18-1.64-3.25-.44-.82-1-1.34-1.44-.09-.7,2.1.36,4.83,1.3,6.68a20.83,20.83,0,0,0,4.15,5.47c1.62,1.57,3.08,3,3.87,5.15.21.57.31,1.44.89,1.77a1.18,1.18,0,0,0,1.63-.69c.61-1.42-.31-3.86-.86-5.16a13.11,13.11,0,0,0-1.51-2.65C116.06,127.19,115,125.45,114.37,125.31ZM84.92,82.72c.22.59,1,.71,1.4,1.06A20.7,20.7,0,0,1,88,85.58c.57.59,1.23,1.11,1.78,1.72a4.46,4.46,0,0,1,1,1.45c.61,1.28,1.51,2.31,2,3.67.33.85,1.53,4.63.15,4.78.87.58,1-1.73.95-2.08A12.9,12.9,0,0,0,93,91.65a10.33,10.33,0,0,0-1.88-3c-.8-.89-1.3-1.67-2.08-2.65a22.07,22.07,0,0,0-4.54-3.68,3.08,3.08,0,0,0-1.21-.59c-.59-.15-1.06-.36-1.65-.57a7,7,0,0,0-4,0,27,27,0,0,1,4.24.41C83,81.7,83.83,82.43,84.92,82.72Zm7,64.7c.92.16,1.53-1.38,2.42-1.6,1.72-.42,1.94,1.55,2.23,2.81a17.7,17.7,0,0,1-.32,9.48c.83-.51,1-2.31,1.11-3.18a15.59,15.59,0,0,0,.13-3.3c-.11-1.78-.3-4.43-1.72-5.6-1.8-1.48-2.62.09-3.84,1.41s-4.23,1.85-5.91,2a8.53,8.53,0,0,0,3.56-.33C90,148.91,92,147.91,91.88,147.42ZM48.56,91.08c0,.14,0,.33.2.18-.92-.54-1.61-2.1-2.24-3-.3-.42-1.1-2-1.24-.73C45.08,89.23,47.23,90.67,48.56,91.08Zm57.06-60.39a4.41,4.41,0,0,0-2.7,1.53c-.57.67-1.57,2.06-1,2.94l2.18-2.7c.24-.3,1.6-1.58,1.63-1.94Q105.51,30.23,105.62,30.69Zm31.07,5.19a51.33,51.33,0,0,1-5.28,3,4.56,4.56,0,0,0,4-1.16,5.62,5.62,0,0,0,1.24-1.9c0-.08.21-.08.25-.28S136.48,35.54,136.7,35.88ZM166,91.77a4.69,4.69,0,0,0,1.15-3.29c0-.46-.16-2.52-.86-2.38C165.89,86.19,166,91.58,166,91.77Zm-11.87-6.24c.06.31.3.31.41.08-.67-.07-1-.7-1.6-1.07a6.29,6.29,0,0,0-2-.86,5.29,5.29,0,0,0-3.87.4A59.71,59.71,0,0,1,154.15,85.53Zm-114,4.29c-1.65,1.28-2.84,3-4.59,4.19C37.81,93.4,39.75,92.45,40.17,89.82Zm97-22.58c-.57,2.08-1.62,4.52-1.46,6.69C137.44,72,137.65,69.67,137.18,67.23Zm-96.79.66c-2.15-1.52-4.31-2.59-5.67-4.61C35.76,66.39,37.39,67.76,40.39,67.9ZM143,89.84c1.07,1.82,2.89,3,4,4.81C146.42,92.36,145.46,90.44,143,89.84ZM56.48,86.63c.76-1.82,2.14-3.3,3-5.39C56.83,82.36,56.67,84.51,56.48,86.63ZM113,38a22.67,22.67,0,0,1,.41,3.52c0,.36.07,2.62.78,2.19s.33-2.42.21-2.91A8.83,8.83,0,0,0,113,38ZM88.6,72.47a6.27,6.27,0,0,0-.48,3.39c.09.54.48,2.19,1.16,2.22s.09-1.61,0-2C89,74.87,88.73,73.69,88.6,72.47ZM78.44,65.65a5.24,5.24,0,0,0,1.44,6.14C79.37,69.62,78.3,67.75,78.44,65.65ZM181.66,63c-1.17,1.58-2.87,2.65-4,4.27C180.14,66.86,181,65,181.66,63Zm-56.45-9.82c1.33-1.26,1.24-4,1.89-5.66A6,6,0,0,0,125.21,53.14ZM171,84.67c1.81,2.16,4.18,1.66,6.52,1.34C175.26,86.06,173.18,85.17,171,84.67Zm-43-6.14a4.49,4.49,0,0,0,.29-5.37C128.37,75,127.63,76.64,128,78.53Zm2.41,74.65a.27.27,0,0,0,.24.06A.18.18,0,0,0,130.39,153.18Zm-21.82-7.76c-.09-.36-.1.18-.08.27Z"/><path class="cls-9" d="M183.55,172.56c4.28-4,7.91-8.9,8.4-14.92a34.14,34.14,0,0,0-.07-4.65c0-.9-.1-1.79-.18-2.69a7.72,7.72,0,0,1-.12-2.6,4.31,4.31,0,0,1,2.11-1.88c1.56-.66,1.23,1.94,1.34,2.94.4,3.57.76,7.28,0,10.82a28,28,0,0,1-4,9.12,58.31,58.31,0,0,1-13.37,14.23,47.79,47.79,0,0,1-9.78,6,34.5,34.5,0,0,1-5.5,1.95c-1.92.5-4.33,1.23-6.31.85a15.67,15.67,0,0,1,1.73-3.05c.62-.66,2-.79,2.79-1.08a12.91,12.91,0,0,0,5-2.74c3.11-3,3.22-8.15,4.22-12.12s2.7-8,6-10.73a16.87,16.87,0,0,1,6-2.81,50.12,50.12,0,0,0,6.81-2.64c.47-.23,2.2-1.54,2.65-1.4s.48,1.49.47,2c0,1.34-.76,1.94-1.9,2.51a52.38,52.38,0,0,1-6.42,2.59c-1.95.67-3.93,1.1-5.49,2.53-3.21,2.93-4.45,8.09-5.31,12.17a29.76,29.76,0,0,0-.57,3.36c-.07.77-.24,1.36.62,1.25,1.64-.21,3.55-2.29,4.51-3.49,3.15-3.94,3.75-8.74,4.33-13.55.15-1.23,1.07-1.42,2.19-1.73,1.7-.48,1,1.11.93,2.32C184.36,167.61,183.95,170.08,183.55,172.56Z"/><path class="cls-9" d="M22.63,157.21c.16.73,1.17.8,1.71,1.13a3.75,3.75,0,0,1,1.3,1.34c.84,1.42,1.19,3.18,1.91,4.68a23.59,23.59,0,0,0,6.23,8,84.16,84.16,0,0,1-1-12.06c-.07-1.95-.16-3.89-.1-5.84a10.57,10.57,0,0,1,.09-2.8c.3-.84.55-.52,1.36-.17A2.61,2.61,0,0,1,36,153.78a59.09,59.09,0,0,1-.1,5.93,48,48,0,0,0,1,11.66,16,16,0,0,0,4.54,7.88c.68.64,2.73,2.66,3.8,2.34s.07-3.55-.09-4.33a33.22,33.22,0,0,0-3.62-10.1,9.1,9.1,0,0,0-2.71-3.08c-.49-.33-1.49-.51-1.88-.91s-.39-1.61-.44-2.2c-.07-.84-.14-1.33.77-1.26,1.36.09,3,1.29,4,2.12,2.57,2.13,4.2,5.25,5.43,8.3,2.29,5.71,2.77,13.09,8.52,16.55a13.14,13.14,0,0,0,8.08,1.73c1.25-.13,2.68-.85,3.91-.76,1,.07,1.48,1.28,1.75,2.11.76,2.26-6.09,2.3-7.38,2.23A32.82,32.82,0,0,1,51,189.62c-7.15-2.86-13.5-8-18.82-13.52a39.45,39.45,0,0,1-7.06-9.57A35,35,0,0,1,23,161.09C22.74,160.32,21.54,157.37,22.63,157.21Z"/><path class="cls-9" d="M156.62,51.95c3.63,1.61,8.54-.65,10.7,3.67.38.76.48,1.8,1.28,2.26,1,.55,2.78.18,3.78-.08a5.91,5.91,0,0,0,4.22-4.24,18.63,18.63,0,0,0,.65-7.73,29,29,0,0,0-.69-4c-.25-1-.6-1.82.74-1.6s3.21.72,4,1.92c.95,1.46.82,3.78.82,5.44,0,8.22-5.69,18.43-14.92,18.64a12.19,12.19,0,0,1-7-2.16c-.72-.46-1.65-1.42-2.51-1.56s-1.76.89-2.47,1.36A8.6,8.6,0,0,1,148.79,65c-1.27-.24-2.51-.61-3.8-.76a7.69,7.69,0,0,1-1.84-.08c-.62-.3-.47-.34-.09-1,2.36-4.28,7.15-7.67,12.08-5.3,2.52,1.21,4.37,3.21,7.21,3.75A11.36,11.36,0,0,0,170,60.39,7.08,7.08,0,0,0,167.6,60c-.79.07-1.51.46-2.29.58a5.5,5.5,0,0,1-4-1,9.81,9.81,0,0,1-3-3.45C157.61,54.89,157.33,53.05,156.62,51.95ZM150,60a13.62,13.62,0,0,1,6.22.42,4.1,4.1,0,0,0-3.35-1.51,4.47,4.47,0,0,0-1.67.39,8,8,0,0,0-1.58.86Q149.83,60.33,150,60Zm11.32-3.58a9.45,9.45,0,0,0,2.43,1.89c.48.24,2.37,1.09,2.75.33.28-.57-1.31-.83-1.77-1Z"/><path class="cls-9" d="M209.37,87.88a24.38,24.38,0,0,1-.34,4.29c-.1.63-.11,3.07-1.06,2.55a6,6,0,0,1-1.78-2.78c-.21-1.29.22-2.8.17-4.12a19.07,19.07,0,0,0-.66-4.31c-.21-.77-.39-2.12-1.23-2.48-2-.88-3.19,4.23-3.62,5.37-1,2.73-2,5.5-3.3,8.12-.3.61-.82,2.25-1.59,2.1-.49-.09-1.63-1.64-1.76-2.16a2.94,2.94,0,0,1,.54-2c.68-1.36,1.38-2.71,2-4.1a58.29,58.29,0,0,0,3.16-8.05,15.59,15.59,0,0,0-1.73-13.07c-2.73-4.24-7.07-7.37-11.45-9.71-1.08-.57-2.18-1.1-3.29-1.61-.73-.33-1.48-.44-1.5-1.3s.61-2.18.79-3.18c.11-.65-.08-1.88.69-1.9s2.37,1.29,3.1,1.75q1.78,1.12,3.51,2.33a56.21,56.21,0,0,1,6.16,4.93C204,65.86,209.32,77.13,209.37,87.88Z"/><path class="cls-9" d="M59.76,51.26c-1.41,3-2.49,6.68-5.64,8.38a5.48,5.48,0,0,1-4.39.37,20,20,0,0,0-4.82-.71c2.39,2.11,7.23,3.57,10.32,2.37,1.58-.61,2.06-2.09,3.18-3.2a8.27,8.27,0,0,1,4.17-2.14,10.53,10.53,0,0,1,9.25,3c.51.48,3,2.88,2.7,3.54-.26.5-1.58.18-2.06.24a6.51,6.51,0,0,0-2.58,1.07,10.69,10.69,0,0,1-5.6,1.53c-2,0-3.74-.81-5.7-1.13s-3.43.89-5.15,1.31a11.88,11.88,0,0,1-5.82,0,15.64,15.64,0,0,1-8.88-6.75c-.42-.64-.84-1.29-1.2-2-.51-1-.41-1.15.51-1.68a8.87,8.87,0,0,1,2.29-1.27c.93-.15.76.33,1.17.9a7.39,7.39,0,0,0,5.58,2.34c.9-.12,1-.66,1.3-1.46a6.37,6.37,0,0,1,1.37-2.13C52.5,51.14,56.63,53.24,59.76,51.26Zm-5.67,4.88q-.29,0-.29.22t-.48.21c-.37.17-.92.22-1.32.36a13.9,13.9,0,0,0-2.73,1.33,4.78,4.78,0,0,0,3.4-.65A6.33,6.33,0,0,0,54.09,56.14Zm11.3,4.46c-2.49-1.23-5.63-1.64-7.45.89a26.94,26.94,0,0,1,3.42-.95A19.11,19.11,0,0,1,65.39,60.6Z"/><path class="cls-9" d="M91.78,7.7a30.61,30.61,0,0,0-2.85,2c-.83.65-1.63,1.8-2.73,1.85s-2.29-.24-3.42-.23a18.29,18.29,0,0,0-3.66.42A16.82,16.82,0,0,0,68.49,19c-1.73,2.77-3.67,7.84-1.8,10.94s6.42,2.31,8.6,5.33a9.48,9.48,0,0,1,1.56,5.12c0,1.16-.2,2.33,0,3.49.11.83,1.33,2.42.11,2.39a13.09,13.09,0,0,1-3.48-1.15,10,10,0,0,1-2.71-1.43,7.57,7.57,0,0,1-2.7-4.4,19.92,19.92,0,0,1-.3-3.16c-.08-1.42-.82-1.79-1.81-2.71a11.37,11.37,0,0,1-3.19-4.85c-1.24-3.87-.08-8.3,1.9-11.72,2.43-4.21,6.52-6.78,11-8.3C80.68,6.85,86.66,6.24,91.78,7.7ZM73.6,40.21a8.6,8.6,0,0,0-1-3.22c-.25-.47-1.36-2.34-2.05-2.1C69.62,35.2,73.18,39.66,73.6,40.21Z"/><path class="cls-9" d="M154.47,31.64c2.1,1.68,4.57,1.18,7,1A9.89,9.89,0,0,1,167.82,34a5.3,5.3,0,0,0,2.93,1.29c1.24,0,2.46-.33,3.71-.33a17.1,17.1,0,0,1,6.81,1.47,27,27,0,0,1,10.78,9,31.11,31.11,0,0,1,3.37,6,35.94,35.94,0,0,1,1.26,3.42c.31,1,1,2.56.67,3.56q-1.31-1.17-2.68-2.27a13.83,13.83,0,0,1-2.61-2.08,12,12,0,0,1-.89-2.41,24.34,24.34,0,0,0-1.14-2.4,20,20,0,0,0-6.7-7.29c-2.89-1.86-7.29-3.83-10.81-3.24-2,.34-3.53,2.05-5.51,2.6a9.69,9.69,0,0,1-5.81-.17A10.62,10.62,0,0,1,154.47,31.64Zm8.11,5.61c-.13,0-.13-.31-.3-.08.55.07,1,.56,1.52.81a5.52,5.52,0,0,0,1.93.52,5.11,5.11,0,0,0,3.59-1A47.11,47.11,0,0,1,162.58,37.25Z"/><path class="cls-9" d="M8,89.34c.12-8,2.47-15.38,6.19-22.46a51.12,51.12,0,0,1,3-5c.24-.35,1.05-2,1.49-2.07.77-.17.44.92.43,1.43a29.86,29.86,0,0,0,.08,3.33c.09,1,.4,1.66-.06,2.51-.85,1.57-2,2.82-2.58,4.6a10.88,10.88,0,0,0-.37,5.19A13.58,13.58,0,0,0,17,79.79c.36.89,1.28,1.94,1.27,2.92,0,.71-1.25,2.7-2,2.61s-1.62-2.87-2-3.57c-1.2-2-2.21,1.08-2.45,2.18a21.86,21.86,0,0,0-.39,5.9c.25,4.08,1.8,7.47,3.9,10.9.8,1.31,1.46,2.2.52,3.58-.32.47-.84,1.51-1.49,1.3s-1.6-2.54-2-3.15C10,98.51,7.66,94.06,8,89.34Z"/><path class="cls-9" d="M148.53,17.43c-1,.35-2.33-1.42-3-2a19.15,19.15,0,0,0-3.86-2.32,20.29,20.29,0,0,0-9-1.77,30.84,30.84,0,0,0-10.26,2.45,33.4,33.4,0,0,0-4.09,2q-1.1.63-2.15,1.35c-.57.39-1.26,1.17-2,1.29s-1.32-.56-1.85-1a22.46,22.46,0,0,1-1.86-1.27c-.72-.65-.51-.79.19-1.37a25.52,25.52,0,0,1,2.28-1.64,46.23,46.23,0,0,1,9-4.56,29.37,29.37,0,0,1,18.21-.38A26.13,26.13,0,0,1,149,13.05a19.25,19.25,0,0,1,1.83,1.68c.27.29,1.46,1.35,1.46,1.8C152.33,17.38,149.22,17.35,148.53,17.43Z"/><path class="cls-9" d="M35,46.44a32.8,32.8,0,0,1,6.81-17.06A31.68,31.68,0,0,1,55.28,19.22,27.2,27.2,0,0,1,60,17.92a8.8,8.8,0,0,1,2.54-.41c.68.15.64.13.35.9a17.53,17.53,0,0,0-.84,2.2c-.14.59-.05,1.44-.56,1.88a3,3,0,0,1-1.57.36,16.91,16.91,0,0,0-2.83.52c-5.63,1.65-10.26,6-13.22,10.92a26,26,0,0,0-2.32,4.9c-.62,1.81-.74,3.65-1.18,5.48-.4,1.66-1.76,1.66-3.15,2.22S35,48.26,35,46.44Z"/><path class="cls-9" d="M123,7.22c0,.5-3.54,1.48-4.12,1.72-1.69.71-3.57-.46-5.29-.85a23.35,23.35,0,0,0-10-.09c-6.42,1.34-12,5.4-16.31,10.22-.69.78-1.6,2.51-2.7,2.75-.61.14-2.8-.59-3.14-1.26s.5-1.45.89-1.94c1.06-1.32,2.18-2.6,3.36-3.81C90.32,9.2,96,5.33,102.61,4a28.74,28.74,0,0,1,10.48-.13,36.22,36.22,0,0,1,5.23,1.29C119,5.38,123,6.47,123,7.22Z"/><path class="cls-9" d="M92.28,54c-4-2.85-9.17-5.4-9.32-11,0-1.14.09-2.1-.67-3.05s-1.72-1.64-2.44-2.6a11.3,11.3,0,0,1-2.28-6.18c-.06-1-.2-5.14,1.32-5.1a6.69,6.69,0,0,1,2.57,1.11c.68.58.37,1.29.27,2.12a10.65,10.65,0,0,0,1.12,6.72A5.91,5.91,0,0,0,85,38.37c1.07.55,2.37.56,3.47,1.09A7.69,7.69,0,0,1,92.83,45C93.37,48,92,51.17,92.28,54Zm-2.12-8a.67.67,0,0,0,0,.23A5.4,5.4,0,0,0,89.9,45a6.68,6.68,0,0,0-1-2,4.45,4.45,0,0,0-3.29-2Z"/><path class="cls-9" d="M78.42,202.06c1.35-.3,2.75-.38,4.1-.72a2.79,2.79,0,0,1,2.06-.11c.71.29,1.34.77,2.05,1.07a13.13,13.13,0,0,0,8.1.39c2.83-.69,5.2-2.24,7.89-3.27a16.82,16.82,0,0,1,8.48-1,17.37,17.37,0,0,1,3.93,1.09c.56.23,3.31,1.16,3.26,1.9,0,.47-1.64,1.59-2,1.76-1.29.6-2.43-.31-3.57-.81-6-2.59-11,2.08-16.44,3.57a18.74,18.74,0,0,1-9.41,0,25.38,25.38,0,0,1-4.61-1.65C81,203.79,79.23,203.16,78.42,202.06Z"/><path class="cls-9" d="M115.47,197.42a9,9,0,0,1-4-1.25c-.44-.27-1.63-.93-1.84-1.44s.54-1.25,1-1.73c.56-.65.63-1,1.37-.65.49.22.89.77,1.39,1a3.34,3.34,0,0,0,3.7,0c2.61-2,.53-5.41-1-7.31a21.85,21.85,0,0,0-2.87-3,12.94,12.94,0,0,0-3.84-2.66c-1.37-.44-2.56.67-3.56,1.47a12.26,12.26,0,0,1-1.44,1.27c-.76.43-.87,0-1.37-.68-.37-.51-1.13-1.23-.89-1.92s1.76-1.55,2.31-2a10.62,10.62,0,0,1,3.75-2.08c1.42-.29,2.69.69,3.83,1.41a26.4,26.4,0,0,1,6.32,5.57c1.85,2.27,4,5.25,3.59,8.35A6.58,6.58,0,0,1,115.47,197.42Z"/><path class="cls-9" d="M142.45,46.18c-2.27-3.68-3.21-9.12.71-12,2-1.46,4.36-1.92,6.22-3.59a6,6,0,0,0,2.14-5.1c-.06-.62-.57-1.59,0-2a7.89,7.89,0,0,1,3.35-.15c1.48.5.61,4,.23,5.07a9.35,9.35,0,0,1-3.45,4.45,5,5,0,0,0-1.91,1.8c-.43,1-.11,2-.2,3.06a6.8,6.8,0,0,1-3.08,5c-.78.54-1.7.88-2.45,1.46A7.33,7.33,0,0,0,142.45,46.18Zm5.18-12.77a6.55,6.55,0,0,0-3.73,6.15C144.9,37.41,146.39,35.7,147.62,33.4Z"/><path class="cls-9" d="M124.91,206.9a11.08,11.08,0,0,1-3.79-.37c-1.41-.42,0-1,.69-1.64s1.35-1.72,2.5-1.81,2.42.05,3.66-.15c4.63-.76,8.54-3.79,11.7-7.11a33.24,33.24,0,0,0,2.25-2.61c.63-.81,1.19-2.18,2-2.8.62-.47,3.13,0,3.37.81.15.53-.59,1.42-.82,1.82-.62,1-1.28,2-2,3A30.2,30.2,0,0,1,140,201,22.45,22.45,0,0,1,124.91,206.9Z"/><path class="cls-9" d="M108.84,209.37a20.51,20.51,0,0,1-8.08-1.81c-.36-.16-2.62-.95-2.5-1.45s2.23-1.09,2.7-1.18c2.5-.49,5.07,1,7.6,1.1a13.25,13.25,0,0,0,7-1.75,21.44,21.44,0,0,0,5.76-5,22,22,0,0,0,1.93-2.73q.46-.78.87-1.59a8.3,8.3,0,0,1,.7-1.66c.73-.64.88.71,1.22,1.27.71,1.17,1.13,1.81.52,3.18a20.4,20.4,0,0,1-3.89,5.46A20.16,20.16,0,0,1,108.84,209.37Z"/><path class="cls-9" d="M62.8,30.93a11.27,11.27,0,0,1-1.76,7,6.86,6.86,0,0,1-5.41,3.17,8.19,8.19,0,0,1-3.32-.14c-1.32-.38-2.39-1.23-3.78-1.49A13,13,0,0,0,45,39.35c-.62.05-2,.5-2.33-.06s1.1-3,1.4-3.51c.39-.64.58-.68,1.31-.55,2.24.41,3.71,1.54,5.49-.38a6.65,6.65,0,0,1,5.59-2.18C58.84,32.73,61.15,32.91,62.8,30.93Zm-5.11,5.69c-1.14.23-2.25.57-3.39.75-1,.16-2.3-.12-3.16.34a4.41,4.41,0,0,0,3.77.51c.43-.13,3.14-1.66,2.82-1.88Z"/><path class="cls-9" d="M78.09,185.29a14.38,14.38,0,0,1,11.72,5,58.51,58.51,0,0,1,4.64,6.42,29.65,29.65,0,0,0,2.19,2.92c.87,1,1.53,1.39.06,2s-2.19.89-3.22-.38c-1.56-1.92-2.71-4-4.08-6.09-2.55-3.81-6.11-6.68-10.88-6.7-1.24,0-2.43.39-3.64.42-.88,0-1-.39-1.38-1.18s-.78-1.49,0-1.95C74.68,185,76.78,185.29,78.09,185.29Z"/><path class="cls-9" d="M75.16,179a12,12,0,0,1-2.87,1c-.56.16-1.13.28-1.36.86a4.38,4.38,0,0,0,.24,2.16,25.87,25.87,0,0,0,.87,3.1,23.91,23.91,0,0,0,4.51,7.78,31.66,31.66,0,0,1,2.34,2.35c.49.72-.1.66-.84.71a7.15,7.15,0,0,1-2.66-.25c-1.93-.6-3-2.19-4-3.82a38.22,38.22,0,0,1-5.26-12.61c-.36-1.89-.93-4.4,1.73-4S72.79,177.91,75.16,179Z"/><path class="cls-9" d="M102.1,197.18a6.06,6.06,0,0,1-6.38-7,9,9,0,0,1,.91-3.13c.29-.59,1.16-2.65,2-2.43.24.07.84,1,1,1.19a2.19,2.19,0,0,1,.67,1.2c.09,1.05-1,1.86-1.28,2.83-.55,1.94.6,4.12,2.8,3.95s4.44-2.3,6-3.81c1.79-1.71,3.08-3.77,4.75-5.56.81-.87,1.4-.14,2,.71a1.25,1.25,0,0,1,.05,1.71,32.45,32.45,0,0,1-5.43,6.45C107.28,195.19,104.93,197.24,102.1,197.18Z"/><path class="cls-9" d="M77.53,201.21a17.29,17.29,0,0,1-10.93-4.38c-.61-.53-4-3.22-3-4a6.41,6.41,0,0,1,2.06-.34,3,3,0,0,1,2.58,1.15,13.27,13.27,0,0,0,11,3.87,11.82,11.82,0,0,0,5.83-2.29c.52-.41,1.42-1.63,2.1-1.52s1.49,1.41,1.69,2c.64,1.78-2.34,3-3.53,3.61A17.86,17.86,0,0,1,77.53,201.21Z"/><path class="cls-9" d="M151.68,178.57a23.62,23.62,0,0,1-1.46,6.46c-.35,1-.38,1.63-1.51,1.33-.66-.18-1.91-.28-2.34-.85s.21-1.49.41-2.22a3.78,3.78,0,0,0,0-2.27,2.11,2.11,0,0,0-1.53-1c-1.09-.33-2.18-.64-3.24-1.08a31.29,31.29,0,0,1-5.51-3c-.67-.45-3.34-1.91-3.19-2.92.07-.47,1.18-1.37,1.5-1.61.87-.67,1.19-.16,1.9.52a14.87,14.87,0,0,0,5.2,3.24,19.61,19.61,0,0,0,7.39,1C151.36,176.1,151.68,176.54,151.68,178.57Z"/><path class="cls-9" d="M204.55,97.06c-.47-1.54-2.16-3.1-3.19-4.3-.56-.64-1.58-1.26-1.57-2.18a4.92,4.92,0,0,1,.84-2.15c.73-1,1.4,0,2,.73,1.45,1.56,2.88,3.15,4.17,4.85,4.81,6.32,5.83,15.25,1.85,22.29-.42-.78-.85-1.55-1.25-2.33a2.26,2.26,0,0,1-.11-2.26,16.51,16.51,0,0,0,.88-5.67,15.56,15.56,0,0,0-1.19-5.5C206.57,99.47,205.55,97.34,204.55,97.06Z"/><path class="cls-9" d="M11.53,120.55c-.06-.88-1.13-1.73-1.62-2.44a22.54,22.54,0,0,1-1.76-3,19.24,19.24,0,0,1-1.76-6,20.2,20.2,0,0,1,.25-6.2c.36-1.88.85-4.69,2.2-6.1.72,1.47,1.8,2.83,1.28,4.47a17.6,17.6,0,0,0-.9,5.4,15.05,15.05,0,0,0,3.44,9.44c1,1.34,2.1,2.67,3.22,3.94.5.57,1.5,1.31,1.69,2.07s-.32,1.3-.56,1.9c-.16.39-.25,1.33-.78,1.35s-1.25-1.25-1.5-1.52C14.23,123.29,12.06,120.38,11.53,120.55Z"/><path class="cls-9" d="M16.68,135.54c1,1.54,2.85,2.59,4.27,3.7.89.7,1.93,1.28,1.94,2.52a5.09,5.09,0,0,1-.39,2.18c-.53.58-1.24-.28-1.74-.64l-2.77-2c-.59-.43-1.59-1.52-2.36-1.57.17-.36-2.94-3-3.43-3.65a18.55,18.55,0,0,1-2.76-5.11c-1.5-4.16-2.06-8.81-.61-13.06.91.54,1.74,2.62,2.65,2.62a16.29,16.29,0,0,0,.39,8.71,14,14,0,0,0,2,3.7C14.26,133.45,16.15,135.91,16.68,135.54Z"/><path class="cls-9" d="M22.7,157.27a23.46,23.46,0,0,1-8.1-10.41,22.06,22.06,0,0,1-1.34-6.57c0-.63-.37-2.06.65-1.78.66.18.92,1.31,1.78,1.25a9.42,9.42,0,0,1,.51,1,10.86,10.86,0,0,1,.34,1.94,17,17,0,0,0,1,3.78,14.63,14.63,0,0,0,1.76,3.2c.61.83,1.59,2.34,2.65,2.64,0,.07.21.37.3.29a.6.6,0,0,0,.78.39c-.11.32.58.71,1,.71-.15.21.38.37.7.34.25.92,3.62,2,4.62,2.5a10.34,10.34,0,0,1,2.24,1c.6.55.5,1.74.48,2.47s.07,1.39-.85,1.14a21.89,21.89,0,0,1-3.07-1.31C27.4,159.52,23,157,22.7,157.27Z"/><path class="cls-9" d="M196.16,156.25a21.84,21.84,0,0,1-.32-2.91,3.8,3.8,0,0,1,1.38-2.52,14.86,14.86,0,0,0,3.07-5.55c1.53-5-.17-9.61-1.65-14.36a2.34,2.34,0,0,1,.17-2.37c.27-.35,1.2-1.45,1.72-1.46,1.06,0,1.68,3.51,1.93,4.31,1.33,4.21,2.2,8.51,1.19,12.89C202.52,149.12,199.64,152.88,196.16,156.25Z"/><path class="cls-9" d="M209.4,123.75a22.14,22.14,0,0,1-3.77,11.82c-.38.54-.83,1.63-1.37.77a5.54,5.54,0,0,1,.51-5.36,16.93,16.93,0,0,0,1.3-3.51c1.19-4.93-.75-9.13-3-13.41a27.92,27.92,0,0,1-1.68-3.1,2.6,2.6,0,0,1,.7-2.62c.28-.38.57-1,1.1-.79s1.2,1.78,1.5,2.3C207.24,114.29,209.35,118.53,209.4,123.75Z"/><path class="cls-9" d="M138.21,185.14a32.14,32.14,0,0,1,8.46,1.29c1.19.33,2.37.7,3.55,1.08s2.42.35,1.63,1.69c-.42.71-.92,2-1.86,2.11s-2.41-.9-3.32-1.21a25.49,25.49,0,0,0-7.64-1.49,11.2,11.2,0,0,0-6.39,1.56c-.53.35-1.81,2-2.39,1.79-.43-.16-.95-1.69-1.09-2.08-.55-1.53.51-2.22,1.71-3A12.77,12.77,0,0,1,138.21,185.14Z"/><path class="cls-9" d="M193.39,99.91c-.09-.76-.94-1.43-1.37-2a22,22,0,0,1-1.75-2.82,20.83,20.83,0,0,1-2-6,23.88,23.88,0,0,1-.21-6.3c.06-.63-.06-1.31.62-1.19a6.1,6.1,0,0,1,2,1.38,2.8,2.8,0,0,1,.94,2.72,14.13,14.13,0,0,0,.48,6.11,18.93,18.93,0,0,0,3.66,5.46c.76.91,1.51,1.82,2.26,2.74.62.77,1.87,1.87,2.08,2.84a3.31,3.31,0,0,1-1.25,2.5c-.56.43-.77.2-1.23-.29C196.32,103.64,195,100.42,193.39,99.91Z"/><path class="cls-9" d="M124.82,185.82a10.79,10.79,0,0,1,.31-4.19c.44-1,1.13-.45,2-.31,1.42.21,1.35.84,1.12,2.17a14.65,14.65,0,0,0-.23,3.71,10.39,10.39,0,0,0,7,9.23c.53.19,2.35.24,2.25,1-.06.44-1.58,1.4-1.88,1.61-1.93,1.34-3.69.58-5.44-.72C126.19,195.49,124.56,190.38,124.82,185.82Z"/><path class="cls-9" d="M17,109.68c.89-.39,1.06-2.16,1.9-2.35s2.09,2.34,2.56,2.94a57.32,57.32,0,0,1,5.4,7.34,21.13,21.13,0,0,1,2.44,7.53c.12.94.76,6.79-.78,6.51.12-.19-1.4-1.35-1.65-1.82a5.39,5.39,0,0,1-.41-2.59,14.48,14.48,0,0,0-1.36-6.54,29.66,29.66,0,0,0-4.29-5.79c-.8-1-1.58-1.93-2.32-2.92C18,111.31,17.41,110.15,17,109.68Z"/><path class="cls-9" d="M181.12,148.53a24.39,24.39,0,0,1,3.06-11,21.78,21.78,0,0,1,1.62-2.41c.31-.4,1.19-1.86,1.72-1.94s.55.61.7,1.07c.37,1.13.58,1.85-.13,2.88-2.32,3.35-3.88,6.54-3.67,10.74.12,2.43.45,4.84.51,7.28,0,1.9-.12,2.63-2,3.1-1.48.36-1.36-.51-1.38-1.8A56,56,0,0,0,181.12,148.53Z"/><path class="cls-9" d="M194.3,112.38c0,1.05.9,2.11,1.39,3,.57,1,1.11,2.08,1.63,3.14a12.73,12.73,0,0,1,1.41,3,1.55,1.55,0,0,1-.08,1c-.2.43-.9.66-.8,1.21-.24-.14-.67.25-.69.7-.17-.09-.38.18-.3.29-.93-.22-1.38-2.22-1.73-3-.61-1.29-1.25-2.56-1.9-3.82a26.34,26.34,0,0,1-2.81-7.52,21.83,21.83,0,0,1,.1-7.77c.14-.72.36-3.25,1-3.67s1,.89,1.84,1c1,1.54-.35,4.45-.4,6.39C193,107.28,193.16,112.14,194.3,112.38Z"/><path class="cls-9" d="M187.82,128.28A25.28,25.28,0,0,1,189,121a22.12,22.12,0,0,1,1.54-3.57c.42-.77.64-1.63,1.35-.83a3.44,3.44,0,0,1,1,2.8c-.31,1.13-1,2.18-1.37,3.32a15.46,15.46,0,0,0-.39,7.74c.55,2.65,1.49,5.27,2.18,7.89.22.84.63,1.82,0,2.55-.25.27-1.87,1.46-2.22,1.38-.64-.14-.62-1.34-.75-1.94-.29-1.33-.6-2.66-.94-4A40.62,40.62,0,0,1,187.82,128.28Z"/><path class="cls-9" d="M28.56,131.65c.18.78,1.19,1.36,1.71,1.91A21.65,21.65,0,0,1,34.81,141a16.43,16.43,0,0,1,1.38,5.7c-.05,1.1-.64.56-1.42.18A3,3,0,0,1,33,145.4c-.75-1.61-.82-3.49-1.61-5.13a14.77,14.77,0,0,0-3.19-4.34c-1.62-1.53-3.55-2.75-5.26-4.18a25.79,25.79,0,0,1-2.4-2c-.74-.79-.54-1.42-.15-2.38.71-1.77,1.23-1.22,2.5-.11C23.63,127.88,28.16,132.09,28.56,131.65Z"/><path class="cls-9" d="M27.23,106.8a17.4,17.4,0,0,1-.4,4.21c-.11.54-.46,3.19-1.08,3.33-.44.1-1.39-1.36-1.57-1.7a4.29,4.29,0,0,1-.1-3.23,14.31,14.31,0,0,0-.31-7.44c-.83-2.59-2.44-4.85-3.63-7.28-.45-.93-1.48-2.3-1.51-3.35a3.48,3.48,0,0,1,1.65-2.22c1.32-.69,2,2.34,2.46,3.2A73.29,73.29,0,0,1,26,99.19,21.78,21.78,0,0,1,27.23,106.8Z"/><path class="cls-9" d="M92.66,186.33c0,.79.28,4.91-.79,5.1-.55.09-1.17-1.17-1.46-1.51a3.36,3.36,0,0,1-1.16-2.55c0-4.12-.39-8-2.53-11.63-.32-.55-1.45-1.66-1.3-2.28s1.39-1.36,1.83-1.62c1.32-.79,1.84,1,2.39,2A26.88,26.88,0,0,1,92.66,186.33Z"/><path class="cls-9" d="M93.54,179.87c-.86.11-1.06-.21-1.3-1-.19-.55-.8-1.84-.44-2.34.23-.32,1.73-.49,2.13-.62a20.36,20.36,0,0,0,2.46-1,29.62,29.62,0,0,0,4.88-3.12c.73-.56,1.45-1.14,2.13-1.77.44-.4,1.52-1.87,2.12-2,.83-.13,2.4,1.6,2.14,2.52-.17.59-1.07,1.21-1.49,1.59q-1.05.95-2.14,1.85C101,176.53,97.48,179.13,93.54,179.87Z"/><path class="cls-9" d="M16.74,135.6c-.4-1.52-2.4-1.63-2-3.48A46.26,46.26,0,0,1,16.8,126c.72-1.93,1.5-3.84,2.38-5.71.37-.79,1.51-4.16,2.47-3.67a5.83,5.83,0,0,1,1.31,1.53,2,2,0,0,1,0,2.14c-.85,2-1.83,3.85-2.6,5.85s-1.45,4-2.06,6.06C18,133.27,17.83,135.33,16.74,135.6Z"/><path class="cls-9" d="M22,152.36c.39-3.88.84-7.76,1.59-11.59q.3-1.5.66-3a13.47,13.47,0,0,1,.71-2.78c.23-.45.13-.51.61-.47a5,5,0,0,1,1.42,1c1.08,1,.81,2.16.48,3.41a56.5,56.5,0,0,0-1.15,5.64c-.29,1.9-.49,3.81-.65,5.73-.06.75.28,3.9-.92,3.79.1-.18-.38-.39-.71-.35.1-.29-.62-.64-1-.71.13-.19-.38-.39-.71-.34C22.36,152.51,22.12,152.26,22,152.36Z"/><path class="cls-9" d="M197.84,123.68c1-.06,2.31-2.06,2.91-2.75,1.1-1.24,2.13-2.54,3.21-3.8.5.86,1.4,2,1.37,3s-1,1.9-1.65,2.61a87.3,87.3,0,0,1-7.77,7.73c-.48.41-2.71,2.76-3.33,2.46s-.89-2.29-.79-2.84c.17-1,1.39-1.75,2.1-2.35a12.65,12.65,0,0,0,2.91-3c.39,0,.4-.27.35-.35C197.64,124.37,198,123.91,197.84,123.68Z"/><path class="cls-9" d="M185,147.91c-.61-1.87,2.37-2.73,3.57-3.42,1.89-1.08,3.72-2.25,5.51-3.5q1.39-1,2.74-2c.65-.49,1.72-1.79,2.48-1.93,1-.17,1.38,2.05,1.15,2.93-.33,1.23-2.07,2.14-3,2.81q-2.71,2-5.58,3.69A39.31,39.31,0,0,1,186,149.7C184.74,150.2,185,148.94,185,147.91Z"/><path class="cls-9" d="M17.1,109.62c-1.19.72-3.1,6.31-4,6.08-.54-.15-1.48-1.7-1.66-2.25a2.42,2.42,0,0,1,.3-1.87A68.1,68.1,0,0,1,21.1,97.88a7.32,7.32,0,0,1,1.7,2.87c.06.86-1.34,2.07-1.82,2.71S16.63,109.33,17.1,109.62Z"/><path class="cls-9" d="M204.49,97c.11,1.46,2.09,2.22,1.55,3.77a27.65,27.65,0,0,1-2.92,5,89.18,89.18,0,0,1-6.76,9.37c-.89-.66-1.09-2.41-2-2.73,2-2.59,3.9-5.27,5.65-8q1.27-2,2.43-4.12c.39-.7.74-1.41,1.12-2.12A12,12,0,0,1,204.49,97Z"/><path class="cls-9" d="M140.37,178.87a25,25,0,0,1-10.89,2,32.58,32.58,0,0,1-5.89-1.08c-.51-.13-1.51-.13-1.7-.73-.13-.42.79-1.57,1-1.94.56-1,.9-1.06,2-.78a28.32,28.32,0,0,0,5.47,1.13,14,14,0,0,0,3-.11,23.11,23.11,0,0,1,2.63-.63c.73,0,1.32.55,1.92.88C138.68,178.11,139.53,178.48,140.37,178.87Z"/><path class="cls-9" d="M99.39,178.2c.58.09.77.95,1,1.38q.58,1.07,1.26,2.09a31.53,31.53,0,0,0,3.18,4q.83.89,1.71,1.73c.37.36,1.3.94,1.31,1.52a2.43,2.43,0,0,1-2.48,1.79c-1.2-.38-2.49-2.08-3.34-3A30,30,0,0,1,99,184.1c-.46-.65-.89-1.32-1.28-2-.24-.43-.94-1.32-.89-1.85C96.9,179.29,98.65,178.66,99.39,178.2Z"/><path class="cls-9" d="M30.07,85.35a23,23,0,0,1-2.66,9.29,7.55,7.55,0,0,1-1.12,2c-.61.56-.6.18-1-.38a3.31,3.31,0,0,1-.2-3.89,12,12,0,0,0,1.44-4.56,9,9,0,0,0-.19-2.55c-.18-.83-.46-1.23,0-2s2.15-3.21,2.86-2.8c.4.23.51,1.63.6,2.06A12.91,12.91,0,0,1,30.07,85.35Z"/><path class="cls-9" d="M123.7,62.48a19.7,19.7,0,0,1,6-1.43c.1.85-2.19,2.27-2.76,2.86a30.26,30.26,0,0,0-5.22,7.15c-.37.7-1,3.21-1.92,3.27a12.36,12.36,0,0,0-.23-2.07,11.91,11.91,0,0,1,.05-2.65c.25-1.71,1.19-3.12,1.64-4.75.26,0,1.17-1.05,1-1.34.39,0,.41-.28.35-.36C123.13,63.2,123.73,62.68,123.7,62.48Z"/><path class="cls-9" d="M81.4,158.29c.53.14-.72,2.23-.76,2.79-.09,1.23,1,2,1,3.08-.92-.1-1.73-.67-2.66-.66.15-.34-.59-.31-.65-.29,0-.29-.16-.39-.41-.41.09-.09-.19-.39-.29-.28a4.47,4.47,0,0,1-.36-2.53c.08.06.37.06.35-.34.11.08.73-.08.63-.3.34-.06,1.48-.07,1.4-.35.37,0,1.07-.14,1.06-.35A1.59,1.59,0,0,0,81.4,158.29Z"/><path class="cls-9" d="M147.89,73.6c-1.55.09-3.09.2-4.64.27-.34,0-1.13.19-.93-.39.12-.34,1.73-.72,2-.82,1-.37,7.56-2.91,8.09-1.8-.16-.08-.39.21-.32.29-.35.06-.38.32-.34.36a1.25,1.25,0,0,0-1.12.75c-.2-.1-.29.23-.27.31-.34,0-.69,0-.78.4a.51.51,0,0,0-.7.35C148.81,73.13,147.88,73.35,147.89,73.6Z"/><path class="cls-9" d="M67.8,71.92c.42-.51-.77-.6.43-.62A11.47,11.47,0,0,1,71,72a30.31,30.31,0,0,1,5.42,2c-1.85.82-4,.08-5.88-.36,0-.13-.34-.33-.71-.35.15-.18-.36-.41-.7-.34C69.23,72.57,68.1,71.73,67.8,71.92Z"/><path class="cls-9" d="M114.23,125.45c0,.56,1.43,2,1.76,2.55a16.35,16.35,0,0,1,1.54,2.62c.28.66,1.54,5.28.18,5.18-.62,0-1-1.83-1.24-2.3a9.83,9.83,0,0,0-1.41-2.26c-1.26-1.54-2.88-2.76-4.15-4.3a17.1,17.1,0,0,1-3-5.21c-.19-.54-1.2-5.24,0-4.4.39.27.77,1.84,1,2.27a13.45,13.45,0,0,0,1.77,2.37,11.9,11.9,0,0,0,1.74,1.87A15.41,15.41,0,0,0,114.23,125.45Z"/></svg>