<svg id="Layer_1" xmlns="http://www.w3.org/2000/svg" viewBox="0 0 204.9 205.9"><style>.st0{fill:#a39591}</style><path class="st0" d="M120.6 89.4c0 1 1.5-.3.9 1-.5 1.2-1.5 2.4-2.1 3.6-.6 1.1-1 2.2-1.8 3.2-.3.4-.7.8-1.1 1-.8.4-1.2.5-1.3-.4-.7-5.2 4.7-10.5 1.7-15.5 1.4 4-.7 7.6-1.7 11.3-.3 1.2-1 3.5-.3 4.6.3.4.7.7 1.2.6.7 0 1.2-.9 1.7-1.2-2.3 8.5-3.6 17.3-2.2 26.1 1.2 7.4 4.4 14.4 9.4 19.9 2.5 2.7 5.3 5.4 8.6 7 1.7.8 3.6 1.4 5.4 1.8 2 .4 3.9.4 5.8 1.1 1.9.7 3.4 1.6 5.5 1.7 2.1.1 4.3-.1 6.3-.6 4.2-1 7.8-3.3 11.5-5.5 1.7-1 3.4-2.3 5.2-3.2.6-.3.7-.5 1 .1.3.5.2 2 0 2.5-.5 1.3-2.4 2.2-3.5 3-1.5 1.2-3 2.5-4.3 3.9-5.2 5.4-8.3 11.7-10.8 18.7-2.4 6.8-5.5 14.8-11.2 19.5-2.5 2.1-5.7 3.7-8.9 4.1-.7.1-1 .1-.7-.6.4-.8 1.5-1.5 2.1-2.2.6-.8 1.1-1.5 2-2 .8-.5 1.5-.9 2.3-1.4 6.9-5.2 9.6-15.1 11.4-23.1.2-.9 1.7-5.2 0-5.7-.8-.2-2 1.5-2.5 2-.9.9-1.8 1.7-2.7 2.5-1.6 1.4-3.4 3.1-5.3 4.2-1.5.9-4.3.5-5.8-.3.5-.8 1.7-1.1 2.5-1.6 1.2-.8 2.2-1.7 3.1-2.8 1.3-1.7 2.6-4.8 0-5.9-2.5-1.1-5.7.5-7.8 1.8-2.2 1.3-4.2 2.9-6 4.7-.8.8-1.6 1.8-2.3 2.7-.6.9-1.2 2.4-2 3.1-.6.4-3.2.2-3.3-.7-.1-.5.6-1.5.8-2 .7-1.3 1.5-2.5 2.5-3.7 1.8-2.2 4.1-4.1 5.7-6.4 3-4.4-2.9-8.7-6.7-9.8-5.8-1.7-1.1 8 .1 9.9.4.5.7 1.1 1.2 1.6.3.4 1 1 1.2 1.4.2.6-.9 2.3-1.6 2.6-1.6.7-2.6-3.8-4.1-3-.7.4-.9 2.7-1.1 3.4-.4 1.4-.7 2.8-1.2 4.1-1 2.6-2.4 5.2-4 7.4-.9 1.2-1.1.8-2-.1-1-.9-1.8-1.4-.9-2.6 1.8-2.4 2.9-5.4 3.7-8.3.8-2.9 1.8-6.5 1.2-9.5-.2-1.1-.6-2.5-1.9-2.5-1.4-.1-2.8 1.7-3.7 2.6-.1-.6.4-1.2.6-1.7.2-.7.4-1.5.5-2.2.2-1.6-.1-3.1-.7-4.6-.2-.5-.6-.9-.8-1.2-.3-.4-.4-.8-.9-1.2-.9-.8-2.5-.5-2.2 1 .4-.6.8-1.3 1.6-1 .3.1.6.6.9.8.1.1.6.4.7.5-.1.3 0 .5.1.8.1.2.2.5.4.7.2.5.4 1 .5 1.6.2 1 .2 2.1 0 3.2-.4 2.1-1.3 4.2-2.5 6-.4.7-1.2 2.4-2 2.7-.8.4-1.2-.4-1.7-1-1.4-1.6-.4-2.2.6-3.9 1-1.8 1.5-3.8 1.6-5.9.1-1.9-.1-3.9-1.4-5.5-.6-.7-1.4-1.3-2.4-1.3-1.1.1-1.4 1.1-2.4 1.2.1-1.2.6-2.3.7-3.5.1-1.3-.1-2.6-.3-3.9-.5-2.7-1.5-5.2-2.7-7.6-2.3-5-4.1-10.4-4.7-15.9-.7-5.5-.2-11.2 1.2-16.6.8-2.9 1.5-5.8 1.3-8.8-.1-2.2-.4-5.3-1.8-7.1 1.2 3.7 1.4 7.7.8 11.5-.6 4-2.1 7.7-2.4 11.8-.6 7.9.9 15.9 4 23.2 1.5 3.5 3.3 6.8 3.8 10.6.2 1.8.1 3.7.1 5.5-.1.1-.2.2-.3.2 0 .2.1.4.2.5-.1.3-.3.7-.4 1-.3.9-.6 1.8-.7 2.8-.9 7.1 5.1 13.4 10.3 17.5.9.7 2.9 1.6 2.8 2.8-.1.7-.7 2.5-1.5 2.3-.4-.1-.9-.6-1.2-.9l-2.4-1.8c-1.4-1.1-2.8-2.3-4.1-3.5-2.6-2.4-5.1-5.1-7.2-8-.9-1.2-1.8-3.1-3.2-3.8-1.4-.7-2.4.3-2.8 1.7-.9 3.7.3 8.2 1.5 11.8.5 1.5.2 1.9-1.2 2.6-1.4.6-1.6.2-2.1-1.1-.7-1.9-1.3-3.8-1.9-5.7-.2-.5-.3-1.4-1.1-1.1-.6.3-1.2 1.6-1.6 2.1-1.1 1.3-2.4 2.5-3.8 3.7-1.3 1.1-2.7 2.5-4.2 3.2-.8.4-5.2-.3-4.7-1.3.3-.5 2.1-1.2 2.6-1.6.9-.6 1.8-1.2 2.6-1.8 3.1-2.4 5.7-5.2 7.3-8.8.6-1.4 3.4-7.2 1.1-8.1-1.2-.5-3.1.3-4.1.8-1.8.9-3 2.6-4.7 3.6-.2 0-.7.1-.6.3-.3 0-1.2 0-1 .3-.5.1-1.3.1-1.4.3-.4 0-.7.3-.7.3-.4 0-.4.3-.4.3-.6.8-.5 2.2.3 2.5 0 .2.2.4.4.4 0 0 0 .3.3.3 0 .1.4.3.7.3.5.7 1.8.7 2.8 1 .5.2.9.5 1.3.9.2.2 1.2 1.1 1.3 1.4.2.7-1.2 1.9-1.7 2.2-.9.6-1.3.2-2.1-.4-2.4-1.8-4.9-3.4-7.8-4.2-1.2-.3-2.9-.7-4-.1s-1.1 2-.9 3.1c.6 2.6 2.9 4.7 5.1 6.1 2.4 1.6 5.3 2.5 8.1 3 1.7.3 3.3.2 4.9.3 1.4.2 1.3 1.3 1.7 2.5.5 1.6 0 1.6-1.6 1.5-1.7-.1-3.5-.3-5.2-.7-6.1-1.3-11.3-4.7-16-8.6-1.2-1-2.3-2-3.4-3-.6-.6-1.8-2.6-2.8-2.6-2.3-.1-.2 6.9.1 8 .8 3.1 1.9 6.2 3.3 9.1.3.7.7 1.4 1.1 2.1.2.4.9 1.2 1 1.7.2 1.2-2.2 1-3 .9-1.4-.2-1.8-1.4-2.4-2.5-.9-1.5-1.7-3.1-2.4-4.7-1.3-2.8-2.3-5.7-3.4-8.7-2.2-5.7-5.4-10.5-9.9-14.6-2.2-2-4.5-3.8-7.1-5.3-2.8-1.6-6-2.6-8.6-4.5-1-.7-.8-1.6-.6-2.7.1-.7.2-1.1.9-1 .9.1 2.2 1 3 1.4 1.6.8 3.2 1.7 4.7 2.6 5.5 3.2 10.7 7.4 16.8 9.4 3 1 6.2 1.4 9.3 1.2 1.6-.1 2.7-.5 4.1-1.2 1.4-.7 2.8-.9 4.3-1.2 4.8-.8 9.4-2.7 13.1-5.8 9-7.4 12.6-19.4 13.2-30.7.3-6.5-.4-13.4-3.2-19.4-2.5-5.3-6.8-10.7-11.5-14.1-1.1-.8-2.4-1.4-3.7-1.7-1.1-.3-3-.7-4-.1-.9.4-1.1 1.7-1.7 2.5-.7.9-1.8 1.6-2.9 1.9-1.2.4-2.5.2-3.7.5-1.2.3-2.3 1.6-2-.4.5-2.6 1.3-5.2 3.7-6.6 2.5-1.5 5 0 7.6-.5-.7-1-2-1-2.8-1.8 2.2-.3 4.3-.7 6.5-.8 1.1-.1 2.2-.1 3.3 0 .5 0 1.1.1 1.6.2.6.2.6.3 1.2.6.4.2.7.1 1.1.2-.5-.1 1.1.6.7.3.3.2.4.5.7.7.3.2.7.2 1 .3l.7.7c.2-.1.4 0 .4.2.1.2.2.3.3.4.1.1.3.2.5.1s.3 0 .3.3c.3.2.4.4.7.7.3.3.7.2 1 .4 0 .1 0 .2.1.3.3 0 .5.2.7.5.8.7 1.5 1.6 2.3 2.3 1.3 1.3 2.4 2.8 2.8 4.7.4 1.9-.2 3.5-1 5.2-.5.9-.3 1.6-.6 2.6-.1.5-.4.9-.7 1.3.5-.3.5-.5.7-1 .6-1.2 1.1-2.5 1.6-3.8.8-2.3 1-4.8-.5-6.8-1.5-1.9-2.7-3.4-4.7-4.8-.3-.2-.4-.5-.7-.8-.4-.4-.8-.4-1.2-.7-.2-.1-.4-.6-.6-.8-.2-.1-.5-.2-.6-.2-.2-.1-.3-.4-.6-.6-.2-.1-.5-.1-.7-.2-.2-.1-.3-.4-.5-.5-.3-.3-.7-.3-1.1-.5-.8-.4-1.5-.8-2.4-1.1-1.1-.3-2.1-.7-3.3-.7-1.4-.1-2.9.1-4.3.3-1.3.2-2.7.4-4 .5-1.4.1-2.8-.1-4.2-.1-1.2 0-2.4.2-3.5.5-.9.3-2.4.7-2.9 1.6-.5.8.1 2.4 0 3.3-.1 1.1-.6 2.1-1.2 3-1.6 2.1-4.2 3-5.3 5.4-1.5-3.4-2.7-7.9 0-11.1 1.1-1.3 2.5-1.6 4-2.1.8-.3 1.4-.8 2.1-1.3.9-.6 1.9-1 2.9-1.6-3.9-.9-8-2.2-12-1.4-3 .6-7 2.7-7.3 6.1-.1 1.5 0 3 1.5 3.5 1.4.5 2.7 1.1 3.7 2.3 2.2 2.7 1.2 6.3 2.2 9.4-2.2-2.1-6-2.7-7.8-5.2-.7-.9-.8-2-.8-3.1 0-1.5.1-2.3-.4-3.7-.4.9-.9 1.8-1.1 2.8-.2 1 0 2-.1 3.1-.2 1.8-1 3.6-2.3 4.9-2.7 2.7-7.3 3.1-10.9 3.5 2.2-2.1 2.4-4.8 3.5-7.3 1-2.3 2.9-3.6 5.3-4 1.2-.2 2.4-.2 3-1.6.6-1.5.8-3.2 1.4-4.8.5-1.3 1.1-2.6 2-3.7.5-.6 1-1.1 1.5-1.6.4-.4 1.3-.7 1.4-1.3-6.9 0-15.2 1-20.3 6.3-2.9 3-5.7 6.1-8.5 9.1-1.4 1.5-2.7 3-4.1 4.5-.3.4-.6 1-1.1.8-.4-.1-.8-2-.8-2.4-.2-1 .3-1.7.9-2.5 1.3-1.7 2.6-3.4 3.8-5.1 1.3-1.7 2.5-3.3 3.8-5 1.1-1.5 2.1-3 2.2-4.9.3-3.7-2.3-7.2-2.9-10.7-.7-4-.2-8.2 1.1-12.1 2.5-7.3 8.2-13.3 15.3-16.3-.5 1.1-.9 2.3-1.3 3.5-.3.9-.3 2.3-1 2.9-.7.6-1.7 1.1-2.4 1.7-.8.6-1.5 1.3-2.1 2.1-2.7 3.2-4.5 7.5-4.9 11.6-.4 3.8.1 8.5 3.5 10.9 3.6 2.5 8.6 1.6 12.6.7-.9-1.2-2.9-.9-4.2-1.4-1.2-.4-2.3-1.2-3.1-2.2-1.9-2.5-1.6-6.3-.6-9.1 1.7 2.5 5.2 2.8 6.9 5.4.4.6.7 1.4.8 2.1.1.6 0 1.4.2 2 .5 1.4 3.1 1.7 4.3 1.9 3.9.8 8.1.5 12.1.8 2 .2 4.1.5 6.1.8.8.1 1.8.1 2.6.5.6.3 1 .9 1.7 1-.1.4.9.9 1.4 1-.1.2.4.4.7.3-.2.3.5.4.6.3 1.5 1.1 3.3 1.2 5.1 1.1 1.8-.2 2.9.3 4.5 1.1-.3-.9-.6-1.8-1.2-2.5s-1.3-1.2-1.9-1.9c-1.3-1.4-2.1-2.9-1.9-4.9.2-3.6 2.5-6.7 5.3-8.8.2 2.5 1.5 4.5 2.5 6.8 1.1 2.4.7 4.6-.7 6.7-.7 1-.9 1.7-.3 2.9.5 1 1.3 2 2 2.9 1.4 1.7 3.2 3.1 5.2 4.1.1-1.1-.8-1.7-1.4-2.5-.7-.9-1.2-1.9-1.5-2.9-.5-2 0-4.1 1.1-5.9.6-1 1.3-2.1 2.2-2.9 1-.9.8.1 1 1 .5 2.2 2.2 3.7 2.5 6 .1 1.1 0 2.2-.5 3.2s-1.4 1.8-1.3 2.9c.1 1.9 2 3.7 3.5 4.6 1 .6 3.2 1.8 4.2.7.5-.6.5-1.8.5-2.6 0-.5-.8-3.2-.5-3.5.4-.5.9 1.2.9 1.3.5.9 1.1 1.8 1.6 2.8 1.1 2.1 2.1 4.4 2.8 6.7 1.4 4.7 1.9 9.6 1 14.4-1 5.2-2.4 10.3-2 15.7.4 4.8 2.7 8.2 6.1 11.4 4.1 3.8 8 7.5 11.5 11.8 1.6 1.9 2.9 4.2 5.1 5.5 1.9 1.2 4.2 1.4 6.4 1.2-.6-.4-1.3-.2-2-.3-.8-.1-1.6-.2-2.3-.5-1.4-.5-2.7-1.3-3.8-2.4-1.2-1.2-2-2.7-3.1-4-1.4-1.7-2.9-3.5-4.4-5.1-2.8-3-6.1-5.4-8.9-8.3-2.6-2.8-3.9-6.3-4.1-10-.3-4.5.8-8.9 1.7-13.3.9-4.1 1-8.1.2-12.2-.8-4-2.2-8.1-4.3-11.6-.5-.9-1.2-1.6-1.7-2.5-.6-.8-.9-1.6-1.2-2.5-.4-1-1-2-1.3-3.1-.3-1.1-.2-2.2-.2-3.4-.1-2.1-.7-4.1-1.6-6-.4-.7-.8-1.7-1.3-2.3l-.7-.7c-.3-.3-.3-.6-.6-1-.2-.3-.5-.4-.8-.6-.4-.3-.5-.5-.9-.8-.2-.2-.5-.2-.7-.4-.2.1-.3-.1-.3-.3-.2-.1-.4-.1-.6 0-.3-.2-.4-.5-.7-.7-.2 0-.5-.1-.7 0-.3-.2-.5-.4-.8-.5-1-.4-2.2-.3-3.2-.1 1.1-.1 2.5.2 3.6.5.6.2 1.2.5 1.9.7.3.1.7.6.9.7.2.1.8.3.9.4.1.1.4.6.5.7.3.3.6.6 1 .9.2 0 .3.2.2.4.3 0 .4.1.3.4.2.3.5.5.7.7.6.8.9 2.1 1.3 3 .8 1.9 1.3 4.4 1.2 6.5-.7-.2-1-1.4-1.4-2-.6-1-1.2-1.9-1.9-2.8-1.2-1.7-2.6-3.3-4.2-4.8-3-3-6.6-5.4-10.4-7.3-9.5-4.8-20-6.8-30.5-4.7-4.8.9-9.5 2.5-13.8 4.8-2.2 1.2-4.2 2.6-6.1 4.3-.5.4-1.7 2.2-2.2 2.1-.7 0-.4-2.5-.4-3.1.1-1.2.2-2.6.6-3.7.4-1.1 1.6-1.8 2.5-2.4 1.8-1.3 3.8-2.5 5.8-3.6 4.4-2.2 9.3-3.5 14.2-4.2 10.1-1.4 20.5 0 30 4 4.4 1.9 8.7 4.3 12.6 7.1 1.8 1.3 3.1 3.1 5.1 4 .8.3 1.1.6 1.3-.4.2-1.3-.1-2.9-.3-4.2-.7-5.2-2.2-10.2-4-15-1.4-3.8-3.2-7.3-6.1-10.1-2.8-2.7-6.3-4.4-10-5.5-2.5-.7-5-1.3-7.6-1.6-.5-.1-1.9.1-2.1-.4-.2-.5.9-2 1.1-2.4.4-.8.7-1.7 1.6-2 1-.3 2.5.3 3.4.5 2.7.6 5.3 1.3 7.9 2.1 2.5.8 5.1 1.7 7.5 2.7 2.2.9 4.3 1.5 6.7.8 2.3-.7 4.3-2.4 6.2-3.7 1.2-.8 1.5-.9 2.7 0 .4.3 2.6 1.5 2.7 2 0 .5-1.7 1.3-2.1 1.6-1 .7-2 1.4-2.9 2.2-1.6 1.5-3.1 3.3-3.9 5.4-.8 2.1-.9 4.7 0 6.9.6-1.2 1.7-2.6 1.6-4 0-1.3-.1-2.4.4-3.7.9-2.3 3-3.4 5.3-4 .7-.2 1.5-.3 2.2-.6.3-.1.9-.7 1.2-.5.9.3.2 2.9.2 3.6-.2 2.3-1 4.6-3.1 5.9-1 .6-2 .9-3.1 1.2-1.3.3-1.8 1.1-2.1 2.3-.7 3.2-.1 5.8 1.8 8.3 1.1 1.5 3.5 6.1 5.8 5.5 2.4-.6 4.1-4.4 4.2-6.6.1-1.5-1.1-1.7-2.1-2.6-1-.8-1.7-1.9-2-3.1-.7-3.3 1.9-6.3 1.1-9.7 3.1 2.3 6.7 5.1 6.4 9.4 0 1-.3 1.9-.6 2.8-.1.2-1 2.2 0 1.8.3-.2.8-1.5 1-1.8.5-1 1-1.9 1.4-2.9 1.5-4 1.2-8-1.7-11.1-2.9-3.1-6.6-5.7-10.1-8.2-3.7-2.6-7.7-4.4-11.7-6.5-1.1-.6-.6-.9.3-1.5.9-.6 1.8-1.2 2.7-1.6 1.9-.9 4.1.9 5.8 1.9 4 2.4 7.8 5.2 11.7 7.9 3.2 2.2 6.3 4.8 10.5 4 1.6-.3 3.2-1 4.5-2.2 1.7-1.6 1.4-2.7 0-4.4-.7-.8-1.4-1.5-2.1-2.2-.4-.4-2.3-1.7-2.4-2.2 0-.7 4.6-1.4 5.2-1.1.8.5 1.6 1.5 2.2 2.2.8.8 1.5 1.7 2.2 2.6 1.1 1.4 2.4 2.2 4.3 2.2 2.2.1 4.4-.6 6.6-1.1 2.2-.5 4.4-.9 6.6-1 8.1-.4 15.9 3.5 21.3 9.5 1.2 1.4 2.3 2.8 3.2 4.4.3.5 1.4 1.8 1.4 2.4 0 .9-1.3.3-1.9.2-1.8-.3-2.9-.1-4.2-1.6-1.2-1.4-2.3-3-3.6-4.3-2.6-2.5-5.9-4.3-9.4-5.3-4.3-1.1-8.9-.7-13.2.1-7.9 1.3-15.7 4.2-19.9 11.4-1.1 1.8-2 3.8-2.7 5.8 1.1-.4 2.2-.8 3.4-1 .7-.1 1.9 0 2.4-.5s.5-1.6.7-2.2c.3-.7.7-1.4 1.2-2 2.3-2.8 6.4-3 9.8-3.5-2.4 2.9-2.1 7.8-6.1 9.4-1.7.7-3.5.4-5.3.6-1.8.2-3.5.8-4.9 1.9-1.6 1.2-2.9 3-3.4 4.9-.6 2.3-1.2 4.3-2.4 6.3-.5.9-.6 1.7-1.7 1.4-1.1-.3-1.3-1-1.6-1.9-.8-2.3 0-4.8.1-7.2-1.2 2.4-1.2 6.2.2 8.4.6 1 1.1 1.5 2.2.8.4-.3.8-.5 1.1-.9.4-.4.4-1 .9-1.4.1 1-.2 2-.4 3-.1.3 0 1.2-.2 1.5-.2.4-.7.6-1 .9-.5.5-.7 1.3-1.2 1.8-.4.4-1.3.5-1.3 1.1-.2-.1-1-.2-1.1-.4.1.1-.3-.8-.4-.9-.3 0-.4-.2-.3-.5 0-.1 0-.2-.1-.3-.2-.5-.4-1-.6-1.6-.6-2.3-1-4.6-1.3-6.9-.4 1.8.1 3.6.5 5.4.2.9.4 1.7.8 2.6.1.3.2.5.3.8 0 .2.1.2.3.2-.1.2 0 .4.1.5.3.4.8 1 1.3 1.1.1 0 .9-.2 1-.3.2-.1.4-.4.5-.6.3-.4.7-.7 1.1-1.1.6-.6.6-1.4 1.1-2 .4.7-.6 2.6.4 2.8.8.2 1.9-1.4 2.3-1.9.7-1 1.5-2.1 1.8-3.3.3-1.2-.3-2.2-.6-3.3-1.1-4.7 3.2-8 7.1-9.5-1 1.9-.4 3.6-.4 5.7.1 1.7-.3 3.3-1.4 4.7-.5.7-1.2 1.1-1.8 1.7-.5.6-.7 1.3.2 1 .9-.3 1.8-1.2 2.6-1.7 1-.6 1.9-1.2 2.9-1.7 8.1-4.5 16.8-6.8 26.1-7.2 4.6-.2 9.2.1 13.8 1 1.6.3 4 .3 4 2.3 0 1.1.2 4.5-1.3 4.5-.9 0-2.1-.7-2.9-.9-1.1-.3-2.2-.6-3.4-.8-2.3-.4-4.6-.7-6.9-.8-4.4-.2-8.7.3-12.9 1.4-4.8 1.3-9.5 3.5-13.7 6-2.1 1.2-3.8 2.8-6.2 3.2-.7.1-5.9 1-5.4 1.8-.6-.1-.9.3-1.1.7 0 0-.3 0-.3.4-.3-.2-1.1.9-1 1.4-.3 0-1 1.2-1.2 1.7-.4.8-.6 1.7-.7 2.6-.2 1.6-.6 3.8.6 5.2.3.7-.2 1.8-.5 2.6-.3 1.2-.6 2.4-.8 3.6-.5 2.4-.1 4.7-.5 7-.9 4.7-3.9 8.6-4.8 13.3-.8 4.4-.4 9 1.5 13.1.8 1.8 2.2 4.7 4.1 5.6 1.7.9 2-1.4 1.9-2.6-.4.2-.2 1.5-.7 1.9-.8.8-1.5-.1-2-.7-1.4-1.7-2.6-3.6-3.3-5.7-1.5-4.2-1.7-9.1-.5-13.4.7-2.4 1.8-4.5 2.8-6.7.5-1.1.9-2.2 1.3-3.3.2-.6.3-1.2.4-1.8.1-.4-.1-1.3.2-1.7.4-.5 1.8-.3 2.4-.4.9-.2 1.7-.6 2.4-1.2 1.1-.9 3-3 2.9-4.5-.1-1-1.4-2-1.8-2.9-.5-1.1-.5-2.3-.2-3.4.6-2.5 3-4.2 2.8-7 1.9 2.4 4.2 4.8 4.3 8 .1 1.3-.3 2.6-1.1 3.7-.7.9-2.5 1.8-2.4 3.1 1.8-.8 3.2-2.1 4.3-3.6.5-.7 1.2-1.6 1.4-2.3.2-.9-.5-1.6-.9-2.3-1-2-1.1-4.4-.2-6.4.9-2 2.6-3.6 3.2-5.7.1-.4 0-2.1.5-2.1.4.1 1.2 1.9 1.4 2.3 1 1.7 2.1 3.4 2.4 5.5.2 1.8.1 3.7-.7 5.4-.4.7-.8 1.4-1.4 1.9-.6.6-1.7 1.1-2.2 1.9-.7 1.2.7.5 1.2.2 1-.5 1.9-1.1 3-1.3 1.2-.3 2.3-.1 3.5-.1 1.3 0 2.7-.3 3.9-.8.1.1 1-.1 1-.3.3 0 .8-.2.7-.3.3 0 .8-.2.7-.3.3-.1.4-.3.3-.4.6.1 1.1-.4 1.1-.7.4 0 .4-.3.3-.4.4 0 .4-.3.4-.4 1.9-1.4 5.1-1.2 7.4-1.4 2.8-.2 5.6-.1 8.3-.4 1.4-.1 2.8-.3 4.2-.7.9-.2 2.2-.4 2.8-1.1.6-.6.4-1.7.7-2.5.2-.9.7-1.8 1.3-2.5 1.4-1.7 3.5-2 5.3-3.1.7-.5 1.3-1.7 1.9-.9.3.4.2 1.6.2 2.1 0 .7.1 1.4 0 2.1-.2 2.1-1.1 4.3-2.8 5.5-.7.5-1.5.8-2.3 1-1 .2-2.3-.2-3 .8 3.2.5 7 1.7 10.2 1 2.8-.7 4.9-2.8 5.6-5.6.2-.9 0-2.3 1.2-1.6 1 .6 2.1 1.5 2.8 2.4 1.3 1.7.8 3.8.2 5.7-.9 3-1.9 5.7-.9 8.8.4 1.3 1.7 2.4 1.9 3.8.1.8-.5 3.3-1.4 2.9-.5-.2-1.2-1.4-1.6-1.8-.5-.5-1-1-1.5-1.4-1.3-1.1-2.6-2.2-4-3.2-2.6-1.7-5.3-3.1-8.3-4.1-3.2-1.1-6.5-1.6-9.9-1.8-1.9-.1-3.7 0-5.6.1-.9.1-4.9 0-5.2.9 2.2 1.1 4.1 2.7 6 4.3 1.7 1.5 3.3 3.4 5.6 2.1 2.1-1.2 4.5-1.8 6.9-1.1 2.4.7 4.3 2.2 7 2.2-2 3-5.2 5.6-8.9 5.6-1.7 0-3.4-.6-4.8-1.6-1.7-1.2-2.7-2.9-4.6-3.8-.5.8 1.4 2.8 1.8 3.5.5 1.2.7 2.6.4 3.8-.7 2.9-3.4 4.8-5.4 6.8.5-4-4-7.4-.8-11.2.5-.6 1.5-1.1 1.7-1.7.3-.7-.1-1.3-.4-2-.8-1.6-2-2.9-3.6-3.8-1.6-.9-3.5-1.5-5.4-1.7-2.4-.2-4.6.7-6.8 1.6-1.1.5-2.2 1-3.4 1-1.3 0-2.6-.5-3.9-.6-1.1-.1-2.2-.1-3.3.2-1 .2-1.7.8-2.5 1.1-.3.1-.6.3-1 .5 0 .1-.1.2-.1.3-.1 0-.3.1-.4.1-.2.1-.4.2-.7.4-.4.3-.7.8-1 1.1-.4.4-.4.7-.7 1.2-.5.8-1.3 1.1-1 2.2.1.4.3 1 .6 1.2 0 0 .6.4.5.2-.1-.2-.3-.3-.5-.4-.3-.3-.4-.4-.3-.9.1-.6.4-1.9.7-2.3.2-.3.6-.4.8-.7.1-.2.2-.5.2-.7.1 0 .3-.1.4-.1l.9-.6c.2-.2.3-.4.4-.6.2 0 .3 0 .5-.1 1.1-.9 2.2-1.3 3.8-1.5 2.1-.3 4.3.2 6.4.7-1.6.8-3.1 1.6-4.7 2.4 1.2.2 2.4.1 3.6.1 1.3 0 2-.1 3.2-.5 1.7-.7 3.7-.9 5.5-.4 1.6.4 3 1.3 4.1 2.6.7.8 1.3 1.7 1.8 2.6.3.6 1.6 2.3 1.6 3.1 0 .9-1.3.2-2 .2-1 0-2 .1-3.1 0-1.8-.1-3.6-.5-5.3-1.3-.8-.4-1.6-1-2.3-1.6-.7-.6-1.2-1.6-2-2.1-1.5-1-4.5-.1-6 .5 1.2.7 2.4 1.6 3.6 2.2 1.1.5 2.4.6 3.5 1.4 2 1.5 2.6 4.4 2.3 6.8-.1.8-.3 1.5-.5 2.2-.1.4-.5 1.9-.8 2.1-.5.2-.6-.3-.9-.8-.4-.6-1-1.1-1.6-1.5-2.1-1.5-3.8-3-4.1-5.8-.1-1 .5-2.4-.4-3.1-1-.9-3.1-1.2-4.4-1.3-1.6-.1-2.9.2-4.2 1.2-1.2.9-1.9 2.2-3 3.2-.4.3-.8.5-1.3.6-1.1.1-.9-.7-.9-1.6-.1-1.8.3-3.4 1-5 .4-1 .7-1.7 1.3-2.5.2-.3.5-.9.7-1.2.4-.5 1.1-.9 1.4-1.5.1-.2.2-.7.3-.8.2-.2.8-.3 1-.5.2-.2.4-.6.6-.7.2-.2.6-.3.9-.4l.1-.1c0-.3.2-.4.5-.3.4-.2.5-.2.9-.4.8-.3 1.7-.6 2.5-.7 1-.2 1.9-.1 2.9 0 .4 0 .9 0 1.3.1.5.1.7.3 1.2.4.2.1.5-.1.8 0 .4.1.9.5 1.3.6.9.3 1.9.3 2.8.3-.8-.2-1.5-.4-2.3-.6-.4-.1-.8-.2-1.2-.2h-.5c-.2.1-.4 0-.5-.3-.6-.1-1.1-.1-1.7-.3-.8-.2-1.6-.5-2.5-.5-1.7 0-3 .6-4.5 1.2-.3.1-.5.1-.8.2 0 .1-.1.2-.1.3-.2 0-.4 0-.5.1-.1.1-.4.6-.5.6-.3.2-.6.1-.9.3-.5.3-.8.9-1.2 1.3-.5.5-.9.9-1.3 1.5-.6.8-1.4 1.7-1.8 2.6-.6 1.3-1.3 2.5-1.5 3.9-.6.8-1 2.9 0 3.9zM102.8 51c-.1-.3-.3-.3-.5-.5.1 0 .9.7.9.7.1.2.1 1.3.7 1.1-.1.5.5 1.4.7 1.9.1.1.3.2.3.3.1.1-.1.3 0 .4 0 0 .4.4.4.3 0 .2-.1.4 0 .6.2.5.4.9.5 1.5.1.6.3 1.2.4 1.8.4 1.3.8 2.6 1 4 .3 2.4.1 4.8-.8 7.1-.9 2.2-2.5 4.1-3.5 6.3-1.1 2.5-.3 4.5-.4 7 0 2.9-2.6-1.5-2.9-2.3-.9-2.6-1.4-5.2-2.4-7.8-1-2.4-1.8-4.9-2.4-7.4-.2-1-.6-1.8-.9-2.8-.1-.2-.3-.5-.4-.8-.1 0-.2-.1-.3-.1v-.4c-.1-.2-.1-.5-.3-.7-.1-.2-.3-.4-.4-.5.1.1-.4-.8-.4-.6-.1-.2.1-.4-.1-.5-.1-.2-.5-.4-.6-.5-.1-.2 0-.5-.1-.7-.1-.2-.4-.3-.5-.4-.2-.2-.4-.8-.8-.6 0-.1.2-.3-.1-.3.2.3.4.5.7.8.1.1.2 0 .3.2.1.1.2.4.2.6.1.2.3.3.5.5.1.1.1.3.2.5.3.4.5.5.7 1 .2.7.7 1.4 1 2.1l.2.4v.4c.1.3.3.3.4.6.1.4.1.9.2 1.3.5 2.7 1.4 5.2 2.3 7.8 1 2.6 1.5 5.3 2.4 7.9.3.9 2.7 5.7 4 3.2.4-.7-.2-2-.3-2.8-.2-1.2-.2-2.5.1-3.7.6-2.4 2.1-4.1 3.2-6.2 1.1-2 1.6-4.3 1.6-6.5 0-2.4-.5-5.4-1.5-7.7-.1-.3-.3-.5-.4-.8-.1-.3-.1-.6-.2-.8-.2-.4-.3-.7-.4-1.2 0 .1-.4-.5-.3-.4 0 0-.1-.3-.1-.4.2.5-.4-.5-.3-.3-.2-.2.2-.5-.4-.4.1-.4-.3-1.3-.7-1 .2-.4-.1-1.2-.5-1.2zm-9.7 1.6c-.1.1-.1.1 0 0-.1.1.5.8.7.7-.2.6.4.9.7 1.3.3.3.4.7.7 1.1.1.2.3.3.4.6.1.2.2.5.3.8.3.6.7 1 1.1 1.5.5.5.9 1.1 1.4 0 .4-.8-.3-2.9-.5-3.7-.9-2.9-2.4-5.6-3.5-8.4-.6-1.4-1.1-2.8-1.5-4.2-.1-.4-.2-.9-.3-1.3-.1-.1-.3-.2-.3-.4-.2-.6 0-1.7 0-2.4-.6 2.4.6 5.6 1.4 7.8 1 2.7 2.5 5.2 3.4 7.9.5 1.3.8 2.7.9 4.1 0 .2.1 1 0 1.1-.3.3-.4-.2-.4-.3-.4-.3-.5-.7-.7-1.3-.3-.5-.6-.9-1-1.3-.3-.5-.5-.8-.9-1.2l-.4-.4c-.1-.1-.1-.4-.2-.5-.5-.6-1-1-1.3-1.5zm-6 85.8c-.3 0-.5.5-.7.7-.3.3-.7.2-1 .5-.1.1-.3.4-.3.4-.1 0-.4.1-.5.2-.1 0-.6.4-.6.5.4-.4 1.2-.5 1.7-.8.2-.1 1-.9 1-1.1.4.1 1.4-1.3 1.7-1.7.6-.9.9-2.1 1.4-3.1.1-.1.2-.7.4-.8.4-.2 1.1.1 1.5.3 1 .7 1.2 2.4 1.5 3.4.8 2.9 1.3 6 1.5 9 .1 1.6 0 3.2-.2 4.7-.2 1.4-.5 2.8-.3 4.2 1.7-5.1 1.1-11.4-.1-16.5-.4-1.7-1-6.1-3.4-5.3-1 .3-1.2 1-1.5 1.8-.3.7-.7 1.4-1.1 2.1-.3.4-1 1.3-1 1.5zm20.2 3.2c0-.3-1.1-1.1-1.5-1.1-.5-.1-1.5.4-1.9.7-.5.4-.4 1.4-.4 2 0 .4.7 2 .6 2 .2-.2-.2-1.5-.2-1.8-.1-.6 0-1.5.4-2.1.9-1.2 2.8 0 3.4.8.3.4.5 1 .9 1.4.4.5.8.7 1.1 1.2.1.3.2.5.4.8.3.3.4.5.6.8.1.1.3.4.4.5.2 0 .4.2.3.4 0 .2.1.4.2.6l.9 1.5c.3.5.6 1.2.9 1.8.6 1.1 1.3 2 1.8 3 .3 0 .4.1.3.3 0 .2 0 .3.1.5s.4.2.6.4c.3.4.5 1 .9 1.4 1 .9 2 1.6 3.3 1.9-.9-.4-2.1-1.2-2.7-1.9-.4-.3-.9-.7-1.2-1-.3-.3-.2-.6-.5-1-.1-.2-.3-.3-.6-.4 0-.2 0-.4-.2-.7-.1-.1-.1-.2-.2-.2-.3-.1-.4-.2-.3-.5-.6-.9-.9-1.9-1.5-2.8-.3-.4-.4-.8-.7-1.3-.2-.4-.4-.9-.7-1.3-.5-.7-1-1.3-1.4-2-.3-.5-.6-.7-.9-1-.3-.3-.3-.6-.6-1.1-.3-.5-.8-.6-1.2-1 .1-.3 0-.9-.4-.8zM93.4 58.3c-.3.1 0-.2 0 0 .3.3.9.9 1.1 1.2.3.5.7 1.9 1.4 1.9 0 .2-.1.4 0 .6.1.1.2.2.3.2 0 .2.1.3.1.5.3.8.4 1.7.6 2.5.5 1.5 1 3.1 1.7 4.5.3.6.7 1.5 1.2 1.9.5.4.4.5.8 0 .5-.5.3-1.3.4-2 .1-.9.3-1.8.5-2.6.8-3.3 1.2-6.5.4-9.8-.2-.9-2.9-9.1-3.9-8.6.2-.6-.1-.6-.3-.9-.2-.4-.3-.8-.5-1.2-.1-.3-.7-1.8-1-1.8.2.1.3.3.2.5 0 .2.1.4.4.4v.5c0 .2.2.3.4.3.2.3.2.7.3 1 .2.4.4.7.6 1.2 1 2.3 2.1 4.3 2.8 6.7.8 2.5 1.3 5.1 1 7.7-.3 3-1.5 5.6-1.3 8.6-1.2-.6-1.9-2.7-2.5-3.8-.7-1.4-.8-3.1-1.5-4.6-.5-1-1-1.9-1.5-2.7-.4-.8-1.1-1.5-1.7-2.2zM60.9 81.4c-.1-.1-.2 0-.2.1.1 0 .4-.2.5-.2.4-.2.7-.3 1.2-.5 1-.3 2.1-.5 3.1-1-.8-.4-1.7-.5-2.5-.2-.6.3-2.4 1.4-2.1 1.8zm73.7 77c-.3 0-.4.1-.3.4-.5-.1-1.4.5-1.8.7-.6.3-1.3.5-2.1.7.3.3.3 0 .5-.1.1 0 .5-.1.7-.1.5-.1.8-.5 1.2-.7.7-.3 1.5-.4 2.1-1.2 2.1-3-3.5-2.9-4.9-3.3.4.3.7.3 1.2.3.7.1 1.2.4 1.9.4.4 0 1.1.1 1.4.4.3.3.6 1.6.5 2.2-.2-.2-.3 0-.4.3zm-49.3.3c-.3 0-.4.1-.3.4-.2 0-.4 0-.6.1l-.9.6c.9-.2 1.5-.6 2.1-1.2.6-.6 1.4-1.5 1.9-2.6.6-1.5.9-3 .8-4.6-.1-1.2-.2-3-1-3.8-.6-.6-1-1.4-2.2-.8-.6.3-.8.9-1.3 1.2-.5.3-1 .6-1.4 1-.8.7-2.2 1-3.3 1.3-1.8.4-3.6.7-5.4.7 2.6.4 5.3.2 7.7-1.2.6-.4 1.4-.5 2.1-1.1.2-.2.3-.4.5-.6.2-.2.3-.2.5-.4.3-.2.9-.6 1.3-.7 2.1-.4 2.2 4.2 2.1 5.7-.1 1.3-.4 2.6-1 3.8l-.7 1.4c-.3.2-.9.5-.9.8zm30.4-56.3c-.2.2-.1.6-.3.8-.1.2-.4.2-.6.4-.3.4-.3.8-.5 1.2-.1.3-.3.8-.4 1-.1.2-.9 1.4-1 1.5-1.9.7-1.9-6.2-1.9-6.9 0-3 .6-5.8 1.6-8.6 1-2.6 2.6-5.5 1.8-8.3-.1 3.2-1.5 5.8-2.5 8.7-1 2.9-1.5 6-1.4 9 0 1.4.1 2.9.5 4.2.1.6.3 1.3.7 1.7.5.6.6.4 1.2.1.9-.5 1-1 1.5-1.9l.9-1.8s.5-1.2.4-1.1c.1 0 .1 0 0 0zm-3.5-43.3c-.4.1-.2.3-.3.6-.1.1-.3.3-.4.5-.3.5-.4 1-.6 1.6-.3 1.6-.5 3.3-.6 5-.2 3.4-.1 6.6-1.2 9.8-1 3-2.4 5.9-3.4 8.9-1 3.2-1.6 6.4-2 9.7-.4 3.4-.7 6.8-.6 10.2.1 2.9.3 6 1.9 8.6 1.4 2.3 3.8 3.5 5.5 5.6 1.9 2.3 2.6 5.1 3.2 8 .7 3.4 1.2 6.8 2.9 9.9.7 1.3 1.6 2.7 2.8 3.7 1.1 1 2.3 1.2 3.6 1.5-.5 0-.2-.2-.6-.4-.2-.1-.5 0-.7-.1-.5-.2-1-.7-1.5-1-1.1-.9-2-1.9-2.7-3.1-1.6-2.7-2.3-5.8-2.8-8.8-.9-5.3-2.6-10.1-7.1-13.4-5-3.7-4-11.6-3.7-17 .2-3.4.6-6.8 1.4-10.1.8-3.1 2.1-6 3.3-9 1.3-3.4 2.2-6.9 2.2-10.5 0-1.8 0-3.5.2-5.3.1-.9.3-1.8.5-2.6.2-.9.7-1.7.7-2.3.1-.2.1-.2 0 0zm9.1 89.8c0 .3 1.5.7 1.6.6.1-.3-.2-.1-.3-.2h-.5c-.2.1-.3 0-.2-.3-.5-.2-.8-.3-1.3-.5-.2-.1-.5-.2-.7-.3l-.6-.4c-.1-.1-.4-.4-.7-.6-.2-.1-.3-.1-.5-.1 0-.1 0-.2-.1-.3-.2-.2-.4-.4-.7-.6-.1-.1-.3-.2-.5-.1-.2 0-.3-.1-.2-.3-.8-.5-1.4-1.3-2.1-2-.7-.7-1.4-1.4-2.1-2-.7-.6-.8-1-1.3-1.8-.2-.3-.4-.4-.7-.7-.3-.3-.5-.6-.7-1-.4-.8-.9-1.5-1.5-2.2-.6-.7-1.2-1.3-1.8-1.9-.5-.5-1.1-.9-1.7-1-.3 0-.5-.1-.8 0-.2.1-.4.3-.4.6h-.3c-.2.3-.2.4-.4.7-.2 0-.3.1-.3.3-.1.1-.1.3 0 .4-.5.8-.7 1.1-.7 2.2s0 2.2.2 3.3c0-1.5-.3-3.6.3-5 .4-.8.9-2.1 2-2 .6 0 1.4.3 1.9.7.6.4.9 1.1 1.4 1.8.5.7 1 1.3 1.5 1.9.6.7.9 1.2 1.4 1.9.3.5.9.8 1.2 1.2.4.4.7 1.1 1.2 1.6.9 1 2 2 3 2.8.1.1.2.1.3.1.2-.1.3 0 .2.3.2.1.4.4.6.5.6.3.8.3 1.2.8.4.3.8.7 1.2.9.1.1.3.1.4 0 0 .1.1.2.1.3.2.1.3.1.6.1.2.4.5.2.8.3zM92 127.2c0 .2.6 1.1.8 1.5.3.6.9 1.1 1.2 1.7.6 1.2 1.1 2.5 1.6 3.8 1.1 2.9 1.8 6.1 1.9 9.2.1 3.1-.5 6.2-.2 9.4.1 1.5.6 2.4 1.2 3.7.1.3.1.6.3.8.1.2.4.2.6.4.4.5.4.9 1.1 1.2l-.6-.9c-.1-.2-.3-.3-.5-.3 0-.1 0-.2-.1-.3-.5-.6-.6-1.1-.9-1.9-.7-2.1-.9-4.1-.8-6.3.2-4.3.4-8.2-.6-12.4-.5-1.8-1.2-3.6-2-5.3-.6-1.4-1.5-3.1-2.7-4.2-.4-.4-.8-.7-1.4-.6-.9.2-.9 1.3-1.1 2-.2.8-.5 1.8-.9 2.5-.3.6-1.1 1.1-1.5 1.8.6-.2.7-.4 1.1-.9v-.3c.1.1.2 0 .3-.1.2-.2.2-.3.4-.5.9-1.2 1.1-2.9 1.4-4.4.4.2.9.3 1.4.4zm16.1-5.3c-.4-.9-1.3-1.3-1.9-2-.9-1-1.7-1.7-2.4-2.9-.6-1.1-1.1-2.2-1.6-3.2-.4-.8-1-1.3-1.4-.1-.7 2.1.4 4.8 1.3 6.7 1 2.1 2.5 3.9 4.1 5.5 1.6 1.6 3.1 3 3.9 5.1.2.6.3 1.4.9 1.8.7.4 1.4-.1 1.6-.7.6-1.4-.3-3.9-.9-5.2-.4-.9-.9-1.8-1.5-2.6-.4-.5-1.5-2.3-2.1-2.4zM78.7 79.3c.2.6 1 .7 1.4 1.1.6.5 1.1 1.2 1.7 1.8.6.6 1.2 1.1 1.8 1.7.5.6.6.7 1 1.5.6 1.3 1.5 2.3 2 3.7.3.9 1.5 4.6.2 4.8.9.6 1-1.7.9-2.1-.1-1.2-.4-2.4-.9-3.5s-1.1-2.1-1.9-3c-.8-.9-1.3-1.7-2.1-2.6-1.3-1.6-3.1-2.7-4.5-3.7-.4-.3-.7-.5-1.2-.6-.6-.2-1.1-.4-1.7-.6-1.3-.5-2.7-.3-4 0 1.4 0 2.8.2 4.2.4 1.2.1 2 .8 3.1 1.1zm6.9 64.7c.9.2 1.5-1.4 2.4-1.6 1.7-.4 1.9 1.5 2.2 2.8.7 3.1.7 6.4-.3 9.5.8-.5 1-2.3 1.1-3.2.2-1.1.2-2.2.1-3.3-.1-1.8-.3-4.4-1.7-5.6-1.7-1.5-2.5.1-3.8 1.4-1.1 1.2-4.2 1.9-5.9 2 1.2.1 2.4.1 3.6-.3.5-.2 2.5-1.2 2.3-1.7zM42.3 87.6c0 .1 0 .3.2.2-.9-.5-1.6-2.1-2.2-3-.3-.4-1.1-2-1.2-.7-.3 1.7 1.9 3.1 3.2 3.5zm57.1-60.4c-1.1.2-2 .7-2.7 1.5-.6.7-1.6 2.1-1 2.9.7-.9 1.5-1.8 2.2-2.7.2-.3 1.6-1.6 1.6-1.9-.2-.1-.2-.1-.1.2zm31 5.2c-1.7 1.1-3.5 2.1-5.3 3 1.5.2 2.9-.1 4-1.2.6-.4 1-1.1 1.3-1.8 0-.1.2-.1.2-.3.1-.1-.4 0-.2.3zm29.4 55.9c.8-.9 1.2-2.1 1.2-3.3 0-.5-.2-2.5-.9-2.4-.5.1-.4 5.5-.3 5.7zm-11.9-6.2c.1.3.3.3.4.1-.7-.1-1-.7-1.6-1.1-.6-.4-1.3-.7-2-.9-1.3-.3-2.7-.3-3.9.4 2.4.4 4.8.8 7.1 1.5zm-114 4.3c-1.7 1.3-2.8 3-4.6 4.2 2.3-.6 4.2-1.6 4.6-4.2zm97-22.6c-.6 2.1-1.6 4.5-1.5 6.7 1.8-1.9 2-4.3 1.5-6.7zm-96.8.7c-2.2-1.5-4.3-2.6-5.7-4.6 1.1 3 2.7 4.4 5.7 4.6zm102.6 21.9c1.1 1.8 2.9 3 4 4.8-.5-2.3-1.5-4.2-4-4.8zm-86.5-3.2c.8-1.8 2.1-3.3 3-5.4-2.6 1.1-2.8 3.3-3 5.4zm56.6-48.7c.3 1.1.3 2.4.4 3.5 0 .4.1 2.6.8 2.2.6-.4.3-2.4.2-2.9-.3-1-.8-1.9-1.4-2.8zM82.3 69c-.4 1.1-.7 2.2-.5 3.4.1.5.5 2.2 1.2 2.2.6 0 .1-1.6 0-2-.2-1.2-.5-2.4-.7-3.6zm-10.1-6.8c-.9 2.3-.4 4.6 1.4 6.1-.5-2.1-1.6-4-1.4-6.1zm103.2-2.7c-1.2 1.6-2.9 2.7-4 4.3 2.5-.4 3.4-2.2 4-4.3zM119 49.7c1.3-1.3 1.2-4 1.9-5.7-1.6 1.6-2.4 3.5-1.9 5.7zm45.8 31.5c1.8 2.2 4.2 1.7 6.5 1.3-2.3.1-4.4-.8-6.5-1.3zm-43.1-6.1c1.3-1.7 1.4-3.4.3-5.4.1 1.9-.6 3.5-.3 5.4zm2.4 74.6c.1.1.1.1.2.1 0-.1-.1-.1-.2-.1zm-21.8-7.7c-.1-.4-.1.2-.1.3.1-.1.1-.2.1-.3z"/><path class="st0" d="M177.3 169.1c4.3-4 7.9-8.9 8.4-14.9.1-1.6 0-3.1-.1-4.7 0-.9-.1-1.8-.2-2.7-.1-.8-.4-1.8-.1-2.6.2-.7 1.4-1.6 2.1-1.9 1.6-.7 1.2 1.9 1.3 2.9.4 3.6.8 7.3 0 10.8-.7 3.3-2.2 6.3-4 9.1-3.5 5.5-8.3 10.2-13.4 14.2-3 2.4-6.3 4.5-9.8 6-1.8.8-3.6 1.5-5.5 1.9-1.9.5-4.3 1.2-6.3.8.5-.9 1-2.3 1.7-3.1.6-.7 2-.8 2.8-1.1 1.8-.6 3.6-1.4 5-2.7 3.1-3 3.2-8.1 4.2-12.1s2.7-8 6-10.7c1.8-1.5 3.8-2.1 6-2.8 2.3-.8 4.6-1.6 6.8-2.6.5-.2 2.2-1.5 2.6-1.4.5.2.5 1.5.5 2 0 1.3-.8 1.9-1.9 2.5-2.1 1-4.3 1.8-6.4 2.6-1.9.7-3.9 1.1-5.5 2.5-3.2 2.9-4.4 8.1-5.3 12.2-.2 1.1-.5 2.2-.6 3.4-.1.8-.2 1.4.6 1.2 1.6-.2 3.6-2.3 4.5-3.5 3.1-3.9 3.7-8.7 4.3-13.6.1-1.2 1.1-1.4 2.2-1.7 1.7-.5 1 1.1.9 2.3 0 2.8-.4 5.2-.8 7.7zM16.4 153.8c.2.7 1.2.8 1.7 1.1.6.3 1 .8 1.3 1.3.8 1.4 1.2 3.2 1.9 4.7 1.5 3.1 3.6 5.9 6.2 8-.7-4-.9-8-1-12.1-.1-1.9-.2-3.9-.1-5.8 0-.8-.2-2.1.1-2.8.3-.8.6-.5 1.4-.2 1.1.5 1.7 1 1.9 2.2.2 1.9-.1 4-.1 5.9 0 3.9 0 7.8 1 11.7.8 3 2.2 5.8 4.5 7.9.7.6 2.7 2.7 3.8 2.3 1.1-.3.1-3.6-.1-4.3-.7-3.5-1.8-7-3.6-10.1-.7-1.2-1.5-2.3-2.7-3.1-.5-.3-1.5-.5-1.9-.9-.4-.5-.4-1.6-.4-2.2-.1-.8-.1-1.3.8-1.3 1.4.1 3 1.3 4 2.1 2.6 2.1 4.2 5.3 5.4 8.3 2.3 5.7 2.8 13.1 8.5 16.5 2.4 1.5 5.3 2 8.1 1.7 1.3-.1 2.7-.8 3.9-.8 1 .1 1.5 1.3 1.8 2.1.8 2.3-6.1 2.3-7.4 2.2-3.6-.2-7.2-1.1-10.5-2.4-7.1-2.9-13.5-8-18.8-13.5-2.8-2.9-5.3-6-7.1-9.6-.9-1.7-1.6-3.6-2.2-5.4-.3-.4-1.5-3.4-.4-3.5zm134-105.3c3.6 1.6 8.5-.6 10.7 3.7.4.8.5 1.8 1.3 2.3 1 .6 2.8.2 3.8-.1 2.2-.6 3.5-2.1 4.2-4.2.8-2.5.9-5.1.7-7.7-.1-1.4-.4-2.7-.7-4-.2-1-.6-1.8.7-1.6 1.3.2 3.2.7 4 1.9.9 1.5.8 3.8.8 5.4 0 8.2-5.7 18.4-14.9 18.6-2.6.1-4.8-.8-7-2.2-.7-.5-1.7-1.4-2.5-1.6-.9-.2-1.8.9-2.5 1.4-1.9 1.3-4.2 1.6-6.4 1.2-1.3-.2-2.5-.6-3.8-.8-.5-.1-1.4.1-1.8-.1-.6-.3-.5-.3-.1-1 2.4-4.3 7.1-7.7 12.1-5.3 2.5 1.2 4.4 3.2 7.2 3.8 2.4.5 5.5.1 7.6-1.2-.8-.2-1.6-.4-2.4-.4-.8.1-1.5.5-2.3.6-1.4.2-2.8-.2-4-1-1.3-.9-2.3-2.1-3-3.5-.7-1.3-1-3.1-1.7-4.2zm-6.7 8.1c2.1-.5 4.2 0 6.2.4-.8-1-2.1-1.6-3.3-1.5-.6 0-1.1.2-1.7.4-.3.1-1.5.7-1.6.9.2 0 .3 0 .4-.2zm11.4-3.6c.7.7 1.5 1.4 2.4 1.9.5.2 2.4 1.1 2.7.3.3-.6-1.3-.8-1.8-1l-3.3-1.2zm48 31.4c0 1.4-.1 2.9-.3 4.3-.1.6-.1 3.1-1.1 2.5-.6-.3-1.7-2.1-1.8-2.8-.2-1.3.2-2.8.2-4.1-.1-1.5-.3-2.9-.7-4.3-.2-.8-.4-2.1-1.2-2.5-2-.9-3.2 4.2-3.6 5.4-1 2.7-2 5.5-3.3 8.1-.3.6-.8 2.2-1.6 2.1-.5-.1-1.6-1.6-1.8-2.2-.2-.7.2-1.4.5-2 .7-1.4 1.4-2.7 2-4.1 1.2-2.6 2.4-5.3 3.2-8.1 1.3-4.5.8-9.1-1.7-13.1-2.7-4.2-7.1-7.4-11.5-9.7-1.1-.6-2.2-1.1-3.3-1.6-.7-.3-1.5-.4-1.5-1.3 0-1 .6-2.2.8-3.2.1-.6-.1-1.9.7-1.9.9 0 2.4 1.3 3.1 1.7 1.2.7 2.4 1.5 3.5 2.3 2.2 1.5 4.2 3.1 6.2 4.9 7.8 7.6 13.2 18.9 13.2 29.6zM53.5 47.8c-1.4 3-2.5 6.7-5.6 8.4-1.4.7-2.9.9-4.4.4-1.7-.5-3.1-.6-4.8-.7C41 58 45.9 59.4 49 58.2c1.6-.6 2.1-2.1 3.2-3.2s2.6-1.8 4.2-2.1c3.4-.7 6.8.6 9.3 3 .5.5 3 2.9 2.7 3.5-.3.5-1.6.2-2.1.2-1 .1-1.7.6-2.6 1.1-1.7 1-3.6 1.5-5.6 1.5-2 0-3.7-.8-5.7-1.1-1.8-.3-3.4.9-5.2 1.3-1.9.5-3.9.5-5.8 0-3.8-1-6.8-3.6-8.9-6.7-.4-.6-.8-1.3-1.2-2-.5-1-.4-1.2.5-1.7.6-.4 1.6-1.2 2.3-1.3.9-.2.8.3 1.2.9 1 1.4 3.9 2.6 5.6 2.3.9-.1 1-.7 1.3-1.5.3-.8.8-1.5 1.4-2.1 2.7-2.6 6.8-.5 9.9-2.5zm-5.7 4.9c-.2 0-.3.1-.3.2 0 .2-.2.3-.5.2-.4.2-.9.2-1.3.4-1 .3-1.9.8-2.7 1.3 1.2.1 2.4 0 3.4-.7.4-.2 1.5-1.3 1.4-1.4zm11.3 4.5c-2.5-1.2-5.6-1.6-7.5.9 1.1-.4 2.3-.7 3.4-.9 1.5-.4 2.8-.1 4.1 0zM85.5 4.3c-1 .6-1.9 1.2-2.8 2-.8.6-1.6 1.7-2.7 1.8-1.1 0-2.3-.2-3.4-.2-1.2 0-2.5.2-3.7.4-4.3.9-8.3 3.5-10.6 7.3-1.7 2.8-3.7 7.8-1.8 10.9 1.9 3.2 6.4 2.3 8.6 5.3 1 1.5 1.5 3.4 1.6 5.1 0 1.2-.2 2.3 0 3.5.1.8 1.3 2.4.1 2.4-1 0-2.5-.8-3.5-1.1-1-.4-1.9-.8-2.7-1.4-1.4-1.1-2.3-2.7-2.7-4.4-.2-1-.2-2.1-.3-3.2-.1-1.4-.8-1.8-1.8-2.7-1.4-1.3-2.6-3-3.2-4.8-1.2-3.9-.1-8.3 1.9-11.7 2.4-4.2 6.5-6.8 11-8.3 4.9-1.8 10.9-2.4 16-.9zM67.3 36.8c-.1-1.1-.5-2.2-1-3.2-.3-.5-1.4-2.3-2.1-2.1-.8.3 2.7 4.7 3.1 5.3z"/><path class="st0" d="M148.2 28.2c2.1 1.7 4.6 1.2 7 1 2.2-.2 4.4.2 6.3 1.4 1 .6 1.7 1.3 2.9 1.3s2.5-.3 3.7-.3c2.4 0 4.7.5 6.8 1.5 4.3 1.9 8 5.2 10.8 9 1.3 1.9 2.5 3.9 3.4 6 .5 1.1.9 2.3 1.3 3.4.3 1 1 2.6.7 3.6-.9-.8-1.8-1.5-2.7-2.3-.8-.6-2-1.3-2.6-2.1-.5-.7-.6-1.7-.9-2.4-.3-.8-.7-1.6-1.1-2.4-1.6-2.9-3.9-5.5-6.7-7.3-2.9-1.9-7.3-3.8-10.8-3.2-2 .3-3.5 2.1-5.5 2.6-1.9.5-4 .5-5.8-.2-3.8-1.4-6.8-5.6-6.8-9.6zm8.1 5.6c-.1 0-.1-.3-.3-.1.6.1 1 .6 1.5.8.6.3 1.3.5 1.9.5 1.3.1 2.6-.2 3.6-1-2.2.1-4.4.1-6.7-.2zM1.7 85.9c.1-8 2.5-15.4 6.2-22.5.9-1.7 1.9-3.4 3-5 .2-.3 1.1-2 1.5-2.1.8-.2.4.9.4 1.4 0 1.1 0 2.2.1 3.3.1 1 .4 1.7-.1 2.5-.9 1.6-2 2.8-2.6 4.6-.5 1.7-.7 3.4-.4 5.2.2 1 .5 2 .8 2.9.4.9 1.3 1.9 1.3 2.9 0 .7-1.2 2.7-2 2.6-.9-.1-1.6-2.9-2-3.6-1.2-2-2.2 1.1-2.5 2.2-.4 2.1-.5 4.1-.4 6.1.2 4.1 1.8 7.5 3.9 10.9.8 1.3 1.5 2.2.5 3.6-.3.5-.8 1.5-1.5 1.3-.6-.2-1.5-2.6-1.9-3.2-2.3-3.9-4.6-8.4-4.3-13.1zM142.3 14c-1 .4-2.3-1.4-3-2-1.2-.9-2.5-1.7-3.9-2.3-2.8-1.3-6-1.9-9-1.8-3.5.1-7 1.1-10.3 2.5-1.4.6-2.8 1.2-4.1 2-.7.4-1.4.9-2.1 1.4-.6.4-1.3 1.2-2 1.3-.7.1-1.3-.6-1.9-1-.6-.4-1.3-.8-1.9-1.3-.7-.7-.5-.8.2-1.4.7-.6 1.5-1.1 2.3-1.6 2.8-1.8 5.9-3.4 9-4.6 5.7-2.1 12.4-2.1 18.2-.4 3.2 1 6.3 2.6 8.9 4.7.6.5 1.3 1.1 1.8 1.7.3.3 1.5 1.4 1.5 1.8.1.9-3 .9-3.7 1zM28.7 43c.4-6 3.2-12.3 6.8-17.1 3.4-4.5 8.2-8.1 13.5-10.2 1.5-.6 3.1-1 4.7-1.3.6-.1 1.9-.5 2.5-.4.7.1.6.1.3.9-.3.7-.6 1.4-.8 2.2-.1.6-.1 1.4-.6 1.9-.4.3-1.1.3-1.6.4-1 .1-1.9.3-2.8.5-5.6 1.7-10.3 6-13.2 10.9-.9 1.6-1.7 3.2-2.3 4.9-.6 1.8-.7 3.6-1.2 5.5-.4 1.7-1.8 1.7-3.1 2.2-1.2.6-2.2 1.4-2.2-.4zm88-39.2c0 .5-3.5 1.5-4.1 1.7-1.7.7-3.6-.5-5.3-.9-3.3-.7-6.7-.8-10-.1-6.4 1.4-12 5.5-16.3 10.3-.7.8-1.6 2.5-2.7 2.8-.6.1-2.8-.6-3.1-1.3-.4-.7.5-1.5.9-1.9 1.1-1.3 2.2-2.6 3.4-3.8C84.1 5.8 89.8 2 96.4.6c3.5-.7 7-.7 10.5-.1 1.8.3 3.5.7 5.2 1.3.7.1 4.7 1.2 4.6 2zM86 50.6c-4-2.9-9.2-5.4-9.3-11 0-1.1.1-2.1-.7-3.1-.7-.9-1.7-1.6-2.4-2.6-1.4-1.8-2.2-3.9-2.3-6.2-.1-1-.2-5.1 1.3-5.1.6 0 2.1.7 2.6 1.1.7.6.4 1.3.3 2.1-.3 2.3-.1 4.7 1.1 6.7.5.9 1.2 1.8 2.1 2.3 1.1.6 2.4.6 3.5 1.1 2.3 1.1 3.9 3 4.4 5.5.5 3.2-.8 6.3-.6 9.2zm-2.1-8.1v.2c.1 0-.2-1-.3-1.3-.2-.7-.5-1.4-1-2-.8-1.1-1.9-1.9-3.3-2 1.6 1.8 3.1 3.5 4.6 5.1zM72.2 198.6c1.4-.3 2.7-.4 4.1-.7.8-.2 1.3-.4 2.1-.1.7.3 1.3.8 2.1 1.1 2.6 1.1 5.4 1 8.1.4 2.8-.7 5.2-2.2 7.9-3.3 2.7-1 5.6-1.4 8.5-1 1.3.2 2.7.6 3.9 1.1.6.2 3.3 1.2 3.3 1.9 0 .5-1.6 1.6-2 1.8-1.3.6-2.4-.3-3.6-.8-6-2.6-11 2.1-16.4 3.6-3.1.8-6.3.8-9.4 0-1.6-.4-3.1-1-4.6-1.6-1.4-.7-3.2-1.3-4-2.4zm37-4.6c-1.4-.1-2.8-.5-4-1.3-.4-.3-1.6-.9-1.8-1.4-.3-.6.5-1.3 1-1.7.6-.7.6-1 1.4-.7.5.2.9.8 1.4 1 1.2.6 2.6.8 3.7 0 2.6-2 .5-5.4-1-7.3-.9-1.1-1.8-2.1-2.9-3-1.1-.9-2.5-2.2-3.8-2.7-1.4-.4-2.6.7-3.6 1.5-.5.4-.9 1-1.4 1.3-.8.4-.9 0-1.4-.7-.4-.5-1.1-1.2-.9-1.9.2-.7 1.8-1.6 2.3-2 1-.8 2.4-1.8 3.7-2.1 1.4-.3 2.7.7 3.8 1.4 2.4 1.5 4.5 3.4 6.3 5.6 1.9 2.3 4 5.3 3.6 8.3-.4 3.2-3.2 5.7-6.4 5.7zm27-151.3c-2.3-3.7-3.2-9.1.7-12 2-1.5 4.4-1.9 6.2-3.6 1.5-1.3 2.3-3.1 2.1-5.1-.1-.6-.6-1.6 0-2 .5-.3 2.8-.3 3.4-.2 1.5.5.6 4 .2 5.1-.6 1.8-1.9 3.3-3.4 4.4-.7.5-1.5.9-1.9 1.8-.4 1-.1 2-.2 3.1-.2 2.1-1.4 3.8-3.1 5-.8.5-1.7.9-2.5 1.5-.6.5-1 1.3-1.5 2zm5.2-12.7c-2.5 1.3-4 3.8-3.7 6.2.9-2.2 2.4-3.9 3.7-6.2zm-22.7 173.5c-1.2.1-2.6 0-3.8-.4-1.4-.4 0-1 .7-1.6.8-.7 1.3-1.7 2.5-1.8 1.2-.1 2.4.1 3.7-.1 4.6-.8 8.5-3.8 11.7-7.1.8-.8 1.5-1.7 2.3-2.6.6-.8 1.2-2.2 2-2.8.6-.5 3.1 0 3.4.8.2.5-.6 1.4-.8 1.8-.6 1-1.3 2-2 3-1.3 1.8-2.8 3.5-4.5 4.9-4.3 3.6-9.7 6-15.2 5.9z"/><path class="st0" d="M102.6 205.9c-2.8 0-5.5-.7-8.1-1.8-.4-.2-2.6-.9-2.5-1.4.1-.5 2.2-1.1 2.7-1.2 2.5-.5 5.1 1 7.6 1.1 2.5.1 4.9-.5 7-1.8 2.2-1.3 4.2-3 5.8-5 .7-.9 1.4-1.8 1.9-2.7.3-.5.6-1 .9-1.6.2-.3.4-1.4.7-1.7.7-.6.9.7 1.2 1.3.7 1.2 1.1 1.8.5 3.2-.9 2-2.4 3.9-3.9 5.5-3.7 3.9-8.5 5.8-13.8 6.1zM56.5 27.5c.2 2.5-.4 4.9-1.8 7-1.3 2-3.1 2.9-5.4 3.2-1.1.1-2.2.2-3.3-.1-1.3-.4-2.4-1.2-3.8-1.5-1.2-.2-2.3-.2-3.5-.1-.6.1-2 .5-2.3-.1-.3-.5 1.1-3 1.4-3.5.4-.6.6-.7 1.3-.5 2.2.4 3.7 1.5 5.5-.4 1.6-1.7 3.3-2.2 5.6-2.2 2.4 0 4.7.2 6.3-1.8zm-5.1 5.7c-1.1.2-2.2.6-3.4.8-1 .2-2.3-.1-3.2.3 1.1.7 2.5.9 3.8.5.4-.1 3.1-1.7 2.8-1.9.1.1 0 .2 0 .3zm20.4 148.6c4.6-.3 8.7 1.6 11.7 5 1.8 2 3.2 4.2 4.6 6.4.7 1 1.4 2 2.2 2.9.9 1 1.5 1.4.1 2-1.5.6-2.2.9-3.2-.4-1.6-1.9-2.7-4-4.1-6.1-2.6-3.8-6.1-6.7-10.9-6.7-1.2 0-2.4.4-3.6.4-.9 0-1-.4-1.4-1.2-.3-.7-.8-1.5 0-1.9 1.2-.6 3.3-.4 4.6-.4z"/><path class="st0" d="M68.9 175.5c-.9.5-1.9.7-2.9 1-.6.2-1.1.3-1.4.9-.2.6.1 1.6.2 2.2.2 1.1.5 2.1.9 3.1.7 1.9 1.6 3.7 2.7 5.4.5.8 1.2 1.6 1.8 2.3.7.8 1.8 1.5 2.3 2.3.5.7-.1.7-.8.7-.9.1-1.8 0-2.7-.2-1.9-.6-3-2.2-4-3.8-2.4-3.9-4.4-8.1-5.3-12.6-.4-1.9-.9-4.4 1.7-4 2.8.4 5.1 1.7 7.5 2.7zm27 18.2c-4.1 0-6.7-2.9-6.4-7 .1-1.1.4-2.1.9-3.1.3-.6 1.2-2.7 2-2.4.2.1.8 1 1 1.2.3.4.6.7.7 1.2.1 1.1-1 1.9-1.3 2.8-.5 1.9.6 4.1 2.8 3.9 2.3-.2 4.4-2.3 6-3.8 1.8-1.7 3.1-3.8 4.7-5.6.8-.9 1.4-.1 2 .7.5.7.5 1 .1 1.7-1.4 2.4-3.5 4.6-5.4 6.5-2 2-4.3 4-7.1 3.9z"/><path class="st0" d="M71.3 197.8c-4.1-.1-7.9-1.7-10.9-4.4-.6-.5-4-3.2-3-4 .4-.3 1.6-.3 2.1-.3 1.1-.2 1.8.4 2.6 1.2 3 2.8 6.8 4.4 11 3.9 2.1-.3 4.1-1 5.8-2.3.5-.4 1.4-1.6 2.1-1.5.6.1 1.5 1.4 1.7 2 .6 1.8-2.3 3-3.5 3.6-2.5 1.1-5.2 1.8-7.9 1.8zm74.1-22.7c-.1 2.2-.7 4.4-1.5 6.5-.3 1-.4 1.6-1.5 1.3-.7-.2-1.9-.3-2.3-.9-.5-.7.2-1.5.4-2.2.2-.6.3-1.6 0-2.3-.3-.6-.9-.8-1.5-1-1.1-.3-2.2-.6-3.2-1.1-1.9-.8-3.8-1.8-5.5-3-.7-.5-3.3-1.9-3.2-2.9.1-.5 1.2-1.4 1.5-1.6.9-.7 1.2-.2 1.9.5 1.5 1.4 3.3 2.5 5.2 3.2 2.4.9 4.8 1 7.4 1 2 .1 2.3.5 2.3 2.5zm52.9-81.5c-.5-1.5-2.2-3.1-3.2-4.3-.6-.6-1.6-1.3-1.6-2.2 0-.6.5-1.7.8-2.2.7-1 1.4 0 2 .7 1.4 1.6 2.9 3.2 4.2 4.8 4.8 6.3 5.8 15.2 1.8 22.3-.4-.8-.9-1.5-1.3-2.3-.5-.9-.4-1.3-.1-2.3.6-1.8.9-3.8.9-5.7 0-1.9-.5-3.7-1.2-5.5-.3-.9-1.3-3-2.3-3.3zm-193 23.5c-.1-.9-1.1-1.7-1.6-2.4-.7-1-1.3-2-1.8-3-.9-1.9-1.5-3.9-1.8-6-.2-2.1-.1-4.2.2-6.2.4-1.9.9-4.7 2.2-6.1.7 1.5 1.8 2.8 1.3 4.5-.6 1.8-.9 3.6-.9 5.4 0 3.6 1.3 6.7 3.4 9.4 1 1.3 2.1 2.7 3.2 3.9.5.6 1.5 1.3 1.7 2.1.2.7-.3 1.3-.6 1.9-.2.4-.2 1.3-.8 1.3-.5 0-1.3-1.2-1.5-1.5-.3-.5-2.5-3.5-3-3.3zm5.1 15c1 1.5 2.8 2.6 4.3 3.7.9.7 1.9 1.3 1.9 2.5 0 .5-.1 1.8-.4 2.2-.5.6-1.2-.3-1.7-.6-.9-.7-1.8-1.3-2.8-2-.6-.4-1.6-1.5-2.4-1.6.2-.4-2.9-3-3.4-3.7-1.2-1.5-2.1-3.3-2.8-5.1-1.5-4.2-2.1-8.8-.6-13.1.9.5 1.7 2.6 2.7 2.6-.6 2.9-.6 5.9.4 8.7.5 1.3 1.2 2.6 2 3.7.4.6 2.3 3.1 2.8 2.7z"/><path class="st0" d="M16.5 153.8c-3.6-2.8-6.5-6.1-8.1-10.4-.8-2.1-1.2-4.3-1.3-6.6 0-.6-.4-2.1.6-1.8.7.2.9 1.3 1.8 1.3 0 0 .4.7.5 1 .2.6.2 1.3.3 1.9.2 1.3.5 2.6 1 3.8.5 1.1 1 2.2 1.8 3.2.6.8 1.6 2.3 2.7 2.6 0 .1.2.4.3.3.1.3.4.5.8.4-.1.3.6.7 1 .7-.1.2.4.4.7.3.3.9 3.6 2 4.6 2.5.6.3 1.7.5 2.2 1 .6.5.5 1.7.5 2.5 0 .9.1 1.4-.9 1.1-1-.3-2.1-.9-3.1-1.3-.7-.2-5.1-2.8-5.4-2.5zm173.4-1c-.1-.9-.3-2-.3-2.9 0-1.1.7-1.7 1.4-2.5 1.4-1.6 2.4-3.5 3.1-5.5 1.5-5-.2-9.6-1.7-14.4-.3-.9-.4-1.6.2-2.4.3-.4 1.2-1.4 1.7-1.5 1.1 0 1.7 3.5 1.9 4.3 1.3 4.2 2.2 8.5 1.2 12.9-1.1 4.9-4 8.6-7.5 12zm13.2-32.5c-.2 4.2-1.3 8.4-3.8 11.8-.4.5-.8 1.6-1.4.8-.3-.5-.5-1.9-.5-2.5 0-1.1.5-1.9 1-2.8.6-1.1 1-2.3 1.3-3.5 1.2-4.9-.8-9.1-3-13.4-.5-1-1.3-2-1.7-3.1-.4-1 .1-1.8.7-2.6.3-.4.6-1 1.1-.8.6.2 1.2 1.8 1.5 2.3 2.7 4.4 4.8 8.6 4.8 13.8zM132 181.7c2.9 0 5.7.5 8.5 1.3 1.2.3 2.4.7 3.5 1.1 1.2.4 2.4.4 1.6 1.7-.4.7-.9 2-1.9 2.1-1 .2-2.4-.9-3.3-1.2-2.5-.8-5-1.5-7.6-1.5-2.2 0-4.5.3-6.4 1.6-.5.4-1.8 2-2.4 1.8-.4-.2-.9-1.7-1.1-2.1-.5-1.5.5-2.2 1.7-3 2.3-1.5 4.7-1.8 7.4-1.8zm55.1-85.2c-.1-.8-.9-1.4-1.4-2-.7-.9-1.2-1.8-1.8-2.8-1-1.9-1.7-3.9-2-6-.4-2.1-.4-4.2-.2-6.3.1-.6-.1-1.3.6-1.2.6.1 1.5 1 2 1.4.9.8 1 1.6.9 2.7-.1 2.1-.3 4.1.5 6.1.8 2.1 2.2 3.8 3.7 5.5.8.9 1.5 1.8 2.3 2.7.6.8 1.9 1.9 2.1 2.8.2.8-.6 2-1.2 2.5-.6.4-.8.2-1.2-.3-1.3-1.4-2.7-4.6-4.3-5.1z"/><path class="st0" d="M118.6 182.4c-.1-1.2-.2-3.1.3-4.2.4-1 1.1-.4 2-.3 1.4.2 1.4.8 1.1 2.2-.2 1.2-.3 2.5-.2 3.7.4 4.3 2.9 7.8 7 9.2.5.2 2.4.2 2.2 1-.1.4-1.6 1.4-1.9 1.6-1.9 1.3-3.7.6-5.4-.7-3.8-2.8-5.4-8-5.1-12.5zM10.8 106.2c.9-.4 1.1-2.2 1.9-2.3.7-.2 2.1 2.3 2.6 2.9 1.9 2.4 3.9 4.7 5.4 7.3 1.3 2.3 2.1 4.9 2.4 7.5.1.9.8 6.8-.8 6.5.1-.2-1.4-1.3-1.6-1.8-.4-.8-.4-1.7-.4-2.6 0-2.3-.4-4.5-1.4-6.5-1.1-2.2-2.7-3.9-4.3-5.8-.8-1-1.6-1.9-2.3-2.9-.5-.6-1.1-1.8-1.5-2.3zm164.1 38.9c.2-3.9 1.1-7.7 3.1-11 .5-.8 1-1.6 1.6-2.4.3-.4 1.2-1.9 1.7-1.9.5-.1.6.6.7 1.1.4 1.1.6 1.9-.1 2.9-2.3 3.3-3.9 6.5-3.7 10.7.1 2.4.4 4.8.5 7.3 0 1.9-.1 2.6-2 3.1-1.5.4-1.4-.5-1.4-1.8-.1-2.8 0-5.4-.4-8zm13.1-36.2c0 1.1.9 2.1 1.4 3 .6 1 1.1 2.1 1.6 3.1.4.9 1.2 2 1.4 3 .1.4.1.7-.1 1-.2.4-.9.7-.8 1.2-.2-.1-.7.3-.7.7-.2-.1-.4.2-.3.3-.9-.2-1.4-2.2-1.7-3-.6-1.3-1.2-2.6-1.9-3.8-1.2-2.4-2.3-4.8-2.8-7.5-.4-2.6-.4-5.2.1-7.8.1-.7.4-3.2 1-3.7.8-.5 1 .9 1.8 1 1 1.5-.4 4.5-.4 6.4.1 1 .3 5.9 1.4 6.1zm-6.4 15.9c.1-2.5.4-4.9 1.2-7.2.4-1.2.9-2.4 1.5-3.6.4-.8.6-1.6 1.4-.8.6.7 1.3 1.9 1 2.8-.3 1.1-1 2.2-1.4 3.3-.8 2.5-.9 5.2-.4 7.7.5 2.6 1.5 5.3 2.2 7.9.2.8.6 1.8 0 2.5-.3.3-1.9 1.5-2.2 1.4-.6-.1-.6-1.3-.7-1.9-.3-1.3-.6-2.7-.9-4-.9-2.7-1.6-5.2-1.7-8.1zm-159.3 3.4c.2.8 1.2 1.4 1.7 1.9.7.7 1.3 1.5 1.9 2.3 1.1 1.6 2 3.3 2.7 5.1.6 1.6 1.5 3.9 1.4 5.7-.1 1.1-.6.6-1.4.2-.8-.4-1.4-.6-1.7-1.4-.7-1.6-.8-3.5-1.6-5.1-.8-1.6-1.9-3.1-3.2-4.3-1.6-1.5-3.5-2.8-5.3-4.2-.8-.7-1.7-1.3-2.4-2-.7-.8-.5-1.4-.2-2.4.7-1.8 1.2-1.2 2.5-.1.7.5 5.2 4.8 5.6 4.3zM21 103.4c.1 1.4-.1 2.8-.4 4.2-.1.5-.5 3.2-1.1 3.3-.4.1-1.4-1.4-1.6-1.7-.6-1.1-.4-2.1-.1-3.2.5-2.5.5-5-.3-7.4-.8-2.6-2.4-4.8-3.6-7.3-.5-.9-1.5-2.3-1.5-3.3 0-.7 1-1.9 1.6-2.2 1.3-.7 2 2.3 2.5 3.2 1.1 2.3 2.4 4.5 3.3 6.9.8 2.3 1.2 4.9 1.2 7.5zm65.4 79.5c0 .8.3 4.9-.8 5.1-.5.1-1.2-1.2-1.5-1.5-.8-.9-1.2-1.3-1.2-2.6 0-4.1-.4-8-2.5-11.6-.3-.5-1.5-1.7-1.3-2.3.1-.5 1.4-1.4 1.8-1.6 1.3-.8 1.8 1 2.4 2 2.1 3.8 3.1 8.1 3.1 12.5zm.9-6.5c-.9.1-1.1-.2-1.3-1-.2-.6-.8-1.8-.4-2.3.2-.3 1.7-.5 2.1-.6.8-.3 1.7-.6 2.5-1 1.7-.9 3.3-1.9 4.9-3.1.7-.6 1.4-1.1 2.1-1.8.4-.4 1.5-1.9 2.1-2 .8-.1 2.4 1.6 2.1 2.5-.2.6-1.1 1.2-1.5 1.6-.7.6-1.4 1.3-2.1 1.9-3.1 2.5-6.6 5.1-10.5 5.8z"/><path class="st0" d="M10.5 132.2c-.4-1.5-2.4-1.6-2-3.5.4-2.1 1.3-4.1 2.1-6.1.7-1.9 1.5-3.8 2.4-5.7.4-.8 1.5-4.2 2.5-3.7.4.2 1.1 1.1 1.3 1.5.5.7.4 1.4 0 2.1-.9 2-1.8 3.9-2.6 5.8-.8 2-1.5 4-2.1 6.1-.4 1.1-.5 3.2-1.6 3.5zm5.2 16.7c.4-3.9.8-7.8 1.6-11.6.2-1 .4-2 .7-3 .2-.9.3-2 .7-2.8.2-.5.1-.5.6-.5.3 0 1.2.8 1.4 1 1.1 1 .8 2.2.5 3.4-.5 1.9-.9 3.7-1.2 5.6-.3 1.9-.5 3.8-.7 5.7-.1.8.3 3.9-.9 3.8.1-.2-.4-.4-.7-.3.1-.3-.6-.6-1-.7.1-.2-.4-.4-.7-.3.1-.1-.1-.4-.3-.3zm175.9-28.7c1-.1 2.3-2.1 2.9-2.7 1.1-1.2 2.1-2.5 3.2-3.8.5.9 1.4 2 1.4 3s-1 1.9-1.6 2.6c-2.4 2.7-5 5.3-7.8 7.7-.5.4-2.7 2.8-3.3 2.5-.5-.2-.9-2.3-.8-2.8.2-1 1.4-1.8 2.1-2.4 1-.9 2.4-2 2.9-3 .4 0 .4-.3.4-.4.4 0 .7-.4.6-.7zm-12.9 24.3c-.6-1.9 2.4-2.7 3.6-3.4 1.9-1.1 3.7-2.3 5.5-3.5.9-.6 1.8-1.3 2.7-2 .6-.5 1.7-1.8 2.5-1.9 1-.2 1.4 2.1 1.1 2.9-.3 1.2-2.1 2.1-3 2.8-1.8 1.3-3.7 2.5-5.6 3.7-1.8 1.1-3.8 2.4-5.8 3.2-1.2.5-1-.8-1-1.8zM10.9 106.2c-1.2.7-3.1 6.3-4 6.1-.5-.1-1.5-1.7-1.7-2.2-.2-.7 0-1.2.3-1.9 2.3-4.9 5.9-9.5 9.3-13.7.5.6 1.7 2.1 1.7 2.9.1.9-1.3 2.1-1.8 2.7-.5.6-4.3 5.8-3.8 6.1zm187.3-12.6c.1 1.5 2.1 2.2 1.5 3.8-.6 1.7-2 3.5-2.9 5-2 3.3-4.3 6.4-6.8 9.4-.9-.7-1.1-2.4-2-2.7 2-2.6 3.9-5.3 5.6-8 .8-1.3 1.7-2.7 2.4-4.1.4-.7.7-1.4 1.1-2.1.4-.7 1-1.1 1.1-1.3zm-64.1 81.8c-3.4 1.4-7.1 2.3-10.9 2-2-.1-3.9-.6-5.9-1.1-.5-.1-1.5-.1-1.7-.7-.1-.4.8-1.6 1-1.9.6-1 .9-1.1 2-.8 1.8.5 3.6 1 5.5 1.1 1 .1 2 0 3-.1.9-.1 1.8-.6 2.6-.6.7 0 1.3.5 1.9.9.8.5 1.7.8 2.5 1.2zm-41-.6c.6.1.8.9 1 1.4.4.7.8 1.4 1.3 2.1.9 1.4 2 2.7 3.2 4 .6.6 1.1 1.2 1.7 1.7.4.4 1.3.9 1.3 1.5 0 .9-1.6 2.1-2.5 1.8-1.2-.4-2.5-2.1-3.3-3-1.1-1.1-2.1-2.3-3.1-3.6-.5-.6-.9-1.3-1.3-2-.2-.4-.9-1.3-.9-1.8.1-1.1 1.9-1.7 2.6-2.1zM23.8 81.9c-.2 3.3-1.2 6.4-2.7 9.3-.3.6-.6 1.5-1.1 2-.6.6-.6.2-1-.4-1-1.4-.9-2.4-.2-3.9s1.3-2.9 1.4-4.6c.1-.9 0-1.7-.2-2.6-.2-.8-.5-1.2 0-2 .3-.6 2.1-3.2 2.9-2.8.4.2.5 1.6.6 2.1.2 1 .3 1.9.3 2.9zM117.5 59c1.9-.7 4-1.3 6-1.4.1.8-2.2 2.3-2.8 2.9-1 1.1-2 2.2-2.9 3.4-.9 1.2-1.7 2.5-2.3 3.8-.4.7-1 3.2-1.9 3.3.1-.4-.2-1.5-.2-2.1-.1-.9-.1-1.8.1-2.6.2-1.7 1.2-3.1 1.6-4.8.3 0 1.2-1.1 1-1.3.4 0 .4-.3.3-.4.5 0 1.1-.6 1.1-.8zm-42.4 95.8c.5.1-.7 2.2-.8 2.8-.1 1.2 1 2 1 3.1-.9-.1-1.7-.7-2.7-.7.1-.3-.6-.3-.6-.3 0-.3-.2-.4-.4-.4.1-.1-.2-.4-.3-.3-.3-.8-.5-1.7-.4-2.5.1.1.4.1.4-.3.1.1.7-.1.6-.3.3-.1 1.5-.1 1.4-.3.4 0 1.1-.1 1.1-.3.3-.1.7-.4.7-.5zm66.5-84.6c-1.5.1-3.1.2-4.6.3-.3 0-1.1.2-.9-.4.1-.3 1.7-.7 2-.8 1-.4 7.6-2.9 8.1-1.8-.2-.1-.4.2-.3.3-.4.1-.4.3-.3.4-.5 0-.9.3-1.1.7-.2-.1-.3.2-.3.3-.3 0-.7 0-.8.4-.1-.1-.6-.1-.7.3-.1-.2-1.1 0-1.1.3zm-80-1.7c.4-.5-.8-.6.4-.6.9 0 1.9.4 2.8.7 1.9.5 3.7 1.1 5.4 2-1.8.8-4 .1-5.9-.4 0-.1-.3-.3-.7-.3.1-.2-.4-.4-.7-.3.1-.5-1.1-1.3-1.3-1.1zM108 122c0 .6 1.4 2 1.8 2.5.6.8 1.1 1.7 1.5 2.6.3.7 1.5 5.3.2 5.2-.6 0-1-1.8-1.2-2.3-.4-.8-.8-1.6-1.4-2.3-1.3-1.5-2.9-2.8-4.2-4.3-1.3-1.6-2.3-3.3-3-5.2-.2-.5-1.2-5.2 0-4.4.4.3.8 1.8 1 2.3.5 1 1.1 1.6 1.8 2.4.6.7 1 1.3 1.7 1.9.6.5 1.1 1.2 1.8 1.6z"/></svg>