<svg data-name="Layer 1" xmlns="http://www.w3.org/2000/svg" viewBox="0 0 204.89 247.79"><path d="M6.03 222.94c0 6.74 4.43 10.81 9.9 11.91-6.32-1-12.19-5.85-12.19-12.76 0-8.14 7-12.76 13.53-12.76a12.13 12.13 0 0 1 7.3 2.07v2.34a10.46 10.46 0 0 0-7.3-3 11.83 11.83 0 0 0-11.24 12.2zm21.94 6.53l.85 1.74a15.5 15.5 0 0 1-9.85 3.64c-6.58 0-12.58-4.28-12.58-11.91a11.65 11.65 0 0 1 9.63-11.83c-3.18 1-6.5 4.37-6.5 10.22 0 7.21 4.7 12.08 10.08 12.08 4.39 0 7.3-2.92 8.37-3.94zm-.89-18.24h-2.33a11.53 11.53 0 0 0-4.21-1.82 16.57 16.57 0 0 1 6.54 1.82zm-1.17 18h1.84a13.37 13.37 0 0 1-4.84 3.33 7.29 7.29 0 0 0 3-3.3zm1.3-17.77v2.33h-2.37v-2.33zm4.93.1l2.15-1.44v.64l-2.15 1.44zm0 22.6v-.63c2.24 0 3.67-.89 3.67-4.07v-13.69c0-3.05-1.25-3.52-3.36-3.52l1.93-1.27h.31c2.11 0 3.49.72 3.49 3.86v18.4h8.78a5.64 5.64 0 0 0 5.42-4.11h.81l-1.52 5zm2.28-2.2h.63a3 3 0 0 1-2.64 1.35zm4.12 1v-18.29c0-3.22-1.61-4-3.89-4h-.09v-.63h10v.63c-2.24 0-3.67.89-3.67 4.07v16.88zm8.56-1.18a4.51 4.51 0 0 0 4.3-3.27l.71.64a5.36 5.36 0 0 1-5.15 3.9h-8l2.37-1.27zm-4.8-19.47h-.62a3 3 0 0 1 2.64-1.35zm10 16.63l-.72-.64h.85l.72.64zm1.56 4.52l1.12-.77v.51l-1.12.72zm8.42-.09l-1.16.76H54l1.2-.76zm-7-.72c2.15 0 3.45-.89 4.66-4l1.39-3.82.62.77-1.3 3.64c-.94 2.55-.13 3.31 1.84 3.35v.56h-7.24zm12.47-21.42l4.75 13-2.69-.84-4.06-11.22-6.11 16.39c-.81 2.16-1.61 3-2.69 3.48a8.19 8.19 0 0 0 1.48-2.76l5.6-15.1c.76-2.12-.36-3-2.11-3.26v-.64zm6-.93v.64c-1.43.13-2.91 1.06-2.1 3.26l5 13.66c1.17 3.14 3 3.94 5.11 4l-2 1.23c-1.75 0-3.9-.68-5.06-3.86l-1.39-3.73H62.19l-.67-.8h11.55l-4.92-13.51zm-12.19 13.87l4.19-11.24.45 1.27-3.45 9.21zm1.3-.55h6.72l2.6.8H61.61zm5.06-12.64l-6-.93h11.83zm5.15 14.76l1.35 3.56c1.21 3.18 3.22 4 5.37 4v.8h-9.72v-.8c2.24 0 3-1.27 2.15-3.48l-1.47-4.08zm-.85 6.1c-.18.64-.8 1.06-1.79 1.19.58-.38 1.7-1.19 1.7-1.19zm9.68 1.15l-1.84 1.14v-.93l1.84-1.1zm2.19-21.92v-.51l.63-.42v.55zm3.72 3.68c0-3.09-1.43-3.52-3.58-3.52l.58-.38h.31c2.2 0 3.58.81 3.58 4v14.67c0 3.22 1.44 4.11 3.9 4.11h.09v.55h-8.55v-.63c2.24 0 3.67-.89 3.67-4.07zm-2.06 18.2a4.4 4.4 0 0 1-1.12.25h-.22l.54-.29zm5.56-22.9l15.58 17.51v3.86l-17-19.55v17.56c0 3.09 1.43 3.52 3.58 3.52l-.58.38h-.31c-2.2 0-3.59-.81-3.59-4v-14.62c0-3.22-1.43-4.11-3.89-4.11h-.09v-.55zm16.79 24.08h-2.35l-15.61-17.47v-3.9l17 19.55v-17.56c0-3.18-1.44-4.07-3.68-4.07v-.63h8.56v.51h-.09c-2.47 0-3.9.89-3.9 4.11zm-14.46-1v.55l-.63.42v-.54zm10.65-21.89l-.53-.29h.22a4.5 4.5 0 0 1 1.12.25zm5 21.93l-.9.89V214.8c0-3.14 1.39-4 3.58-4h.32l.58.38c-2.15 0-3.58.43-3.58 3.52zm3.09-22.52v-.55l.62.42v.56zm4.37.42v-.51l.63-.42v.55zm3.72 3.68c0-3.09-1.43-3.52-3.58-3.52l.58-.38h.32c2.19 0 3.58.81 3.58 4v14.67c0 3.22 1.43 4.11 3.89 4.11h.09v.55h-8.55v-.63c2.24 0 3.67-.89 3.67-4.07zm-2.1 18.2a4.61 4.61 0 0 1-1.12.25h-.23l.54-.29zm5.55-22.9l15.66 17.51v3.86l-17-19.55v17.56c0 3.09 1.44 3.52 3.59 3.52l-.59.38h-.31c-2.2 0-3.58-.81-3.58-4v-14.62c0-3.22-1.44-4.11-3.9-4.11h-.09v-.55zm16.83 24.08h-2.28l-15.64-17.47v-3.9l17 19.55v-17.56c0-3.18-1.43-4.07-3.67-4.07v-.63h8.59v.51h-.09c-2.46 0-3.9.89-3.9 4.11zm-14.46-1v.55l-.63.42v-.54zm10.66-21.89l-.54-.29h.22a4.4 4.4 0 0 1 1.12.25zm5 21.93l-.9.89V214.8c0-3.14 1.39-4 3.59-4h.31l.58.38c-2.15 0-3.58.43-3.58 3.52zm3.09-22.52v-.55l.63.42v.56zm1.26 22.81l1.12-.77v.51l-1.12.72zm8.42-.09l-1.17.76h-7.12l1.21-.76zm-7-.72c2.15 0 3.45-.89 4.66-4l1.38-3.82.63.77-1.3 3.64c-.94 2.55-.13 3.31 1.84 3.35v.56h-7.21zm12.54-21.42l4.74 13-2.68-.84-4.12-11.24-6.12 16.41c-.81 2.16-1.62 3-2.69 3.48a8.19 8.19 0 0 0 1.48-2.76l5.6-15.1c.76-2.12-.36-3-2.11-3.26v-.64zm6-.93v.64c-1.43.13-2.91 1.06-2.11 3.26l5 13.66c1.16 3.14 3.05 3.94 5.11 4l-2 1.23c-1.74 0-3.89-.68-5.06-3.86l-1.38-3.73h-11.2l-.67-.8h11.55l-4.92-13.49zm-12.23 13.87l4.17-11.24.45 1.27-3.45 9.21zm1.3-.55h6.72l2.6.8h-10.6zm5.06-12.64l-6-.93h11.87zm5.15 14.76l1.35 3.56c1.21 3.18 3.22 4 5.37 4v.8h-9.72v-.8c2.24 0 3-1.27 2.15-3.48l-1.52-4.11zm-.85 6.1c-.18.64-.8 1.06-1.79 1.19.58-.38 1.7-1.19 1.7-1.19zm9.67 1.15l-1.83 1.14v-.93l1.83-1.1zm8.62-18.32c0-3.22-1.61-4-3.9-4h-.09v-.63h9.68c7.66 0 14.69 4.28 14.69 12.13s-6.81 11.95-14.47 11.95h-12.31v-.63c2.23 0 3.67-.89 3.67-4.07v-13.65c0-3.05-1.26-3.52-3.36-3.52l1.92-1.27h.32c2.1 0 3.49.72 3.49 3.86v18.57h5.91c6.59 0 12.18-4.11 12.18-11 0-7.08-6.8-10.86-14-10.86h-1.36v20.7l-2.37.85zm-6.4-3.14l2.15-1.44v.64l-2.15 1.44zm2.28 20.4h.63a3 3 0 0 1-2.65 1.35zm21.5-9.5c0 6.7-5.38 10.73-11.83 10.73h-4.92l2.15-.77h2.37c5.46 0 9.45-3.94 9.45-9.75 0-4.87-1.61-8.18-4.84-9.84 4.39 1.53 7.62 4.76 7.62 9.63zM27.01 243.98a3.59 3.59 0 0 0 2.56 3.8 4.05 4.05 0 0 1-3.15-4.07c0-2.61 1.82-4.08 3.5-4.08a2.72 2.72 0 0 1 1.89.66v.75a2.49 2.49 0 0 0-1.89-1c-1.26.03-2.91 1.4-2.91 3.94zm5.68 2.08l.22.56a3.63 3.63 0 0 1-2.55 1.16c-1.7 0-3.26-1.36-3.26-3.8 0-2.16 1.21-3.5 2.5-3.78-.83.32-1.68 1.39-1.68 3.26 0 2.31 1.21 3.86 2.61 3.86a3 3 0 0 0 2.16-1.26zm-.23-5.82h-.59a2.81 2.81 0 0 0-1.09-.59 3.69 3.69 0 0 1 1.68.59zm-.3 5.76h.49a3.57 3.57 0 0 1-1.27 1 2.24 2.24 0 0 0 .78-1zm.34-5.68v.74h-.62v-.74zm2.68 3.1c0 1.49.59 3.39 1.89 3.85-1.57-.22-2.59-1.87-2.59-3.81s1.25-3.83 3-3.83a4.09 4.09 0 1 1-3.7 4.08 4 4 0 0 1 2.73-4 3.88 3.88 0 0 0-2.09 3.72c0 2.09 1.19 3.92 3 3.92a3.24 3.24 0 0 0 3.1-3.53c0-2.12-1.37-3.8-3.14-3.8s-2.2 1.61-2.2 3.4zm5.21.43a3.28 3.28 0 0 1-1.84 3.18 3.19 3.19 0 0 0 1.14-2.8c0-1.57-.47-3.51-1.82-4a3.52 3.52 0 0 1 2.52 3.62zm1.65-3.52l.56-.46v.2l-.56.47zm3.48 7.45c1.76 0 2.67-1.26 2.67-3.42v-3.26c0-.77.22-1.12.56-1.24h-1.68c.33.12.55.47.55 1.24v3.54c0 1.79-.73 2.85-2.06 2.85s-2-1-2-2.78v-3.32c0-1-.36-1.23-.9-1.23h-.08l-.5.4c.54 0 .87.15.87 1.13v2.94c.04 1.84.8 3.15 2.57 3.15zm-1.77-6.45c0-1-.42-1.27-1-1.27v-.2h2.6v.2c-.58 0-.95.29-.95 1.3v3c0 2.07.51 2.8 1.6 2.8a1.4 1.4 0 0 0 1.25-.69 1.71 1.71 0 0 1-1.6 1c-1.27 0-1.86-.92-1.86-2.69zm1-.77h-.16a.76.76 0 0 1 .68-.44zm2.07-.42v-.28c.39 0 .71.25.77 1a.75.75 0 0 0-.84-.72zm1.53.69a.78.78 0 0 1 .87-.69v-.28c-.58.04-.9.25-.95.97zm1.69-.65v-.17l.17-.14v.18zm1 1.18c0-1-.37-1.12-.93-1.12l.15-.13h.08c.57 0 .93.26.93 1.27v4.68c0 1 .37 1.32 1 1.32v.18h-2.21v-.2c.58 0 .95-.28.95-1.3zm-.55 5.81a1.1 1.1 0 0 1-.29.09h-.06l.14-.1zm1.44-7.31l4.05 5.59v1.24l-4.41-6.25v5.61c0 1 .37 1.12.93 1.12l-.15.13h-.08c-.57 0-.93-.26-.93-1.26v-4.69c0-1-.37-1.32-1-1.32v-.17zm4.32 7.7h-.59l-4-5.58v-1.25l4.41 6.25v-5.62c0-1-.37-1.3-1-1.3v-.2h2.21v.17c-.64 0-1 .29-1 1.32zm-3.75-.32v.17l-.16.14v-.18zm2.76-7l-.14-.1h.06a.82.82 0 0 1 .29.08zm1.29 7l-.23.29v-6.15c0-1 .36-1.27.93-1.27h.08l.15.13c-.56 0-.93.13-.93 1.12zm.8-7.19v-.18l.16.14v.17zm1.25 7.21v-1a2.55 2.55 0 0 0 2.05 1 1.12 1.12 0 0 0 1.16-1.15c0-.8-.82-1.37-1.59-1.94a3.14 3.14 0 0 1-1.55-2.44 1.81 1.81 0 0 1 1.31-1.91 1.57 1.57 0 0 0-.86 1.53 3.12 3.12 0 0 0 1.58 2.3c.68.52 1.77 1.22 1.77 2.31s-.66 1.77-2 1.77a4.56 4.56 0 0 1-1.87-.47zm.53-1.12a2 2 0 0 0 1 1 2.46 2.46 0 0 1-1.52-1zm3.1-5a2 2 0 0 0-1.43-.95.9.9 0 0 0-1 1c0 .75.81 1.34 1.42 1.82s1.79 1.28 1.79 2.53a2.11 2.11 0 0 1-1.4 2.02 1.71 1.71 0 0 0 1-1.65c0-1.11-1.09-1.86-1.79-2.4s-1.56-1.17-1.56-2.21a1.46 1.46 0 0 1 1.46-1.61 2.3 2.3 0 0 1 1.56.64zm0-.83a2.56 2.56 0 0 0-.84-.51 4.13 4.13 0 0 1 1.21.51zm.42.85h-.39v-.77h.39zm3.1-1.09v3.64h1.61c.59 0 .87.27.87.75v.29h-.07c0-.5-.28-.8-.87-.8h-1.54v3h2a1.37 1.37 0 0 0 1.29-1.07h.15l-.44 1.38H64.4v-.25c.46 0 .69-.4.69-1.24v-4.42c0-.72-.17-1.29-1-1.29v-.2h4.87l.15 1.39h-.22a1.19 1.19 0 0 0-1.14-1.18zm-1.57 7.17l.19-.2v.24l-.19.21zm0 .31l.19-.21h4.38l.2.21zm0-7.41a.77.77 0 0 1 .69.44l-.12-.02zm2.21 3.15l-.62.31v-3.42l.62.36zm0 3.56h-.62v-2.83h.62zm0-6.38l-.55-.31h1.91c.7 0 1.06.4 1.16 1.12l-.17.2a1.1 1.1 0 0 0-1.11-1zm-.54 3.15l.5-.24h.82c.53 0 .81-.22.86-.64l.08-.1v.23c0 .5-.28.75-.87.75zm2.33-1h.12v2l-.12.13v-.26a.72.72 0 0 0-.6-.79.73.73 0 0 0 .6-.8zm.67-1h-.1l.18-.22h.2zm.45 4.54l-.26 1.4-.19-.23.35-1.41zm1.11-5.83l.56-.46v.2l-.56.47zm0 7.22v-.2c.58 0 1-.28 1-1.3v-4.36c0-1-.33-1.13-.87-1.13l.5-.4h.08c.54 0 .9.23.9 1.23v5.88h2.23c1 0 1.28-.94 1.4-1.31h.21l-.39 1.6zm.59-.7h.16a.76.76 0 0 1-.68.43zm1.07.31v-5.83c0-1-.42-1.27-1-1.27v-.2h2.6v.2c-.58 0-.95.29-.95 1.3v5.39zm2.21-.38c.74 0 1-.7 1.12-1l.18.2c-.13.41-.44 1.25-1.33 1.25h-2.08l.62-.41zm-1.24-6.22h-.16a.76.76 0 0 1 .68-.44zm2.58 5.31l-.19-.2h.22l.19.2zm.96-5.54l.56-.46v.2l-.56.47zm0 7.22v-.2c.58 0 1-.28 1-1.3v-4.36c0-1-.32-1.13-.87-1.13l.5-.4h.08c.55 0 .91.23.91 1.23v5.88h2.27c1 0 1.29-.94 1.4-1.31h.21l-.44 1.6zm.59-.7h.17a.78.78 0 0 1-.69.43zm1.07.31v-5.83c0-1-.42-1.27-1-1.27v-.2h2.6v.2c-.58 0-1 .29-1 1.3v5.39zm2.21-.38c.75 0 1-.7 1.12-1l.18.2c-.12.41-.44 1.25-1.33 1.25h-2.08l.62-.41zm-1.24-6.22h-.16a.76.76 0 0 1 .69-.44zm2.54 5.31l-.19-.2h.22l.19.2zm1.06-5.54l.56-.46v.2l-.56.47zm1 1.36c0-1-.32-1.13-.87-1.13l.5-.4h.08c.55 0 .91.23.91 1.23v4.69c0 1 .42 1.27 1 1.27v.2h-2.6v-.2c.58 0 1-.28 1-1.3zm-.36 5.16h.17a.78.78 0 0 1-.69.43zm1.07-5.52c0-1-.42-1.27-1-1.27v-.2h2.6v.2c-.58 0-1 .29-1 1.3v4.36c0 1 .32 1.13.87 1.13l-.5.41h-.08c-.55 0-.91-.23-.91-1.24zm1-.77h-.17a.77.77 0 0 1 .69-.44zm.59 6.52l-.56.46v-.2l.56-.46zm1.12-6.9v-.17l.17-.14v.18zm1 1.18c0-1-.38-1.12-.93-1.12l.15-.13h.08c.57 0 .93.26.93 1.27v4.68c0 1 .37 1.32 1 1.32v.18h-2.21v-.2c.57 0 1-.28 1-1.3zm-.55 5.81a1.1 1.1 0 0 1-.29.09h-.06l.14-.1zm1.44-7.31l4 5.59v1.24l-4.37-6.25v5.61c0 1 .37 1.12.93 1.12l-.15.13h-.08c-.57 0-.93-.26-.93-1.26v-4.69c0-1-.37-1.32-1-1.32v-.17zm4.32 7.7h-.59l-4-5.58v-1.25l4.41 6.25v-5.62c0-1-.38-1.3-.95-1.3v-.2h2.21v.17c-.64 0-1 .29-1 1.32zm-3.75-.32v.17l-.16.14v-.18zm2.76-7l-.14-.1h.06a.82.82 0 0 1 .29.08zm1.29 7l-.23.29v-6.15c0-1 .36-1.27.93-1.27h.08l.15.13c-.56 0-.93.13-.93 1.12zm.8-7.19v-.18l.16.14v.17zm6.36 7.3a4 4 0 0 1-1.79.43 4.16 4.16 0 0 1-.63-8.14 3.75 3.75 0 0 0-2.44 3.81c0 2.57 1.68 3.87 3.24 3.87a1.85 1.85 0 0 0 1.06-.23v-.9c0-1-.31-1.13-.86-1.13l.42-.41c.63 0 1 .23 1 1.24zm-4-3.89c0 1.95.85 3.36 1.93 3.74-1.53-.26-2.73-1.62-2.73-3.75 0-2.33 1.51-3.82 3.11-3.82a3.86 3.86 0 0 1 2.27.63v.84a2.92 2.92 0 0 0-2.2-1c-1.12-.04-2.35 1.04-2.35 3.36zm2.46 1.37l.48-.46v.2l-.48.46zm1.46-3.66a2.27 2.27 0 0 0-1.08-1 2.88 2.88 0 0 1 1.71 1zm.7 5.77a4.74 4.74 0 0 1-.55.37v-1.48c0-1-.45-1.27-1.06-1.27v-.2h2.49v.2c-.58 0-.88.28-.88 1.3zm.36-1.88h-.13a.7.7 0 0 1 .64-.43zm5.63-2.34l-.88-1.64c-.34-.65-.59-.94-1.12-.94v-.11h.24c.63 0 1 .38 1.47 1.3l.7 1.29zm3.14-1.7a1.11 1.11 0 0 0-1.07-.93h-2l2.85 5.26a3.09 3.09 0 0 1-.48.84l-2.67-4.91c-.51-.92-.86-1.33-1.54-1.33h-.21l.11-.09h5l.12 1.16zm-4.47 4.42a2.52 2.52 0 0 0 1.38 2.32 2.3 2.3 0 0 1-2-2.37 2.75 2.75 0 0 1 2.33-2.69 3.16 3.16 0 0 0-1.71 2.74zm1.62-2.17a2.37 2.37 0 0 0-.92 1.87 1.86 1.86 0 0 0 1.62 1.94c1.37 0 2.22-1.75 2.22-2.71 0-.53-.28-.81-.64-.81v-.08h2.08v.1c-.55 0-.69.38-.91.92s-1.17 3.28-3 3.28a2.22 2.22 0 0 1-1.93-2.34 3 3 0 0 1 1.69-2.67zm2.74-2.14a.92.92 0 0 0-.9-.73h-1.8l-.13-.23h1.87a1 1 0 0 1 1 .89zm-.64 5.12a1.77 1.77 0 0 1-.3.31l-1.75-3.23.16-.53zm.2.54l.12-.14a1.53 1.53 0 0 0 1.23.77 1.36 1.36 0 0 0 1.13-.71 1.73 1.73 0 0 1-1.39 1.07 1.55 1.55 0 0 1-1.27-.77zm0-3v-.11a.55.55 0 0 1 .48.28.71.71 0 0 0-.5-.21zm1.67 3.14a.83.83 0 0 0 .64-.46l.18.19a1.36 1.36 0 0 1-1.12.72c-.55 0-.85-.33-1.19-.76a5.66 5.66 0 0 0 .46-.72c.38.71.6.99 1.01.99zm-1-5.8l-.06.1h-.14l.07-.1zm1.38 2.68a.79.79 0 0 0-.56.19.65.65 0 0 1 .56-.29zm3.77.17c0 2.15 1.14 3.45 2.56 3.8a4 4 0 0 1-3.15-4.07c0-2.61 1.82-4.08 3.5-4.08a2.74 2.74 0 0 1 1.89.66v.75a2.53 2.53 0 0 0-1.89-1c-1.27.03-2.91 1.4-2.91 3.94zm5.68 2.08l.22.56a3.66 3.66 0 0 1-2.55 1.16c-1.71 0-3.26-1.36-3.26-3.8 0-2.16 1.21-3.5 2.49-3.78-.82.32-1.68 1.39-1.68 3.26 0 2.31 1.22 3.86 2.61 3.86a3 3 0 0 0 2.17-1.26zm-.23-5.82h-.62a2.81 2.81 0 0 0-1.09-.59 3.74 3.74 0 0 1 1.71.59zm-.3 5.76h.48a3.46 3.46 0 0 1-1.26 1 2.39 2.39 0 0 0 .78-1zm.33-5.68v.74h-.65v-.74zm2.68 3.1c0 1.49.6 3.39 1.9 3.85-1.57-.22-2.59-1.87-2.59-3.81s1.24-3.83 2.94-3.83a4.1 4.1 0 1 1-3.69 4.08 4 4 0 0 1 2.72-4 3.89 3.89 0 0 0-2.09 3.72c0 2.09 1.2 3.92 3 3.92a3.25 3.25 0 0 0 3.11-3.53c0-2.12-1.37-3.8-3.14-3.8s-2.16 1.61-2.16 3.4zm5.21.43a3.27 3.27 0 0 1-1.83 3.18 3.22 3.22 0 0 0 1.14-2.8c0-1.57-.48-3.51-1.82-4a3.52 3.52 0 0 1 2.51 3.62z"/><path d="M130.9 240.18v-.17l.16-.14v.18zm1 1.18c0-1-.37-1.12-.93-1.12l.15-.13h.08c.57 0 .93.26.93 1.27v4.68c0 1 .37 1.32 1 1.32v.18h-2.21v-.2c.58 0 1-.28 1-1.3zm-.55 5.81a1.1 1.1 0 0 1-.29.09h-.05l.14-.1zm1.4-7.31l4.05 5.59v1.24l-4.41-6.25v5.61c0 1 .37 1.12.93 1.12l-.15.13h-.08c-.57 0-.93-.26-.93-1.26v-4.69c0-1-.37-1.32-1-1.32v-.17zm4.35 7.69h-.59l-4-5.58v-1.25l4.41 6.25v-5.61c0-1-.37-1.3-1-1.3v-.2h2.21v.17c-.64 0-1 .29-1 1.32zm-3.74-.32v.17l-.17.14v-.18zm2.75-7l-.13-.1h.05a.82.82 0 0 1 .29.08zm1.29 7l-.23.29v-6.15c0-1 .36-1.27.93-1.27h.08l.15.13c-.56 0-.93.13-.93 1.12zm.8-7.19v-.18l.16.14v.17zm1.25 7.22v-1a2.55 2.55 0 0 0 2.05 1 1.12 1.12 0 0 0 1.16-1.15c0-.8-.82-1.37-1.59-1.94a3.14 3.14 0 0 1-1.55-2.44 1.82 1.82 0 0 1 1.31-1.91 1.58 1.58 0 0 0-.86 1.53 3.12 3.12 0 0 0 1.58 2.3c.68.52 1.77 1.22 1.77 2.31s-.66 1.77-1.95 1.77a4.62 4.62 0 0 1-1.92-.47zm.53-1.12a2 2 0 0 0 1 1 2.49 2.49 0 0 1-1.52-1zm3.1-5a2 2 0 0 0-1.43-.95.9.9 0 0 0-1 1c0 .75.81 1.34 1.43 1.82s1.78 1.28 1.78 2.53a2.11 2.11 0 0 1-1.44 2.06 1.71 1.71 0 0 0 .95-1.65c0-1.11-1.09-1.86-1.79-2.4s-1.56-1.17-1.56-2.21a1.46 1.46 0 0 1 1.46-1.61 2.3 2.3 0 0 1 1.56.64zm0-.83a2.46 2.46 0 0 0-.84-.51 4.09 4.09 0 0 1 1.22.51zm.42.85h-.39v-.77h.39zm1.3-.83l.55-.46v.2l-.55.47zm3.48 7.45c1.76 0 2.66-1.26 2.66-3.42v-3.26c0-.77.22-1.12.57-1.24h-1.68c.32.12.55.47.55 1.24v3.54c0 1.79-.73 2.85-2.06 2.85s-2-1-2-2.78v-3.32c0-1-.36-1.23-.9-1.23h-.08l-.5.4c.54 0 .87.15.87 1.13v2.94c.04 1.84.83 3.15 2.57 3.15zm-1.82-6.45c0-1-.42-1.27-1-1.27v-.2h2.6v.2c-.58 0-1 .29-1 1.3v3c0 2.07.51 2.8 1.6 2.8a1.41 1.41 0 0 0 1.25-.69 1.71 1.71 0 0 1-1.6 1c-1.27 0-1.86-.92-1.86-2.69zm1-.77h-.16a.76.76 0 0 1 .68-.44zm2.06-.42v-.28c.39 0 .71.25.76 1a.74.74 0 0 0-.79-.72zm1.54.69a.77.77 0 0 1 .86-.69v-.28c-.52.04-.84.25-.89.97zm1.76-.5l.55-.46v.2l-.55.47zm0 7.22v-.2c.58 0 1-.28 1-1.3v-4.36c0-1-.33-1.13-.87-1.13l.5-.4h.08c.54 0 .9.23.9 1.23v5.88h2.27c1 0 1.29-.94 1.41-1.31h.21l-.4 1.59zm.59-.7h.16a.77.77 0 0 1-.69.43zm1.06.31v-5.83c0-1-.41-1.27-1-1.27v-.2h2.6v.2c-.58 0-.95.29-.95 1.3v5.39zm2.22-.38c.74 0 1-.7 1.11-1l.19.2c-.13.41-.44 1.25-1.34 1.25h-2.07l.61-.41zm-1.24-6.22h-.16a.75.75 0 0 1 .68-.44zm2.57 5.31l-.18-.2h.22l.18.2zm1.78-5.76a1.4 1.4 0 0 0-1.52 1.2h-.21l.15-1.45h5.67l-.19.25zm-1.48 1.28l.18.2h-.22l-.18-.2zm0-.07a1.33 1.33 0 0 1 1.43-1.12h1.2l-.57.28h-.63a1.11 1.11 0 0 0-1.2 1.08zm1.69 6v.2l-.55-.46v-.2zm.4-6.78l.61-.31V246c0 1-.36 1.24-.9 1.24h-.08l-.5-.41c.54 0 .87-.15.87-1.13zm.71-.31l.61.31v5.49c0 1 .37 1.3 1 1.3v.2h-2.6v-.2c.59 0 1-.24 1-1.27zm2.55-.05l.15 1.39h-.18a1.12 1.12 0 0 0-1.19-1.11h-.7l-.56-.28zm-1.74 6.64h.16l.52.42a.76.76 0 0 1-.65-.4zm2-6.94l.15 1.42-.18.26-.15-1.4zm.94.45l.56-.46v.2l-.56.47zm.95 1.36c0-1-.32-1.13-.87-1.13l.5-.4h.08c.55 0 .91.23.91 1.23v4.69c0 1 .41 1.27 1 1.27v.2h-2.6v-.2c.58 0 .95-.28.95-1.3zm-.36 5.16h.17a.78.78 0 0 1-.69.43zm1.07-5.52c0-1-.42-1.27-1-1.27v-.2h2.6v.2c-.58 0-1 .29-1 1.3v4.36c0 1 .33 1.13.87 1.13l-.49.41h-.09c-.54 0-.9-.23-.9-1.24zm1-.77h-.16a.76.76 0 0 1 .69-.44zm.6 6.52l-.56.46v-.2l.56-.46zm1.16-6.9v-.17l.16-.14v.18zm1 1.18c0-1-.37-1.12-.92-1.12l.15-.13h.08c.57 0 .93.26.93 1.27v4.68c0 1 .37 1.32 1 1.32v.18h-2.22v-.2c.58 0 .95-.28.95-1.3zm-.54 5.81a1.23 1.23 0 0 1-.29.09h-.06l.14-.1zm1.44-7.31l4 5.59v1.24l-4.44-6.25v5.61c0 1 .37 1.12.93 1.12l-.15.13h-.09c-.56 0-.92-.26-.92-1.26v-4.69c0-1-.37-1.32-1-1.32v-.17zm4.35 7.69h-.6l-4-5.58v-1.25l4.4 6.25v-5.61c0-1-.37-1.3-.95-1.3v-.2h2.22v.17c-.64 0-1 .29-1 1.32zm-3.75-.32v.17l-.16.14v-.18zm2.76-7l-.14-.1h.06a.89.89 0 0 1 .29.08zm1.29 7l-.23.29v-6.15c0-1 .36-1.27.92-1.27h.08l.16.13c-.56 0-.93.13-.93 1.12zm.8-7.19v-.18l.16.14v.17zm6.32 7.31a4 4 0 0 1-1.79.43 4.16 4.16 0 0 1-.64-8.14 3.76 3.76 0 0 0-2.43 3.81c0 2.57 1.68 3.87 3.23 3.87a1.87 1.87 0 0 0 1.07-.23v-.9c0-1-.31-1.13-.86-1.13l.42-.41c.63 0 1 .23 1 1.24zm-4-3.89c0 1.95.85 3.36 1.93 3.74-1.53-.26-2.73-1.62-2.73-3.75 0-2.33 1.51-3.82 3.11-3.82a3.86 3.86 0 0 1 2.27.63v.84a2.92 2.92 0 0 0-2.2-1c-1.12-.04-2.35 1.04-2.35 3.36zm2.46 1.37l.48-.46v.2l-.48.46zm1.46-3.66a2.27 2.27 0 0 0-1.08-1 2.88 2.88 0 0 1 1.71 1zm.7 5.77a4.74 4.74 0 0 1-.55.37v-1.48c0-1-.45-1.27-1.06-1.27v-.2h2.49v.2c-.58 0-.88.28-.88 1.3zm.36-1.88h-.19a.7.7 0 0 1 .64-.43zm-63.3-155.63c0 1 1.52-.29.94 1s-1.48 2.38-2.11 3.57a20.31 20.31 0 0 1-1.77 3.16 3.76 3.76 0 0 1-1.14 1c-.78.41-1.22.52-1.35-.45-.7-5.2 4.68-10.49 1.68-15.48 1.44 4-.75 7.59-1.7 11.35-.31 1.22-1 3.53-.26 4.64a1.45 1.45 0 0 0 1.2.64c.66 0 1.23-.86 1.67-1.24-2.28 8.5-3.62 17.27-2.19 26.06a38.83 38.83 0 0 0 9.43 19.91 29.64 29.64 0 0 0 8.63 7 22.28 22.28 0 0 0 5.45 1.77 32.91 32.91 0 0 1 5.82 1.14c1.89.74 3.39 1.6 5.48 1.7a24.2 24.2 0 0 0 6.29-.6c4.21-1 7.82-3.33 11.49-5.5 1.74-1 3.41-2.27 5.2-3.21.62-.32.68-.47 1 .12a4.21 4.21 0 0 1 0 2.51c-.52 1.29-2.42 2.19-3.47 3a45.86 45.86 0 0 0-4.34 3.91c-5.23 5.37-8.31 11.66-10.78 18.65-2.41 6.83-5.5 14.76-11.21 19.54a18.09 18.09 0 0 1-8.89 4.09c-.68.09-1 .13-.66-.57s1.51-1.54 2.06-2.22a7.57 7.57 0 0 1 2-2 24.18 24.18 0 0 0 2.24-1.36c6.88-5.22 9.59-15.12 11.42-23.13.21-.92 1.73-5.21 0-5.66-.8-.21-2 1.52-2.53 2-.87.85-1.77 1.68-2.69 2.49a35.26 35.26 0 0 1-5.27 4.19c-1.5.87-4.29.55-5.78-.29.47-.84 1.74-1.06 2.5-1.58a13.41 13.41 0 0 0 3.1-2.82c1.32-1.7 2.58-4.78 0-5.93s-5.66.47-7.8 1.78a32.16 32.16 0 0 0-6 4.68 25.13 25.13 0 0 0-2.34 2.71c-.65.88-1.21 2.45-2 3.1-.57.45-3.16.17-3.35-.73-.1-.53.6-1.54.81-2a17.91 17.91 0 0 1 2.49-3.68c1.81-2.16 4.06-4.06 5.66-6.38 3-4.39-2.93-8.71-6.73-9.81-5.77-1.67-1.1 8 .15 9.89.36.55.75 1.07 1.15 1.58s1 1 1.18 1.42c.2.65-.9 2.32-1.57 2.61-1.61.69-2.56-3.79-4.06-3-.73.37-.94 2.69-1.13 3.41a42 42 0 0 1-1.31 4.15 30.58 30.58 0 0 1-4 7.45c-.87 1.16-1.06.76-2-.08s-1.79-1.37-.87-2.64a26.37 26.37 0 0 0 3.72-8.33c.82-2.91 1.77-6.52 1.19-9.53-.2-1.07-.61-2.48-1.91-2.55s-2.75 1.72-3.69 2.57c-.07-.55.41-1.22.57-1.73a11.28 11.28 0 0 0 .46-2.21 9.16 9.16 0 0 0-.75-4.59 7.22 7.22 0 0 0-.83-1.24 4.89 4.89 0 0 0-.88-1.23c-.93-.8-2.54-.5-2.17 1 .42-.62.78-1.31 1.57-1 .34.15.61.61.87.84.08.07.63.44.66.48a1 1 0 0 0 .08.78c.13.22.25.45.37.68a7.62 7.62 0 0 1 .48 1.56 8.83 8.83 0 0 1 0 3.16 17.34 17.34 0 0 1-2.45 6c-.42.67-1.24 2.36-2 2.72s-1.18-.43-1.66-1c-1.39-1.64-.37-2.19.57-3.88a12.75 12.75 0 0 0 1.6-5.85c.07-1.91-.09-3.94-1.37-5.45a3 3 0 0 0-2.44-1.26c-1.1.06-1.44 1-2.37 1.25 0-1.22.62-2.3.69-3.55a17 17 0 0 0-.35-3.9 32.45 32.45 0 0 0-2.67-7.61 52.68 52.68 0 0 1-4.78-15.86 44.19 44.19 0 0 1 1.19-16.55 29.26 29.26 0 0 0 1.34-8.8c-.08-2.23-.35-5.27-1.77-7.09a25.6 25.6 0 0 1 .83 11.54c-.61 4-2.08 7.74-2.41 11.81a49 49 0 0 0 4 23.16c1.52 3.51 3.32 6.77 3.83 10.63a44.35 44.35 0 0 1 .12 5.53l-.26.23a.8.8 0 0 0 .23.5 10 10 0 0 1-.39 1 12.7 12.7 0 0 0-.66 2.77c-.87 7.11 5.14 13.45 10.25 17.52.89.7 2.89 1.55 2.78 2.84-.06.68-.7 2.45-1.53 2.3-.37-.06-.92-.64-1.22-.86-.8-.58-1.6-1.16-2.38-1.77a62.07 62.07 0 0 1-4.11-3.49 60.73 60.73 0 0 1-7.21-8c-.89-1.19-1.84-3.11-3.22-3.82s-2.42.34-2.75 1.65c-.9 3.69.33 8.23 1.46 11.75.48 1.51.23 1.94-1.17 2.6s-1.6.19-2.09-1.12c-.7-1.87-1.31-3.77-1.94-5.67-.17-.5-.32-1.44-1.08-1.08-.6.29-1.19 1.61-1.61 2.11a30 30 0 0 1-3.81 3.66 23.34 23.34 0 0 1-4.22 3.2c-.82.4-5.24-.25-4.74-1.3.26-.54 2.07-1.22 2.6-1.57q1.35-.85 2.64-1.83a22.76 22.76 0 0 0 7.28-8.85c.63-1.38 3.4-7.21 1.13-8.14-1.18-.48-3.09.33-4.13.84-1.85.91-3 2.57-4.72 3.63-.21 0-.7.1-.65.32-.35 0-1.15 0-1 .35-.49.06-1.27.07-1.41.34a1.13 1.13 0 0 0-.7.34c-.36.05-.35.34-.35.34-.58.81-.5 2.17.29 2.46a.44.44 0 0 0 .41.42s0 .28.35.34a1 1 0 0 0 .71.35c.49.73 1.84.74 2.81 1a3 3 0 0 1 1.27.86 7.41 7.41 0 0 1 1.27 1.37c.22.66-1.16 1.86-1.69 2.24-.86.62-1.34.2-2.12-.4a22.73 22.73 0 0 0-7.83-4.19c-1.17-.32-2.89-.66-4-.08s-1.1 2-.87 3.05c.55 2.56 2.94 4.73 5 6.08a23.19 23.19 0 0 0 8.1 3c1.65.32 3.26.15 4.89.34 1.45.16 1.32 1.3 1.72 2.54.52 1.59 0 1.56-1.61 1.5a31.11 31.11 0 0 1-5.18-.66c-6.07-1.31-11.29-4.69-16-8.59-1.17-1-2.29-2-3.36-3-.56-.56-1.83-2.55-2.76-2.57-2.28-.06-.16 6.9.13 8a45.76 45.76 0 0 0 3.32 9.06c.34.7.71 1.4 1.1 2.08a8.78 8.78 0 0 1 1 1.73c.19 1.17-2.19 1-3 .9-1.36-.22-1.78-1.36-2.39-2.47-.85-1.55-1.67-3.11-2.43-4.71-1.34-2.82-2.32-5.74-3.43-8.66a37.73 37.73 0 0 0-9.99-14.65 41.75 41.75 0 0 0-7-5.36c-2.77-1.64-6-2.63-8.65-4.51-1-.69-.81-1.57-.61-2.66.13-.69.18-1.1.92-1 .93.07 2.19 1 3 1.42 1.59.83 3.17 1.7 4.72 2.61 5.51 3.21 10.67 7.4 16.8 9.37a25.74 25.74 0 0 0 9.3 1.25 9.09 9.09 0 0 0 4.1-1.25 13.42 13.42 0 0 1 4.32-1.15 27.74 27.74 0 0 0 13.1-5.85c9-7.41 12.63-19.4 13.15-30.68.3-6.52-.37-13.45-3.18-19.42a38.35 38.35 0 0 0-11.53-14.13 10.6 10.6 0 0 0-3.74-1.71c-1.09-.26-3-.67-4-.15-.87.43-1.1 1.75-1.69 2.49a5.83 5.83 0 0 1-2.92 2c-1.21.36-2.47.18-3.68.51s-2.32 1.59-2-.4c.45-2.57 1.31-5.23 3.68-6.64s5 0 7.62-.52c-.68-1-2-1-2.8-1.84 2.17-.26 4.33-.67 6.52-.83a22.16 22.16 0 0 1 3.26 0 10 10 0 0 1 1.63.21c.64.17.62.32 1.16.6s.7.1 1.13.22c-.5-.14 1.08.62.71.34.29.22.4.54.74.74s.71.15 1 .32c0 0 .61.6.69.66.25-.07.39 0 .44.2a1.12 1.12 0 0 0 .3.42.56.56 0 0 0 .48.13c.21-.08.3 0 .25.28a9 9 0 0 1 .69.69c.31.28.68.23 1 .42l.06.29a.72.72 0 0 1 .66.45c.81.67 1.52 1.57 2.26 2.32a9.86 9.86 0 0 1 2.81 4.71 7.66 7.66 0 0 1-1 5.2 11.94 11.94 0 0 0-.58 2.56 4.22 4.22 0 0 1-.75 1.32c.46-.3.49-.51.73-1 .57-1.19 1.12-2.53 1.58-3.79.83-2.27 1-4.75-.55-6.77a19.86 19.86 0 0 0-4.68-4.78 5.14 5.14 0 0 1-.72-.81c-.41-.45-.77-.41-1.22-.7-.2-.12-.35-.62-.63-.78s-.47-.16-.6-.25-.32-.41-.56-.57-.54-.06-.66-.15-.31-.4-.47-.53a5.06 5.06 0 0 0-1.09-.49 14.26 14.26 0 0 0-2.43-1.08 11.92 11.92 0 0 0-3.35-.74 24.72 24.72 0 0 0-4.29.26c-1.34.18-2.66.42-4 .49s-2.78-.11-4.18-.11a11.49 11.49 0 0 0-3.49.52c-.87.28-2.43.72-2.9 1.59s.1 2.37 0 3.34a6.46 6.46 0 0 1-1.23 3c-1.55 2.12-4.17 3-5.32 5.44-1.54-3.44-2.73-7.88 0-11.1 1.11-1.3 2.48-1.56 4-2.12a8.79 8.79 0 0 0 2.13-1.31 29 29 0 0 1 2.87-1.55c-3.89-.94-8-2.17-12-1.39-3 .58-7 2.65-7.29 6.07-.15 1.48 0 3 1.5 3.53a7.45 7.45 0 0 1 3.71 2.26c2.18 2.69 1.21 6.35 2.16 9.45-2.24-2.09-6-2.65-7.78-5.16a5 5 0 0 1-.78-3.13 8.58 8.58 0 0 0-.41-3.69 11.73 11.73 0 0 0-1.06 2.84c-.17 1 0 2-.11 3.07a8.11 8.11 0 0 1-2.25 4.91c-2.74 2.7-7.29 3-10.9 3.49 2.17-2.07 2.36-4.78 3.54-7.35a7 7 0 0 1 5.33-4.05c1.25-.23 2.44-.24 3-1.57.6-1.52.84-3.23 1.39-4.78a13.25 13.25 0 0 1 2-3.71 12.13 12.13 0 0 1 1.52-1.6c.41-.35 1.29-.72 1.38-1.29-6.94 0-15.24 1-20.29 6.31q-4.29 4.53-8.51 9.12c-1.38 1.49-2.73 3-4.07 4.54-.31.36-.64 1-1.13.85s-.77-2-.84-2.42a3.17 3.17 0 0 1 .89-2.54c1.26-1.71 2.56-3.39 3.84-5.09s2.53-3.35 3.8-5a9.2 9.2 0 0 0 2.22-4.93c.28-3.67-2.27-7.17-2.9-10.73a24.15 24.15 0 0 1 1.12-12.06 27.81 27.81 0 0 1 15.17-16.28c-.47 1.14-.94 2.3-1.33 3.48-.3.88-.35 2.27-1 2.93s-1.69 1.05-2.43 1.65a16.51 16.51 0 0 0-2.1 2.08 22.53 22.53 0 0 0-4.92 11.64c-.42 3.76.11 8.54 3.49 10.87 3.6 2.47 8.63 1.63 12.58.67-.89-1.25-2.91-.9-4.23-1.36a6.43 6.43 0 0 1-3.07-2.21c-1.88-2.55-1.55-6.27-.58-9.1 1.74 2.51 5.24 2.8 6.9 5.45a6.11 6.11 0 0 1 .81 2.1 11.3 11.3 0 0 0 .23 1.95c.53 1.37 3.11 1.68 4.34 1.93 3.94.81 8.12.49 12.12.84 2 .18 4.07.52 6.1.83a9.49 9.49 0 0 1 2.61.49c.61.3 1 .9 1.74 1-.14.38.92.9 1.4 1-.13.18.38.36.71.34-.17.28.54.35.64.29a7.13 7.13 0 0 0 5.06 1.07 7.49 7.49 0 0 1 4.45 1.07 7.33 7.33 0 0 0-1.18-2.53c-.6-.63-1.35-1.15-1.9-1.86a6.5 6.5 0 0 1-2-4.86c.22-3.57 2.53-6.69 5.28-8.8.17 2.53 1.49 4.53 2.49 6.77a6.65 6.65 0 0 1-.68 6.74 2.49 2.49 0 0 0-.3 2.86 15.29 15.29 0 0 0 2 2.89 17 17 0 0 0 5.21 4.11c.08-1.11-.77-1.68-1.39-2.45a7.48 7.48 0 0 1-1.45-2.95 8.22 8.22 0 0 1 1.04-5.9 12.11 12.11 0 0 1 2.18-2.86c1-.88.8.12 1 1 .5 2.15 2.25 3.71 2.53 6a5.79 5.79 0 0 1-.5 3.15c-.45 1-1.42 1.77-1.34 2.91.15 1.87 2 3.73 3.53 4.64 1 .58 3.21 1.84 4.16.67a4.18 4.18 0 0 0 .46-2.56c0-.46-.75-3.18-.5-3.46.43-.48.87 1.17.94 1.3.48 1 1.13 1.82 1.63 2.77a36.26 36.26 0 0 1 2.8 6.72 30.73 30.73 0 0 1 1 14.44c-1 5.19-2.4 10.32-2 15.66.39 4.76 2.67 8.23 6.13 11.39a114.52 114.52 0 0 1 11.53 11.78c1.56 1.9 2.91 4.19 5 5.49a10 10 0 0 0 6.43 1.16c-.55-.42-1.35-.24-2-.3a9.66 9.66 0 0 1-2.31-.46 9.24 9.24 0 0 1-3.79-2.45c-1.15-1.21-2-2.69-3.09-4-1.41-1.74-2.85-3.46-4.38-5.11-2.76-3-6.08-5.37-8.85-8.33a15.74 15.74 0 0 1-4.09-10c-.27-4.5.78-8.88 1.68-13.25a30.53 30.53 0 0 0 .2-12.23A35.13 35.13 0 0 0 95 78.78c-.53-.87-1.16-1.64-1.75-2.46a13 13 0 0 1-1.23-2.51c-.43-1-1-2-1.32-3.09a12.74 12.74 0 0 1-.19-3.38 15.47 15.47 0 0 0-1.56-6 12.18 12.18 0 0 0-1.2-2.36c-.19-.25-.49-.46-.67-.68a9.93 9.93 0 0 1-.62-1c-.22-.33-.48-.4-.78-.62s-.51-.48-.87-.78a4.78 4.78 0 0 0-.7-.37q-.36.03-.36-.31a.56.56 0 0 0-.57 0c-.29-.23-.35-.46-.71-.67a2.21 2.21 0 0 0-.68 0 3.39 3.39 0 0 0-.85-.48 5.65 5.65 0 0 0-3.19-.15 12 12 0 0 1 3.57.51c.63.18 1.21.47 1.91.71.25.09.67.58.87.67s.78.3.89.37.4.57.54.72a11.24 11.24 0 0 0 1 .94.31.31 0 0 1 .24.39c.31 0 .4.13.28.44.18.27.49.48.65.73a17.75 17.75 0 0 1 1.27 3 16.33 16.33 0 0 1 1.22 6.5c-.7-.24-1-1.43-1.37-2-.59-1-1.21-1.9-1.87-2.81a38.26 38.26 0 0 0-4.2-4.84 40.48 40.48 0 0 0-10.36-7.33c-9.55-4.76-20-6.8-30.54-4.7a48 48 0 0 0-13.76 4.83 32.57 32.57 0 0 0-6.06 4.29c-.47.43-1.67 2.17-2.23 2.15s-.44-2.52-.4-3.1a12.55 12.55 0 0 1 .64-3.7c.44-1.1 1.63-1.77 2.55-2.45a39.45 39.45 0 0 1 5.83-3.55 46.28 46.28 0 0 1 14.23-4.21 57.08 57.08 0 0 1 29.95 4 62.1 62.1 0 0 1 12.61 7.08c1.77 1.29 3.14 3.09 5.14 4 .78.34 1.1.63 1.28-.38a14.36 14.36 0 0 0-.26-4.18 72.69 72.69 0 0 0-4-15 25.46 25.46 0 0 0-6.12-10.08 23.21 23.21 0 0 0-10-5.46 50.32 50.32 0 0 0-7.5-1.63c-.45-.05-1.87.09-2.11-.41s.85-2 1.07-2.36c.4-.76.72-1.75 1.6-2.05s2.46.26 3.42.47c2.67.6 5.3 1.3 7.9 2.14s5 1.69 7.52 2.66c2.21.88 4.33 1.51 6.7.83s4.29-2.36 6.22-3.72c1.15-.81 1.51-.85 2.65 0 .43.32 2.62 1.46 2.67 2s-1.71 1.32-2.11 1.58a27.44 27.44 0 0 0-2.91 2.24 14.06 14.06 0 0 0-3.96 5.35 9.52 9.52 0 0 0 0 6.87c.6-1.21 1.66-2.63 1.65-4a9 9 0 0 1 .36-3.69c.9-2.28 3-3.43 5.25-4.05a18.68 18.68 0 0 0 2.23-.57c.34-.14.86-.66 1.25-.52.86.32.24 2.9.17 3.57-.24 2.33-1 4.56-3.07 5.91a9.79 9.79 0 0 1-3.11 1.19 2.6 2.6 0 0 0-2 2.34 9.36 9.36 0 0 0 1.79 8.33c1.13 1.5 3.46 6.09 5.85 5.53s4.14-4.43 4.24-6.64c.08-1.55-1.11-1.73-2.13-2.58a5.59 5.59 0 0 1-2-3.15c-.67-3.34 1.85-6.31 1.09-9.74 3.11 2.33 6.66 5.05 6.45 9.36a8.64 8.64 0 0 1-.68 2.84c-.09.23-1 2.25 0 1.78.34-.16.8-1.53 1-1.85a24.58 24.58 0 0 0 1.36-2.93c1.49-4 1.22-8-1.74-11.13a62 62 0 0 0-10.09-8.17 104.51 104.51 0 0 0-11.75-6.53c-1.1-.57-.57-.87.28-1.46a18.69 18.69 0 0 1 2.73-1.62c1.94-.94 4.07.9 5.75 1.89 4 2.36 7.82 5.22 11.66 7.89 3.24 2.24 6.29 4.83 10.47 4a9 9 0 0 0 4.47-2.16c1.71-1.58 1.35-2.75 0-4.42a24.48 24.48 0 0 0-2.14-2.21c-.38-.36-2.35-1.67-2.35-2.19 0-.69 4.58-1.43 5.2-1.08a11.39 11.39 0 0 1 2.15 2.19c.77.83 1.48 1.71 2.18 2.61a5.22 5.22 0 0 0 4.27 2.24 27.51 27.51 0 0 0 6.61-1.09 38.75 38.75 0 0 1 6.61-1c8.1-.43 15.93 3.52 21.27 9.5a31.38 31.38 0 0 1 3.24 4.36c.32.51 1.39 1.79 1.4 2.36 0 .92-1.35.28-1.85.2-1.78-.29-2.93-.11-4.24-1.59s-2.27-2.95-3.64-4.26a21.47 21.47 0 0 0-9.44-5.27c-4.26-1.11-8.88-.65-13.18.06-7.86 1.3-15.69 4.23-19.93 11.38a31.53 31.53 0 0 0-2.71 5.76 17.88 17.88 0 0 1 3.35-1c.67-.13 1.93-.05 2.44-.55s.51-1.59.75-2.2a7.07 7.07 0 0 1 1.16-2c2.34-2.83 6.44-3 9.79-3.54-2.37 3.03-2.08 7.9-6.08 9.45-1.72.67-3.54.35-5.33.55a10.16 10.16 0 0 0-4.94 1.86 9.29 9.29 0 0 0-3.41 4.88 27.85 27.85 0 0 1-2.38 6.29c-.47.86-.56 1.66-1.72 1.36s-1.31-1-1.62-1.94c-.76-2.3 0-4.83.14-7.15a9.68 9.68 0 0 0 .16 8.38c.62 1 1.14 1.52 2.24.76a5.53 5.53 0 0 0 1.09-1c.36-.44.43-1 .94-1.38a11.23 11.23 0 0 1-.41 3 9.58 9.58 0 0 1-.18 1.45c-.17.38-.73.65-1 .95-.49.54-.71 1.33-1.16 1.8s-1.25.49-1.35 1.12a11.48 11.48 0 0 1-1.09-.37 7.89 7.89 0 0 0-.37-.89c-.31 0-.41-.2-.29-.47l-.07-.26a7.23 7.23 0 0 1-.6-1.56 59.64 59.64 0 0 1-1.3-6.8c-.4 1.82.11 3.65.46 5.43a11.36 11.36 0 0 0 .8 2.56l.35.78c0 .16.14.24.33.25a.59.59 0 0 0 .07.52c.31.37.84 1 1.31 1.08a4.57 4.57 0 0 0 1-.31c.2-.1.42-.45.55-.59.35-.39.74-.71 1.14-1.14.55-.61.61-1.43 1.15-2 .36.68-.58 2.58.39 2.79.81.17 1.88-1.38 2.27-1.92a9.91 9.91 0 0 0 1.83-3.33c.27-1.21-.29-2.17-.56-3.31-1.11-4.69 3.22-8 7.07-9.52-1 1.93-.44 3.62-.35 5.65a7.11 7.11 0 0 1-1.36 4.68 24.57 24.57 0 0 1-1.8 1.74c-.55.59-.73 1.31.18 1a17.44 17.44 0 0 0 2.62-1.73c1-.6 1.94-1.18 2.93-1.73a57.55 57.55 0 0 1 26.05-7.19 59.87 59.87 0 0 1 13.76 1c1.64.31 4 .26 4 2.32 0 1.05.16 4.45-1.28 4.49a12.27 12.27 0 0 1-2.9-.9c-1.12-.3-2.25-.55-3.38-.76a50 50 0 0 0-6.91-.76 43.41 43.41 0 0 0-12.94 1.42 54.85 54.85 0 0 0-13.73 6c-2.07 1.24-3.79 2.83-6.24 3.18-.68.1-5.89 1-5.39 1.77a1.06 1.06 0 0 0-1.12.74.36.36 0 0 0-.35.36c-.33-.19-1.06.93-1 1.4-.3 0-1 1.2-1.23 1.67a8.63 8.63 0 0 0-.71 2.63c-.22 1.65-.6 3.78.59 5.15.25.67-.25 1.8-.48 2.64-.33 1.17-.6 2.36-.83 3.56-.47 2.35-.06 4.67-.51 7-.88 4.69-3.94 8.59-4.8 13.28a21.84 21.84 0 0 0 1.49 13.1c.84 1.8 2.22 4.66 4.09 5.61 1.67.85 2-1.43 1.91-2.56-.44.25-.24 1.52-.66 1.94-.81.82-1.53-.08-2-.7a20.43 20.43 0 0 1-3.34-5.7 21.85 21.85 0 0 1-.48-13.38 49 49 0 0 1 2.83-6.68 20.05 20.05 0 0 0 1.25-3.34 11.54 11.54 0 0 0 .35-1.75c.06-.45-.09-1.34.2-1.68s1.76-.28 2.35-.43a6.14 6.14 0 0 0 2.42-1.21c1.1-.88 3-3 2.91-4.48-.05-1-1.35-2-1.77-2.93a5.19 5.19 0 0 1-.24-3.39c.63-2.53 3-4.18 2.8-7 1.87 2.44 4.18 4.77 4.35 8a5.73 5.73 0 0 1-1.09 3.71c-.68 1-2.5 1.8-2.35 3.13a10.81 10.81 0 0 0 4.31-3.65 8.69 8.69 0 0 0 1.34-2.27c.23-.87-.53-1.59-.9-2.35a7.46 7.46 0 0 1-.16-6.41c.93-2 2.63-3.59 3.22-5.71.11-.39 0-2.14.55-2.07s1.29 1.91 1.47 2.3a14.39 14.39 0 0 1 2.35 5.47 9.37 9.37 0 0 1-.74 5.35 7.23 7.23 0 0 1-1.37 1.92c-.62.62-1.74 1.11-2.2 1.85-.73 1.21.75.48 1.25.23a17.45 17.45 0 0 1 3-1.35 10.88 10.88 0 0 1 3.51-.06 9.13 9.13 0 0 0 3.92-.78c.15.13 1-.07 1-.29.3 0 .84-.16.7-.35.31 0 .8-.19.71-.34.32-.07.43-.26.34-.36a1 1 0 0 0 1.05-.69c.39 0 .38-.33.35-.36.35 0 .41-.28.38-.35 1.89-1.38 5.12-1.21 7.37-1.39 2.77-.22 5.56-.13 8.32-.37a23.94 23.94 0 0 0 4.2-.71c.87-.22 2.21-.41 2.84-1.1s.45-1.72.66-2.52a6.41 6.41 0 0 1 1.26-2.48c1.42-1.71 3.46-2 5.27-3.15.74-.45 1.32-1.72 1.9-.88a6 6 0 0 1 .23 2.09 13 13 0 0 1 0 2.07 7.88 7.88 0 0 1-2.84 5.52 5.46 5.46 0 0 1-2.32 1c-1 .19-2.32-.16-3 .81 3.2.51 6.95 1.75 10.18 1a7.49 7.49 0 0 0 5.62-5.57c.22-.93 0-2.3 1.16-1.63a9.57 9.57 0 0 1 2.77 2.42c1.28 1.72.76 3.79.19 5.68-.89 3-2 5.67-.87 8.75.45 1.28 1.71 2.45 1.92 3.76.13.78-.46 3.25-1.37 2.94-.53-.19-1.24-1.38-1.62-1.78s-1-1-1.48-1.43a35.38 35.38 0 0 0-12.3-7.25 36.33 36.33 0 0 0-9.86-1.79 43.48 43.48 0 0 0-5.59.12c-.86.07-4.91 0-5.16.93a29.77 29.77 0 0 1 6 4.35c1.71 1.47 3.27 3.44 5.56 2.06a8.86 8.86 0 0 1 6.86-1.12c2.41.65 4.33 2.19 7 2.18-2 3-5.18 5.63-8.93 5.59a8.54 8.54 0 0 1-4.82-1.58c-1.66-1.17-2.73-2.9-4.62-3.8-.47.81 1.43 2.75 1.76 3.54a6 6 0 0 1 .36 3.84c-.72 2.91-3.36 4.83-5.41 6.8.49-4-4-7.44-.82-11.2.46-.56 1.46-1.07 1.74-1.73s-.12-1.34-.43-2a8.91 8.91 0 0 0-3.58-3.79 13.78 13.78 0 0 0-5.37-1.69c-2.42-.23-4.6.68-6.78 1.59a8.21 8.21 0 0 1-3.37 1c-1.3 0-2.56-.51-3.85-.65a10.19 10.19 0 0 0-3.35.15 19.12 19.12 0 0 0-2.45 1.06 5.1 5.1 0 0 0-1 .53l-.15.33-.41.08a4.88 4.88 0 0 0-.66.38c-.39.32-.68.78-1 1.11s-.43.73-.7 1.23c-.46.84-1.27 1.13-1.05 2.24a2.69 2.69 0 0 0 .56 1.19s.63.39.52.22-.33-.25-.48-.43a.94.94 0 0 1-.32-.91 6.58 6.58 0 0 1 .75-2.33c.2-.27.63-.36.83-.69a1.51 1.51 0 0 0 .21-.72l.39-.11a6.3 6.3 0 0 0 .91-.65 4.09 4.09 0 0 0 .45-.64.77.77 0 0 0 .5-.08 7.4 7.4 0 0 1 3.84-1.54 18.86 18.86 0 0 1 6.38.69q-2.33 1.23-4.67 2.44a26.87 26.87 0 0 0 3.59.13 7.29 7.29 0 0 0 3.22-.53 9.21 9.21 0 0 1 5.46-.45 8.18 8.18 0 0 1 4.14 2.56 12.83 12.83 0 0 1 1.77 2.62c.35.64 1.57 2.34 1.56 3.06 0 .89-1.31.25-2 .22-1 0-2.05.08-3.07 0a12.52 12.52 0 0 1-5.27-1.29 10.89 10.89 0 0 1-2.32-1.6 21.41 21.41 0 0 0-2-2.13c-1.47-1-4.51-.06-6 .49 1.25.67 2.36 1.6 3.64 2.2s2.44.65 3.47 1.42c2 1.5 2.59 4.42 2.29 6.77a11.29 11.29 0 0 1-.53 2.21c-.12.38-.48 1.92-.8 2-.55.23-.56-.34-.88-.81a6.26 6.26 0 0 0-1.57-1.51c-2.06-1.54-3.84-3-4.07-5.78-.08-1 .48-2.38-.4-3.14-1-.91-3.1-1.24-4.43-1.33a5.59 5.59 0 0 0-4.15 1.17c-1.17.93-1.89 2.25-3 3.18a2.37 2.37 0 0 1-1.26.56c-1.07.13-.91-.74-1-1.62a11.07 11.07 0 0 1 1-5 11.31 11.31 0 0 1 1.29-2.55c.24-.34.47-.86.73-1.22.37-.52 1.06-.91 1.43-1.54a7.4 7.4 0 0 1 .31-.76c.19-.19.79-.28 1-.49s.38-.56.61-.73a5.55 5.55 0 0 1 .88-.43l.12-.11c0-.3.2-.4.47-.29a5 5 0 0 1 .94-.41 15.59 15.59 0 0 1 2.48-.72 10.15 10.15 0 0 1 2.86 0c.42 0 .88 0 1.29.08s.71.26 1.18.36c.24.06.53-.09.76 0 .42.08.88.49 1.32.62a11.9 11.9 0 0 0 2.85.3c-.78-.16-1.53-.45-2.3-.65a7.78 7.78 0 0 0-1.17-.22 2.57 2.57 0 0 0-.48 0 .37.37 0 0 1-.48-.26c-.59-.15-1.11-.12-1.69-.27a10.42 10.42 0 0 0-2.46-.49 10.78 10.78 0 0 0-4.51 1.2c-.26.1-.5.11-.76.22l-.14.29a.76.76 0 0 0-.51.09c-.13.11-.45.57-.52.62-.26.17-.64.15-.92.35-.48.32-.76.89-1.18 1.27a7.47 7.47 0 0 0-1.29 1.47 19.65 19.65 0 0 0-1.81 2.59 16.57 16.57 0 0 0-1.54 3.92c-.26 1.26-.63 3.38.43 4.36zm-17.89-38.45c-.07-.31-.3-.26-.46-.47a11.26 11.26 0 0 1 .89.74c.13.19.06 1.27.66 1.06-.13.53.49 1.42.71 1.85.08.15.26.16.31.28s-.06.32 0 .44.41.44.36.26c0 .18-.1.42 0 .6a5.57 5.57 0 0 1 .51 1.49c.11.59.27 1.18.43 1.75a30.45 30.45 0 0 1 1 4 13.51 13.51 0 0 1-.79 7.09c-.92 2.24-2.48 4.14-3.48 6.34-1.11 2.46-.34 4.49-.36 7 0 2.9-2.62-1.46-2.93-2.32-.91-2.56-1.4-5.24-2.42-7.77a48.91 48.91 0 0 1-2.43-7.45c-.22-1-.61-1.84-.86-2.79-.06-.22-.26-.55-.36-.82l-.26-.09v-.35a5.37 5.37 0 0 0-.25-.74 4.06 4.06 0 0 0-.43-.46 4 4 0 0 0-.35-.56c-.08-.17.06-.36-.08-.52s-.53-.36-.64-.51 0-.46-.13-.66-.38-.25-.54-.41-.45-.77-.78-.62c0-.15.16-.3-.12-.28.23.31.44.53.66.82.1.13.16 0 .28.22s.16.43.25.6.33.3.45.47.06.33.16.46c.33.45.54.52.72 1 .24.7.68 1.36 1 2.07l.22.39v.42c.07.26.27.34.36.61a8.69 8.69 0 0 1 .21 1.34 43.54 43.54 0 0 0 2.34 7.75c1 2.58 1.54 5.27 2.44 7.86.29.86 2.71 5.69 4 3.23.38-.73-.19-2-.3-2.77a10.16 10.16 0 0 1 .1-3.73c.56-2.4 2.11-4.11 3.23-6.22a14 14 0 0 0 1.68-6.5 20.22 20.22 0 0 0-1.51-7.68c-.12-.27-.31-.52-.42-.8s-.12-.58-.22-.82c-.2-.44-.27-.72-.44-1.17 0 .11-.36-.5-.27-.38 0 0-.09-.3-.12-.38.21.53-.42-.5-.25-.3-.18-.21.18-.46-.4-.44.13-.37-.31-1.25-.71-1 .07-.36-.16-1.12-.66-1.13zm-9.72 1.64c-.09.1-.11.09-.07 0 0 .12.57.8.78.72-.21.64.37.87.67 1.26s.39.66.68 1.1c.14.2.3.32.45.57s.19.53.32.78A5.24 5.24 0 0 0 97 58.52c.54.52.85 1.11 1.38 0 .4-.84-.31-2.86-.55-3.68-.86-2.9-2.38-5.59-3.5-8.39a42.55 42.55 0 0 1-1.48-4.24c-.12-.42-.18-.88-.34-1.28 0-.14-.29-.24-.32-.36a10 10 0 0 1 0-2.38c-.61 2.38.58 5.59 1.41 7.81 1 2.69 2.45 5.21 3.4 7.91a14.84 14.84 0 0 1 .85 4.06c0 .15.12 1 0 1.06-.32.28-.37-.22-.45-.28-.4-.33-.46-.72-.73-1.25a9.39 9.39 0 0 0-1-1.35 7.55 7.55 0 0 0-.88-1.24 4.35 4.35 0 0 1-.37-.39c-.1-.14-.08-.37-.22-.54-.29-.49-.77-.85-1.13-1.36zm-6 85.79c-.33 0-.52.52-.7.7s-.69.21-1 .51c-.07.06-.27.41-.31.43s-.36.06-.48.15-.59.4-.58.49c.37-.38 1.24-.52 1.73-.83.21-.13 1-.93 1-1.14.36.1 1.44-1.25 1.74-1.69.64-.95.86-2.13 1.41-3.11.07-.12.21-.72.35-.79a1.83 1.83 0 0 1 1.5.31c1 .69 1.22 2.35 1.5 3.42a42.42 42.42 0 0 1 1.45 9 29 29 0 0 1-.16 4.75 16 16 0 0 0-.3 4.19c1.69-5.13 1.13-11.37-.15-16.54-.41-1.65-1-6.06-3.42-5.31-.95.3-1.2 1-1.55 1.84a21.32 21.32 0 0 1-1 2.08c-.24.4-1 1.28-1 1.54zm20.29 3.15c.05-.28-1.11-1.09-1.49-1.14a3.21 3.21 0 0 0-1.92.73c-.46.43-.42 1.4-.36 2 0 .37.65 2 .63 2 .16-.21-.2-1.51-.24-1.85a3.09 3.09 0 0 1 .39-2.06c.87-1.15 2.83.05 3.41.8a12.46 12.46 0 0 0 .93 1.39c.43.46.84.66 1.12 1.16a3.88 3.88 0 0 0 .43.77 9.18 9.18 0 0 1 .62.79 6 6 0 0 1 .37.51.35.35 0 0 1 .34.39 1.38 1.38 0 0 0 .2.59c.27.54.63 1 .9 1.5s.61 1.24.93 1.83c.6 1.11 1.27 2 1.83 3 .29 0 .4.11.33.34a.5.5 0 0 0 .12.48c.11.21.44.22.58.38a8.72 8.72 0 0 0 1 1.37 7 7 0 0 0 3.33 1.88 12.67 12.67 0 0 1-2.73-1.87c-.37-.34-.88-.68-1.21-1s-.22-.6-.5-1a1.36 1.36 0 0 0-.56-.38 1 1 0 0 0-.15-.65l-.21-.25c-.29-.06-.39-.22-.29-.48-.56-.85-.94-1.92-1.53-2.85a12.84 12.84 0 0 1-.67-1.27 9.25 9.25 0 0 0-.7-1.3c-.51-.69-1-1.3-1.42-2a6.75 6.75 0 0 0-1-1c-.33-.34-.33-.61-.61-1.09s-.78-.61-1.16-1c-.19-.2-.28-.72-.71-.72zM93.38 58.27c-.26.11 0-.13 0-.1.27.37.85 1 1 1.31s.72 1.91 1.41 1.89a.73.73 0 0 0 0 .56.29.29 0 0 0 .35.18l.07.51c.28.78.36 1.67.61 2.47a30 30 0 0 0 1.74 4.54 7.69 7.69 0 0 0 1.29 1.93c.46.43.4.48.83 0s.32-1.26.4-2a23.88 23.88 0 0 1 .54-2.62 20.84 20.84 0 0 0 .42-9.8c-.21-.9-2.94-9.12-3.89-8.59.2-.59-.09-.57-.28-.9s-.34-.81-.55-1.22-.68-1.76-1-1.75a.45.45 0 0 1 .23.52.35.35 0 0 0 .37.39 1.71 1.71 0 0 0 0 .45.34.34 0 0 0 .37.26c.15.29.17.75.3 1s.45.75.65 1.18a57.17 57.17 0 0 1 2.82 6.72 19.4 19.4 0 0 1 1 7.74c-.32 3-1.53 5.56-1.29 8.61-1.19-.61-1.88-2.66-2.45-3.8-.72-1.43-.83-3.09-1.5-4.56a18.92 18.92 0 0 0-1.6-2.63c-.47-.82-1.23-1.52-1.84-2.29zm-32.5 23.17a.15.15 0 0 0-.24.08 2 2 0 0 0 .45-.19 4.63 4.63 0 0 1 1.19-.49 16.57 16.57 0 0 0 3.08-1 3.14 3.14 0 0 0-2.51-.17c-.5.19-2.21 1.29-1.97 1.77zm73.76 76.92c-.26 0-.4.12-.32.38-.51-.15-1.38.53-1.83.74a13 13 0 0 1-2.07.73c.31.33.31 0 .53-.06a4.83 4.83 0 0 0 .67-.12 11.12 11.12 0 0 0 1.24-.68c.74-.33 1.54-.45 2.07-1.22 2-3-3.49-2.88-4.91-3.34.38.31.73.25 1.17.33a9.85 9.85 0 0 0 1.93.38 2.18 2.18 0 0 1 1.39.36 3.56 3.56 0 0 1 .54 2.21c-.3-.14-.39.03-.41.29zm-49.33.33c-.25 0-.37.1-.34.36a1.18 1.18 0 0 0-.59.12 7.1 7.1 0 0 0-.87.6 4.48 4.48 0 0 0 2.07-1.16 8.61 8.61 0 0 0 1.89-2.6 9.91 9.91 0 0 0 .76-4.62c-.07-1.22-.18-3-1-3.84-.62-.61-1-1.39-2.17-.82-.59.29-.84.86-1.29 1.16s-1 .61-1.4 1a8.82 8.82 0 0 1-3.34 1.27 20.48 20.48 0 0 1-5.39.68 11.81 11.81 0 0 0 7.67-1.19 18.57 18.57 0 0 0 2.05-1.09c.21-.16.28-.4.45-.55a4.58 4.58 0 0 1 .54-.35 4.1 4.1 0 0 1 1.32-.7c2.07-.38 2.22 4.19 2.14 5.68a9.11 9.11 0 0 1-1 3.78c-.23.44-.48 1-.74 1.43-.19.2-.77.55-.76.84zm30.44-56.33c-.17.23-.14.6-.27.77s-.44.24-.59.42c-.33.36-.32.81-.5 1.23a8.58 8.58 0 0 1-.43 1 11.36 11.36 0 0 1-1 1.47c-1.88.7-1.89-6.15-1.9-7a23.51 23.51 0 0 1 1.63-8.57c1-2.55 2.61-5.46 1.83-8.26-.12 3.18-1.49 5.78-2.53 8.71a25 25 0 0 0-1.45 9 20.86 20.86 0 0 0 .47 4.24 3.78 3.78 0 0 0 .74 1.72c.51.57.6.37 1.18.06 1-.51 1-1 1.46-1.9.3-.57.56-1.22.85-1.82 0-.06.55-1.25.53-1.25s.06.21-.02.18zm-3.47-43.31c-.43.14-.16.34-.31.57s-.31.34-.45.55a4.32 4.32 0 0 0-.56 1.59 34.7 34.7 0 0 0-.64 5c-.19 3.36-.11 6.56-1.17 9.8-1 3-2.4 5.91-3.41 8.94a46.3 46.3 0 0 0-2 9.67 77.94 77.94 0 0 0-.63 10.23c.08 2.94.34 6 2 8.56 1.44 2.29 3.81 3.54 5.48 5.6 1.88 2.32 2.63 5.13 3.23 8 .71 3.39 1.23 6.83 2.86 9.93a12.54 12.54 0 0 0 2.75 3.7 8.12 8.12 0 0 0 3.62 1.54c-.46-.05-.23-.23-.57-.38s-.46 0-.67-.1a6.51 6.51 0 0 1-1.48-1 11.93 11.93 0 0 1-2.71-3.13 24.46 24.46 0 0 1-2.83-8.83c-.85-5.25-2.62-10.13-7.06-13.38-5-3.67-4-11.59-3.69-17a59 59 0 0 1 1.44-10.08 75.93 75.93 0 0 1 3.25-9 29.55 29.55 0 0 0 2.2-10.52 43 43 0 0 1 .19-5.32 23 23 0 0 1 .45-2.61 19 19 0 0 0 .73-2.26q.03-.23-.06-.07zm9.11 89.81c0 .29 1.54.74 1.57.61.06-.33-.19-.08-.29-.15a2.57 2.57 0 0 0-.48 0c-.18 0-.26 0-.24-.26a10.85 10.85 0 0 1-1.27-.51l-.72-.33-.56-.36c-.15-.12-.44-.42-.67-.62a.69.69 0 0 0-.53-.06l-.06-.28c-.25-.19-.41-.41-.68-.62a.72.72 0 0 0-.47-.14c-.21.05-.29-.05-.25-.29a17.6 17.6 0 0 1-2.1-2.05c-.68-.7-1.39-1.38-2.12-2a8.16 8.16 0 0 1-1.33-1.79 4.12 4.12 0 0 0-.67-.65 3.64 3.64 0 0 1-.75-1 11.91 11.91 0 0 0-1.46-2.21c-.56-.66-1.24-1.29-1.82-1.89a3.07 3.07 0 0 0-1.74-.95 1.16 1.16 0 0 0-.78 0 1 1 0 0 0-.42.59h-.33a2.81 2.81 0 0 0-.38.67.33.33 0 0 0-.35.27.46.46 0 0 0 0 .44 3.34 3.34 0 0 0-.69 2.17 14.1 14.1 0 0 0 .19 3.31c0-1.53-.28-3.56.33-5 .36-.84.91-2.07 2-2a4.53 4.53 0 0 1 1.94.66 6 6 0 0 1 1.37 1.8 18 18 0 0 0 1.49 1.87 14.18 14.18 0 0 1 1.38 1.93 11.14 11.14 0 0 0 1.25 1.14c.39.45.74 1.13 1.17 1.64a21.57 21.57 0 0 0 3 2.84.3.3 0 0 0 .31.09c.2-.06.28 0 .23.29a5.27 5.27 0 0 0 .55.51 4.6 4.6 0 0 1 1.22.76 7 7 0 0 0 1.23.88.49.49 0 0 0 .44 0l.1.27a.71.71 0 0 0 .62.05c.04.51.39.36.73.37zm-29.43-21.67c0 .23.64 1.15.81 1.47.34.61.91 1.13 1.22 1.74.62 1.21 1.07 2.49 1.57 3.76a28.25 28.25 0 0 1 1.89 9.16c.1 3.14-.48 6.24-.19 9.38a10.16 10.16 0 0 0 1.21 3.69 7 7 0 0 0 .28.85c.13.2.45.21.56.38.38.52.37.87 1.06 1.24-.22-.29-.37-.63-.61-.91a.82.82 0 0 0-.48-.3v-.35a4.63 4.63 0 0 1-.9-1.88 16.14 16.14 0 0 1-.81-6.28c.24-4.29.44-8.16-.62-12.38a34.16 34.16 0 0 0-2-5.3 13.45 13.45 0 0 0-2.68-4.2c-.42-.39-.76-.74-1.36-.61-.94.2-.85 1.28-1.08 2a18.77 18.77 0 0 1-.9 2.51c-.29.59-1.1 1.09-1.54 1.78a2.2 2.2 0 0 0 1.07-.9v-.34c.14.07.23.05.28-.06s.25-.25.42-.48c.93-1.2 1.07-2.91 1.4-4.35zm16.16-5.32c-.37-.85-1.3-1.26-1.89-2a20.09 20.09 0 0 1-2.42-2.87c-.62-1-1.07-2.17-1.64-3.25-.44-.82-1-1.34-1.44-.09-.7 2.1.36 4.83 1.3 6.68a20.71 20.71 0 0 0 4.15 5.47 13.81 13.81 0 0 1 3.87 5.15c.2.57.31 1.44.89 1.77a1.17 1.17 0 0 0 1.62-.69c.62-1.43-.31-3.86-.86-5.16a12.82 12.82 0 0 0-1.5-2.65c-.39-.48-1.45-2.22-2.08-2.36zM78.67 79.28c.21.59 1 .71 1.39 1a19.35 19.35 0 0 1 1.69 1.86c.57.59 1.23 1.11 1.78 1.71a4.37 4.37 0 0 1 1 1.45c.61 1.29 1.51 2.31 2 3.67.33.86 1.52 4.64.15 4.79.86.58 1-1.74 1-2.08a13 13 0 0 0-.93-3.47 10.36 10.36 0 0 0-1.88-3c-.8-.88-1.3-1.66-2.08-2.64a22.23 22.23 0 0 0-4.54-3.69 3.12 3.12 0 0 0-1.2-.58c-.59-.16-1.06-.36-1.66-.58a7.07 7.07 0 0 0-4 0 27.3 27.3 0 0 1 4.24.41c1.12.13 1.95.86 3.04 1.15zm7 64.7c.93.16 1.53-1.39 2.43-1.61 1.72-.42 1.93 1.55 2.23 2.81a17.74 17.74 0 0 1-.31 9.48c.83-.51 1-2.31 1.11-3.17a15.84 15.84 0 0 0 .13-3.3c-.11-1.78-.3-4.43-1.72-5.59-1.8-1.49-2.62.09-3.84 1.4s-4.22 1.85-5.91 2a8.4 8.4 0 0 0 3.56-.33c.4-.2 2.4-1.2 2.28-1.69zM42.31 87.64c0 .14 0 .33.2.18-.92-.54-1.61-2.1-2.23-3-.3-.42-1.1-2-1.25-.73-.2 1.7 1.95 3.14 3.28 3.55zm57.06-60.39a4.33 4.33 0 0 0-2.69 1.53c-.57.67-1.58 2.06-1 2.94l2.18-2.71c.24-.29 1.6-1.57 1.63-1.94-.15-.19-.19-.13-.12.18zm31.08 5.19a53.17 53.17 0 0 1-5.29 3 4.56 4.56 0 0 0 4-1.16 5.73 5.73 0 0 0 1.24-1.9c0-.08.21-.08.25-.28s-.42 0-.2.34zm29.3 55.89a4.69 4.69 0 0 0 1.16-3.29c0-.46-.16-2.52-.86-2.38-.41.09-.3 5.48-.3 5.67zm-11.87-6.24c.07.3.31.31.42.08-.68-.07-1-.7-1.6-1.07a6.21 6.21 0 0 0-2-.87 5.25 5.25 0 0 0-3.87.41 57.89 57.89 0 0 1 7.07 1.45zm-114 4.29c-1.65 1.27-2.84 3-4.59 4.18 2.27-.6 4.21-1.55 4.63-4.18zm97-22.59c-.56 2.08-1.62 4.52-1.46 6.7 1.77-1.93 1.98-4.26 1.51-6.7zm-96.79.67c-2.15-1.52-4.31-2.59-5.67-4.61 1.09 3.1 2.72 4.47 5.72 4.61zM136.75 86.4c1.06 1.82 2.89 3 4 4.81-.58-2.29-1.54-4.21-4-4.81zm-86.52-3.21c.76-1.82 2.14-3.3 3-5.4-2.65 1.13-2.81 3.28-3 5.4zm56.52-48.63a22.86 22.86 0 0 1 .41 3.52c0 .36.07 2.62.78 2.19s.33-2.42.21-2.91a8.66 8.66 0 0 0-1.4-2.8zm-24.4 34.47a6.18 6.18 0 0 0-.48 3.39c.09.54.48 2.19 1.16 2.22s.09-1.61 0-2c-.23-1.21-.55-2.39-.68-3.61zm-10.16-6.82a5.22 5.22 0 0 0 1.44 6.13c-.51-2.16-1.58-4.03-1.44-6.13zm103.22-2.65c-1.16 1.58-2.87 2.65-4 4.28 2.48-.42 3.34-2.28 4-4.28zm-56.45-9.82c1.32-1.25 1.23-4 1.89-5.66a6 6 0 0 0-1.89 5.62zm45.79 31.49c1.81 2.16 4.18 1.66 6.51 1.34-2.25.05-4.33-.84-6.51-1.34zm-43-6.14a4.48 4.48 0 0 0 .29-5.37c.08 1.84-.66 3.48-.29 5.37zm2.41 74.65a.28.28 0 0 0 .25.06.2.2 0 0 0-.27-.06zm-21.82-7.76c-.09-.36-.1.18-.07.27z"/><path d="M177.3 169.12c4.28-4 7.91-8.9 8.4-14.92a36.09 36.09 0 0 0-.07-4.65c0-.9-.11-1.8-.18-2.69a7.92 7.92 0 0 1-.12-2.61 4.34 4.34 0 0 1 2.11-1.87c1.56-.67 1.23 1.94 1.34 2.93.4 3.57.76 7.28 0 10.83a27.77 27.77 0 0 1-4 9.12 58.11 58.11 0 0 1-13.37 14.22 47.53 47.53 0 0 1-9.77 6.05 34.57 34.57 0 0 1-5.5 1.95c-1.91.5-4.33 1.22-6.31.85a14.94 14.94 0 0 1 1.73-3.05c.62-.66 1.95-.8 2.79-1.08a12.94 12.94 0 0 0 5-2.75c3.1-3 3.21-8.14 4.22-12.12s2.7-8 6-10.73a16.59 16.59 0 0 1 6-2.81 50.77 50.77 0 0 0 6.81-2.65c.46-.23 2.19-1.53 2.65-1.39s.47 1.48.46 2c0 1.34-.75 1.94-1.89 2.51a53.83 53.83 0 0 1-6.42 2.59c-2 .67-3.93 1.1-5.5 2.53-3.21 2.93-4.45 8.08-5.31 12.17a29.29 29.29 0 0 0-.57 3.35c-.07.77-.24 1.36.62 1.25 1.63-.21 3.55-2.28 4.51-3.48 3.15-4 3.75-8.75 4.33-13.56.14-1.23 1.06-1.42 2.18-1.73 1.7-.48 1.05 1.11.94 2.32-.27 2.47-.63 4.94-1.08 7.42zM16.38 153.77c.16.73 1.17.8 1.71 1.13a3.79 3.79 0 0 1 1.3 1.34c.84 1.42 1.19 3.18 1.91 4.67a23.45 23.45 0 0 0 6.23 8 83.88 83.88 0 0 1-1-12.06c-.07-2-.16-3.89-.1-5.84a10.35 10.35 0 0 1 .09-2.79c.3-.84.55-.53 1.36-.17a2.6 2.6 0 0 1 1.87 2.29 58.77 58.77 0 0 1-.1 5.93 48.06 48.06 0 0 0 1 11.67 16 16 0 0 0 4.54 7.88c.68.64 2.73 2.66 3.8 2.34s.07-3.55-.09-4.32a33.32 33.32 0 0 0-3.62-10.11 9.14 9.14 0 0 0-2.72-3.08c-.49-.32-1.48-.51-1.88-.91s-.39-1.61-.44-2.2c-.06-.84-.13-1.32.78-1.26 1.36.09 3 1.29 4 2.12 2.58 2.13 4.21 5.25 5.43 8.3 2.29 5.7 2.77 13.08 8.52 16.55a13.18 13.18 0 0 0 8.08 1.73c1.25-.13 2.68-.85 3.91-.76 1 .06 1.48 1.28 1.76 2.11.75 2.26-6.09 2.3-7.38 2.23a32.87 32.87 0 0 1-10.59-2.38c-7.14-2.86-13.49-8-18.81-13.52a39.44 39.44 0 0 1-7.06-9.57 35.54 35.54 0 0 1-2.13-5.44c-.26-.77-1.46-3.72-.37-3.88zM150.37 48.56c3.63 1.61 8.54-.65 10.7 3.67.38.76.48 1.81 1.28 2.26 1 .55 2.78.18 3.77-.07a5.92 5.92 0 0 0 4.22-4.25 18.7 18.7 0 0 0 .66-7.73 30.13 30.13 0 0 0-.69-4c-.25-1-.6-1.82.73-1.6s3.21.72 4 1.92c.95 1.46.82 3.78.82 5.44 0 8.22-5.69 18.43-14.93 18.64a12.23 12.23 0 0 1-7-2.16c-.72-.46-1.65-1.41-2.52-1.56s-1.75.9-2.46 1.37a8.63 8.63 0 0 1-6.44 1.17c-1.28-.24-2.52-.61-3.81-.76a7.91 7.91 0 0 1-1.84-.08c-.62-.3-.46-.35-.08-1 2.36-4.28 7.15-7.67 12.08-5.3 2.52 1.21 4.36 3.21 7.21 3.75a11.31 11.31 0 0 0 7.68-1.32 7 7 0 0 0-2.4-.39c-.8.07-1.51.46-2.29.59a5.52 5.52 0 0 1-4-1 9.88 9.88 0 0 1-3-3.45c-.7-1.25-.98-3.09-1.69-4.14zm-6.62 8a13.53 13.53 0 0 1 6.22.42 4.06 4.06 0 0 0-3.34-1.52 4.63 4.63 0 0 0-1.68.39 8.11 8.11 0 0 0-1.58.86c.13.12.26.07.38-.15zm11.32-3.58a9.57 9.57 0 0 0 2.44 1.89c.47.24 2.37 1.09 2.74.33.28-.57-1.3-.82-1.77-1zm48.05 31.46a24.66 24.66 0 0 1-.34 4.29c-.1.63-.11 3.06-1.06 2.54a6 6 0 0 1-1.79-2.78c-.21-1.29.22-2.8.17-4.12a19 19 0 0 0-.66-4.31c-.21-.77-.39-2.12-1.23-2.48-2-.88-3.19 4.23-3.63 5.37a86.26 86.26 0 0 1-3.3 8.12c-.3.6-.81 2.24-1.58 2.1-.5-.1-1.63-1.65-1.76-2.16a3 3 0 0 1 .54-2c.69-1.36 1.39-2.71 2-4.09a58.44 58.44 0 0 0 3.16-8 15.56 15.56 0 0 0-1.73-13.07c-2.72-4.24-7.06-7.37-11.45-9.71-1.08-.58-2.18-1.11-3.29-1.61-.74-.33-1.48-.43-1.5-1.3a18.7 18.7 0 0 1 .79-3.18c.11-.65-.08-1.88.69-1.89s2.37 1.29 3.1 1.74q1.78 1.13 3.51 2.34a57.09 57.09 0 0 1 6.16 4.93c7.83 7.25 13.15 18.52 13.2 29.27zM53.51 47.82c-1.41 3-2.49 6.68-5.64 8.38a5.47 5.47 0 0 1-4.39.38 19.57 19.57 0 0 0-4.82-.71c2.38 2.1 7.23 3.56 10.32 2.36 1.58-.61 2.06-2.08 3.18-3.2a8.27 8.27 0 0 1 4.17-2.14 10.53 10.53 0 0 1 9.25 3c.52.48 3 2.88 2.7 3.54-.26.5-1.58.18-2.06.24a6.53 6.53 0 0 0-2.58 1.07 10.64 10.64 0 0 1-5.61 1.53c-2 0-3.74-.81-5.7-1.14s-3.43.9-5.15 1.32a11.82 11.82 0 0 1-5.82 0 15.63 15.63 0 0 1-8.88-6.75 22 22 0 0 1-1.21-2c-.51-1-.41-1.15.51-1.69a9.06 9.06 0 0 1 2.29-1.27c.93-.15.76.33 1.17.91a7.4 7.4 0 0 0 5.58 2.34c.9-.12 1-.66 1.3-1.46a6.49 6.49 0 0 1 1.37-2.13c2.76-2.7 6.89-.6 10.02-2.58zm-5.67 4.88c-.19 0-.28.06-.28.22s-.17.3-.48.21a11.51 11.51 0 0 1-1.31.36 13.79 13.79 0 0 0-2.73 1.33 4.81 4.81 0 0 0 3.4-.65c.4-.28 1.49-1.39 1.4-1.47zm11.3 4.46c-2.49-1.23-5.63-1.64-7.45.88a27.08 27.08 0 0 1 3.42-.95 19.4 19.4 0 0 1 4.03.07zm26.39-52.9a30.63 30.63 0 0 0-2.85 2c-.83.65-1.62 1.79-2.73 1.84s-2.28-.24-3.42-.22a18 18 0 0 0-3.66.41 16.84 16.84 0 0 0-10.63 7.27c-1.73 2.77-3.67 7.84-1.8 10.94s6.42 2.3 8.6 5.33a9.48 9.48 0 0 1 1.56 5.12 33.89 33.89 0 0 0 0 3.49c.11.83 1.33 2.42.11 2.39a13.14 13.14 0 0 1-3.48-1.14 9.94 9.94 0 0 1-2.71-1.44 7.6 7.6 0 0 1-2.7-4.4 19.52 19.52 0 0 1-.29-3.15c-.09-1.43-.82-1.8-1.81-2.71a11.38 11.38 0 0 1-3.19-4.85c-1.24-3.86-.08-8.3 1.89-11.72 2.44-4.22 6.52-6.78 11.05-8.3 4.96-1.71 10.94-2.32 16.06-.86zM67.35 36.77a8.72 8.72 0 0 0-1-3.22c-.25-.46-1.36-2.33-2-2.09-.98.3 2.58 4.76 3 5.31z"/><path d="M148.22 28.2c2.1 1.67 4.56 1.18 7 1a10 10 0 0 1 6.35 1.36c1 .62 1.71 1.29 2.93 1.29s2.46-.32 3.71-.32a17 17 0 0 1 6.81 1.47 26.93 26.93 0 0 1 10.78 9 31.41 31.41 0 0 1 3.38 6c.47 1.11.89 2.26 1.26 3.42.31 1 1 2.56.67 3.55-.88-.77-1.77-1.53-2.68-2.27a14 14 0 0 1-2.61-2.08 12.83 12.83 0 0 1-.89-2.41 21.91 21.91 0 0 0-1.14-2.4 19.93 19.93 0 0 0-6.7-7.28c-2.89-1.87-7.29-3.84-10.8-3.24-2 .34-3.54 2.05-5.51 2.6a9.72 9.72 0 0 1-5.82-.17 10.62 10.62 0 0 1-6.74-9.52zm8.11 5.61c-.14 0-.13-.31-.3-.08.55.07 1 .57 1.52.81a5.55 5.55 0 0 0 1.92.53 5.17 5.17 0 0 0 3.59-1 47.22 47.22 0 0 1-6.73-.26zM1.75 85.9c.12-8 2.47-15.37 6.19-22.46a52.71 52.71 0 0 1 3-5c.23-.35 1.05-2 1.49-2.06.76-.17.43.92.42 1.42a30.86 30.86 0 0 0 .09 3.33c.09 1 .4 1.66-.06 2.51-.86 1.58-2 2.82-2.58 4.6a10.86 10.86 0 0 0-.37 5.19 13.54 13.54 0 0 0 .82 2.92c.36.89 1.28 1.94 1.27 2.92 0 .71-1.24 2.7-2 2.61S8.39 79 7.97 78.31c-1.2-2-2.21 1.08-2.45 2.19a22 22 0 0 0-.4 5.89c.25 4.08 1.8 7.47 3.9 10.91.81 1.31 1.47 2.19.52 3.58-.32.47-.84 1.51-1.48 1.29s-1.6-2.54-2-3.15c-2.31-3.95-4.65-8.4-4.31-13.12zm140.53-71.91c-1.05.36-2.33-1.42-3-2a19.39 19.39 0 0 0-3.86-2.32 20.29 20.29 0 0 0-9-1.78 30.88 30.88 0 0 0-10.26 2.46 32.91 32.91 0 0 0-4.09 2c-.73.42-1.45.87-2.14 1.35s-1.26 1.17-2 1.29-1.32-.56-1.86-1-1.31-.77-1.86-1.26c-.72-.65-.5-.79.2-1.37a24.87 24.87 0 0 1 2.28-1.64 46.24 46.24 0 0 1 9-4.55 29.36 29.36 0 0 1 18.21-.38 26.08 26.08 0 0 1 8.85 4.82 19.38 19.38 0 0 1 1.83 1.68c.27.29 1.46 1.35 1.46 1.8.04.85-3.07.82-3.76.9zM28.75 43a32.84 32.84 0 0 1 6.81-17.06 31.66 31.66 0 0 1 13.47-10.16 27.31 27.31 0 0 1 4.72-1.3 9 9 0 0 1 2.54-.41c.68.15.65.13.35.9a17.77 17.77 0 0 0-.84 2.2c-.14.59 0 1.45-.56 1.89a2.93 2.93 0 0 1-1.57.36 16.87 16.87 0 0 0-2.82.52c-5.63 1.66-10.27 6-13.23 10.93a25.85 25.85 0 0 0-2.32 4.9c-.62 1.81-.74 3.64-1.18 5.48-.4 1.65-1.76 1.66-3.15 2.22s-2.22 1.35-2.22-.47zm88-39.22c0 .5-3.54 1.48-4.12 1.72-1.69.71-3.57-.46-5.29-.85a23.23 23.23 0 0 0-10-.09c-6.42 1.34-12 5.4-16.32 10.22-.69.78-1.6 2.51-2.69 2.76-.61.13-2.8-.6-3.15-1.26s.5-1.46.89-1.95q1.59-2 3.36-3.81C84.07 5.76 89.75 1.89 96.36.56a28.84 28.84 0 0 1 10.48-.12 34.91 34.91 0 0 1 5.22 1.29c.69.21 4.69 1.3 4.69 2.05zM86.03 50.56c-4-2.85-9.17-5.39-9.32-11 0-1.14.09-2.1-.67-3.06s-1.72-1.63-2.44-2.59a11.37 11.37 0 0 1-2.28-6.18c-.06-1-.2-5.14 1.32-5.09a6.73 6.73 0 0 1 2.57 1.11c.68.58.37 1.29.27 2.12a10.56 10.56 0 0 0 1.13 6.72 5.82 5.82 0 0 0 2.1 2.3c1.06.55 2.37.56 3.47 1.09a7.66 7.66 0 0 1 4.4 5.58c.54 3-.83 6.17-.55 9zm-2.11-8a.64.64 0 0 0 0 .23 5.53 5.53 0 0 0-.27-1.23 6.42 6.42 0 0 0-1-2 4.43 4.43 0 0 0-3.28-2zM72.17 198.62c1.36-.3 2.75-.38 4.1-.72a2.78 2.78 0 0 1 2.06-.11c.7.29 1.33.77 2 1.06a13.12 13.12 0 0 0 8.1.4c2.82-.69 5.2-2.25 7.88-3.27a16.82 16.82 0 0 1 8.48-1 17.24 17.24 0 0 1 3.93 1.09c.57.23 3.32 1.16 3.26 1.9 0 .47-1.64 1.58-2 1.76-1.29.6-2.43-.31-3.57-.81-6-2.59-11 2.08-16.44 3.57a18.75 18.75 0 0 1-9.41.05 25.43 25.43 0 0 1-4.62-1.65c-1.19-.54-2.96-1.17-3.77-2.27zm37.05-4.64a9 9 0 0 1-4-1.26c-.44-.27-1.63-.93-1.84-1.44s.53-1.25 1-1.73c.56-.66.63-1 1.38-.66.48.22.89.77 1.38 1a3.34 3.34 0 0 0 3.7 0c2.61-2 .53-5.41-1-7.31a22 22 0 0 0-2.87-3 13 13 0 0 0-3.84-2.66c-1.37-.45-2.56.67-3.56 1.47a13.22 13.22 0 0 1-1.44 1.27c-.76.42-.87 0-1.37-.68-.37-.51-1.13-1.24-.89-1.93s1.76-1.55 2.3-2a10.66 10.66 0 0 1 3.75-2.08c1.42-.29 2.69.69 3.83 1.41a26.47 26.47 0 0 1 6.32 5.57c1.86 2.28 4 5.26 3.59 8.35a6.59 6.59 0 0 1-6.44 5.68zM136.2 42.74c-2.28-3.68-3.21-9.13.7-12 2-1.45 4.36-1.92 6.22-3.58a6 6 0 0 0 2.14-5.11c-.06-.62-.57-1.59 0-2a7.93 7.93 0 0 1 3.36-.16c1.48.5.61 4 .23 5.07a9.41 9.41 0 0 1-3.45 4.45 4.94 4.94 0 0 0-1.91 1.8c-.42 1-.11 2-.2 3.06a6.79 6.79 0 0 1-3.07 5c-.78.54-1.7.89-2.45 1.47a7.23 7.23 0 0 0-1.57 2zm5.17-12.78a6.55 6.55 0 0 0-3.72 6.15c1-2.14 2.49-3.85 3.72-6.15zm-22.71 173.5a11.25 11.25 0 0 1-3.79-.37c-1.41-.42 0-1 .69-1.64s1.34-1.71 2.49-1.8 2.43 0 3.66-.15c4.63-.76 8.54-3.8 11.7-7.11.79-.83 1.54-1.71 2.25-2.62s1.19-2.18 2-2.79c.62-.47 3.13 0 3.37.81.15.53-.58 1.42-.82 1.82a35.86 35.86 0 0 1-2 3 29.66 29.66 0 0 1-4.46 4.95 22.44 22.44 0 0 1-15.09 5.9z"/><path d="M102.59 205.93a20.52 20.52 0 0 1-8.08-1.82c-.36-.15-2.62-.94-2.5-1.44s2.23-1.09 2.7-1.19c2.51-.49 5.07 1 7.6 1.11a13.33 13.33 0 0 0 7-1.76 21.54 21.54 0 0 0 5.76-5 21.8 21.8 0 0 0 1.93-2.74q.47-.76.87-1.59a8 8 0 0 1 .69-1.66c.73-.64.89.71 1.23 1.27.71 1.16 1.13 1.8.52 3.18a20.63 20.63 0 0 1-3.9 5.46 20.18 20.18 0 0 1-13.82 6.18zM56.55 27.49a11.31 11.31 0 0 1-1.76 7 6.88 6.88 0 0 1-5.41 3.17 8.26 8.26 0 0 1-3.32-.15c-1.32-.38-2.39-1.22-3.77-1.48a13.16 13.16 0 0 0-3.49-.08c-.62 0-2 .5-2.33-.06s1.1-3 1.39-3.51c.39-.64.58-.69 1.32-.55 2.24.41 3.71 1.53 5.49-.38a6.62 6.62 0 0 1 5.59-2.18c2.33.02 4.64.2 6.29-1.78zm-5.12 5.69c-1.13.23-2.25.57-3.39.75-1 .16-2.3-.12-3.16.34a4.41 4.41 0 0 0 3.77.51c.43-.13 3.15-1.66 2.82-1.88zm20.41 148.67a14.36 14.36 0 0 1 11.72 5 59.83 59.83 0 0 1 4.64 6.42 29.63 29.63 0 0 0 2.19 2.92c.87 1 1.53 1.39.06 2s-2.19.89-3.23-.39c-1.55-1.92-2.71-4-4.08-6.09-2.55-3.81-6.11-6.67-10.88-6.7-1.23 0-2.43.39-3.64.42-.88 0-1-.39-1.38-1.18s-.78-1.5 0-2c1.19-.69 3.29-.4 4.6-.4z"/><path d="M68.91 175.56a11.76 11.76 0 0 1-2.88 1c-.56.16-1.13.28-1.36.86a4.45 4.45 0 0 0 .24 2.16 26.16 26.16 0 0 0 .88 3.11 24.17 24.17 0 0 0 2.71 5.43 23.85 23.85 0 0 0 1.8 2.34 30.49 30.49 0 0 1 2.34 2.35c.49.72-.1.66-.84.72a7.19 7.19 0 0 1-2.65-.25c-1.93-.6-3-2.19-4-3.83a38.13 38.13 0 0 1-5.26-12.61c-.36-1.89-.93-4.4 1.73-4s4.92 1.63 7.29 2.72zm26.94 18.18a6.05 6.05 0 0 1-6.38-7 9.09 9.09 0 0 1 .91-3.13c.29-.59 1.16-2.65 2-2.42.25.07.85 1 1 1.19a2.1 2.1 0 0 1 .67 1.2c.09 1.05-1 1.85-1.28 2.82-.55 2 .6 4.13 2.8 4s4.44-2.3 6-3.81c1.79-1.7 3.08-3.76 4.75-5.55.81-.88 1.4-.14 2 .7a1.25 1.25 0 0 1 0 1.72 32.84 32.84 0 0 1-5.43 6.45c-1.86 1.84-4.21 3.89-7.04 3.83z"/><path d="M71.28 197.77a17.26 17.26 0 0 1-10.93-4.38c-.61-.53-4-3.22-3-4a6.49 6.49 0 0 1 2.06-.34A3 3 0 0 1 62 190.2a13.25 13.25 0 0 0 11 3.87 11.74 11.74 0 0 0 5.82-2.29c.53-.41 1.43-1.63 2.11-1.52s1.48 1.41 1.69 2c.64 1.77-2.34 3-3.53 3.6a17.79 17.79 0 0 1-7.81 1.91zm74.15-22.64a23.56 23.56 0 0 1-1.46 6.46c-.34 1-.38 1.63-1.5 1.33-.66-.17-1.91-.27-2.35-.85s.22-1.5.42-2.22a3.82 3.82 0 0 0 0-2.27 2.13 2.13 0 0 0-1.53-1 33.07 33.07 0 0 1-3.23-1.08 31 31 0 0 1-5.51-3c-.68-.46-3.34-1.91-3.19-2.92.07-.47 1.18-1.37 1.49-1.61.88-.67 1.19-.16 1.9.52a15 15 0 0 0 5.2 3.24 19.65 19.65 0 0 0 7.38 1c2.06-.07 2.38.37 2.38 2.4zm52.87-81.51c-.46-1.54-2.15-3.09-3.19-4.29-.56-.65-1.58-1.26-1.57-2.19a4.92 4.92 0 0 1 .84-2.15c.73-1 1.4 0 2 .73 1.45 1.56 2.88 3.15 4.17 4.85 4.8 6.33 5.83 15.25 1.84 22.3-.41-.78-.85-1.55-1.25-2.33a2.26 2.26 0 0 1-.11-2.26 16.33 16.33 0 0 0 .88-5.67 15.5 15.5 0 0 0-1.19-5.5c-.4-1.08-1.42-3.21-2.42-3.49zM5.28 117.11c-.06-.88-1.14-1.73-1.62-2.43a23 23 0 0 1-1.76-3 19.18 19.18 0 0 1-1.77-6 20.41 20.41 0 0 1 .25-6.19c.36-1.89.85-4.69 2.2-6.11.72 1.48 1.8 2.83 1.28 4.47a17.72 17.72 0 0 0-.9 5.4 15.08 15.08 0 0 0 3.45 9.45c1 1.34 2.1 2.66 3.21 3.94.51.58 1.5 1.31 1.7 2.07s-.32 1.3-.57 1.9c-.16.4-.24 1.34-.78 1.35s-1.25-1.25-1.5-1.52c-.49-.59-2.66-3.5-3.19-3.33zm5.15 14.99c1 1.54 2.85 2.58 4.27 3.69.9.7 1.93 1.28 1.94 2.52a5.14 5.14 0 0 1-.39 2.18c-.53.59-1.25-.27-1.75-.64l-2.77-2c-.59-.43-1.58-1.52-2.35-1.57.17-.35-2.94-3-3.43-3.65a18.46 18.46 0 0 1-2.76-5.11c-1.51-4.16-2.07-8.81-.61-13.06.9.53 1.73 2.61 2.65 2.62a16.21 16.21 0 0 0 .39 8.71 14.07 14.07 0 0 0 2 3.7c.39.52 2.28 2.98 2.81 2.61zm6.02 21.73a23.39 23.39 0 0 1-8.1-10.41 22.09 22.09 0 0 1-1.34-6.57c0-.63-.37-2.06.65-1.78.66.18.92 1.31 1.78 1.26a7.78 7.78 0 0 1 .52 1 10.8 10.8 0 0 1 .34 1.94 17.65 17.65 0 0 0 1 3.79 14.68 14.68 0 0 0 1.76 3.2c.61.83 1.59 2.33 2.66 2.63 0 .07.2.38.29.3a.61.61 0 0 0 .78.39c-.11.32.58.71 1 .71-.14.2.39.37.71.34.25.92 3.62 2 4.62 2.5a10.74 10.74 0 0 1 2.24 1c.6.55.5 1.74.48 2.48s.07 1.39-.85 1.13a21.79 21.79 0 0 1-3.07-1.31c-.77-.35-5.17-2.87-5.47-2.6zm173.46-1.02a22 22 0 0 1-.33-2.91 3.82 3.82 0 0 1 1.39-2.52 14.72 14.72 0 0 0 3.06-5.54c1.53-5-.17-9.61-1.65-14.36a2.34 2.34 0 0 1 .18-2.37c.26-.35 1.2-1.45 1.71-1.46 1.07 0 1.68 3.51 1.93 4.31 1.33 4.21 2.2 8.51 1.19 12.89-1.12 4.83-4 8.59-7.48 11.96zm13.24-32.5a22.07 22.07 0 0 1-3.77 11.81c-.38.55-.83 1.63-1.37.77a6.43 6.43 0 0 1-.46-2.51 6.58 6.58 0 0 1 1-2.84 17.06 17.06 0 0 0 1.31-3.51c1.19-4.93-.76-9.13-3-13.41a27.27 27.27 0 0 1-1.67-3.1 2.57 2.57 0 0 1 .7-2.62c.28-.38.57-1 1.09-.79s1.21 1.78 1.5 2.3c2.51 4.44 4.62 8.68 4.67 13.9zm-71.19 61.39a31.93 31.93 0 0 1 8.46 1.29c1.19.32 2.37.69 3.55 1.08s2.41.35 1.62 1.69c-.41.71-.92 2-1.86 2.11s-2.4-.91-3.31-1.21a25.64 25.64 0 0 0-7.64-1.49 11.24 11.24 0 0 0-6.39 1.56c-.53.35-1.8 2-2.39 1.78-.43-.16-.95-1.69-1.09-2.08-.54-1.53.51-2.22 1.71-3a12.8 12.8 0 0 1 7.34-1.73zm55.18-85.23c-.08-.77-.94-1.43-1.37-2a20.47 20.47 0 0 1-1.76-2.82 20.9 20.9 0 0 1-2-6 23.74 23.74 0 0 1-.21-6.3c.06-.63-.07-1.31.61-1.19a5.73 5.73 0 0 1 2 1.38 2.79 2.79 0 0 1 1 2.71 14.07 14.07 0 0 0 .48 6.12 18.89 18.89 0 0 0 3.66 5.46c.76.91 1.51 1.81 2.25 2.74.62.76 1.88 1.87 2.08 2.84a3.29 3.29 0 0 1-1.24 2.49c-.57.43-.78.21-1.23-.28-1.34-1.42-2.66-4.64-4.27-5.15z"/><path d="M118.57 182.38a10.53 10.53 0 0 1 .31-4.19c.44-1 1.13-.45 2-.32 1.43.22 1.36.84 1.13 2.17a14.86 14.86 0 0 0-.23 3.71 10.4 10.4 0 0 0 7 9.23c.54.18 2.36.24 2.25 1-.06.45-1.58 1.4-1.88 1.61-1.93 1.34-3.68.58-5.43-.72-3.78-2.82-5.41-7.93-5.15-12.49zM10.8 106.24c.88-.39 1.06-2.16 1.9-2.35s2.08 2.34 2.55 2.94a58.46 58.46 0 0 1 5.4 7.34 21.09 21.09 0 0 1 2.44 7.53c.12.94.76 6.79-.78 6.51.12-.19-1.4-1.35-1.65-1.82a5.46 5.46 0 0 1-.41-2.59 14.36 14.36 0 0 0-1.36-6.55 29.43 29.43 0 0 0-4.28-5.78c-.8-1-1.58-1.93-2.32-2.93-.54-.67-1.13-1.83-1.49-2.3zm164.07 38.85a24.37 24.37 0 0 1 3-11 23.05 23.05 0 0 1 1.62-2.41c.31-.4 1.19-1.86 1.72-1.94s.55.61.7 1.07c.37 1.13.58 1.86-.13 2.88-2.31 3.35-3.88 6.54-3.67 10.74.12 2.43.45 4.84.51 7.28.05 1.9-.12 2.63-2 3.1-1.48.36-1.36-.51-1.38-1.8a57.6 57.6 0 0 0-.37-7.92zm13.18-36.15c-.05 1.05.89 2.11 1.38 3s1.11 2.08 1.64 3.14a13.1 13.1 0 0 1 1.41 2.95 1.66 1.66 0 0 1-.08 1c-.21.42-.9.66-.81 1.21-.23-.14-.66.25-.69.7-.17-.1-.37.17-.29.28-.93-.22-1.38-2.22-1.73-3-.6-1.28-1.25-2.55-1.89-3.82a26.08 26.08 0 0 1-2.81-7.52 21.82 21.82 0 0 1 .1-7.77c.14-.72.36-3.25 1-3.67s1 .9 1.84 1c1 1.54-.35 4.45-.4 6.39.03 1.01.19 5.87 1.33 6.11zm-6.48 15.9a25.09 25.09 0 0 1 1.18-7.28 21.35 21.35 0 0 1 1.54-3.58c.42-.77.64-1.63 1.35-.83a3.46 3.46 0 0 1 1 2.81c-.32 1.13-1 2.18-1.38 3.31a15.51 15.51 0 0 0-.39 7.74c.54 2.65 1.49 5.27 2.17 7.89.22.83.64 1.82 0 2.55-.26.27-1.87 1.45-2.23 1.38-.64-.14-.62-1.34-.75-1.94-.28-1.33-.59-2.66-.93-4a40.19 40.19 0 0 1-1.56-8.05z"/><path d="M22.31 128.21c.18.78 1.19 1.36 1.71 1.91a21.82 21.82 0 0 1 1.87 2.3 22.27 22.27 0 0 1 2.67 5.14 16.25 16.25 0 0 1 1.37 5.71c0 1.1-.64.56-1.41.18s-1.36-.61-1.74-1.44c-.75-1.6-.83-3.48-1.61-5.12a15 15 0 0 0-3.19-4.34c-1.63-1.53-3.55-2.76-5.26-4.18a26 26 0 0 1-2.4-2c-.74-.79-.54-1.42-.16-2.38.71-1.77 1.23-1.22 2.5-.1.72.55 5.25 4.76 5.65 4.32zm-1.33-24.85a17 17 0 0 1-.4 4.21c-.11.54-.46 3.18-1.07 3.33-.44.1-1.4-1.36-1.58-1.69a4.3 4.3 0 0 1-.1-3.23 14.24 14.24 0 0 0-.32-7.44c-.82-2.59-2.44-4.85-3.63-7.28-.45-.93-1.47-2.3-1.5-3.35a3.46 3.46 0 0 1 1.65-2.22c1.32-.69 2 2.34 2.45 3.2a73.14 73.14 0 0 1 3.27 6.86 21.63 21.63 0 0 1 1.23 7.61zm65.43 79.53c0 .79.28 4.92-.79 5.1-.55.09-1.17-1.17-1.46-1.51a3.33 3.33 0 0 1-1.15-2.55c0-4.13-.4-8-2.53-11.64-.32-.54-1.46-1.66-1.3-2.28s1.39-1.36 1.82-1.62c1.32-.79 1.84 1 2.39 2a26.83 26.83 0 0 1 3.02 12.5zm.88-6.46c-.86.11-1.06-.21-1.3-1-.19-.56-.81-1.85-.44-2.35.23-.31 1.73-.49 2.12-.62a20.3 20.3 0 0 0 2.46-1 29.65 29.65 0 0 0 4.88-3.11c.73-.57 1.45-1.15 2.13-1.77.43-.4 1.52-1.87 2.11-2 .83-.13 2.41 1.59 2.15 2.51-.17.6-1.08 1.21-1.49 1.59-.7.63-1.42 1.25-2.14 1.85-3.02 2.56-6.54 5.16-10.48 5.9z"/><path d="M10.49 132.16c-.4-1.53-2.4-1.63-2-3.49a46.47 46.47 0 0 1 2.06-6.11c.71-1.93 1.5-3.84 2.37-5.7.37-.79 1.51-4.16 2.47-3.68a6 6 0 0 1 1.36 1.51 2 2 0 0 1 0 2.14c-.86 2-1.83 3.85-2.6 5.85s-1.45 4-2.07 6.06c-.33 1.09-.5 3.15-1.59 3.42zm5.26 16.76c.38-3.88.83-7.76 1.58-11.59.2-1 .42-2 .66-3a13.59 13.59 0 0 1 .71-2.79c.23-.45.14-.51.61-.47a5 5 0 0 1 1.43 1c1.08.95.8 2.15.48 3.41a56.92 56.92 0 0 0-1.15 5.64c-.29 1.9-.49 3.81-.65 5.72-.06.76.28 3.91-.92 3.79.1-.18-.38-.39-.71-.34.1-.3-.62-.65-1-.71.13-.19-.38-.39-.71-.34.03-.17-.21-.42-.33-.32zm175.84-28.68c1-.06 2.31-2.06 2.91-2.75 1.1-1.24 2.13-2.54 3.22-3.8.5.86 1.39 2 1.37 3s-1 1.9-1.65 2.61a88.57 88.57 0 0 1-7.77 7.73c-.48.41-2.71 2.76-3.33 2.46-.47-.23-.88-2.29-.79-2.84.17-1 1.39-1.75 2.1-2.35a12.85 12.85 0 0 0 2.9-3c.39 0 .4-.28.35-.35.49-.02.85-.48.69-.71zm-12.84 24.23c-.61-1.88 2.37-2.73 3.57-3.42 1.89-1.08 3.72-2.26 5.51-3.5.93-.65 1.84-1.32 2.74-2 .65-.49 1.72-1.79 2.48-1.92 1-.18 1.38 2.05 1.15 2.92-.33 1.23-2.07 2.15-3 2.82q-2.72 1.95-5.58 3.69a39.44 39.44 0 0 1-5.87 3.2c-1.26.5-1-.76-1-1.79zm-167.9-38.29c-1.19.72-3.1 6.31-4 6.07-.54-.14-1.48-1.69-1.65-2.25a2.38 2.38 0 0 1 .3-1.87 67.67 67.67 0 0 1 9.35-13.69 7.28 7.28 0 0 1 1.7 2.87c.05.86-1.35 2.07-1.82 2.71s-4.35 5.87-3.88 6.16zm187.39-12.62c.11 1.46 2.1 2.22 1.55 3.77a27.32 27.32 0 0 1-2.92 5 90.16 90.16 0 0 1-6.76 9.37c-.89-.66-1.09-2.41-2-2.73a97.72 97.72 0 0 0 5.65-8c.85-1.34 1.66-2.72 2.43-4.11.39-.7.74-1.42 1.12-2.12a12.12 12.12 0 0 1 .93-1.18zm-64.12 81.87a25 25 0 0 1-10.89 2 32 32 0 0 1-5.89-1.08c-.51-.12-1.51-.13-1.7-.72-.13-.43.79-1.58 1-2 .55-1 .9-1.06 2-.78a28.43 28.43 0 0 0 5.47 1.13 14.16 14.16 0 0 0 3-.11 23.31 23.31 0 0 1 2.63-.63c.73 0 1.32.55 1.92.88.77.55 1.62.92 2.46 1.31zm-40.98-.67c.58.09.77 1 1 1.38.39.72.81 1.41 1.26 2.09a32 32 0 0 0 3.18 4c.55.6 1.13 1.17 1.71 1.73.38.36 1.31.95 1.31 1.53a2.42 2.42 0 0 1-2.48 1.78c-1.2-.38-2.49-2.08-3.34-3a30.21 30.21 0 0 1-3-3.63q-.69-1-1.29-2c-.24-.43-.93-1.32-.88-1.85.04-.94 1.79-1.57 2.53-2.03zM23.82 81.91a22.89 22.89 0 0 1-2.67 9.28 7.53 7.53 0 0 1-1.11 2c-.61.56-.6.18-1-.38a3.29 3.29 0 0 1-.2-3.89 12.05 12.05 0 0 0 1.44-4.56 9.12 9.12 0 0 0-.18-2.55c-.19-.83-.46-1.23-.05-2s2.15-3.21 2.86-2.79c.4.23.52 1.62.61 2a13.74 13.74 0 0 1 .3 2.89zm93.63-22.87a19.72 19.72 0 0 1 6-1.43c.1.85-2.19 2.28-2.76 2.86a29 29 0 0 0-2.87 3.38 29.32 29.32 0 0 0-2.35 3.77c-.37.7-1 3.21-1.92 3.27a12.3 12.3 0 0 0-.23-2.07 11.75 11.75 0 0 1 .06-2.65c.24-1.71 1.19-3.12 1.63-4.75.26 0 1.18-1.06 1-1.34.39 0 .4-.28.35-.36.52.04 1.12-.48 1.09-.68zm-42.3 95.81c.53.13-.72 2.23-.76 2.79-.08 1.23 1 2 1 3.07-.92-.1-1.73-.66-2.67-.65.15-.34-.58-.31-.64-.3 0-.28-.17-.39-.41-.41.09-.09-.19-.38-.29-.28a4.49 4.49 0 0 1-.35-2.53c.07.07.37.06.35-.34.1.08.73-.08.63-.29.34-.07 1.48-.07 1.4-.35.37 0 1.08-.14 1.06-.35a1.61 1.61 0 0 0 .68-.36zm66.49-84.69c-1.55.09-3.09.2-4.64.27-.34 0-1.13.19-.93-.39.12-.34 1.73-.72 2-.81 1-.38 7.56-2.92 8.09-1.81-.16-.08-.39.21-.32.29-.35.06-.38.32-.34.36a1.23 1.23 0 0 0-1.12.75c-.2-.1-.29.22-.27.3-.35 0-.69 0-.78.4a.51.51 0 0 0-.7.35c-.07-.18-1 .04-.99.29zm-80.09-1.68c.42-.51-.77-.6.43-.62a11.84 11.84 0 0 1 2.77.7 30.63 30.63 0 0 1 5.42 2c-1.85.82-4 .08-5.88-.36 0-.13-.34-.33-.72-.35.15-.18-.36-.41-.7-.34.11-.38-1.02-1.22-1.32-1.03zm46.43 53.53c0 .56 1.43 2 1.76 2.55a16.36 16.36 0 0 1 1.54 2.62c.28.66 1.54 5.28.18 5.18-.62 0-1-1.82-1.25-2.3a9.83 9.83 0 0 0-1.41-2.26c-1.26-1.54-2.87-2.76-4.15-4.3a16.94 16.94 0 0 1-3-5.21c-.19-.54-1.2-5.24 0-4.4.39.26.76 1.83 1 2.26a13.93 13.93 0 0 0 1.77 2.37 11.84 11.84 0 0 0 1.74 1.87 15.26 15.26 0 0 0 1.82 1.62z"/></svg>