<svg xmlns="http://www.w3.org/2000/svg" viewBox="0 0 203.6 50.7"><path d="M4.3 22c0 6.7 4.4 10.8 9.9 11.9C7.9 33 2 28.1 2 21.2 2 13.1 9 8.4 15.5 8.4c4.4 0 6.5 1.6 7.3 2.1v2.3c-.7-.6-3.2-3-7.3-3-4.8 0-11.2 4.3-11.2 12.2zm21.9 6.6l.9 1.7c-.9.7-4.3 3.7-9.9 3.7-6.5 0-12.5-4.3-12.5-12 0-6.7 4.7-10.9 9.6-11.8-3.2 1-6.5 4.4-6.5 10.2 0 7.2 4.7 12.1 10.1 12.1 4.4 0 7.3-2.9 8.3-3.9zm-.9-18.3H23c-1.6-1.1-2.8-1.5-4.2-1.8 3.9.4 6.1 1.5 6.5 1.8zm-1.1 18.1h1.9c-1.3 1.3-3 2.5-4.9 3.3 1.8-1.1 2.6-2.5 3-3.3zm1.3-17.8v2.3h-2.4v-2.3h2.4zm4.9 0l2.1-1.4v.6l-2.1 1.4v-.6zm0 22.6v-.6c2.2 0 3.7-.9 3.7-4.1V14.9c0-3.1-1.3-3.5-3.4-3.5l1.9-1.3h.4c2.1 0 3.5.7 3.5 3.9v18.4h8.8c3.7 0 5-2.9 5.4-4.1h.8l-1.5 5H30.4zm2.3-2.2h.6c-.5.9-1.5 1.3-2.6 1.4l2-1.4zm4.1 1V13.8c0-3.2-1.6-4-3.9-4h-.1v-.6h10v.6c-2.2 0-3.7.9-3.7 4.1v16.9L36.8 32zm8.6-1.2c2.9 0 3.9-2.2 4.3-3.3l.7.6c-.5 1.3-1.7 3.9-5.2 3.9h-8l2.4-1.3h5.8zm-4.8-19.4H40c.5-.9 1.5-1.3 2.6-1.4l-2 1.4zM50.5 28l-.7-.6h.9l.7.6h-.9zm1.6 4.6l1.1-.8v.5l-1.1.7v-.4zm8.5-.1l-1.2.8h-7.1l1.2-.8h7.1zm-7.1-.7c2.1 0 3.4-.9 4.7-4l1.4-3.8.6.8-1.3 3.6c-.9 2.5-.1 3.3 1.8 3.4v.6h-7.2v-.6zm12.6-21.5l4.7 13-2.7-.8L64 11.3l-6.1 16.4c-.8 2.2-1.6 3-2.7 3.5.6-.6 1-1.4 1.5-2.8l5.6-15.1c.8-2.1-.4-3-2.1-3.3v-.6l5.9.9zm6-.9v.6c-1.4.1-2.9 1.1-2.1 3.3L75 27c1.2 3.1 3 3.9 5.1 4l-2 1.2c-1.7 0-3.9-.7-5.1-3.9l-1.4-3.7H60.5l-.7-.8h11.6l-4.9-13.5 5.6-.9zM59.8 23.3L64 12l.4 1.3-3.4 9.2-1.2.8zm1.3-.6h6.7l2.6.8H59.9l1.2-.8zm5.1-12.6l-6-.9h11.9l-5.9.9zm5.1 14.7l1.3 3.6c1.2 3.2 3.2 4 5.4 4v.8h-9.7v-.8c2.2 0 3-1.3 2.1-3.5L69 24.8h2.3zm-.8 6.2c-.2.6-.8 1.1-1.8 1.2.6-.4 1.7-1.2 1.8-1.2zm9.7 1.1l-1.8 1.1v-.9l1.8-1.1v.9zm2.2-21.9v-.6l.6-.4v.6l-.6.4zm3.7 3.7c0-3.1-1.4-3.5-3.6-3.5l.6-.4h.3c2.2 0 3.6.8 3.6 3.9v14.7c0 3.2 1.4 4.1 3.9 4.1h.1v.6h-8.6v-.6c2.2 0 3.7-.9 3.7-4.1V13.9zM84 32.1c-.3.1-.7.2-1.1.3h-.2l.5-.3h.8zm5.5-22.9l15.6 17.5v3.9L88.1 11v17.6c0 3.1 1.4 3.5 3.6 3.5l-.6.4h-.3c-2.2 0-3.6-.8-3.6-3.9V13.8c0-3.2-1.4-4.1-3.9-4.1h-.1v-.5h6.3zm16.8 24H104L88.4 15.8v-3.9l17 19.5V13.9c0-3.2-1.4-4.1-3.7-4.1v-.6h8.6v.6h-.1c-2.5 0-3.9.9-3.9 4.1v19.3zm-14.4-1v.6l-.6.4v-.6l.6-.4zm10.6-21.9l-.5-.3h.2c.4 0 .8.1 1.1.3h-.8zm5 22l-.9.9V13.9c0-3.1 1.4-3.9 3.6-3.9h.3l.6.4c-2.1 0-3.6.4-3.6 3.5v18.4zm3.1-22.6v-.5l.6.4v.6l-.6-.5zm4.5.5v-.6l.6-.4v.6l-.6.4zm3.7 3.7c0-3.1-1.4-3.5-3.6-3.5l.6-.4h.3c2.2 0 3.6.8 3.6 3.9v14.7c0 3.2 1.4 4.1 3.9 4.1h.1v.6h-8.6v-.6c2.2 0 3.7-.9 3.7-4.1V13.9zm-2.1 18.2c-.3.1-.7.2-1.1.3h-.2l.5-.3h.8zm5.5-22.9l15.6 17.5v3.9l-17-19.5v17.6c0 3.1 1.4 3.5 3.6 3.5l-.6.4h-.3c-2.2 0-3.6-.8-3.6-3.9V13.8c0-3.2-1.4-4.1-3.9-4.1v-.5h6.2zm16.8 24h-2.3l-15.6-17.5v-3.9l17 19.5V13.9c0-3.2-1.4-4.1-3.7-4.1v-.6h8.6v.6h-.1c-2.5 0-3.9.9-3.9 4.1v19.3zm-14.5-1v.6l-.6.4v-.6l.6-.4zm10.7-21.9l-.5-.3h.2c.4 0 .8.1 1.1.3h-.8zm5 22l-.9.9V13.9c0-3.1 1.4-3.9 3.6-3.9h.3l.6.4c-2.1 0-3.6.4-3.6 3.5v18.4zm3.1-22.6v-.5l.6.4v.6l-.6-.5zm1.3 22.9l1.1-.8v.5l-1.1.7v-.4zm8.4-.1l-1.2.8h-7.1l1.2-.8h7.1zm-7-.7c2.1 0 3.4-.9 4.7-4l1.4-3.8.6.8-1.3 3.6c-.9 2.5-.1 3.3 1.8 3.4v.6H146v-.6zm12.5-21.5l4.7 13-2.7-.8-4.1-11.2-6.1 16.4c-.8 2.2-1.6 3-2.7 3.5.6-.6 1-1.4 1.5-2.8l5.6-15.1c.8-2.1-.4-3-2.1-3.3v-.6l5.9.9zm6-.9v.6c-1.4.1-2.9 1.1-2.1 3.3l5 13.7c1.2 3.1 3 3.9 5.1 4l-2 1.2c-1.7 0-3.9-.7-5.1-3.9l-1.4-3.7h-11.2l-.7-.8h11.6l-4.9-13.5 5.7-.9zm-12.2 13.9l4.2-11.2.4 1.3-3.4 9.2-1.2.7zm1.3-.6h6.7l2.6.8h-10.6l1.3-.8zm5-12.6l-6-.9h11.9l-5.9.9zm5.2 14.7l1.3 3.6c1.2 3.2 3.2 4 5.4 4v.8h-9.7v-.8c2.2 0 3-1.3 2.1-3.5l-1.5-4.1h2.4zm-.9 6.2c-.2.6-.8 1.1-1.8 1.2.6-.4 1.7-1.2 1.8-1.2zm9.7 1.1l-1.8 1.1v-.9l1.8-1.1v.9zm8.6-18.3c0-3.2-1.6-4-3.9-4h-.1v-.6h9.7c7.7 0 14.7 4.3 14.7 12.1 0 7.9-6.8 12-14.5 12h-12.3v-.6c2.2 0 3.7-.9 3.7-4.1V14.9c0-3.1-1.3-3.5-3.4-3.5l1.9-1.3h.3c2.1 0 3.5.7 3.5 3.9v18.6h5.9c6.6 0 12.2-4.1 12.2-11 0-7.1-6.8-10.9-14-10.9h-1.4v20.7l-2.4.8V13.8zm-6.4-3.2l2.1-1.4v.6l-2.1 1.4v-.6zm2.3 20.4h.6c-.5.9-1.5 1.3-2.6 1.4l2-1.4zm21.5-9.5c0 6.7-5.4 10.7-11.8 10.7h-4.9l2.1-.8h2.4c5.5 0 9.4-3.9 9.4-9.8 0-4.9-1.6-8.2-4.8-9.8 4.4 1.6 7.6 4.9 7.6 9.7z" fill="#49274a"/><path d="M25.3 43.1c0 2.2 1.1 3.5 2.6 3.8-1.6-.3-3.2-1.9-3.2-4.1 0-2.6 1.8-4.1 3.5-4.1 1.1 0 1.7.5 1.9.7v.7c-.2-.2-.8-1-1.9-1-1.3.1-2.9 1.5-2.9 4zm5.7 2.1l.2.6c-.2.2-1.1 1.2-2.6 1.2-1.7 0-3.3-1.4-3.3-3.8 0-2.2 1.2-3.5 2.5-3.8-.8.3-1.7 1.4-1.7 3.3 0 2.3 1.2 3.9 2.6 3.9 1.2-.2 2-1.1 2.3-1.4zm-.3-5.9h-.6c-.4-.3-.7-.5-1.1-.6 1 .2 1.6.5 1.7.6zm-.3 5.8h.5c-.3.4-.8.8-1.3 1 .5-.3.7-.7.8-1zm.4-5.7v.7h-.6v-.7h.6zm2.7 3.1c0 1.5.6 3.4 1.9 3.8-1.6-.2-2.6-1.9-2.6-3.8 0-2.1 1.2-3.8 2.9-3.8 2.2 0 3.7 1.8 3.7 4.1s-1.5 4.1-3.7 4.1-3.7-1.8-3.7-4.1c0-1.9 1.1-3.5 2.7-4-1.3.5-2.1 2-2.1 3.7 0 2.1 1.2 3.9 3 3.9 1.3 0 3.1-1.1 3.1-3.5 0-2.1-1.4-3.8-3.1-3.8-1.6.1-2.1 1.6-2.1 3.4zm5.2.5c0 1.5-.7 2.7-1.8 3.2.8-.5 1.1-1.5 1.1-2.8 0-1.6-.5-3.5-1.8-4.1 1.5.3 2.5 1.9 2.5 3.7zm1.6-3.6l.6-.5v.2l-.6.5v-.2zm3.5 7.5c1.8 0 2.7-1.3 2.7-3.4v-3.3c0-.8.2-1.1.6-1.2h-1.7c.3.1.5.5.5 1.2v3.5c0 1.8-.7 2.8-2.1 2.8-1.3 0-2-.9-2-2.8v-3.3c0-1-.4-1.2-.9-1.2h-.1l-.5.4c.5 0 .9.1.9 1.1v2.9c.1 2 .8 3.3 2.6 3.3zM42 40.4c0-1-.4-1.3-1-1.3V39h2.6v.2c-.6 0-1 .3-1 1.3v3c0 2.1.5 2.8 1.6 2.8.5 0 1-.2 1.3-.7-.3.6-.9 1-1.6 1-1.3 0-1.9-.9-1.9-2.7v-3.5zm.9-.7h-.2c.1-.3.4-.4.7-.4l-.5.4zm2.1-.5V39c.4 0 .7.3.8 1-.1-.6-.4-.8-.8-.8zm1.5.7c.1-.5.4-.7.9-.7V39c-.5 0-.8.2-.9.9zm1.8-.6v-.2l.2-.1v.2l-.2.1zm1 1.2c0-1-.4-1.1-.9-1.1l.2-.1h.1c.6 0 .9.3.9 1.3v4.7c0 1 .4 1.3 1 1.3v.2h-2.2v-.2c.6 0 1-.3 1-1.3v-4.8zm-.6 5.8c-.1 0-.2.1-.3.1h-.1l.1-.1h.3zm1.5-7.3l4 5.6v1.2l-4.4-6.2v5.6c0 1 .4 1.1.9 1.1l-.2.1h-.1c-.6 0-.9-.3-.9-1.3v-4.7c0-1-.4-1.3-1-1.3V39h1.7zm4.3 7.7h-.6l-4-5.6v-1.2l4.4 6.2v-5.6c0-1-.4-1.3-1-1.3V39h2.2v.2c-.6 0-1 .3-1 1.3v6.2zm-3.7-.4v.2l-.2.1v-.2l.2-.1zm2.7-7l-.1-.1s0 .1.1.1c0-.1.1 0 .2 0h-.2zm1.3 7.1l-.2.3v-6.2c0-1 .4-1.3.9-1.3h.1l.2.1c-.6 0-.9.1-.9 1.1v6zm.8-7.2V39l.2.1v.2l-.2-.1zm1.3 7.2v-1c.1.1.8 1 2.1 1 .6 0 1.2-.4 1.2-1.2 0-.8-.8-1.4-1.6-1.9-.6-.4-1.6-1.2-1.6-2.4 0-1 .5-1.7 1.3-1.9-.5.2-.9.8-.9 1.5 0 1.1.9 1.8 1.6 2.3.7.5 1.8 1.2 1.8 2.3 0 1.1-.7 1.8-1.9 1.8-1.2-.1-2-.5-2-.5zm.5-1.1c.3.5.6.8 1 1-.8-.2-1.1-.5-1.5-1h.5zm3.1-5.1c-.1-.2-.6-.9-1.4-.9-.5 0-1 .3-1 1s.8 1.3 1.4 1.8c.6.5 1.8 1.3 1.8 2.5 0 1-.6 1.8-1.4 2.1.6-.3 1-.8 1-1.7 0-1.1-1.1-1.9-1.8-2.4s-1.6-1.2-1.6-2.2c0-1 .6-1.6 1.5-1.6.8 0 1.4.5 1.6.6v.8zm0-.8c-.2-.2-.5-.4-.8-.5.5.1 1 .4 1.2.5h-.4zm.5.9h-.4v-.8h.4v.8zm3-1.1v3.6h1.6c.6 0 .9.3.9.8v.3h-.1c0-.5-.3-.8-.9-.8H64v3h2c.9 0 1.2-.7 1.3-1.1h.2l-.3 1.4h-4.4v-.2c.5 0 .7-.4.7-1.2v-4.4c0-.7-.2-1.3-1-1.3V39h4.9l.2 1.4h-.2c-.2-.4-.4-1.2-1.4-1.2h-2zm-1.6 7.2l.2-.2v.2l-.2.2v-.2zm0 .3l.2-.2H67l.2.2h-4.8zm.1-7.5c.3 0 .5.1.7.4H63l-.5-.4zm2.2 3.2l-.6.3v-3.4l.6.4v2.7zm0 3.6h-.6v-2.8h.6V46zm0-6.4l-.6-.3H66c.7 0 1.1.4 1.2 1.1l-.2.2c-.1-.4-.3-1-1.1-1h-1.2zm-.5 3.1l.5-.2h.8c.5 0 .8-.2.9-.6l.1-.1v.2c0 .5-.3.8-.9.8h-1.4zm2.3-1h.1v2l-.1.1v-.3c0-.4-.2-.7-.6-.8.4-.1.6-.4.6-.8v-.2zm.7-1H67l.2-.2h.2l-.2.2zm.5 4.5l-.3 1.4-.2-.2.3-1.4.2.2zm1-5.8l.6-.5v.2l-.6.5v-.2zm0 7.3v-.2c.6 0 1-.3 1-1.3v-4.4c0-1-.3-1.1-.9-1.1l.5-.4h.1c.5 0 .9.2.9 1.2v5.9h2.3c1 0 1.3-.9 1.4-1.3h.2l-.4 1.6h-5.1zm.6-.7h.2c-.1.3-.4.4-.7.4l.5-.4zm1 .3v-5.8c0-1-.4-1.3-1-1.3V39h2.6v.2c-.6 0-1 .3-1 1.3v5.4l-.6.4zm2.3-.4c.7 0 1-.7 1.1-1l.2.2c-.1.4-.4 1.2-1.3 1.2h-2.1l.6-.4h1.5zm-1.3-6.2h-.2c.1-.3.4-.4.7-.4l-.5.4zm2.6 5.3l-.2-.2h.2l.2.2h-.2zm1-5.6l.6-.5v.2l-.6.5v-.2zm0 7.3v-.2c.6 0 1-.3 1-1.3v-4.4c0-1-.3-1.1-.9-1.1l.5-.4h.1c.5 0 .9.2.9 1.2v5.9h2.3c1 0 1.3-.9 1.4-1.3h.2l-.4 1.6h-5.1zm.5-.7h.2c-.1.3-.4.4-.7.4l.5-.4zm1.1.3v-5.8c0-1-.4-1.3-1-1.3V39h2.6v.2c-.6 0-1 .3-1 1.3v5.4l-.6.4zm2.2-.4c.7 0 1-.7 1.1-1l.2.1c-.1.4-.4 1.2-1.3 1.2h-2.1l.6-.4h1.5zm-1.2-6.2h-.2c.1-.3.4-.4.7-.4l-.5.4zm2.6 5.3l-.2-.2h.2l.2.2h-.2zm1-5.6l.6-.5v.2l-.6.5v-.2zm.9 1.4c0-1-.3-1.1-.9-1.1l.5-.4h.1c.5 0 .9.2.9 1.2v4.7c0 1 .4 1.3 1 1.3v.2H81v-.2c.6 0 1-.3 1-1.3v-4.4zm-.3 5.2h.2c-.1.3-.4.4-.7.4l.5-.4zm1-5.6c0-1-.4-1.3-1-1.3V39h2.6v.2c-.6 0-1 .3-1 1.3v4.4c0 1 .3 1.1.9 1.1l-.5.4h-.1c-.5 0-.9-.2-.9-1.2v-4.8zm1-.7h-.2c.1-.3.4-.4.7-.4l-.5.4zm.6 6.5l-.6.5v-.2l.6-.5v.2zm1.2-6.9v-.2l.2-.1v.2l-.2.1zm1 1.2c0-1-.4-1.1-.9-1.1l.2-.1h.1c.6 0 .9.3.9 1.3v4.7c0 1 .4 1.3 1 1.3v.2h-2.2v-.2c.6 0 1-.3 1-1.3v-4.8zm-.6 5.8c-.1 0-.2.1-.3.1h-.1l.1-.1h.3zm1.5-7.3l4 5.6v1.2L87 39.5v5.6c0 1 .4 1.1.9 1.1l-.2.1h-.1c-.6 0-.9-.3-.9-1.3v-4.7c0-1-.4-1.3-1-1.3h1.7zm4.3 7.7h-.6l-4-5.6v-1.2l4.4 6.2v-5.6c0-1-.4-1.3-1-1.3V39h2.2v.2c-.6 0-1 .3-1 1.3v6.2zm-3.7-.4v.2l-.2.1v-.2l.2-.1zm2.7-7l-.1-.1s0 .1.1.1c0-.1.1 0 .2 0h-.2zm1.3 7.1l-.2.3v-6.2c0-1 .4-1.3.9-1.3h.1l.2.1c-.6 0-.9.1-.9 1.1v6zm.8-7.2V39l.2.1v.2l-.2-.1zm6.4 7.3c-.5.2-1.1.4-1.8.4-1.9 0-3.7-1.6-3.7-4.1 0-2.4 1.6-3.8 3-4.1-1.2.4-2.4 1.7-2.4 3.8 0 2.6 1.7 3.9 3.2 3.9.6 0 .9-.1 1.1-.2v-.9c0-1-.3-1.1-.9-1.1l.4-.4c.6 0 1 .2 1 1.2v1.5zm-4-3.9c0 2 .8 3.4 1.9 3.7-1.5-.3-2.7-1.6-2.7-3.8 0-2.3 1.5-3.8 3.1-3.8 1.3 0 2 .5 2.3.6v.8c-.2-.2-.9-1-2.2-1-1.2.1-2.4 1.2-2.4 3.5zm2.5 1.3l.5-.5v.2l-.5.5v-.2zm1.4-3.6c-.3-.5-.6-.8-1.1-1 .7.1 1.3.5 1.7 1h-.6zm.7 5.8c-.2.1-.3.2-.5.4V45c0-1-.5-1.3-1.1-1.3v-.2h2.5v.2c-.6 0-.9.3-.9 1.3v1.1zm.4-1.9h-.2c.1-.3.3-.4.6-.4l-.4.4zm5.6-2.4l-.9-1.6c-.3-.7-.6-.9-1.1-.9v-.1h.2c.6 0 1 .4 1.5 1.3l.7 1.3h-.4zm3.1-1.7c-.1-.3-.3-.9-1.1-.9h-2l2.8 5.3c-.1.3-.3.6-.5.8l-2.7-4.9c-.5-.9-.9-1.3-1.5-1.3h-.2l.1-.1h5l.1 1.2zm-4.4 4.4c0 1.1.6 2 1.4 2.3-1.2-.2-2-1.1-2-2.4 0-1.6 1.2-2.4 2.3-2.7-1 .7-1.7 1.6-1.7 2.8zm1.6-2.1c-.5.4-.9 1.1-.9 1.9 0 .9.7 1.9 1.6 1.9 1.4 0 2.2-1.7 2.2-2.7 0-.5-.3-.8-.6-.8v-.1h2.1v.1c-.6 0-.7.4-.9.9-.2.5-1.2 3.3-3 3.3-1.1 0-1.9-1.2-1.9-2.3 0-1.3.7-2.1 1.7-2.7l-.3.5zm2.7-2.2c-.1-.2-.3-.7-.9-.7h-1.8l-.1-.2h1.9c.7 0 .9.6.9.9zm-.6 5.2l-.3.3-1.8-3.2.2-.5 1.9 3.4zm.2.5l.1-.1c.3.4.7.8 1.2.8s.9-.3 1.1-.7c-.1.3-.6 1.1-1.4 1.1-.6 0-.9-.3-1.3-.8l.3-.3zm-.1-3v-.1c.2 0 .4.1.5.3-.1-.2-.2-.2-.5-.2zM110 46c.3 0 .5-.3.6-.5l.2.2c-.2.3-.6.7-1.1.7s-.8-.3-1.2-.8c.3-.4.4-.6.5-.7.4.8.6 1.1 1 1.1zm-.9-5.8l-.2.1.1-.1h.1zm1.3 2.7c-.3 0-.4.1-.6.2.1-.2.3-.3.6-.3v.1zm3.8.2c0 2.2 1.1 3.5 2.6 3.8-1.6-.3-3.2-1.9-3.2-4.1 0-2.6 1.8-4.1 3.5-4.1 1.1 0 1.7.5 1.9.7v.7c-.2-.2-.8-1-1.9-1-1.3.1-2.9 1.5-2.9 4zm5.7 2.1l.2.6c-.2.2-1.1 1.2-2.6 1.2-1.7 0-3.3-1.4-3.3-3.8 0-2.2 1.2-3.5 2.5-3.8-.8.3-1.7 1.4-1.7 3.3 0 2.3 1.2 3.9 2.6 3.9 1.2-.2 2-1.1 2.3-1.4zm-.3-5.9h-.6c-.4-.3-.7-.5-1.1-.6 1 .2 1.6.5 1.7.6zm-.3 5.8h.5c-.3.4-.8.8-1.3 1 .5-.3.7-.7.8-1zm.4-5.7v.7h-.6v-.7h.6zm2.7 3.1c0 1.5.6 3.4 1.9 3.8-1.6-.2-2.6-1.9-2.6-3.8 0-2.1 1.2-3.8 2.9-3.8 2.2 0 3.7 1.8 3.7 4.1s-1.5 4.1-3.7 4.1-3.7-1.8-3.7-4.1c0-1.9 1.1-3.5 2.7-4-1.3.5-2.1 2-2.1 3.7 0 2.1 1.2 3.9 3 3.9 1.3 0 3.1-1.1 3.1-3.5 0-2.1-1.4-3.8-3.1-3.8-1.6.1-2.1 1.6-2.1 3.4zm5.2.5c0 1.5-.7 2.7-1.8 3.2.8-.5 1.1-1.5 1.1-2.8 0-1.6-.5-3.5-1.8-4.1 1.5.3 2.5 1.9 2.5 3.7zm1.6-3.7v-.2l.2-.1v.2l-.2.1zm.9 1.2c0-1-.4-1.1-.9-1.1l.2-.1h.1c.6 0 .9.3.9 1.3v4.7c0 1 .4 1.3 1 1.3v.2h-2.2v-.2c.6 0 1-.3 1-1.3v-4.8zm-.5 5.8c-.1 0-.2.1-.3.1h-.1l.1-.1h.3zM131 39l4 5.6v1.2l-4.4-6.2v5.6c0 1 .4 1.1.9 1.1l-.2.1h-.1c-.6 0-.9-.3-.9-1.3v-4.7c0-1-.4-1.3-1-1.3V39h1.7zm4.4 7.7h-.6l-4-5.6v-1.2l4.4 6.2v-5.6c0-1-.4-1.3-1-1.3V39h2.2v.2c-.6 0-1 .3-1 1.3v6.2zm-3.8-.4v.2l-.2.1v-.2l.2-.1zm2.8-7l-.1-.1s0 .1.1.1c0-.1.1 0 .2 0h-.2zm1.3 7.1l-.2.3v-6.2c0-1 .4-1.3.9-1.3h.1l.2.1c-.6 0-.9.1-.9 1.1v6zm.8-7.2V39l.2.1v.2l-.2-.1zm1.2 7.2v-1c.1.1.8 1 2.1 1 .6 0 1.2-.4 1.2-1.2 0-.8-.8-1.4-1.6-1.9-.6-.4-1.6-1.2-1.6-2.4 0-1 .5-1.7 1.3-1.9-.5.2-.9.8-.9 1.5 0 1.1.9 1.8 1.6 2.3.7.5 1.8 1.2 1.8 2.3 0 1.1-.7 1.8-1.9 1.8-1.1-.1-2-.5-2-.5zm.6-1.1c.3.5.6.8 1 1-.8-.2-1.1-.5-1.5-1h.5zm3-5.1c-.1-.2-.6-.9-1.4-.9-.5 0-1 .3-1 1s.8 1.3 1.4 1.8c.6.5 1.8 1.3 1.8 2.5 0 1-.6 1.8-1.4 2.1.6-.3 1-.8 1-1.7 0-1.1-1.1-1.9-1.8-2.4s-1.6-1.2-1.6-2.2c0-1 .6-1.6 1.5-1.6.8 0 1.4.5 1.6.6v.8zm.1-.8c-.2-.2-.5-.4-.8-.5.5.1 1 .4 1.2.5h-.4zm.4.9h-.4v-.8h.4v.8zm1.3-.9l.6-.5v.2l-.6.5v-.2zm3.4 7.5c1.8 0 2.7-1.3 2.7-3.4v-3.3c0-.8.2-1.1.6-1.2h-1.7c.3.1.5.5.5 1.2v3.5c0 1.8-.7 2.8-2.1 2.8-1.3 0-2-.9-2-2.8v-3.3c0-1-.4-1.2-.9-1.2h-.1l-.5.4c.5 0 .9.1.9 1.1v2.9c.1 2 .9 3.3 2.6 3.3zm-1.8-6.5c0-1-.4-1.3-1-1.3V39h2.6v.2c-.6 0-1 .3-1 1.3v3c0 2.1.5 2.8 1.6 2.8.5 0 1-.2 1.3-.7-.3.6-.9 1-1.6 1-1.3 0-1.9-.9-1.9-2.7v-3.5zm1-.7h-.2c.1-.3.4-.4.7-.4l-.5.4zm2.1-.5V39c.4 0 .7.3.8 1-.2-.6-.5-.8-.8-.8zm1.5.7c.1-.5.4-.7.9-.7V39c-.5 0-.8.2-.9.9zm1.8-.5l.6-.5v.2l-.6.5v-.2zm0 7.3v-.2c.6 0 1-.3 1-1.3v-4.4c0-1-.3-1.1-.9-1.1l.5-.4h.1c.5 0 .9.2.9 1.2v5.9h2.3c1 0 1.3-.9 1.4-1.3h.2l-.4 1.6h-5.1zm.6-.7h.2c-.1.3-.4.4-.7.4l.5-.4zm1 .3v-5.8c0-1-.4-1.3-1-1.3V39h2.6v.2c-.6 0-1 .3-1 1.3v5.4l-.6.4zm2.3-.4c.7 0 1-.7 1.1-1l.2.2c-.1.4-.4 1.2-1.3 1.2h-2.1l.6-.4h1.5zm-1.3-6.2h-.2c.1-.3.4-.4.7-.4l-.5.4zm2.6 5.3l-.2-.2h.2l.2.2h-.2zm1.8-5.8c-1.1 0-1.4.6-1.5 1.2h-.2l.2-1.4h5.7l-.2.3h-4zm-1.5 1.3l.2.2h-.2l-.2-.2h.2zm0-.1c.1-.5.4-1.1 1.4-1.1h1.2l-.6.3h-.6c-.9 0-1.1.7-1.2 1.1l-.2-.3zm1.7 6v.2l-.6-.5V46l.6.4zm.4-6.7l.6-.3v5.8c0 1-.4 1.2-.9 1.2h-.1l-.5-.4c.5 0 .9-.1.9-1.1v-5.2zm.7-.3l.6.3v5.5c0 1 .4 1.3 1 1.3v.2h-2.6v-.2c.6 0 1-.2 1-1.3v-5.8zm2.6-.1l.2 1.4h-.2c0-.4-.2-1.1-1.2-1.1h-.7l-.6-.3h2.5zm-1.8 6.6h.2l.5.4c-.3.1-.5-.1-.7-.4zm2-6.9l.2 1.4-.2.3-.2-1.4.2-.3zm.9.4l.6-.5v.2l-.6.5v-.2zm1 1.4c0-1-.3-1.1-.9-1.1l.5-.4h.1c.5 0 .9.2.9 1.2v4.7c0 1 .4 1.3 1 1.3v.2h-2.6v-.2c.6 0 1-.3 1-1.3v-4.4zm-.4 5.2h.2c-.1.3-.4.4-.7.4l.5-.4zm1.1-5.6c0-1-.4-1.3-1-1.3V39h2.6v.2c-.6 0-1 .3-1 1.3v4.4c0 1 .3 1.1.9 1.1l-.5.4h-.1c-.5 0-.9-.2-.9-1.2v-4.8zm1-.7h-.2c.1-.3.4-.4.7-.4l-.5.4zm.6 6.5l-.6.5v-.2l.6-.5v.2zm1.2-6.9v-.2l.2-.1v.2l-.2.1zm.9 1.2c0-1-.4-1.1-.9-1.1l.2-.1h.1c.6 0 .9.3.9 1.3v4.7c0 1 .4 1.3 1 1.3v.2h-2.2v-.2c.6 0 1-.3 1-1.3v-4.8zm-.5 5.8c-.1 0-.2.1-.3.1h-.1l.1-.1h.3zm1.4-7.3l4 5.6v1.2l-4.4-6.2v5.6c0 1 .4 1.1.9 1.1l-.2.1h-.1c-.6 0-.9-.3-.9-1.3v-4.7c0-1-.4-1.3-1-1.3V39h1.7zm4.4 7.7h-.6l-4-5.6v-1.2l4.4 6.2v-5.6c0-1-.4-1.3-1-1.3V39h2.2v.2c-.6 0-1 .3-1 1.3v6.2zm-3.8-.4v.2l-.2.1v-.2l.2-.1zm2.8-7l-.1-.1s0 .1.1.1c0-.1.1 0 .2 0h-.2zm1.3 7.1l-.2.3v-6.2c0-1 .4-1.3.9-1.3h.1l.2.1c-.6 0-.9.1-.9 1.1v6zm.8-7.2V39l.2.1v.2l-.2-.1zm6.3 7.3c-.5.2-1.1.4-1.8.4-1.9 0-3.7-1.6-3.7-4.1 0-2.4 1.6-3.8 3-4.1-1.2.4-2.4 1.7-2.4 3.8 0 2.6 1.7 3.9 3.2 3.9.6 0 .9-.1 1.1-.2v-.9c0-1-.3-1.1-.9-1.1l.4-.4c.6 0 1 .2 1 1.2v1.5zm-3.9-3.9c0 2 .8 3.4 1.9 3.7-1.5-.3-2.7-1.6-2.7-3.8 0-2.3 1.5-3.8 3.1-3.8 1.3 0 2 .5 2.3.6v.8c-.2-.2-.9-1-2.2-1-1.2.1-2.4 1.2-2.4 3.5zm2.4 1.3l.5-.5v.2l-.5.5v-.2zm1.5-3.6c-.3-.5-.6-.8-1.1-1 .7.1 1.3.5 1.7 1h-.6zm.7 5.8c-.2.1-.3.2-.5.4V45c0-1-.5-1.3-1.1-1.3v-.2h2.5v.2c-.6 0-.9.3-.9 1.3v1.1zm.3-1.9h-.2c.1-.3.3-.4.6-.4l-.4.4z" fill="#94618e"/></svg>